<svg height="153.057" viewBox="0 0 553.322 153.057" width="553.322" xmlns="http://www.w3.org/2000/svg"><g transform="translate(-99.886 -3795.276)"><g fill="#004272"><path d="m108.107 3806.2c-1.5.12-3.03.241-5.039.241-.51 0-.66-.18-.72-.63-.09-.571-.21-1.56-.33-2.61a15.463 15.463 0 0 0 2.339.15c1.26 0 2.55-.12 3.81-.241 0-.989.03-2.129.03-3.419a11.089 11.089 0 0 0 -.21-2.43 17 17 0 0 1 3.57.54c.36.09.6.3.6.57a1.063 1.063 0 0 1 -.18.48 3.672 3.672 0 0 0 -.42 1.17c-.09.78-.12 1.53-.15 2.49a29.429 29.429 0 0 0 3.84-1.11c.27-.09.48-.03.51.27a15.079 15.079 0 0 1 .18 2.34c0 .3-.09.39-.39.479a30.451 30.451 0 0 1 -4.29 1.141c-.03 1.439-.03 2.909-.06 4.35a18.934 18.934 0 0 1 7.38-1.651c3.72.03 6.39 2.4 6.39 6 0 3.84-2.46 6.09-6.51 6.09a11.7 11.7 0 0 1 -2.46-.269.805.805 0 0 1 -.66-.9 5.241 5.241 0 0 0 -.9-2.55 11.191 11.191 0 0 0 3.75.54 2.977 2.977 0 0 0 3.24-3.089c0-1.951-1.2-3.031-3.3-3.031a14.835 14.835 0 0 0 -6.87 2.04c.03 1.26.06 2.281.12 3.6.09 1.32.24 3.21.24 3.9 0 .42.06.87-.45.991a12.26 12.26 0 0 1 -2.22.359c-.33.03-.45-.21-.72-.6a18.457 18.457 0 0 0 -4.259-3.84 5.4 5.4 0 0 0 -.96.661.758.758 0 0 1 -.51.21.843.843 0 0 1 -.66-.481c-.33-.54-.93-1.8-1.38-2.79a11.073 11.073 0 0 0 2.76-1.05c1.29-.719 2.7-1.53 4.889-2.79zm-2.79 10.321a30.748 30.748 0 0 0 2.82 1.349c.24.06.33.031.3-.24-.06-.779-.12-2.159-.18-3.149-.84.564-1.857 1.254-2.94 2.035zm14.34-15.75c.21-.33.3-.42.51-.36a14.27 14.27 0 0 1 6.36 3.659c.12.121.18.21.18.3a.779.779 0 0 1 -.12.3c-.39.6-1.17 1.529-1.62 2.13-.09.12-.51.149-.6 0a13.85 13.85 0 0 0 -6.09-3.691 18.456 18.456 0 0 1 1.38-2.343z"/><path d="m136.817 3799.056c-2.909 0-3.9.06-4.079.06-.33 0-.36-.03-.36-.33v-1.95c0-.3.03-.33.36-.33.18 0 1.17.06 4.079.06h13.44c2.94 0 3.93-.06 4.11-.06.3 0 .33.03.33.33v1.95c0 .3-.03.33-.33.33-.18 0-1.17-.06-4.11-.06h-5.43v1.2h7.35c2.76 0 3.72-.06 3.93-.06.3 0 .33.03.33.33 0 .18-.06.72-.06 1.5v1.56c0 2.4.06 2.88.06 3.06 0 .3-.03.33-.33.33h-2.34c-.3 0-.33-.031-.33-.33v-4.11h-8.61v2.55c0 1.979.06 2.819.06 3 0 .269-.03.3-.33.3h-2.457c-.3 0-.33-.031-.33-.3 0-.181.06-1.08.06-3v-2.55h-8.309v4.11c0 .3-.031.33-.33.33h-2.34c-.27 0-.3-.031-.3-.33 0-.21.03-.661.03-3.06v-1.32c0-1.02-.03-1.56-.03-1.74 0-.3.03-.33.3-.33.21 0 1.17.06 3.929.06h7.05v-1.2zm11.7 9.99c3.03 0 4.5-.061 4.71-.061.3 0 .33.031.33.361 0 .179-.06.78-.06 2.729v3.42c0 1.74.06 2.55.06 2.731 0 .3-.03.33-.33.33-.21 0-1.68-.061-4.71-.061h-3.81v.45c0 .81.18.93.57 1.05a24.936 24.936 0 0 0 3.99.18c2.61 0 3.81-.15 4.41-.63.48-.39.66-.72.75-3.029a10.246 10.246 0 0 0 2.13.87c.78.21.78.239.72 1.05-.24 1.949-.78 2.879-1.71 3.479-.96.6-2.64.93-6.24.93a22.681 22.681 0 0 1 -6-.48c-.93-.33-1.53-.96-1.53-2.76v-1.11h-5.52v1.231c0 .3-.03.329-.33.329h-2.369c-.27 0-.3-.03-.3-.329 0-.21.06-.931.06-2.761v-4.829c0-1.8-.06-2.611-.06-2.79 0-.33.03-.361.3-.361.21 0 1.649.061 4.5.061zm-10.14-5.46c1.2 0 1.5-.03 1.68-.03.3 0 .33.03.33.27v1.2c0 .181-.03.21-.33.21-.18 0-.48-.029-1.68-.029h-1.44c-1.2 0-1.5.029-1.68.029-.3 0-.33-.029-.33-.239v-1.2c0-.21.03-.24.33-.24.18 0 .48.03 1.68.03zm0 2.64c1.2 0 1.5-.031 1.68-.031.3 0 .33.031.33.271v1.139c0 .241-.03.271-.33.271-.18 0-.48-.03-1.68-.03h-1.44c-1.2 0-1.5.03-1.68.03-.3 0-.33-.03-.33-.271v-1.169c0-.21.03-.241.33-.241.18 0 .48.031 1.68.031zm3.42 6.479v-1.5h-5.52v1.5zm0 3.63v-1.56h-5.52v1.56zm2.91-5.13v1.5h5.82v-1.5zm5.82 3.57h-5.82v1.56h5.82zm-.66-11.25c1.29 0 1.59-.029 1.77-.029.3 0 .33.029.33.27v1.17c0 .24-.03.27-.33.27-.18 0-.48-.06-1.77-.06h-1.467c-1.29 0-1.59.06-1.77.06-.3 0-.33-.03-.33-.3v-1.17c0-.21.03-.239.33-.239.18 0 .48.029 1.77.029zm0 2.641c1.29 0 1.59-.03 1.77-.03.3 0 .33.03.33.269v1.17c0 .211-.03.24-.33.24-.18 0-.48-.029-1.77-.029h-1.467c-1.29 0-1.59.029-1.77.029-.3 0-.33-.029-.33-.24v-1.2c0-.21.03-.24.33-.24.18 0 .48.03 1.77.03z"/><path d="m167.567 3800.916c2.28 0 3.03-.061 3.21-.061.3 0 .33.031.33.331v2.129c0 .331-.03.361-.33.361-.18 0-.93-.06-3.21-.06h-4.109c-2.28 0-3.03.06-3.21.06-.27 0-.3-.03-.3-.361v-2.129c0-.3.03-.331.3-.331.18 0 .93.061 3.21.061zm2.61 17.039c0 3.481.06 4.14.06 4.32 0 .3-.03.33-.33.33h-2.19c-.3 0-.33-.03-.33-.33v-.81h-3.33v1.38c0 .27-.029.3-.33.3h-2.189c-.33 0-.36-.031-.36-.3 0-.21.06-.9.06-4.53v-2.009c0-1.891-.06-2.611-.06-2.821 0-.3.03-.33.36-.33.18 0 .81.061 2.73.061h2.879c1.95 0 2.55-.061 2.76-.061.3 0 .33.031.33.33 0 .18-.06.9-.06 2.31zm-2.94-21.149c1.92 0 2.52-.06 2.7-.06.33 0 .36.03.36.33v1.98c0 .3-.03.33-.36.33-.18 0-.78-.06-2.7-.06h-2.88c-1.949 0-2.549.06-2.729.06-.3 0-.33-.03-.33-.33v-1.98c0-.3.03-.33.33-.33.18 0 .78.06 2.729.06zm-.24 8.34c1.83 0 2.34-.06 2.52-.06.33 0 .36.03.36.33v1.949c0 .3-.03.33-.36.33-.18 0-.69-.059-2.52-.059h-2.55c-1.829 0-2.369.059-2.549.059-.3 0-.33-.029-.33-.33v-1.949c0-.3.03-.33.33-.33.18 0 .72.06 2.549.06zm0 4.02c1.83 0 2.34-.061 2.52-.061.33 0 .36.031.36.331v1.919c0 .3-.03.331-.36.331-.18 0-.69-.06-2.52-.06h-2.55c-1.829 0-2.369.06-2.549.06-.3 0-.33-.031-.33-.331v-1.919c0-.3.03-.331.33-.331.18 0 .72.061 2.549.061zm-2.94 6.539v3.3h3.33v-3.3zm11.34-8.069c-2.79 0-3.72.059-3.9.059-.3 0-.33-.029-.33-.33v-2.279c0-.271.03-.3.33-.3.18 0 1.11.06 3.9.06h1.95v-3.991q-2.025.361-4.14.631c-.72.09-.72.06-.96-.66a5.6 5.6 0 0 0 -1.05-2.04 42.757 42.757 0 0 0 11.37-2.28 6.623 6.623 0 0 0 1.53-.75 21.391 21.391 0 0 1 1.8 2.16.811.811 0 0 1 .21.51c0 .21-.18.33-.6.33a4.77 4.77 0 0 0 -1.17.24c-1.2.42-2.49.81-3.84 1.14v4.71h2.46c2.79 0 3.75-.06 3.93-.06.3 0 .33.029.33.3v2.279c0 .3-.03.33-.33.33-.18 0-1.14-.059-3.93-.059h-2.457v4.05h1.26c2.52 0 3.42-.06 3.6-.06.3 0 .33.029.33.329 0 .181-.06 1.021-.06 2.941v2.7c0 4.109.06 4.889.06 5.069 0 .27-.03.3-.33.3h-2.46c-.3 0-.33-.03-.33-.3v-1.08h-7.14v1.23c0 .27-.03.3-.33.3h-2.46c-.3 0-.33-.03-.33-.3 0-.21.06-.99.06-5.129v-2.34c0-2.37-.06-3.21-.06-3.391 0-.3.03-.329.33-.329.21 0 1.08.06 3.6.06h1.11v-4.05zm.03 11.279h7.14v-4.529h-7.14z"/><path d="m205.307 3802.746c-3.66.69-6.87 1.319-10.08 1.98-1.14.27-1.439.33-1.889.48a1.752 1.752 0 0 1 -.66.239.7.7 0 0 1 -.57-.449 20.912 20.912 0 0 1 -1.11-3.24 41.4 41.4 0 0 0 4.769-.51c3.69-.54 10.29-1.53 18.03-2.55.45-.06.6.12.63.33a17.143 17.143 0 0 1 .33 2.64c0 .36-.18.45-.57.45a13.391 13.391 0 0 0 -3.66.659c-5.1 1.741-7.65 5.25-7.65 8.851 0 3.869 2.76 5.97 7.98 6.3.48 0 .66.12.66.45a10.672 10.672 0 0 1 -.33 2.58c-.09.45-.21.63-.57.63-5.28 0-11.07-3.029-11.07-9.27 0-4.259 2.13-7.139 5.76-9.509zm5.94 3.239c.15-.119.27-.089.45.061a13.813 13.813 0 0 1 2.85 3.21.3.3 0 0 1 -.09.479l-1.26.93a.313.313 0 0 1 -.51-.09 14.882 14.882 0 0 0 -3.03-3.479zm2.67-1.949c.18-.12.27-.09.45.06a12.529 12.529 0 0 1 2.85 3.09.347.347 0 0 1 -.09.54l-1.2.929a.307.307 0 0 1 -.51-.09 14.188 14.188 0 0 0 -3-3.449z"/><path d="m235.4 3802.355c-.69 5.1-1.95 9.781-3.75 12.93-1.29 2.25-2.85 3.45-5.1 3.45-2.639 0-5.309-2.82-5.309-7.71a11.052 11.052 0 0 1 3.39-7.8 13.124 13.124 0 0 1 9.749-3.84c7.2 0 11.43 4.44 11.43 10.41 0 5.579-3.15 9.089-9.24 10.919-.63.181-.9.06-1.29-.54a6.375 6.375 0 0 0 -2.1-1.89c5.07-1.2 9.06-3.3 9.06-8.97a6.815 6.815 0 0 0 -6.72-6.96zm-8.61 2.911a8.638 8.638 0 0 0 -2.34 5.549c0 2.76 1.11 4.29 2.04 4.29.78 0 1.44-.389 2.25-1.83a34.269 34.269 0 0 0 3.18-10.739 9.035 9.035 0 0 0 -5.133 2.73z"/><path d="m258.107 3806.2c-1.5.12-3.03.241-5.039.241-.51 0-.66-.18-.72-.63-.09-.571-.21-1.56-.33-2.61a15.463 15.463 0 0 0 2.339.15c1.26 0 2.55-.12 3.81-.241 0-.989.03-2.129.03-3.419a11.09 11.09 0 0 0 -.21-2.43 17 17 0 0 1 3.57.54c.36.09.6.3.6.57a1.063 1.063 0 0 1 -.18.48 3.673 3.673 0 0 0 -.42 1.17c-.09.78-.12 1.53-.15 2.49a29.43 29.43 0 0 0 3.84-1.11c.27-.09.48-.03.51.27a15.076 15.076 0 0 1 .18 2.34c0 .3-.09.39-.39.479a30.451 30.451 0 0 1 -4.29 1.141c-.03 1.439-.03 2.909-.06 4.35a18.934 18.934 0 0 1 7.38-1.651c3.72.03 6.39 2.4 6.39 6 0 3.84-2.46 6.09-6.51 6.09a11.7 11.7 0 0 1 -2.46-.269.805.805 0 0 1 -.66-.9 5.241 5.241 0 0 0 -.9-2.55 11.191 11.191 0 0 0 3.75.54 2.977 2.977 0 0 0 3.24-3.089c0-1.951-1.2-3.031-3.3-3.031a14.835 14.835 0 0 0 -6.87 2.04c.03 1.26.06 2.281.12 3.6.09 1.32.24 3.21.24 3.9 0 .42.06.87-.45.991a12.26 12.26 0 0 1 -2.22.359c-.33.03-.45-.21-.72-.6a18.444 18.444 0 0 0 -4.26-3.84 5.429 5.429 0 0 0 -.959.661.758.758 0 0 1 -.51.21.843.843 0 0 1 -.66-.481c-.33-.54-.93-1.8-1.38-2.79a11.073 11.073 0 0 0 2.76-1.05c1.29-.719 2.7-1.53 4.889-2.79zm-2.79 10.321a30.751 30.751 0 0 0 2.82 1.349c.24.06.33.031.3-.24-.06-.779-.12-2.159-.18-3.149-.84.564-1.857 1.254-2.94 2.035zm14.34-15.75c.21-.33.3-.42.51-.36a14.27 14.27 0 0 1 6.36 3.659c.12.121.18.21.18.3a.779.779 0 0 1 -.12.3c-.39.6-1.17 1.529-1.62 2.13-.09.12-.51.149-.6 0a13.85 13.85 0 0 0 -6.09-3.691 18.453 18.453 0 0 1 1.38-2.343z"/><path d="m289.037 3796.626c1.95 0 2.82-.06 3-.06.27 0 .3.03.3.33 0 .18-.06 1.08-.06 2.97v3.9c0 1.86.06 2.759.06 2.94 0 .3-.03.33-.3.33-.18 0-1.05-.06-3-.06h-4.8v9.359c0 4.141.06 6.18.06 6.39 0 .3-.029.33-.33.33h-2.549c-.3 0-.33-.03-.33-.33 0-.21.06-2.249.06-6.39v-12.989c0-4.14-.06-6.24-.06-6.45 0-.3.03-.33.33-.33.21 0 1.32.06 3.509.06zm-4.8 2.28v1.77h5.1v-1.77zm5.1 3.84h-5.1v2.04h5.1zm-1.08 17.459c-.3 0-.33 0-.33-.3 0-.179.06-.929.06-4.889v-2.161c0-2.19-.06-2.969-.06-3.179 0-.3.03-.33.33-.33.21 0 .93.059 3.18.059h3.93c2.25 0 2.97-.059 3.18-.059.3 0 .33.03.33.33 0 .179-.06.96-.06 2.609v2.311c0 3.779.06 4.5.06 4.679 0 .33-.03.36-.33.36h-2.19c-.33 0-.36-.03-.36-.36v-.99h-5.19v1.62c0 .3-.03.3-.36.3zm2.55-4.47h5.193v-3.78h-5.19zm15.12-2.549c0 2.1.12 4.5.12 5.969 0 1.44-.18 2.13-.87 2.76-.66.6-1.5.81-4.17.81-.96 0-.96.03-1.14-.93a8.413 8.413 0 0 0 -.69-2.22 17.568 17.568 0 0 0 2.43.151c.99 0 1.23-.271 1.23-1.17v-11.58h-4.8c-2.34 0-3.12.06-3.3.06-.33 0-.36-.03-.36-.33 0-.21.06-.9.06-2.7v-4.38c0-1.8-.06-2.52-.06-2.73 0-.3.03-.33.36-.33.18 0 .96.06 3.3.06h4.32c2.31 0 3.12-.06 3.3-.06.3 0 .33.03.33.33 0 .18-.06 1.44-.06 3.99zm-8.55-14.28v1.77h5.46v-1.77zm5.46 5.88v-2.04h-5.46v2.04z"/><path d="m315.8 3800.886c.27.12.48.33.48.54a2.62 2.62 0 0 1 -.24.84 13.478 13.478 0 0 0 -.27 2.94 37.786 37.786 0 0 0 .54 6.84c.42 2.369 1.2 4.409 2.46 4.409.96 0 1.71-1.05 2.88-4.17a11.507 11.507 0 0 0 1.92 2.311.917.917 0 0 1 .21 1.109c-1.14 3.061-3 4.68-5.1 4.68-2.34 0-4.8-2.76-5.609-7.829a54.389 54.389 0 0 1 -.72-8.73 16.081 16.081 0 0 0 -.36-3.93 12.977 12.977 0 0 1 3.809.99zm13.92 1.889a.907.907 0 0 1 .33-.119.462.462 0 0 1 .33.18 19.838 19.838 0 0 1 5.88 10.26c.09.389-.09.509-.33.66a10.138 10.138 0 0 1 -2.34 1.2c-.36.12-.57.03-.63-.33a20.214 20.214 0 0 0 -5.61-10.469c1.137-.721 1.887-1.141 2.367-1.382z"/><path d="m347.477 3805.506a37.161 37.161 0 0 1 -5.549 3.54 2.173 2.173 0 0 1 -.69.3c-.21 0-.33-.21-.57-.75a7.271 7.271 0 0 0 -1.41-2.01 26.713 26.713 0 0 0 11.549-9.18 9.387 9.387 0 0 0 1.17-2.13c1.17.18 2.28.36 3.15.57.36.12.54.21.54.48a.51.51 0 0 1 -.3.45.809.809 0 0 0 -.24.21 27.073 27.073 0 0 0 12.81 9.15 7.963 7.963 0 0 0 -1.26 2.28c-.18.569-.3.779-.54.779a1.808 1.808 0 0 1 -.72-.269 32.671 32.671 0 0 1 -5.85-3.361v2.1c0 .3-.03.33-.33.33-.18 0-.99-.06-3.39-.06h-4.647c-2.4 0-3.18.06-3.39.06-.3 0-.33-.03-.33-.33zm-2.849 17.494c-.3 0-.331-.03-.331-.33 0-.18.06-.99.06-5.34v-2.58c0-2.58-.06-3.449-.06-3.63 0-.3.03-.33.331-.33.179 0 1.229.061 4.109.061h9.6c2.88 0 3.93-.061 4.11-.061.33 0 .36.03.36.33 0 .181-.06 1.05-.06 3.18v2.94c0 4.32.06 5.13.06 5.28 0 .3-.03.33-.36.33h-2.547c-.3 0-.33-.03-.33-.33v-.99h-12.03v1.14c0 .3-.03.33-.36.33zm2.909-4.2h12.03v-5.22h-12.03zm8.31-13.649c1.77 0 2.67-.03 3.09-.03a26.83 26.83 0 0 1 -5.52-5.7 29.655 29.655 0 0 1 -5.46 5.67c.36.03 1.2.06 3.24.06z"/><path d="m380.057 3807.246c2.7-2.221 5.46-3.511 8.61-3.511 4.53 0 7.47 3.09 7.47 7.62 0 4.621-2.82 7.8-7.98 9.66a1.142 1.142 0 0 1 -.51.12.984.984 0 0 1 -.78-.42 8.832 8.832 0 0 0 -2.37-1.98 13.832 13.832 0 0 0 6.03-2.969 5.8 5.8 0 0 0 2.04-4.531c0-2.819-1.59-4.649-4.47-4.649-2.76 0-5.1 1.319-8.04 3.84.03 3.84.12 7.47.18 11.519 0 .24-.15.36-.39.36-.33.03-1.68.12-2.67.12-.27 0-.36-.12-.33-.42.03-3.06.09-6.21.15-9.27-1.44 2.161-2.94 4.35-4.049 5.94-.15.18-.27.3-.42.3a.523.523 0 0 1 -.33-.181 20.814 20.814 0 0 1 -1.83-1.8.415.415 0 0 1 -.18-.33.515.515 0 0 1 .18-.359c2.64-3.21 4.349-5.34 6.6-8.43 0-.75 0-1.561.03-2.13-.87.27-2.28.69-3.419 1.109-.51.21-.81.51-.99.51-.21 0-.42-.179-.6-.54a25.381 25.381 0 0 1 -1.2-2.639 14.757 14.757 0 0 0 2.04-.3c.779-.18 1.949-.45 4.259-1.08.06-1.29.06-2.61.06-3.9a10.88 10.88 0 0 0 -.3-2.61 22.964 22.964 0 0 1 3.48.51c.63.18.75.51.54 1.05a5.1 5.1 0 0 0 -.3 1.29c-.03.72-.09 1.41-.15 2.7.09-.031.15-.06.24-.09a.556.556 0 0 1 .21-.06c.21 0 .54.3.81.69.36.48.48.719.48.929s-.06.331-.51.841c-.42.539-.87 1.11-1.59 2.159z"/><path d="m406.4 3802.176a12.013 12.013 0 0 0 -.42-3.18 26.142 26.142 0 0 1 3.6.51.761.761 0 0 1 .63.63 1.67 1.67 0 0 1 -.18.63 4.016 4.016 0 0 0 -.3 1.32c-.03.72-.03 1.86-.06 2.88 2.07-.271 5.25-.6 7.41-.84.03-1.5.03-3.12.03-4.23a13.293 13.293 0 0 0 -.39-3.419 20.978 20.978 0 0 1 3.63.6c.42.12.57.27.57.57a1.422 1.422 0 0 1 -.18.6 5.178 5.178 0 0 0 -.3 1.35c-.06 1.62-.09 2.79-.12 4.2 2.43-.18 4.23-.271 5.85-.33.24 0 .36.03.36.3a22.43 22.43 0 0 1 0 2.46c0 .389-.06.42-.39.42-1.98 0-3.99.089-5.97.24a46.167 46.167 0 0 1 -.36 4.62c-.33 2.34-1.68 3.329-3.93 3.329a13.532 13.532 0 0 1 -1.86-.09c-.48-.029-.6-.24-.6-.779a7.282 7.282 0 0 0 -.66-2.7 9.487 9.487 0 0 0 2.55.36c.81 0 1.26-.24 1.41-1.29.12-.931.18-2.011.21-3.181-2.4.181-5.01.481-7.32.841-.03 3.27-.06 5.069.06 6.779.18 2.46.84 2.94 4.5 2.94a55.631 55.631 0 0 0 7.77-.6c.45-.03.54.031.6.39a18.447 18.447 0 0 1 .18 2.52c0 .36-.12.51-.39.54a68.992 68.992 0 0 1 -7.53.45c-6.06 0-7.83-1.26-8.19-5.19-.15-1.62-.21-4.139-.21-7.319-1.53.21-2.489.39-3.629.63a8.768 8.768 0 0 0 -1.35.45c-.39.18-.6.06-.78-.33a11.8 11.8 0 0 1 -.84-3 28.73 28.73 0 0 0 3.21-.3c.839-.12 2.279-.391 3.389-.57z"/></g><g fill="#003c6c"><path d="m109.028 3897.713v-24.172h-9.142v-6.593h25.974v6.593h-9.36v24.172z"/><path d="m131.134 3897.713v-30.765h21.447v6.373h-14.2v18.019h14.636v6.373zm3.516-12.613v-6.066h15.95v6.066z"/><path d="m159.481 3897.713v-30.765h7.471v24.172h13.712v6.593z"/></g><g fill="#003c6c"><path d="m215.448 3898.641a19.763 19.763 0 0 1 -10.968-2.939 18.53 18.53 0 0 1 -6.937-8.439 37.765 37.765 0 0 1 0-26.448 18.54 18.54 0 0 1 6.937-8.439 22.005 22.005 0 0 1 21.97 0 18.473 18.473 0 0 1 6.97 8.439 37.75 37.75 0 0 1 0 26.448 18.463 18.463 0 0 1 -6.97 8.439 19.941 19.941 0 0 1 -11.002 2.939zm0-9.841a7.688 7.688 0 0 0 6.868-3.827q2.424-3.826 2.426-10.934 0-7.311-2.426-11.241a7.966 7.966 0 0 0 -13.736 0q-2.427 3.93-2.426 11.241 0 7.107 2.426 10.934a7.684 7.684 0 0 0 6.868 3.827z"/><path d="m257.816 3898.436a21.751 21.751 0 0 1 -9.806-2.187 19.156 19.156 0 0 1 -7.278-6.287l6.218-6.834a17.7 17.7 0 0 0 5.194 4.2 12.353 12.353 0 0 0 5.33 1.127 8.309 8.309 0 0 0 3.895-.889 6.773 6.773 0 0 0 2.7-2.494 6.691 6.691 0 0 0 .991-3.587 6.823 6.823 0 0 0 -.991-3.656 7.384 7.384 0 0 0 -2.665-2.562 7.647 7.647 0 0 0 -3.861-.957 15 15 0 0 0 -2.939.273 15.178 15.178 0 0 0 -2.9.923 32.924 32.924 0 0 0 -3.656 1.879l-4.921-6.561 2.939-21.116h27.471v9.772h-21.937l3.007-3.827-2.255 15.171-4.1-1.366a13.194 13.194 0 0 1 3.177-2.051 23.894 23.894 0 0 1 4.066-1.469 17.026 17.026 0 0 1 4.374-.581 15.836 15.836 0 0 1 8.1 2.084 15.445 15.445 0 0 1 5.706 5.775 16.719 16.719 0 0 1 2.119 8.473 15.626 15.626 0 0 1 -2.392 8.509 17.363 17.363 0 0 1 -6.424 6.014 18.67 18.67 0 0 1 -9.162 2.224z"/><path d="m283.3 3897.957-2.255-5.6 13.941-15.24q1.161-1.3 2.528-2.938t2.665-3.383a20.745 20.745 0 0 0 2.085-3.383 7.045 7.045 0 0 0 .786-3.007 4.559 4.559 0 0 0 -.615-2.391 4.208 4.208 0 0 0 -1.777-1.606 6.576 6.576 0 0 0 -2.939-.581 6.193 6.193 0 0 0 -3.007.785 8.867 8.867 0 0 0 -2.7 2.427 20.7 20.7 0 0 0 -2.358 4.031l-8.61-4.646a22.106 22.106 0 0 1 4.066-7.005 18.576 18.576 0 0 1 6.185-4.715 17.571 17.571 0 0 1 7.585-1.675 17.235 17.235 0 0 1 7.654 1.812 13.841 13.841 0 0 1 5.433 4.851 13.092 13.092 0 0 1 2.015 7.279 14.217 14.217 0 0 1 -.341 3.007 19.886 19.886 0 0 1 -1.025 3.246 26.222 26.222 0 0 1 -1.811 3.552 42.122 42.122 0 0 1 -2.7 3.93q-1.574 2.05-3.691 4.374l-10.858 11.819-1.367-5.194h23.918v10.251z"/><path d="m320.206 3883.333v-10.046h23.645v10.046z"/><path d="m366.949 3898.641a20.457 20.457 0 0 1 -10.148-2.426q-4.341-2.426-7.893-8.372l8.337-5.4a17.757 17.757 0 0 0 3.109 3.827 10.549 10.549 0 0 0 3.349 2.084 10.358 10.358 0 0 0 3.656.65 7.36 7.36 0 0 0 3.519-.855 6.8 6.8 0 0 0 2.6-2.425 6.529 6.529 0 0 0 .991-3.554 7.04 7.04 0 0 0 -.854-3.588 5.452 5.452 0 0 0 -2.46-2.221 9.055 9.055 0 0 0 -3.862-.752 10.813 10.813 0 0 0 -2.186.24 24.829 24.829 0 0 0 -2.46.649 18.3 18.3 0 0 0 -2.666 1.094l-2.528-6.766 11.617-12.642 3.144 1.709-19.955-.411v-9.772h29.385l2.119 4.237-15.789 16.953-2.734-3.212a7.559 7.559 0 0 1 1.811-.513 13.1 13.1 0 0 1 2.426-.239 15.543 15.543 0 0 1 6.014 1.162 16.446 16.446 0 0 1 4.989 3.212 14.743 14.743 0 0 1 3.416 4.817 14.394 14.394 0 0 1 1.23 5.911 15.245 15.245 0 0 1 -2.425 8.508 17.344 17.344 0 0 1 -6.561 5.912 19.35 19.35 0 0 1 -9.191 2.183z"/><path d="m391.754 3897.957-2.255-5.6 13.941-15.24q1.161-1.3 2.528-2.938t2.666-3.383a20.735 20.735 0 0 0 2.084-3.383 7.045 7.045 0 0 0 .786-3.007 4.559 4.559 0 0 0 -.615-2.391 4.2 4.2 0 0 0 -1.777-1.606 6.573 6.573 0 0 0 -2.939-.581 6.186 6.186 0 0 0 -3.006.785 8.858 8.858 0 0 0 -2.7 2.427 20.654 20.654 0 0 0 -2.357 4.031l-8.611-4.646a22.106 22.106 0 0 1 4.066-7.005 18.586 18.586 0 0 1 6.185-4.715 17.574 17.574 0 0 1 7.585-1.675 17.235 17.235 0 0 1 7.654 1.812 13.841 13.841 0 0 1 5.433 4.851 13.093 13.093 0 0 1 2.016 7.279 14.22 14.22 0 0 1 -.342 3.007 19.886 19.886 0 0 1 -1.025 3.246 26.222 26.222 0 0 1 -1.811 3.552 42.122 42.122 0 0 1 -2.7 3.93q-1.574 2.05-3.691 4.374l-10.864 11.819-1.367-5.194h23.918v10.251z"/><path d="m444.783 3898.641a20.459 20.459 0 0 1 -10.148-2.426q-4.341-2.426-7.893-8.372l8.337-5.4a17.759 17.759 0 0 0 3.11 3.827 10.545 10.545 0 0 0 3.348 2.084 10.358 10.358 0 0 0 3.656.65 7.365 7.365 0 0 0 3.52-.855 6.8 6.8 0 0 0 2.6-2.425 6.529 6.529 0 0 0 .991-3.554 7.04 7.04 0 0 0 -.854-3.588 5.441 5.441 0 0 0 -2.46-2.221 9.054 9.054 0 0 0 -3.861-.752 10.815 10.815 0 0 0 -2.187.24 24.975 24.975 0 0 0 -2.46.649 18.286 18.286 0 0 0 -2.665 1.094l-2.529-6.766 11.618-12.642 3.143 1.709-19.954-.411v-9.772h29.385l2.118 4.237-15.79 16.953-2.733-3.212a7.543 7.543 0 0 1 1.811-.513 13.079 13.079 0 0 1 2.426-.239 15.534 15.534 0 0 1 6.013 1.162 16.434 16.434 0 0 1 4.989 3.212 14.745 14.745 0 0 1 3.417 4.817 14.394 14.394 0 0 1 1.23 5.911 15.246 15.246 0 0 1 -2.426 8.508 17.344 17.344 0 0 1 -6.561 5.912 19.347 19.347 0 0 1 -9.191 2.183z"/><path d="m469.042 3883.333v-10.046h23.645v10.046z"/><path d="m510.591 3894.608v-38.815l2.528 5.809-10.25 4.852-1.982-10.388 13.6-6.628h7.513v45.17zm-8.747 3.349v-10.251h29.111v10.251z"/><path d="m553.779 3898.436a21.754 21.754 0 0 1 -9.806-2.187 19.156 19.156 0 0 1 -7.278-6.287l6.219-6.834a17.682 17.682 0 0 0 5.193 4.2 12.354 12.354 0 0 0 5.331 1.127 8.315 8.315 0 0 0 3.9-.889 6.777 6.777 0 0 0 2.7-2.494 6.691 6.691 0 0 0 .991-3.587 6.823 6.823 0 0 0 -.991-3.656 7.377 7.377 0 0 0 -2.665-2.562 7.648 7.648 0 0 0 -3.861-.957 15 15 0 0 0 -2.939.273 15.177 15.177 0 0 0 -2.9.923 33.008 33.008 0 0 0 -3.656 1.879l-4.92-6.561 2.938-21.116h27.465v9.772h-21.94l3.007-3.827-2.255 15.171-4.1-1.366a13.181 13.181 0 0 1 3.178-2.051 23.833 23.833 0 0 1 4.066-1.469 17.018 17.018 0 0 1 4.373-.581 15.836 15.836 0 0 1 8.1 2.084 15.438 15.438 0 0 1 5.706 5.775 16.719 16.719 0 0 1 2.119 8.473 15.626 15.626 0 0 1 -2.392 8.509 17.363 17.363 0 0 1 -6.424 6.014 18.668 18.668 0 0 1 -9.159 2.224z"/><path d="m594.508 3898.436a21.759 21.759 0 0 1 -9.807-2.187 19.171 19.171 0 0 1 -7.278-6.287l6.219-6.834a17.683 17.683 0 0 0 5.194 4.2 12.353 12.353 0 0 0 5.33 1.127 8.312 8.312 0 0 0 3.895-.889 6.777 6.777 0 0 0 2.7-2.494 6.692 6.692 0 0 0 .991-3.587 6.823 6.823 0 0 0 -.991-3.656 7.376 7.376 0 0 0 -2.665-2.562 7.645 7.645 0 0 0 -3.861-.957 15 15 0 0 0 -2.938.273 15.186 15.186 0 0 0 -2.905.923 33.014 33.014 0 0 0 -3.656 1.879l-4.92-6.561 2.939-21.116h27.471v9.772h-21.937l3.007-3.827-2.255 15.171-4.1-1.366a13.2 13.2 0 0 1 3.178-2.051 23.831 23.831 0 0 1 4.066-1.469 17.026 17.026 0 0 1 4.374-.581 15.838 15.838 0 0 1 8.1 2.084 15.453 15.453 0 0 1 5.706 5.775 16.729 16.729 0 0 1 2.118 8.473 15.626 15.626 0 0 1 -2.392 8.509 17.368 17.368 0 0 1 -6.423 6.014 18.673 18.673 0 0 1 -9.16 2.224z"/><path d="m635.236 3898.436a21.751 21.751 0 0 1 -9.806-2.187 19.157 19.157 0 0 1 -7.278-6.287l6.218-6.834a17.7 17.7 0 0 0 5.194 4.2 12.353 12.353 0 0 0 5.33 1.127 8.309 8.309 0 0 0 3.9-.889 6.773 6.773 0 0 0 2.7-2.494 6.692 6.692 0 0 0 .991-3.587 6.823 6.823 0 0 0 -.991-3.656 7.384 7.384 0 0 0 -2.665-2.562 7.647 7.647 0 0 0 -3.861-.957 15 15 0 0 0 -2.939.273 15.179 15.179 0 0 0 -2.9.923 32.923 32.923 0 0 0 -3.656 1.879l-4.921-6.561 2.939-21.116h27.471v9.772h-21.945l3.007-3.827-2.255 15.171-4.1-1.366a13.193 13.193 0 0 1 3.177-2.051 23.893 23.893 0 0 1 4.066-1.469 17.032 17.032 0 0 1 4.374-.581 15.835 15.835 0 0 1 8.1 2.084 15.445 15.445 0 0 1 5.706 5.775 16.719 16.719 0 0 1 2.118 8.473 15.625 15.625 0 0 1 -2.391 8.509 17.364 17.364 0 0 1 -6.424 6.014 18.668 18.668 0 0 1 -9.159 2.224z"/></g><g fill="#003c6c"><path d="m104.786 3925.815c.323-.124.4-.074.546.1a13.526 13.526 0 0 1 1.44 2.334c.124.223.124.248-.224.372l-1.737.571h9.905a20.122 20.122 0 0 0 1.266-2.383 9.377 9.377 0 0 0 .4-1.242 17.875 17.875 0 0 1 2.358.72c.223.1.323.174.323.323a.487.487 0 0 1 -.224.422 1.8 1.8 0 0 0 -.521.6c-.348.571-.621 1.067-.943 1.564h.5c2.284 0 3.1-.049 3.277-.049.248 0 .273.024.273.272 0 .149-.049.621-.049 1.316v1.092c0 2.185.049 2.582.049 2.732 0 .248-.025.272-.273.272h-1.992c-.248 0-.273-.024-.273-.272v-3.228h-15.963v3.2c0 .274-.025.3-.273.3h-1.986c-.249 0-.273-.024-.273-.3 0-.148.049-.546.049-2.73v-.894c0-.869-.049-1.316-.049-1.49 0-.248.024-.272.273-.272.174 0 .993.049 3.277.049h.571a.441.441 0 0 1 -.124-.2 12 12 0 0 0 -1.267-2.284c-.148-.223-.124-.272.174-.372zm8.863 7.027c2.234 0 3.028-.05 3.2-.05.224 0 .248.024.248.3 0 .124-.049.546-.049 1.688v2.185c0 1.141.049 1.563.049 1.713 0 .248-.024.272-.248.272-.174 0-.968-.049-3.2-.049h-1.887c-.224.621-.472 1.166-.695 1.664h4.717c2.433 0 3.3-.026 3.475-.026.249 0 .249.026.249.274 0 .149-.025.745-.025 1.912v1.589c0 2.928.025 3.475.025 3.624 0 .223 0 .248-.249.248h-2.085c-.248 0-.273-.025-.273-.248v-.746h-11.966v.845c0 .248-.025.273-.248.273h-2.111c-.248 0-.273-.025-.273-.273 0-.149.05-.695.05-3.675v-1.339c0-1.465-.05-2.061-.05-2.21 0-.248.025-.274.273-.274.174 0 1.043.026 3.476.026h2.408a16.674 16.674 0 0 0 .695-1.664h-1.018c-2.259 0-3.053.049-3.2.049-.224 0-.248-.024-.248-.272 0-.174.049-.572.049-1.713v-2.185c0-1.142-.049-1.564-.049-1.688 0-.274.024-.3.248-.3.149 0 .943.05 3.2.05zm-8.714 12.189h11.965v-2.284h-11.965zm2.284-8.093h7.373v-2.16h-7.373zm3.5-11.4c.3-.1.373-.05.5.174a16.545 16.545 0 0 1 1.241 2.482c.1.2.074.248-.273.348l-1.663.5c-.373.1-.4.074-.5-.2a21.745 21.745 0 0 0 -1.167-2.434c-.149-.248-.074-.272.224-.372z"/><path d="m128.152 3942.251c-2.235 0-2.979.049-3.128.049-.273 0-.3-.025-.3-.273v-1.464c0-.274.025-.3.3-.3.149 0 .893.049 3.128.049h6.132v-1.34h-3.5c-2.408 0-3.277.049-3.426.049-.248 0-.248-.025-.248-.273v-1.415c0-.273 0-.3.248-.3.149 0 1.018.05 3.426.05h3.5v-1.316h-4.667c-2.384 0-3.178.049-3.327.049-.273 0-.3-.024-.3-.248v-1.465c0-.248.025-.272.3-.272.149 0 .943.049 3.327.049h1.514c-.273-.6-.521-1.092-.794-1.564-.125-.223-.149-.323.173-.422l1.614-.447h-3.972c-2.235 0-2.979.05-3.128.05-.273 0-.3-.025-.3-.273v-1.54c0-.273.025-.3.3-.3.149 0 .893.049 3.128.049h.174a11.809 11.809 0 0 0 -1.415-2.134c-.149-.174-.1-.274.2-.423l1.44-.67c.248-.124.323-.1.472.1a14.736 14.736 0 0 1 1.663 2.408c.124.222.124.248-.2.422l-.6.3h2.314v-1.636a9.791 9.791 0 0 0 -.148-2.16c.769.025 1.737.075 2.408.149.2.024.3.1.3.224a1.308 1.308 0 0 1 -.1.422 3.879 3.879 0 0 0 -.149 1.365v1.638h2.011v-1.614a9.841 9.841 0 0 0 -.149-2.184c.745.025 1.713.075 2.384.173.223.026.322.1.322.224a1.164 1.164 0 0 1 -.1.4 3.879 3.879 0 0 0 -.149 1.365v1.638h1.539a18.268 18.268 0 0 0 1.142-2.036 4.715 4.715 0 0 0 .422-1.341 21.021 21.021 0 0 1 2.409.646c.223.075.322.2.322.323a.512.512 0 0 1 -.248.422 2.512 2.512 0 0 0 -.422.472c-.323.521-.67 1.017-1.018 1.514h.348c2.234 0 2.979-.049 3.128-.049.248 0 .273.024.273.3v1.54c0 .248-.025.273-.273.273-.149 0-.894-.05-3.128-.05h-4.345c.645.124 1.217.248 1.961.447.2.049.323.149.323.3a.43.43 0 0 1 -.273.372 1.752 1.752 0 0 0 -.348.522l-.446.794h1.613c2.383 0 3.178-.049 3.327-.049.248 0 .273.024.273.272v1.465c0 .224-.025.248-.273.248-.149 0-.944-.049-3.327-.049h-5.015v1.316h3.948c2.433 0 3.277-.05 3.426-.05.248 0 .273.025.273.3v1.415c0 .248-.025.273-.273.273-.149 0-.993-.049-3.426-.049h-3.948v1.34h6.53c2.234 0 2.979-.049 3.128-.049.248 0 .273.024.273.3v1.464c0 .248-.025.273-.273.273-.149 0-.894-.049-3.128-.049h-4.424a22.525 22.525 0 0 0 8.267 3.227 7.029 7.029 0 0 0 -.969 1.588c-.2.472-.3.646-.546.646a2.611 2.611 0 0 1 -.571-.124 21.681 21.681 0 0 1 -8.341-4.443c0 2.954.124 4.493.124 4.915 0 .248-.025.273-.273.273h-2.11c-.224 0-.249-.025-.249-.273 0-.422.075-1.862.1-4.817a20.111 20.111 0 0 1 -7.969 4.445 1.9 1.9 0 0 1 -.571.148c-.223 0-.322-.173-.546-.646a5.953 5.953 0 0 0 -.993-1.489 20.627 20.627 0 0 0 7.92-3.45zm9.583-8.367c.223-.422.422-.844.67-1.44a4.533 4.533 0 0 0 .273-.993h-6.331c.075.025.125.1.2.2a15.7 15.7 0 0 1 1.117 2.235z"/><path d="m157.1 3937.931c0 6.181.049 7.3.049 7.448 0 .248-.024.272-.273.272h-1.787c-.223 0-.248-.024-.248-.272v-1.093h-2.284v1.961c0 .249-.025.274-.249.274h-1.837c-.248 0-.273-.025-.273-.274 0-.148.05-1.415.05-7.645v-5.413c0-4.494-.05-5.809-.05-5.959 0-.248.025-.272.273-.272.174 0 .646.05 2.135.05h2.135c1.49 0 1.962-.05 2.135-.05.249 0 .273.024.273.272 0 .15-.049 1.367-.049 5.016zm-4.543-8.664v5.138h2.284v-5.138zm2.284 12.76v-5.362h-2.284v5.362zm6.6-6.6c-2.358 0-3.177.049-3.326.049-.273 0-.3-.025-.3-.3v-1.713c0-.248.025-.273.3-.273.149 0 .968.049 3.326.049h1.788v-2.556h-1.167c-2.21 0-2.979.049-3.128.049-.273 0-.3-.025-.3-.273v-1.737c0-.274.025-.3.3-.3.149 0 .918.049 3.128.049h1.167a20.833 20.833 0 0 0 -.174-2.8c.968.024 1.639.074 2.557.174.248.024.4.124.4.248a1.376 1.376 0 0 1 -.149.521 5.767 5.767 0 0 0 -.124 1.862h1.664c2.259 0 3-.049 3.153-.049.248 0 .273.024.273.3v1.737c0 .248-.025.273-.273.273-.149 0-.894-.049-3.153-.049h-1.664v2.556h2.632c2.358 0 3.178-.049 3.327-.049.273 0 .3.025.3.273v1.713c0 .273-.024.3-.3.3-.149 0-.969-.049-3.327-.049zm.1 4.667c-2.359 0-3.153.05-3.3.05-.273 0-.3-.026-.3-.274v-1.737c0-.249.025-.274.3-.274.149 0 .943.05 3.3.05h4.89a18.361 18.361 0 0 0 -.173-2.184c.943.049 1.837.124 2.507.222.273.05.422.15.422.274a.84.84 0 0 1 -.124.422 3.159 3.159 0 0 0 -.124 1.266c1.688 0 2.358-.05 2.482-.05.274 0 .3.025.3.274v1.737c0 .248-.024.274-.3.274-.124 0-.794-.026-2.482-.05v2.458c0 1.141.025 2.209.025 3.054a2.306 2.306 0 0 1 -.869 2.109c-.546.373-1.366.547-3.228.547-.744 0-.769 0-.943-.745a5.54 5.54 0 0 0 -.745-1.813c.869.074 1.614.1 2.433.1.6 0 .819-.2.819-.77v-4.94zm-.422.695c.248-.149.322-.149.521.025a19.837 19.837 0 0 1 2.284 2.855c.149.223.124.3-.124.472l-1.515 1.042c-.148.1-.223.149-.3.149s-.125-.05-.2-.174a20.734 20.734 0 0 0 -2.185-3.053c-.173-.2-.173-.274.124-.448z"/><path d="m181.637 3926.387c1.613 0 2.358-.05 2.507-.05.224 0 .248.025.248.3 0 .149-.049.869-.049 2.358v3.079c0 1.514.049 2.209.049 2.359 0 .272-.024.3-.248.3-.149 0-.894-.05-2.507-.05h-4.022v8.044c0 3.425.05 5.113.05 5.287 0 .249-.025.273-.274.273h-2.11c-.248 0-.273-.024-.273-.273 0-.174.05-1.862.05-5.287v-10.75c0-3.452-.05-5.189-.05-5.338 0-.273.025-.3.273-.3.174 0 1.117.05 2.93.05zm-4.022 1.862v1.465h4.295v-1.465zm4.295 3.152h-4.295v1.491h4.295zm-.944 15.169c-.248 0-.273-.024-.273-.3 0-.149.05-.819.05-4.493v-2.185c0-2.185-.05-2.929-.05-3.1 0-.249.025-.273.273-.273.174 0 .77.05 2.657.05h3.351c1.887 0 2.483-.05 2.657-.05.248 0 .273.024.273.273 0 .149-.05.894-.05 2.681v2.458c0 3.6.05 4.27.05 4.394 0 .248-.025.273-.273.273h-1.788c-.248 0-.273-.025-.273-.273v-.769h-4.543v1.017c0 .274-.025.3-.3.3zm2.061-6.727h4.543v-1.664h-4.543zm4.543 3.525v-1.738h-4.543v1.738zm8.168-3.253c0 1.739.1 3.725.1 4.941a2.7 2.7 0 0 1 -.72 2.284c-.521.472-1.216.67-3.55.67-.745 0-.745.025-.894-.77a7.772 7.772 0 0 0 -.6-1.811 17.34 17.34 0 0 0 2.085.124c.819 0 1.018-.224 1.018-.969v-9.905h-4.072c-1.936 0-2.582.05-2.731.05-.248 0-.273-.026-.273-.3 0-.15.05-.721.05-2.185v-3.427c0-1.439-.05-2.035-.05-2.184 0-.273.025-.3.273-.3.149 0 .795.05 2.731.05h3.65c1.936 0 2.606-.05 2.755-.05.249 0 .274.025.274.3 0 .149-.05 1.167-.05 3.277zm-7.15-11.866v1.465h4.593v-1.465zm4.593 4.643v-1.492h-4.593v1.491z"/><path d="m216.549 3942.6c.347 1.266.943 1.812 1.986 1.812 2.11 0 3.327-1.787 3.451-6.753a4.074 4.074 0 0 1 -3.873 2.26c-2.88 0-5.04-2.358-5.04-6.107 0-4.1 2.235-6.629 5.71-6.629 3.749 0 6.157 2.706 6.157 9.087 0 7.572-2.383 10.526-6.455 10.526-2.582 0-4.22-1.019-4.99-3.054zm2.358-13.034c-1.837 0-2.681 1.589-2.681 4.171 0 2.409 1.018 3.8 2.607 3.8 1.365 0 2.334-.844 3-2.383-.021-3.703-.89-5.59-2.926-5.59z"/><path d="m240.707 3931.749a2.1 2.1 0 0 1 -2.135 2.135 2.068 2.068 0 0 1 -2.11-2.135 2.093 2.093 0 0 1 2.11-2.11 2.129 2.129 0 0 1 2.135 2.11zm0 10.5a2.1 2.1 0 0 1 -2.135 2.135 2.069 2.069 0 0 1 -2.11-2.135 2.092 2.092 0 0 1 2.11-2.11 2.129 2.129 0 0 1 2.135 2.112z"/><path d="m264.1 3936.913c0 7.025-2.135 9.881-6.008 9.881-3.9 0-5.933-2.806-5.933-9.831s2.16-9.782 5.983-9.782 5.958 2.731 5.958 9.732zm-8.739.025c0 5.585.77 7.4 2.731 7.4 2.011 0 2.806-1.837 2.806-7.4 0-5.586-.77-7.3-2.756-7.3-1.942.001-2.783 1.689-2.783 7.3z"/><path d="m278.326 3936.913c0 7.025-2.135 9.881-6.008 9.881-3.9 0-5.933-2.806-5.933-9.831s2.16-9.782 5.983-9.782 5.958 2.731 5.958 9.732zm-8.738.025c0 5.585.769 7.4 2.73 7.4 2.011 0 2.806-1.837 2.806-7.4 0-5.586-.77-7.3-2.756-7.3-1.936.001-2.78 1.689-2.78 7.3z"/><path d="m281.01 3937.707c2.011-2.309 3.8-3.426 5.859-3.426a10.3 10.3 0 0 1 5.04 1.565c2.582 1.365 3.873 1.886 5.238 1.886 1.564 0 2.781-.447 4.618-2.383l.993 1.043c-1.937 2.458-3.823 3.525-5.909 3.525a10.105 10.105 0 0 1 -5.04-1.614c-2.507-1.365-3.8-1.887-5.238-1.887-1.514 0-2.656.447-4.543 2.31z"/><path d="m313.214 3944.038h3.55v2.408h-10.228v-2.408h3.724v-13.506a13.908 13.908 0 0 1 -3.5 1.689l-.5-2.607a13.988 13.988 0 0 0 4.419-2.234h2.532z"/><path d="m331.762 3941.53c0 3.154-2.408 5.264-6.107 5.264-3.749 0-6.132-1.962-6.132-5.164 0-2.185 1.142-3.476 3.674-4.717-2.358-1.217-3.227-2.731-3.227-4.841 0-2.731 2.259-4.891 5.66-4.891 3.352 0 5.71 1.986 5.71 4.792 0 2.035-1.092 3.4-3.327 4.319 2.731 1.291 3.749 2.781 3.749 5.238zm-6.678-3.674c-1.763.968-2.607 1.987-2.607 3.576a2.926 2.926 0 0 0 3.153 3.078c1.961 0 3.178-1.093 3.178-2.88 0-1.489-.72-2.334-3-3.426zm1.092-2.458c1.664-.869 2.235-1.836 2.235-3.3a2.583 2.583 0 0 0 -2.781-2.632 2.492 2.492 0 0 0 -2.731 2.582c0 1.291.621 2.11 2.582 3.029z"/><path d="m347.281 3931.749a2.1 2.1 0 0 1 -2.135 2.135 2.068 2.068 0 0 1 -2.11-2.135 2.093 2.093 0 0 1 2.11-2.11 2.129 2.129 0 0 1 2.135 2.11zm0 10.5a2.1 2.1 0 0 1 -2.135 2.135 2.069 2.069 0 0 1 -2.11-2.135 2.092 2.092 0 0 1 2.11-2.11 2.129 2.129 0 0 1 2.135 2.112z"/><path d="m370.672 3936.913c0 7.025-2.135 9.881-6.008 9.881-3.9 0-5.933-2.806-5.933-9.831s2.16-9.782 5.983-9.782 5.958 2.731 5.958 9.732zm-8.739.025c0 5.585.77 7.4 2.731 7.4 2.011 0 2.8-1.837 2.8-7.4 0-5.586-.769-7.3-2.755-7.3-1.932.001-2.776 1.689-2.776 7.3z"/><path d="m384.9 3936.913c0 7.025-2.135 9.881-6.008 9.881-3.9 0-5.933-2.806-5.933-9.831s2.16-9.782 5.983-9.782 5.958 2.731 5.958 9.732zm-8.739.025c0 5.585.77 7.4 2.731 7.4 2.011 0 2.8-1.837 2.8-7.4 0-5.586-.769-7.3-2.755-7.3-1.932.001-2.776 1.689-2.776 7.3z"/></g></g><path d="m359.056 12.529h186.565" fill="none" stroke="#004272" stroke-miterlimit="10"/></svg>