<svg height="68.914" viewBox="0 0 505.181 68.914" width="505.181" xmlns="http://www.w3.org/2000/svg"><g transform="translate(-800.22 -4928.508)"><g fill="#004272"><path d="m805.7 4935.789c-1 .08-2.02.16-3.361.16-.34 0-.44-.12-.48-.42-.06-.38-.14-1.04-.22-1.74a10.228 10.228 0 0 0 1.561.1c.84 0 1.7-.08 2.54-.16 0-.661.02-1.42.02-2.281a7.4 7.4 0 0 0 -.14-1.62 11.33 11.33 0 0 1 2.38.36c.241.06.4.2.4.38a.71.71 0 0 1 -.12.32 2.427 2.427 0 0 0 -.281.78c-.06.52-.08 1.02-.1 1.66a19.589 19.589 0 0 0 2.56-.739c.18-.061.32-.021.34.18a10.058 10.058 0 0 1 .12 1.56c0 .2-.06.26-.26.319a20.307 20.307 0 0 1 -2.86.761c-.02.96-.02 1.941-.04 2.9a12.621 12.621 0 0 1 4.92-1.1 3.96 3.96 0 0 1 4.261 4c0 2.561-1.64 4.061-4.341 4.061a7.744 7.744 0 0 1 -1.64-.18.535.535 0 0 1 -.44-.6 3.494 3.494 0 0 0 -.6-1.7 7.486 7.486 0 0 0 2.5.359 1.985 1.985 0 0 0 2.161-2.06c0-1.3-.8-2.02-2.2-2.02a9.892 9.892 0 0 0 -4.581 1.36c.02.841.04 1.52.08 2.4.059.88.159 2.14.159 2.6 0 .279.04.58-.3.66a8.141 8.141 0 0 1 -1.481.239c-.22.021-.3-.14-.48-.4a12.234 12.234 0 0 0 -2.841-2.561 3.607 3.607 0 0 0 -.64.44.5.5 0 0 1 -.34.14.561.561 0 0 1 -.44-.32c-.22-.36-.62-1.2-.92-1.86a7.384 7.384 0 0 0 1.84-.7c.861-.48 1.8-1.02 3.261-1.86zm-1.86 6.882a20.121 20.121 0 0 0 1.88.9c.16.04.22.021.2-.159-.04-.52-.08-1.44-.12-2.1-.557.378-1.237.838-1.957 1.359zm9.562-10.5c.14-.22.2-.279.34-.239a9.516 9.516 0 0 1 4.241 2.44c.08.08.12.14.12.2a.526.526 0 0 1 -.08.2c-.26.4-.78 1.02-1.081 1.42-.06.081-.34.1-.4 0a9.229 9.229 0 0 0 -4.061-2.46 12.284 12.284 0 0 1 .924-1.564z"/><path d="m824.843 4931.028c-1.941 0-2.6.04-2.721.04-.22 0-.24-.02-.24-.22v-1.3c0-.2.02-.22.24-.22.12 0 .78.04 2.721.04h8.957c1.96 0 2.62-.04 2.74-.04.2 0 .221.02.221.22v1.3c0 .2-.02.22-.221.22-.12 0-.78-.04-2.74-.04h-3.621v.8h4.9c1.84 0 2.48-.04 2.62-.04.2 0 .221.021.221.221 0 .119-.04.479-.04 1v1.04c0 1.6.04 1.92.04 2.04 0 .2-.02.221-.221.221h-1.56c-.2 0-.22-.021-.22-.221v-2.74h-5.741v1.7c0 1.32.04 1.881.04 2 0 .179-.02.2-.22.2h-1.64c-.2 0-.221-.02-.221-.2 0-.12.041-.721.041-2v-1.7h-5.541v2.74c0 .2-.021.221-.221.221h-1.56c-.18 0-.2-.021-.2-.221 0-.14.02-.44.02-2.04v-.88c0-.681-.02-1.041-.02-1.16 0-.2.02-.221.2-.221.14 0 .78.04 2.62.04h4.7v-.8zm7.8 6.661c2.021 0 3-.04 3.141-.04.2 0 .22.021.22.241 0 .12-.04.52-.04 1.82v2.28c0 1.16.04 1.7.04 1.821 0 .2-.02.22-.22.22-.14 0-1.12-.04-3.141-.04h-2.543v.3c0 .54.12.62.38.7a16.755 16.755 0 0 0 2.66.12c1.741 0 2.541-.1 2.941-.42.32-.26.44-.48.5-2.02a6.814 6.814 0 0 0 1.421.58c.52.14.52.16.48.7a2.827 2.827 0 0 1 -1.14 2.32c-.641.4-1.761.621-4.162.621a15.054 15.054 0 0 1 -4-.321c-.62-.219-1.02-.639-1.02-1.84v-.74h-3.681v.821c0 .2-.02.219-.22.219h-1.58c-.181 0-.2-.02-.2-.219 0-.141.04-.621.04-1.841v-3.221c0-1.2-.04-1.74-.04-1.86 0-.22.02-.241.2-.241.139 0 1.1.04 3 .04zm-6.761-3.64c.8 0 1-.021 1.12-.021.2 0 .221.021.221.181v.8c0 .12-.02.14-.221.14-.12 0-.32-.02-1.12-.02h-.96c-.8 0-1 .02-1.12.02-.2 0-.221-.02-.221-.16v-.8c0-.139.02-.16.221-.16.12 0 .319.021 1.12.021zm0 1.761c.8 0 1-.021 1.12-.021.2 0 .221.021.221.18v.76c0 .161-.02.18-.221.18-.12 0-.32-.019-1.12-.019h-.96c-.8 0-1 .019-1.12.019-.2 0-.221-.019-.221-.18v-.78c0-.139.02-.16.221-.16.12 0 .319.021 1.12.021zm2.281 4.32v-1h-3.681v1zm0 2.421v-1.04h-3.681v1.04zm1.94-3.421v1h3.881v-1zm3.881 2.381h-3.884v1.04h3.881zm-.44-7.5c.86 0 1.06-.021 1.18-.021.2 0 .22.021.22.181v.78c0 .16-.02.18-.22.18-.12 0-.32-.04-1.18-.04h-.981c-.859 0-1.06.04-1.18.04-.2 0-.22-.02-.22-.2v-.781c0-.139.02-.16.22-.16.12 0 .321.021 1.18.021zm0 1.761c.86 0 1.06-.021 1.18-.021.2 0 .22.021.22.18v.78c0 .141-.02.16-.22.16-.12 0-.32-.019-1.18-.019h-.981c-.859 0-1.06.019-1.18.019-.2 0-.22-.019-.22-.16v-.8c0-.139.02-.16.22-.16.12 0 .321.021 1.18.021z"/><path d="m845.343 4932.269c1.52 0 2.02-.04 2.14-.04.2 0 .221.019.221.219v1.421c0 .22-.02.239-.221.239-.12 0-.62-.04-2.14-.04h-2.743c-1.52 0-2.02.04-2.14.04-.18 0-.2-.019-.2-.239v-1.421c0-.2.02-.219.2-.219.12 0 .62.04 2.14.04zm1.74 11.362c0 2.32.04 2.761.04 2.881 0 .2-.02.219-.22.219h-1.46c-.2 0-.22-.019-.22-.219v-.54h-2.223v.92c0 .179-.02.2-.219.2h-1.461c-.22 0-.24-.021-.24-.2 0-.14.04-.6.04-3.021v-1.341c0-1.259-.04-1.74-.04-1.88 0-.2.02-.22.24-.22.12 0 .54.04 1.821.04h1.92c1.3 0 1.7-.04 1.84-.04.2 0 .22.02.22.22 0 .121-.04.6-.04 1.54zm-1.96-14.1c1.28 0 1.68-.039 1.8-.039.22 0 .241.02.241.22v1.32c0 .2-.021.22-.241.22-.12 0-.52-.04-1.8-.04h-1.923c-1.3 0-1.7.04-1.821.04-.2 0-.22-.019-.22-.22v-1.32c0-.2.02-.22.22-.22.12 0 .52.039 1.821.039zm-.16 5.562c1.22 0 1.56-.04 1.68-.04.22 0 .24.02.24.22v1.3c0 .2-.02.22-.24.22-.12 0-.46-.04-1.68-.04h-1.7c-1.221 0-1.581.04-1.7.04-.2 0-.22-.019-.22-.22v-1.3c0-.2.02-.22.22-.22.12 0 .48.04 1.7.04zm0 2.681c1.22 0 1.56-.041 1.68-.041.22 0 .24.021.24.22v1.28c0 .2-.02.221-.24.221-.12 0-.46-.04-1.68-.04h-1.7c-1.221 0-1.581.04-1.7.04-.2 0-.22-.02-.22-.221v-1.28c0-.2.02-.22.22-.22.12 0 .48.041 1.7.041zm-1.963 4.357v2.2h2.221v-2.2zm7.562-5.382c-1.86 0-2.481.04-2.6.04-.2 0-.219-.019-.219-.22v-1.52c0-.18.02-.2.219-.2.12 0 .741.04 2.6.04h1.3v-2.66q-1.35.24-2.76.419c-.481.06-.481.04-.64-.44a3.746 3.746 0 0 0 -.7-1.36 28.531 28.531 0 0 0 7.581-1.52 4.461 4.461 0 0 0 1.02-.5 14.013 14.013 0 0 1 1.2 1.44.54.54 0 0 1 .14.34c0 .14-.12.22-.4.22a3.207 3.207 0 0 0 -.781.16c-.8.281-1.66.54-2.56.76v3.141h1.64c1.861 0 2.5-.04 2.621-.04.2 0 .22.02.22.2v1.52c0 .2-.02.22-.22.22-.12 0-.76-.04-2.621-.04h-1.64v2.7h.84c1.68 0 2.28-.04 2.4-.04.2 0 .221.02.221.22 0 .12-.04.681-.04 1.961v1.8c0 2.74.04 3.26.04 3.38 0 .18-.02.2-.221.2h-1.64c-.2 0-.22-.021-.22-.2v-.719h-4.761v.819c0 .181-.02.2-.22.2h-1.64c-.2 0-.22-.019-.22-.2 0-.14.04-.66.04-3.42v-1.56c0-1.58-.04-2.141-.04-2.261 0-.2.02-.22.22-.22.14 0 .72.04 2.4.04h.74v-2.7zm.02 7.522h4.761v-3.021h-4.761z"/><path d="m870.5 4933.488c-2.441.461-4.581.881-6.721 1.321-.761.18-.961.22-1.261.32a1.166 1.166 0 0 1 -.44.16.468.468 0 0 1 -.38-.3 13.9 13.9 0 0 1 -.74-2.161 27.6 27.6 0 0 0 3.181-.34c2.46-.36 6.861-1.02 12.022-1.7.3-.04.4.08.42.22a11.427 11.427 0 0 1 .221 1.761c0 .24-.121.3-.381.3a8.972 8.972 0 0 0 -2.44.441c-3.4 1.16-5.1 3.5-5.1 5.9 0 2.58 1.84 3.981 5.321 4.2.32 0 .44.08.44.3a7.111 7.111 0 0 1 -.22 1.72c-.06.3-.14.421-.38.421-3.521 0-7.382-2.021-7.382-6.182 0-2.841 1.42-4.761 3.841-6.342zm3.961 2.161c.1-.08.18-.06.3.04a9.228 9.228 0 0 1 1.9 2.14.2.2 0 0 1 -.06.32l-.84.621a.209.209 0 0 1 -.34-.06 9.9 9.9 0 0 0 -2.02-2.32zm1.781-1.3c.119-.08.179-.06.3.04a8.335 8.335 0 0 1 1.9 2.06.232.232 0 0 1 -.06.361l-.8.62a.2.2 0 0 1 -.339-.061 9.5 9.5 0 0 0 -2-2.3z"/><path d="m890.564 4933.229a25.041 25.041 0 0 1 -2.5 8.622 3.8 3.8 0 0 1 -3.4 2.3c-1.761 0-3.541-1.88-3.541-5.141a7.367 7.367 0 0 1 2.261-5.2 8.751 8.751 0 0 1 6.5-2.561c4.8 0 7.622 2.961 7.622 6.941 0 3.721-2.1 6.062-6.162 7.283-.42.119-.6.039-.86-.361a4.243 4.243 0 0 0 -1.4-1.26c3.38-.8 6.041-2.2 6.041-5.982a4.543 4.543 0 0 0 -4.481-4.64zm-5.741 1.94a5.761 5.761 0 0 0 -1.56 3.7c0 1.84.74 2.86 1.36 2.86.52 0 .96-.259 1.5-1.22a22.854 22.854 0 0 0 2.121-7.161 6.016 6.016 0 0 0 -3.421 1.821z"/><path d="m905.7 4935.789c-1 .08-2.02.16-3.361.16-.34 0-.44-.12-.48-.42-.06-.38-.14-1.04-.22-1.74a10.228 10.228 0 0 0 1.561.1c.84 0 1.7-.08 2.54-.16 0-.661.02-1.42.02-2.281a7.4 7.4 0 0 0 -.14-1.62 11.33 11.33 0 0 1 2.38.36c.241.06.4.2.4.38a.71.71 0 0 1 -.12.32 2.427 2.427 0 0 0 -.281.78c-.06.52-.08 1.02-.1 1.66a19.589 19.589 0 0 0 2.56-.739c.18-.061.32-.021.34.18a10.058 10.058 0 0 1 .12 1.56c0 .2-.06.26-.26.319a20.307 20.307 0 0 1 -2.86.761c-.02.96-.02 1.941-.04 2.9a12.621 12.621 0 0 1 4.92-1.1 3.96 3.96 0 0 1 4.261 4c0 2.561-1.64 4.061-4.341 4.061a7.744 7.744 0 0 1 -1.64-.18.535.535 0 0 1 -.44-.6 3.494 3.494 0 0 0 -.6-1.7 7.486 7.486 0 0 0 2.5.359 1.985 1.985 0 0 0 2.161-2.06c0-1.3-.8-2.02-2.2-2.02a9.892 9.892 0 0 0 -4.581 1.36c.02.841.04 1.52.08 2.4.059.88.159 2.14.159 2.6 0 .279.04.58-.3.66a8.141 8.141 0 0 1 -1.481.239c-.22.021-.3-.14-.48-.4a12.234 12.234 0 0 0 -2.841-2.561 3.607 3.607 0 0 0 -.64.44.5.5 0 0 1 -.34.14.561.561 0 0 1 -.44-.32c-.22-.36-.62-1.2-.92-1.86a7.384 7.384 0 0 0 1.84-.7c.861-.48 1.8-1.02 3.261-1.86zm-1.86 6.882a20.121 20.121 0 0 0 1.88.9c.16.04.22.021.2-.159-.04-.52-.08-1.44-.12-2.1-.557.378-1.237.838-1.957 1.359zm9.562-10.5c.14-.22.2-.279.34-.239a9.516 9.516 0 0 1 4.241 2.44c.08.08.12.14.12.2a.526.526 0 0 1 -.08.2c-.26.4-.78 1.02-1.081 1.42-.06.081-.34.1-.4 0a9.229 9.229 0 0 0 -4.061-2.46 12.284 12.284 0 0 1 .924-1.564z"/><path d="m926.323 4929.408c1.3 0 1.881-.04 2-.04.18 0 .2.02.2.22 0 .12-.04.72-.04 1.98v2.6c0 1.24.04 1.84.04 1.96 0 .2-.02.221-.2.221-.12 0-.7-.04-2-.04h-3.2v6.241c0 2.761.041 4.121.041 4.261 0 .2-.02.219-.221.219h-1.7c-.2 0-.22-.019-.22-.219 0-.14.04-1.5.04-4.261v-8.662c0-2.761-.04-4.161-.04-4.3 0-.2.02-.22.22-.22.14 0 .88.04 2.34.04zm-3.2 1.52v1.18h3.4v-1.18zm3.4 2.56h-3.4v1.361h3.4zm-.72 11.643c-.2 0-.22 0-.22-.2 0-.119.04-.62.04-3.261v-1.44c0-1.46-.04-1.98-.04-2.121 0-.2.02-.219.22-.219.14 0 .62.04 2.12.04h2.621c1.5 0 1.98-.04 2.12-.04.2 0 .221.019.221.219 0 .12-.04.641-.04 1.741v1.541c0 2.52.04 3 .04 3.12 0 .22-.02.24-.221.24h-1.464c-.22 0-.24-.02-.24-.24v-.66h-3.46v1.08c0 .2-.02.2-.239.2zm1.7-2.981h3.461v-2.52h-3.464zm10.082-1.7c0 1.4.08 3 .08 3.981 0 .961-.12 1.421-.58 1.84-.44.4-1 .541-2.78.541-.64 0-.64.019-.76-.621a5.567 5.567 0 0 0 -.461-1.48 11.738 11.738 0 0 0 1.621.1c.66 0 .82-.181.82-.781v-7.721h-3.2c-1.561 0-2.081.04-2.2.04-.22 0-.24-.021-.24-.221 0-.14.04-.6.04-1.8v-2.921c0-1.2-.04-1.68-.04-1.82 0-.2.02-.22.24-.22.12 0 .64.04 2.2.04h2.88c1.541 0 2.081-.04 2.2-.04.2 0 .219.02.219.22 0 .12-.04.96-.04 2.66zm-5.7-9.522v1.18h3.641v-1.18zm3.641 3.921v-1.361h-3.641v1.361z"/><path d="m944.163 4932.248c.18.08.32.221.32.36a1.737 1.737 0 0 1 -.16.561 8.98 8.98 0 0 0 -.18 1.96 25.2 25.2 0 0 0 .36 4.561c.28 1.581.8 2.941 1.64 2.941.64 0 1.141-.7 1.92-2.781a7.737 7.737 0 0 0 1.281 1.541.612.612 0 0 1 .14.74c-.76 2.04-2 3.12-3.4 3.12-1.56 0-3.2-1.84-3.741-5.221a36.268 36.268 0 0 1 -.48-5.821 10.728 10.728 0 0 0 -.24-2.621 8.682 8.682 0 0 1 2.54.66zm9.282 1.261a.6.6 0 0 1 .22-.08.309.309 0 0 1 .22.12 13.23 13.23 0 0 1 3.921 6.841c.06.26-.06.34-.221.44a6.825 6.825 0 0 1 -1.56.8c-.24.079-.38.019-.42-.221a13.475 13.475 0 0 0 -3.741-6.981c.76-.479 1.26-.759 1.581-.919z"/><path d="m965.283 4935.329a24.67 24.67 0 0 1 -3.7 2.36 1.437 1.437 0 0 1 -.46.2c-.14 0-.22-.14-.38-.5a4.86 4.86 0 0 0 -.94-1.341 17.8 17.8 0 0 0 7.7-6.121 6.285 6.285 0 0 0 .781-1.42c.78.12 1.52.24 2.1.38.24.08.36.139.36.32a.34.34 0 0 1 -.2.3.551.551 0 0 0 -.16.139 18.052 18.052 0 0 0 8.542 6.1 5.308 5.308 0 0 0 -.84 1.521c-.12.379-.2.52-.36.52a1.2 1.2 0 0 1 -.48-.181 21.686 21.686 0 0 1 -3.9-2.24v1.4c0 .2-.02.219-.221.219-.119 0-.66-.04-2.26-.04h-3.1c-1.6 0-2.121.04-2.261.04-.2 0-.22-.019-.22-.219zm-1.9 11.662c-.2 0-.22-.019-.22-.22 0-.12.04-.66.04-3.56v-1.721c0-1.72-.04-2.3-.04-2.42 0-.2.02-.22.22-.22.119 0 .82.04 2.74.04h6.4c1.921 0 2.621-.04 2.741-.04.22 0 .24.02.24.22 0 .119-.04.7-.04 2.12v1.96c0 2.881.04 3.421.04 3.522 0 .2-.02.22-.24.22h-1.7c-.2 0-.22-.021-.22-.22v-.66h-8.022v.759c0 .2-.02.22-.24.22zm1.94-2.8h8.022v-3.481h-8.022zm5.541-9.1c1.18 0 1.78-.02 2.061-.02a17.881 17.881 0 0 1 -3.681-3.8 19.8 19.8 0 0 1 -3.641 3.78c.24.02.8.04 2.161.04z"/><path d="m987 4936.489a8.907 8.907 0 0 1 5.742-2.341 4.752 4.752 0 0 1 4.981 5.081c0 3.082-1.881 5.2-5.321 6.442a.765.765 0 0 1 -.341.08.658.658 0 0 1 -.52-.279 5.873 5.873 0 0 0 -1.58-1.321 9.23 9.23 0 0 0 4.021-1.98 3.862 3.862 0 0 0 1.36-3.022 2.8 2.8 0 0 0 -2.98-3.1c-1.841 0-3.4.881-5.362 2.56.02 2.561.08 4.982.12 7.682 0 .16-.1.24-.26.24-.22.021-1.12.08-1.78.08-.18 0-.24-.08-.22-.28.02-2.04.06-4.141.1-6.181-.96 1.441-1.961 2.9-2.7 3.961-.1.119-.18.2-.28.2a.347.347 0 0 1 -.22-.12 13.747 13.747 0 0 1 -1.22-1.2.274.274 0 0 1 -.12-.219.346.346 0 0 1 .12-.241c1.76-2.14 2.9-3.56 4.4-5.621 0-.5 0-1.04.02-1.42-.58.18-1.52.46-2.28.74-.341.14-.54.34-.661.34-.14 0-.28-.12-.4-.36a17.02 17.02 0 0 1 -.8-1.76 9.719 9.719 0 0 0 1.36-.2c.521-.12 1.3-.3 2.841-.721.04-.859.04-1.74.04-2.6a7.254 7.254 0 0 0 -.2-1.74 15.477 15.477 0 0 1 2.321.339c.419.12.5.341.359.7a3.394 3.394 0 0 0 -.2.86c-.02.48-.059.94-.1 1.8.059-.021.1-.04.159-.061a.389.389 0 0 1 .14-.04c.141 0 .361.2.54.461.241.319.321.48.321.62s-.04.22-.341.56c-.279.36-.58.74-1.06 1.44z"/><path d="m1004.563 4933.108a8.019 8.019 0 0 0 -.28-2.12 17.443 17.443 0 0 1 2.4.34.508.508 0 0 1 .42.42 1.106 1.106 0 0 1 -.12.42 2.694 2.694 0 0 0 -.2.881c-.02.479-.02 1.24-.04 1.92 1.38-.18 3.5-.4 4.941-.56.021-1 .021-2.081.021-2.821a8.87 8.87 0 0 0 -.261-2.28 13.984 13.984 0 0 1 2.421.4c.28.08.38.18.38.38a.944.944 0 0 1 -.12.4 3.455 3.455 0 0 0 -.2.9c-.04 1.08-.06 1.86-.08 2.8 1.62-.12 2.82-.179 3.9-.219.16 0 .24.019.24.2a14.99 14.99 0 0 1 0 1.641c0 .259-.04.279-.26.279-1.321 0-2.661.06-3.981.16a30.793 30.793 0 0 1 -.24 3.081 2.327 2.327 0 0 1 -2.621 2.221 8.926 8.926 0 0 1 -1.24-.061c-.32-.019-.4-.16-.4-.519a4.862 4.862 0 0 0 -.44-1.8 6.287 6.287 0 0 0 1.7.24c.54 0 .84-.16.94-.86.08-.62.12-1.341.14-2.12-1.6.119-3.34.319-4.881.559-.02 2.181-.04 3.381.04 4.522.12 1.639.56 1.96 3 1.96a36.92 36.92 0 0 0 5.181-.4c.3-.019.36.021.4.261a12.293 12.293 0 0 1 .12 1.68c0 .24-.08.341-.26.36a45.979 45.979 0 0 1 -5.021.3c-4.041 0-5.221-.84-5.461-3.46-.1-1.081-.14-2.761-.14-4.882-1.021.141-1.661.261-2.42.421a5.847 5.847 0 0 0 -.9.3c-.26.12-.4.04-.52-.221a7.852 7.852 0 0 1 -.56-2 19.123 19.123 0 0 0 2.14-.2c.56-.08 1.521-.26 2.261-.38z"/></g><g fill="#003c6c"><path d="m806.314 4996.8v-16.115h-6.094v-4.4h17.316v4.4h-6.241v16.115z"/><path d="m821.052 4996.8v-20.51h14.3v4.249h-9.464v12.013h9.756v4.248zm2.343-8.409v-4.043h10.636v4.043z"/><path d="m839.949 4996.8v-20.51h4.982v16.115h9.141v4.4z"/></g><g fill="#003c6c"><path d="m877.262 4997.422a13.177 13.177 0 0 1 -7.313-1.959 12.354 12.354 0 0 1 -4.624-5.627 25.158 25.158 0 0 1 0-17.631 12.364 12.364 0 0 1 4.624-5.627 14.669 14.669 0 0 1 14.647 0 12.315 12.315 0 0 1 4.647 5.627 25.158 25.158 0 0 1 0 17.631 12.305 12.305 0 0 1 -4.647 5.627 13.291 13.291 0 0 1 -7.334 1.959zm0-6.561a5.124 5.124 0 0 0 4.578-2.551q1.617-2.552 1.617-7.289 0-4.875-1.617-7.5a5.31 5.31 0 0 0 -9.157 0q-1.618 2.621-1.618 7.5 0 4.739 1.618 7.289a5.122 5.122 0 0 0 4.579 2.551z"/><path d="m905.507 4997.285a14.506 14.506 0 0 1 -6.538-1.458 12.781 12.781 0 0 1 -4.852-4.191l4.146-4.556a11.794 11.794 0 0 0 3.463 2.8 8.225 8.225 0 0 0 3.552.751 5.538 5.538 0 0 0 2.6-.592 4.53 4.53 0 0 0 1.8-1.663 4.465 4.465 0 0 0 .661-2.392 4.552 4.552 0 0 0 -.661-2.437 4.93 4.93 0 0 0 -1.777-1.708 5.1 5.1 0 0 0 -2.574-.638 10.056 10.056 0 0 0 -1.959.182 10.178 10.178 0 0 0 -1.936.615 22.3 22.3 0 0 0 -2.437 1.253l-3.28-4.374 1.959-14.077h18.314v6.514h-14.628l2.005-2.55-1.5 10.113-2.733-.911a8.737 8.737 0 0 1 2.118-1.366 15.767 15.767 0 0 1 2.711-.98 11.306 11.306 0 0 1 2.915-.388 10.547 10.547 0 0 1 5.4 1.39 10.292 10.292 0 0 1 3.8 3.85 11.146 11.146 0 0 1 1.412 5.649 10.4 10.4 0 0 1 -1.595 5.672 11.572 11.572 0 0 1 -4.282 4.009 12.444 12.444 0 0 1 -6.104 1.483z"/><path d="m922.5 4996.966-1.5-3.736 9.294-10.16q.774-.864 1.686-1.959t1.776-2.255a13.83 13.83 0 0 0 1.39-2.254 4.713 4.713 0 0 0 .524-2 3.044 3.044 0 0 0 -.41-1.6 2.81 2.81 0 0 0 -1.185-1.07 4.368 4.368 0 0 0 -1.959-.388 4.135 4.135 0 0 0 -2.005.524 5.921 5.921 0 0 0 -1.8 1.618 13.792 13.792 0 0 0 -1.572 2.688l-5.74-3.1a14.754 14.754 0 0 1 2.711-4.67 12.389 12.389 0 0 1 4.123-3.142 11.719 11.719 0 0 1 5.057-1.116 11.468 11.468 0 0 1 5.1 1.207 9.209 9.209 0 0 1 3.622 3.234 8.723 8.723 0 0 1 1.344 4.852 9.437 9.437 0 0 1 -.228 2 13.2 13.2 0 0 1 -.683 2.164 17.5 17.5 0 0 1 -1.207 2.369 28.2 28.2 0 0 1 -1.8 2.619q-1.048 1.367-2.46 2.916l-7.244 7.882-.911-3.463h15.945v6.834z"/><path d="m947.1 4987.217v-6.7h15.763v6.7z"/><path d="m978.262 4997.422a13.636 13.636 0 0 1 -6.766-1.618 14.909 14.909 0 0 1 -5.262-5.58l5.558-3.6a11.86 11.86 0 0 0 2.073 2.552 7.052 7.052 0 0 0 2.233 1.388 6.885 6.885 0 0 0 2.437.434 4.915 4.915 0 0 0 2.346-.569 4.538 4.538 0 0 0 1.731-1.618 4.345 4.345 0 0 0 .661-2.369 4.686 4.686 0 0 0 -.57-2.392 3.631 3.631 0 0 0 -1.64-1.481 6.03 6.03 0 0 0 -2.574-.5 7.285 7.285 0 0 0 -1.458.16 16.95 16.95 0 0 0 -1.639.432 12.136 12.136 0 0 0 -1.777.73l-1.686-4.511 7.745-8.428 2.095 1.139-13.3-.274v-6.517h19.59l1.412 2.824-10.524 11.3-1.822-2.142a5.056 5.056 0 0 1 1.207-.341 8.733 8.733 0 0 1 1.617-.16 10.363 10.363 0 0 1 4.009.775 10.988 10.988 0 0 1 3.326 2.141 9.811 9.811 0 0 1 2.278 3.212 9.6 9.6 0 0 1 .82 3.941 10.152 10.152 0 0 1 -1.617 5.671 11.56 11.56 0 0 1 -4.373 3.942 12.9 12.9 0 0 1 -6.13 1.459z"/><path d="m994.8 4996.966-1.5-3.736 9.294-10.16q.773-.864 1.685-1.959t1.777-2.255a13.749 13.749 0 0 0 1.389-2.254 4.7 4.7 0 0 0 .525-2 3.044 3.044 0 0 0 -.41-1.6 2.81 2.81 0 0 0 -1.185-1.07 4.37 4.37 0 0 0 -1.959-.388 4.135 4.135 0 0 0 -2.005.524 5.924 5.924 0 0 0 -1.8 1.618 13.8 13.8 0 0 0 -1.571 2.688l-5.74-3.1a14.754 14.754 0 0 1 2.711-4.67 12.389 12.389 0 0 1 4.123-3.142 11.715 11.715 0 0 1 5.056-1.116 11.472 11.472 0 0 1 5.1 1.207 9.208 9.208 0 0 1 3.622 3.234 8.722 8.722 0 0 1 1.344 4.852 9.441 9.441 0 0 1 -.228 2 13.293 13.293 0 0 1 -.683 2.164 17.5 17.5 0 0 1 -1.207 2.369 28.214 28.214 0 0 1 -1.8 2.619q-1.048 1.367-2.46 2.916l-7.244 7.882-.911-3.463h15.945v6.834z"/><path d="m1030.15 4997.422a13.629 13.629 0 0 1 -6.765-1.618 14.909 14.909 0 0 1 -5.262-5.58l5.558-3.6a11.858 11.858 0 0 0 2.073 2.552 7.059 7.059 0 0 0 2.232 1.388 6.9 6.9 0 0 0 2.438.434 4.912 4.912 0 0 0 2.345-.569 4.547 4.547 0 0 0 1.732-1.618 4.352 4.352 0 0 0 .661-2.369 4.686 4.686 0 0 0 -.57-2.392 3.631 3.631 0 0 0 -1.64-1.481 6.033 6.033 0 0 0 -2.574-.5 7.277 7.277 0 0 0 -1.458.16 16.879 16.879 0 0 0 -1.64.432 12.123 12.123 0 0 0 -1.776.73l-1.687-4.511 7.745-8.428 2.1 1.139-13.3-.274v-6.517h19.59l1.412 2.824-10.523 11.3-1.822-2.142a5.043 5.043 0 0 1 1.207-.341 8.717 8.717 0 0 1 1.617-.16 10.363 10.363 0 0 1 4.009.775 10.989 10.989 0 0 1 3.326 2.141 9.827 9.827 0 0 1 2.278 3.212 9.6 9.6 0 0 1 .819 3.941 10.152 10.152 0 0 1 -1.617 5.671 11.545 11.545 0 0 1 -4.373 3.942 12.9 12.9 0 0 1 -6.135 1.459z"/><path d="m1046.322 4987.217v-6.7h15.764v6.7z"/><path d="m1074.021 4994.733v-25.877l1.687 3.873-6.834 3.235-1.321-6.925 9.066-4.42h5.011v30.114zm-5.831 2.233v-6.834h19.41v6.834z"/><path d="m1102.814 4997.285a14.509 14.509 0 0 1 -6.538-1.458 12.77 12.77 0 0 1 -4.851-4.191l4.145-4.556a11.807 11.807 0 0 0 3.463 2.8 8.23 8.23 0 0 0 3.553.751 5.538 5.538 0 0 0 2.6-.592 4.528 4.528 0 0 0 1.8-1.663 4.457 4.457 0 0 0 .661-2.392 4.544 4.544 0 0 0 -.661-2.437 4.929 4.929 0 0 0 -1.776-1.708 5.105 5.105 0 0 0 -2.574-.638 10.049 10.049 0 0 0 -1.959.182 10.188 10.188 0 0 0 -1.937.615 22.294 22.294 0 0 0 -2.436 1.253l-3.281-4.374 1.959-14.077h18.315v6.514h-14.625l2.005-2.55-1.5 10.113-2.734-.911a8.761 8.761 0 0 1 2.119-1.366 15.766 15.766 0 0 1 2.711-.98 11.3 11.3 0 0 1 2.915-.388 10.552 10.552 0 0 1 5.4 1.39 10.3 10.3 0 0 1 3.805 3.85 11.157 11.157 0 0 1 1.412 5.649 10.4 10.4 0 0 1 -1.595 5.672 11.572 11.572 0 0 1 -4.282 4.009 12.445 12.445 0 0 1 -6.114 1.483z"/><path d="m1129.967 4997.285a14.506 14.506 0 0 1 -6.538-1.458 12.774 12.774 0 0 1 -4.852-4.191l4.146-4.556a11.8 11.8 0 0 0 3.462 2.8 8.233 8.233 0 0 0 3.553.751 5.539 5.539 0 0 0 2.6-.592 4.531 4.531 0 0 0 1.8-1.663 4.465 4.465 0 0 0 .661-2.392 4.552 4.552 0 0 0 -.661-2.437 4.939 4.939 0 0 0 -1.777-1.708 5.1 5.1 0 0 0 -2.574-.638 10.057 10.057 0 0 0 -1.959.182 10.179 10.179 0 0 0 -1.936.615 22.3 22.3 0 0 0 -2.437 1.253l-3.28-4.374 1.959-14.077h18.314v6.514h-14.628l2.005-2.55-1.5 10.113-2.733-.911a8.737 8.737 0 0 1 2.118-1.366 15.766 15.766 0 0 1 2.711-.98 11.306 11.306 0 0 1 2.915-.388 10.547 10.547 0 0 1 5.4 1.39 10.292 10.292 0 0 1 3.805 3.85 11.157 11.157 0 0 1 1.412 5.649 10.4 10.4 0 0 1 -1.595 5.672 11.572 11.572 0 0 1 -4.282 4.009 12.444 12.444 0 0 1 -6.109 1.483z"/><path d="m1157.119 4997.285a14.509 14.509 0 0 1 -6.538-1.458 12.781 12.781 0 0 1 -4.852-4.191l4.146-4.556a11.8 11.8 0 0 0 3.463 2.8 8.227 8.227 0 0 0 3.553.751 5.537 5.537 0 0 0 2.6-.592 4.524 4.524 0 0 0 1.8-1.663 4.464 4.464 0 0 0 .661-2.392 4.551 4.551 0 0 0 -.661-2.437 4.927 4.927 0 0 0 -1.776-1.708 5.106 5.106 0 0 0 -2.575-.638 10.056 10.056 0 0 0 -1.959.182 10.2 10.2 0 0 0 -1.936.615 22.308 22.308 0 0 0 -2.437 1.253l-3.28-4.374 1.959-14.077h18.313v6.514h-14.625l2-2.55-1.5 10.113-2.734-.911a8.737 8.737 0 0 1 2.118-1.366 15.8 15.8 0 0 1 2.711-.98 11.312 11.312 0 0 1 2.915-.388 10.553 10.553 0 0 1 5.4 1.39 10.3 10.3 0 0 1 3.8 3.85 11.146 11.146 0 0 1 1.413 5.649 10.412 10.412 0 0 1 -1.595 5.672 11.579 11.579 0 0 1 -4.282 4.009 12.448 12.448 0 0 1 -6.102 1.483z"/></g><g fill="#003c6c"><path d="m1194.309 4960.205c.214-.083.264-.05.364.066a9.088 9.088 0 0 1 .96 1.556c.083.15.083.166-.149.249l-1.159.38h6.606a13.389 13.389 0 0 0 .844-1.589 6.159 6.159 0 0 0 .265-.828 11.705 11.705 0 0 1 1.573.481c.149.066.215.116.215.214a.33.33 0 0 1 -.148.283 1.169 1.169 0 0 0 -.348.4c-.232.381-.414.712-.63 1.043h.331c1.524 0 2.07-.032 2.186-.032.166 0 .182.016.182.181 0 .1-.033.415-.033.878v.729c0 1.456.033 1.722.033 1.82 0 .166-.016.183-.182.183h-1.325c-.166 0-.182-.017-.182-.183v-2.152h-10.645v2.136c0 .182-.016.2-.182.2h-1.325c-.166 0-.182-.017-.182-.2 0-.1.033-.365.033-1.821v-.6c0-.579-.033-.877-.033-.994 0-.165.016-.181.182-.181.117 0 .663.032 2.186.032h.381a.293.293 0 0 1 -.083-.132 7.992 7.992 0 0 0 -.845-1.523c-.1-.149-.083-.182.116-.248zm5.91 4.686c1.49 0 2.02-.034 2.135-.034.15 0 .166.017.166.2 0 .083-.033.364-.033 1.126v1.457c0 .761.033 1.043.033 1.142 0 .165-.016.182-.166.182-.115 0-.645-.033-2.135-.033h-1.258c-.15.414-.315.778-.464 1.109h3.146c1.623 0 2.2-.017 2.318-.017.165 0 .165.017.165.183 0 .1-.017.5-.017 1.274v1.06c0 1.953.017 2.317.017 2.417 0 .149 0 .166-.165.166h-1.391c-.166 0-.182-.017-.182-.166v-.5h-7.98v.563c0 .166-.016.182-.166.182h-1.407c-.165 0-.182-.016-.182-.182 0-.1.033-.463.033-2.45v-.894c0-.977-.033-1.374-.033-1.473 0-.166.017-.183.182-.183.116 0 .7.017 2.318.017h1.606a11.2 11.2 0 0 0 .464-1.109h-.679c-1.507 0-2.036.033-2.136.033-.149 0-.166-.017-.166-.182 0-.116.033-.381.033-1.142v-1.457c0-.762-.033-1.043-.033-1.126 0-.182.017-.2.166-.2.1 0 .629.034 2.136.034zm-5.811 8.129h7.98v-1.52h-7.98zm1.524-5.4h4.917v-1.44h-4.917zm2.334-7.6c.2-.065.248-.033.331.117a11.179 11.179 0 0 1 .828 1.655c.065.133.049.166-.183.232l-1.109.331c-.248.067-.265.05-.331-.132a14.406 14.406 0 0 0 -.779-1.622c-.1-.166-.048-.183.15-.249z"/><path d="m1209.886 4971.165c-1.491 0-1.988.033-2.086.033-.183 0-.2-.016-.2-.182v-.977c0-.182.016-.2.2-.2.1 0 .595.032 2.086.032h4.089v-.894h-2.334c-1.607 0-2.186.034-2.286.034-.165 0-.165-.017-.165-.183v-.943c0-.182 0-.2.165-.2.1 0 .679.034 2.286.034h2.334v-.878h-3.113c-1.589 0-2.119.033-2.219.033-.181 0-.2-.017-.2-.166v-.977c0-.165.017-.181.2-.181.1 0 .63.033 2.219.033h1.01c-.182-.4-.348-.729-.529-1.043-.083-.149-.1-.216.115-.282l1.076-.3h-2.648c-1.491 0-1.988.033-2.086.033-.183 0-.2-.017-.2-.182v-1.026c0-.183.016-.2.2-.2.1 0 .595.033 2.086.033h.114a8.013 8.013 0 0 0 -.944-1.424c-.1-.116-.067-.181.132-.281l.96-.447c.166-.083.215-.067.315.066a9.929 9.929 0 0 1 1.109 1.606c.083.149.083.166-.133.282l-.4.2h1.539v-1.093a6.452 6.452 0 0 0 -.1-1.44c.514.016 1.159.05 1.607.1.133.017.2.067.2.149a.9.9 0 0 1 -.065.282 2.559 2.559 0 0 0 -.1.91v1.093h1.341v-1.076a6.533 6.533 0 0 0 -.1-1.457 15.888 15.888 0 0 1 1.59.116c.148.017.215.066.215.149a.763.763 0 0 1 -.067.265 2.636 2.636 0 0 0 -.1.91v1.093h1.026a12.6 12.6 0 0 0 .762-1.357 3.182 3.182 0 0 0 .281-.9 13.885 13.885 0 0 1 1.606.431c.149.05.215.133.215.216a.342.342 0 0 1 -.166.281 1.637 1.637 0 0 0 -.281.314c-.215.348-.447.679-.679 1.01h.237c1.49 0 1.987-.033 2.086-.033.166 0 .182.016.182.2v1.026c0 .165-.016.182-.182.182-.1 0-.6-.033-2.086-.033h-2.9c.431.083.812.166 1.309.3.132.033.215.1.215.2a.288.288 0 0 1 -.182.248 1.137 1.137 0 0 0 -.232.348l-.3.53h1.076c1.59 0 2.119-.033 2.219-.033.165 0 .182.016.182.181v.977c0 .149-.017.166-.182.166-.1 0-.629-.033-2.219-.033h-3.344v.878h2.632c1.623 0 2.186-.034 2.285-.034.165 0 .182.017.182.2v.943c0 .166-.017.183-.182.183-.1 0-.662-.034-2.285-.034h-2.632v.894h4.358c1.49 0 1.987-.032 2.086-.032.166 0 .182.016.182.2v.977c0 .166-.016.182-.182.182-.1 0-.6-.033-2.086-.033h-2.946a15.013 15.013 0 0 0 5.512 2.152 4.7 4.7 0 0 0 -.645 1.06c-.133.314-.2.431-.364.431a1.815 1.815 0 0 1 -.381-.083 14.464 14.464 0 0 1 -5.563-2.964c0 1.97.082 3 .082 3.278 0 .165-.016.182-.181.182h-1.408c-.149 0-.166-.017-.166-.182 0-.281.05-1.242.067-3.212a13.425 13.425 0 0 1 -5.315 2.964 1.3 1.3 0 0 1 -.381.1c-.148 0-.214-.116-.364-.431a3.95 3.95 0 0 0 -.662-.993 13.735 13.735 0 0 0 5.281-2.3zm6.39-5.579c.149-.282.282-.564.447-.961a3.018 3.018 0 0 0 .182-.662h-4.221c.049.016.083.066.132.133a10.306 10.306 0 0 1 .744 1.49z"/><path d="m1229.187 4968.284c0 4.122.034 4.867.034 4.967 0 .165-.017.182-.182.182h-1.192c-.15 0-.166-.017-.166-.182v-.729h-1.523v1.308c0 .166-.016.183-.166.183h-1.224c-.167 0-.183-.017-.183-.183 0-.1.033-.943.033-5.1v-3.609c0-3-.033-3.874-.033-3.974 0-.165.016-.181.183-.181.115 0 .429.033 1.423.033h1.424c.993 0 1.308-.033 1.424-.033.165 0 .182.016.182.181 0 .1-.034.912-.034 3.345zm-3.029-5.778v3.428h1.523v-3.428zm1.523 8.51v-3.577h-1.523v3.577zm4.4-4.4c-1.573 0-2.119.034-2.219.034-.182 0-.2-.017-.2-.2v-1.15c0-.165.016-.182.2-.182.1 0 .646.033 2.219.033h1.192v-1.7h-.778c-1.474 0-1.987.033-2.086.033-.183 0-.2-.016-.2-.182v-1.159c0-.182.016-.2.2-.2.1 0 .612.034 2.086.034h.778a13.766 13.766 0 0 0 -.116-1.872c.646.017 1.093.05 1.7.117.166.016.265.083.265.165a.916.916 0 0 1 -.1.347 3.846 3.846 0 0 0 -.083 1.243h1.11c1.505 0 2-.034 2.1-.034.165 0 .182.017.182.2v1.159c0 .166-.017.182-.182.182-.1 0-.6-.033-2.1-.033h-1.11v1.7h1.755c1.572 0 2.119-.033 2.219-.033.181 0 .2.017.2.182v1.142c0 .183-.017.2-.2.2-.1 0-.647-.034-2.219-.034zm.066 3.113c-1.573 0-2.1.033-2.2.033-.182 0-.2-.017-.2-.183v-1.158c0-.166.017-.183.2-.183.1 0 .629.034 2.2.034h3.261a12.109 12.109 0 0 0 -.115-1.457c.629.033 1.224.083 1.672.149.182.033.281.1.281.182a.551.551 0 0 1 -.083.281 2.114 2.114 0 0 0 -.082.845c1.126 0 1.572-.034 1.655-.034.183 0 .2.017.2.183v1.158c0 .166-.015.183-.2.183-.083 0-.529-.017-1.655-.033v1.638c0 .762.016 1.474.016 2.037a1.54 1.54 0 0 1 -.58 1.408 3.824 3.824 0 0 1 -2.152.363c-.5 0-.513 0-.629-.5a3.678 3.678 0 0 0 -.5-1.209c.579.05 1.076.066 1.622.066.4 0 .546-.132.546-.512v-3.295zm-.282.463c.166-.1.216-.1.348.017a13.2 13.2 0 0 1 1.523 1.9c.1.15.083.2-.083.315l-1.01.7c-.1.067-.148.1-.2.1s-.083-.033-.133-.116a13.83 13.83 0 0 0 -1.457-2.037c-.115-.132-.115-.181.083-.3z"/><path d="m1245.543 4960.586c1.076 0 1.572-.033 1.672-.033.148 0 .165.016.165.2 0 .1-.032.58-.032 1.573v2.053c0 1.01.032 1.474.032 1.573 0 .182-.017.2-.165.2-.1 0-.6-.033-1.672-.033h-2.683v5.364c0 2.285.033 3.411.033 3.527 0 .165-.016.182-.181.182h-1.407c-.166 0-.183-.017-.183-.182 0-.116.033-1.242.033-3.527v-7.168c0-2.3-.033-3.46-.033-3.56 0-.182.017-.2.183-.2.115 0 .745.033 1.953.033zm-2.683 1.241v.978h2.865v-.978zm2.865 2.1h-2.865v.994h2.865zm-.629 10.116c-.166 0-.183-.017-.183-.2 0-.1.033-.546.033-3v-1.457c0-1.457-.033-1.955-.033-2.07 0-.166.017-.182.183-.182.116 0 .512.033 1.771.033h2.235c1.258 0 1.656-.033 1.772-.033.165 0 .182.016.182.182 0 .1-.034.6-.034 1.788v1.639c0 2.4.034 2.848.034 2.931 0 .165-.017.181-.182.181h-1.192c-.166 0-.183-.016-.183-.181v-.514h-3.029v.679c0 .182-.017.2-.2.2zm1.374-4.487h3.029v-1.109h-3.029zm3.029 2.351v-1.159h-3.029v1.159zm5.447-2.169c0 1.159.067 2.484.067 3.295a1.8 1.8 0 0 1 -.481 1.523c-.348.314-.811.447-2.367.447-.5 0-.5.016-.6-.514a5.18 5.18 0 0 0 -.4-1.208 11.268 11.268 0 0 0 1.39.083c.546 0 .679-.149.679-.646v-6.606h-2.715c-1.292 0-1.722.033-1.821.033-.166 0-.183-.016-.183-.2 0-.1.034-.48.034-1.457v-2.285c0-.96-.034-1.357-.034-1.457 0-.182.017-.2.183-.2.1 0 .529.033 1.821.033h2.434c1.291 0 1.738-.033 1.837-.033.166 0 .182.016.182.2 0 .1-.033.778-.033 2.186zm-4.767-7.914v.978h3.062v-.978zm3.062 3.1v-.994h-3.062v.994z"/><path d="m1193.166 4993.862c.232.845.63 1.209 1.325 1.209 1.407 0 2.218-1.192 2.3-4.5a2.716 2.716 0 0 1 -2.583 1.506c-1.92 0-3.36-1.572-3.36-4.072 0-2.732 1.49-4.421 3.807-4.421 2.5 0 4.106 1.805 4.106 6.06 0 5.049-1.589 7.019-4.3 7.019a3.164 3.164 0 0 1 -3.328-2.036zm1.573-8.691c-1.225 0-1.788 1.059-1.788 2.781 0 1.606.679 2.533 1.738 2.533a2.189 2.189 0 0 0 2-1.589c-.013-2.467-.589-3.725-1.95-3.725z"/><path d="m1209.274 4986.628a1.4 1.4 0 0 1 -1.423 1.424 1.38 1.38 0 0 1 -1.408-1.424 1.4 1.4 0 0 1 1.408-1.407 1.42 1.42 0 0 1 1.423 1.407zm0 7a1.4 1.4 0 0 1 -1.423 1.424 1.38 1.38 0 0 1 -1.408-1.424 1.4 1.4 0 0 1 1.408-1.407 1.42 1.42 0 0 1 1.423 1.41z"/><path d="m1224.867 4990.071c0 4.686-1.424 6.589-4.006 6.589-2.6 0-3.957-1.87-3.957-6.556s1.441-6.523 3.99-6.523 3.973 1.819 3.973 6.49zm-5.827.017c0 3.725.513 4.933 1.821 4.933 1.341 0 1.87-1.225 1.87-4.933 0-3.726-.512-4.867-1.837-4.867-1.294 0-1.854 1.125-1.854 4.867z"/><path d="m1234.352 4990.071c0 4.686-1.423 6.589-4.005 6.589-2.6 0-3.957-1.87-3.957-6.556s1.44-6.523 3.99-6.523 3.972 1.819 3.972 6.49zm-5.827.017c0 3.725.513 4.933 1.822 4.933 1.34 0 1.87-1.225 1.87-4.933 0-3.726-.513-4.867-1.837-4.867-1.292 0-1.855 1.125-1.855 4.867z"/><path d="m1236.14 4990.6c1.34-1.539 2.533-2.285 3.907-2.285a6.882 6.882 0 0 1 3.361 1.043c1.722.911 2.582 1.258 3.493 1.258 1.043 0 1.854-.3 3.079-1.589l.663.7c-1.292 1.638-2.55 2.35-3.941 2.35a6.73 6.73 0 0 1 -3.36-1.076 7.306 7.306 0 0 0 -3.493-1.258c-1.011 0-1.772.3-3.031 1.539z"/><path d="m1257.61 4994.822h2.367v1.607h-6.82v-1.607h2.484v-9.006a9.218 9.218 0 0 1 -2.335 1.126l-.331-1.738a9.346 9.346 0 0 0 2.947-1.49h1.688z"/><path d="m1269.976 4993.15c0 2.1-1.6 3.51-4.072 3.51-2.5 0-4.09-1.307-4.09-3.443 0-1.457.762-2.318 2.451-3.146a3.355 3.355 0 0 1 -2.153-3.228c0-1.822 1.507-3.262 3.776-3.262 2.234 0 3.807 1.325 3.807 3.195a2.992 2.992 0 0 1 -2.219 2.881c1.824.862 2.5 1.855 2.5 3.493zm-4.453-2.45c-1.175.646-1.738 1.324-1.738 2.384a1.952 1.952 0 0 0 2.1 2.054 1.877 1.877 0 0 0 2.119-1.921c0-.993-.481-1.557-2-2.285zm.729-1.638a2.27 2.27 0 0 0 1.489-2.2 1.721 1.721 0 0 0 -1.853-1.755 1.662 1.662 0 0 0 -1.822 1.722c0 .862.414 1.407 1.722 2.02z"/><path d="m1280.323 4986.628a1.4 1.4 0 0 1 -1.424 1.424 1.38 1.38 0 0 1 -1.407-1.424 1.4 1.4 0 0 1 1.407-1.407 1.42 1.42 0 0 1 1.424 1.407zm0 7a1.4 1.4 0 0 1 -1.424 1.424 1.38 1.38 0 0 1 -1.407-1.424 1.4 1.4 0 0 1 1.407-1.407 1.42 1.42 0 0 1 1.424 1.41z"/><path d="m1295.916 4990.071c0 4.686-1.424 6.589-4.006 6.589-2.6 0-3.957-1.87-3.957-6.556s1.44-6.523 3.99-6.523 3.973 1.819 3.973 6.49zm-5.827.017c0 3.725.512 4.933 1.821 4.933 1.341 0 1.87-1.225 1.87-4.933 0-3.726-.512-4.867-1.837-4.867-1.292 0-1.854 1.125-1.854 4.867z"/><path d="m1305.4 4990.071c0 4.686-1.424 6.589-4.006 6.589-2.6 0-3.957-1.87-3.957-6.556s1.441-6.523 3.991-6.523 3.972 1.819 3.972 6.49zm-5.827.017c0 3.725.513 4.933 1.821 4.933 1.341 0 1.871-1.225 1.871-4.933 0-3.726-.513-4.867-1.837-4.867-1.291 0-1.854 1.125-1.854 4.867z"/></g></g><path d="m239.371 8.357h261.248" fill="none" stroke="#004272" stroke-miterlimit="10"/></svg>