<svg xmlns="http://www.w3.org/2000/svg" width="94.967" height="60.141" viewBox="0 0 94.967 60.141">
  <g id="_01" data-name="01" transform="translate(-2210.555 -1645.322)">
    <path id="パス_5704" data-name="パス 5704" d="M2248.675,1649.354a26.447,26.447,0,0,0-26.408,0,22.282,22.282,0,0,0-8.337,10.144,45.374,45.374,0,0,0,0,31.789,22.274,22.274,0,0,0,8.337,10.145,26.453,26.453,0,0,0,26.408,0,22.2,22.2,0,0,0,8.379-10.145,45.374,45.374,0,0,0,0-31.789A22.207,22.207,0,0,0,2248.675,1649.354Zm-4.969,39.181a9.707,9.707,0,0,1-16.51,0q-2.918-4.6-2.916-13.142,0-8.79,2.916-13.512a9.576,9.576,0,0,1,16.51,0q2.913,4.724,2.916,13.512Q2246.622,1683.936,2243.706,1688.535Z" fill="#fff" stroke="#004272" stroke-miterlimit="10" stroke-width="1"/>
    <path id="パス_5705" data-name="パス 5705" d="M2294.261,1691.82v-46h-9.035l-16.346,7.967,2.382,12.486,9.282-4.394v29.938H2270.03v12.321h34.992V1691.82Z" fill="#fff" stroke="#004272" stroke-miterlimit="10" stroke-width="1"/>
  </g>
</svg>
