<svg xmlns="http://www.w3.org/2000/svg" width="97.431" height="60.634" viewBox="0 0 97.431 60.634">
  <g id="_02" data-name="02" transform="translate(-2887.015 -2035.585)">
    <path id="パス_6227" data-name="パス 6227" d="M2925.134,2040.11a26.447,26.447,0,0,0-26.408,0,22.28,22.28,0,0,0-8.336,10.144,45.374,45.374,0,0,0,0,31.789,22.272,22.272,0,0,0,8.336,10.145,26.453,26.453,0,0,0,26.408,0,22.2,22.2,0,0,0,8.379-10.145,45.374,45.374,0,0,0,0-31.789A22.208,22.208,0,0,0,2925.134,2040.11Zm-4.969,39.181a9.707,9.707,0,0,1-16.51,0q-2.916-4.6-2.916-13.142,0-8.79,2.916-13.512a9.576,9.576,0,0,1,16.51,0q2.914,4.723,2.916,13.512Q2923.081,2074.692,2920.165,2079.291Z" fill="#fff" stroke="#004272" stroke-miterlimit="10" stroke-width="1"/>
    <path id="パス_6228" data-name="パス 6228" d="M2962.577,2082.576l7.323-7.966q2.544-2.793,4.435-5.258a50.525,50.525,0,0,0,3.244-4.723,31.445,31.445,0,0,0,2.177-4.271,23.747,23.747,0,0,0,1.233-3.9,17.07,17.07,0,0,0,.411-3.614,15.726,15.726,0,0,0-2.424-8.748,16.621,16.621,0,0,0-6.53-5.832,20.722,20.722,0,0,0-9.2-2.177,21.117,21.117,0,0,0-9.117,2.013,22.309,22.309,0,0,0-7.433,5.668,26.508,26.508,0,0,0-4.888,8.419l10.35,5.585a24.775,24.775,0,0,1,2.834-4.846,10.638,10.638,0,0,1,3.244-2.916,7.422,7.422,0,0,1,3.614-.944,7.886,7.886,0,0,1,3.532.7,5.064,5.064,0,0,1,2.136,1.93,5.493,5.493,0,0,1,.739,2.875,8.468,8.468,0,0,1-.945,3.614,24.8,24.8,0,0,1-2.505,4.065q-1.561,2.1-3.2,4.067t-3.039,3.532l-16.757,18.317,2.711,6.736h39.427v-12.322Z" fill="#fff" stroke="#004272" stroke-miterlimit="10" stroke-width="1"/>
  </g>
</svg>
