<svg xmlns="http://www.w3.org/2000/svg" width="98.583" height="60.141" viewBox="0 0 98.583 60.141">
  <g id="_03" data-name="03" transform="translate(-2210.637 -2422.449)">
    <path id="パス_6229" data-name="パス 6229" d="M2248.758,2426.481a26.449,26.449,0,0,0-26.409,0,22.294,22.294,0,0,0-8.337,10.144,45.374,45.374,0,0,0,0,31.789,22.286,22.286,0,0,0,8.337,10.145,26.455,26.455,0,0,0,26.409,0,22.2,22.2,0,0,0,8.379-10.145,45.374,45.374,0,0,0,0-31.789A22.207,22.207,0,0,0,2248.758,2426.481Zm-4.969,39.181a9.708,9.708,0,0,1-16.511,0q-2.916-4.6-2.916-13.142,0-8.79,2.916-13.512a9.576,9.576,0,0,1,16.511,0q2.913,4.723,2.916,13.512Q2246.705,2461.063,2243.789,2465.662Z" fill="#fff" stroke="#004272" stroke-miterlimit="10" stroke-width="1"/>
    <path id="パス_6230" data-name="パス 6230" d="M2307.241,2455.025a17.729,17.729,0,0,0-4.107-5.791,19.8,19.8,0,0,0-6-3.861,18.284,18.284,0,0,0-4.754-1.227l14.693-15.775-2.546-5.094h-35.32v11.747l18.424.378-12.182,13.257,3.04,8.132a21.926,21.926,0,0,1,3.2-1.314,30.1,30.1,0,0,1,2.957-.781,13.1,13.1,0,0,1,2.629-.288,10.883,10.883,0,0,1,4.641.905,6.537,6.537,0,0,1,2.957,2.67,8.462,8.462,0,0,1,1.026,4.312,7.846,7.846,0,0,1-1.19,4.271,8.2,8.2,0,0,1-3.122,2.916,8.866,8.866,0,0,1-4.23,1.026,12.482,12.482,0,0,1-4.394-.779,12.738,12.738,0,0,1-4.026-2.506,21.38,21.38,0,0,1-3.737-4.6l-10.021,6.488q4.27,7.147,9.487,10.063a24.589,24.589,0,0,0,12.2,2.916,23.241,23.241,0,0,0,11.048-2.629,20.847,20.847,0,0,0,7.886-7.1,18.334,18.334,0,0,0,2.916-10.227A17.3,17.3,0,0,0,2307.241,2455.025Z" fill="#fff" stroke="#004272" stroke-miterlimit="10" stroke-width="1"/>
  </g>
</svg>
