<svg xmlns="http://www.w3.org/2000/svg" width="104.66" height="60.141" viewBox="0 0 104.66 60.141">
  <g id="_04" data-name="04" transform="translate(-2888.478 -2819.069)">
    <path id="パス_6263" data-name="パス 6263" d="M2926.6,2823.1a26.439,26.439,0,0,0-26.407,0,22.271,22.271,0,0,0-8.337,10.144,45.368,45.368,0,0,0,0,31.787,22.265,22.265,0,0,0,8.337,10.145,26.445,26.445,0,0,0,26.407,0,22.189,22.189,0,0,0,8.379-10.145,45.368,45.368,0,0,0,0-31.787A22.2,22.2,0,0,0,2926.6,2823.1Zm-4.968,39.18a9.707,9.707,0,0,1-16.51,0q-2.916-4.6-2.916-13.142,0-8.788,2.916-13.513a9.576,9.576,0,0,1,16.51,0q2.913,4.725,2.916,13.513Q2924.545,2857.684,2921.629,2862.282Z" fill="#fff" stroke="#004272" stroke-miterlimit="10" stroke-width="1"/>
    <path id="パス_6264" data-name="パス 6264" d="M2992.638,2854.561h-9.365V2819.9H2972.02l-29.324,35.4,5.586,10.76H2969.8v11.828h13.47v-11.828h9.365Zm-34.13,0,11.295-13.841v13.841Z" fill="#fff" stroke="#004272" stroke-miterlimit="10" stroke-width="1"/>
  </g>
</svg>
