<svg xmlns="http://www.w3.org/2000/svg" width="402.798" height="64.586" viewBox="0 0 402.798 64.586">
  <g id="continued" transform="translate(-2495.591 -3237.604)">
    <path id="パス_6250" data-name="パス 6250" d="M2503.5,3300.626l.141-.352c4.722-7.471,15.506-23.963,15.506-36.368,0-4.933-1.691-9.163-5.991-12.052-6.554-4.37-15.435-3.383-16.351-5.145a1.577,1.577,0,0,1-.212-.705c0-5.639,34.535-7.4,64.983-7.4,21.5,0,40.949.916,44.755,1.9a.589.589,0,0,1,.423.563.706.706,0,0,1-.7.7h-.07c-4.088-1.128-21.779-1.833-41.8-1.833-30.448,0-66.111,1.621-66.322,5.992,0,.422.987.493,3.172.845,3.382.493,8.669,1.269,12.827,4.018,3.6,2.4,6.414,6.343,6.414,12.968,0,5.215-1.762,12.123-6.273,21.214,8.669-12.193,17.62-25.373,26.642-37.213a.532.532,0,0,1,.493-.282.681.681,0,0,1,.634.634.639.639,0,0,1-.07.353c-12.334,17.62-25.162,34.535-37.073,52.437a.726.726,0,0,1-.564.282A.556.556,0,0,1,2503.5,3300.626Z" fill="#004272" stroke="#004272" stroke-linecap="round" stroke-linejoin="round" stroke-width="2"/>
    <path id="パス_6251" data-name="パス 6251" d="M2524.782,3287.729a2.122,2.122,0,0,1-1.48-2.256,8.642,8.642,0,0,1,1.128-3.806,17.334,17.334,0,0,1,5.779-5.779l.282-.071a.681.681,0,0,1,.634.634.533.533,0,0,1-.281.494,16.313,16.313,0,0,0-4.582,4.229,8.951,8.951,0,0,0-1.762,4.228c0,.776.282,1.269,1.269,1.34h.141c2.4,0,6.554-4.088,7.541-5.709a4.66,4.66,0,0,1-1.55-3.384c0-1.409.846-2.466,1.9-2.466a1.52,1.52,0,0,1,.775.141,2.383,2.383,0,0,1,1.41,2.325,6.539,6.539,0,0,1-.917,3.1,5.714,5.714,0,0,0,2.326.423c4.017,0,10.22-2.82,12.686-4.37.212-.141.283-.141.353-.141.211-.07.494.353.423.423a.511.511,0,0,1-.282.423c-2.326,1.48-8.81,4.933-13.391,4.933a5.94,5.94,0,0,1-2.819-.634c-1.833,2.538-5.568,6.061-8.529,6.061A2.761,2.761,0,0,1,2524.782,3287.729Zm9.938-9.938c0-.775-.352-1.269-.705-1.34h-.141c-.564,0-.775.494-.775,1.128a3.5,3.5,0,0,0,.986,2.326A4.137,4.137,0,0,0,2534.72,3277.791Z" fill="#004272" stroke="#004272" stroke-linecap="round" stroke-linejoin="round" stroke-width="2"/>
    <path id="パス_6252" data-name="パス 6252" d="M2563.614,3286.39c.705-8.388,15.224-25.162,21-31.153,4.862-5.075,9.3-8.6,11.7-8.6a1.654,1.654,0,0,1,1.2.423,1.7,1.7,0,0,1,.494,1.268c0,6.907-29.391,29.179-29.391,29.179-2.043,3.383-3.453,6.272-3.735,8.246l-.071.563c0,.776.282,1.27.987,1.34l.635.071c3.594,0,8.246-4.582,10.148-7.471a4.811,4.811,0,0,1-2.4-3.1l-.07-.563a2.531,2.531,0,0,1,2.678-2.4,2.308,2.308,0,0,1,2.4,2.467,6.4,6.4,0,0,1-.845,3.03,11.421,11.421,0,0,0,4.158.7,23.414,23.414,0,0,0,11.488-3.594,1,1,0,0,1,.423-.141.371.371,0,0,1,.423.423.438.438,0,0,1-.282.423,24.019,24.019,0,0,1-12.405,4.017,11.81,11.81,0,0,1-4.44-.775c-3.171,5-8.387,8.246-11.488,8.246A2.341,2.341,0,0,1,2563.614,3286.39Zm33.338-37.707a.834.834,0,0,0-.846-.917c-3.454,0-17.057,14.167-25.373,26.571C2573.411,3272.293,2596.952,3253.334,2596.952,3248.683Zm-18.96,28.05a1.113,1.113,0,0,0-1.127-1.268c-.705,0-1.481.493-1.481,1.2a3.42,3.42,0,0,0,1.833,2.537A5.588,5.588,0,0,0,2577.992,3276.733Z" fill="#004272" stroke="#004272" stroke-linecap="round" stroke-linejoin="round" stroke-width="2"/>
    <path id="パス_6253" data-name="パス 6253" d="M2589.831,3284.769a12.873,12.873,0,0,1,.142-1.481c.7-3.735,3.876-6.977,7.189-8.528a8.026,8.026,0,0,1,2.96-.776,1.651,1.651,0,0,1,1.691.988,1.158,1.158,0,0,1,.141.705c0,1.691-2.749,3.171-5.145,3.171a3.5,3.5,0,0,1-2.4-.776c-1.48,1.41-3.172,4.018-3.172,6.274a3.543,3.543,0,0,0,1.692,3.1,8.166,8.166,0,0,0,4.3.846c10.854,0,34.958-8.6,50.112-10.008h.14a.187.187,0,0,1,.212.211c0,.142-.071.212-.282.282-13.039,1.269-37.848,10.713-50.182,10.713C2592.721,3289.49,2589.831,3288.222,2589.831,3284.769Zm10.925-9.092-.071-.212a.7.7,0,0,0-.7-.353c-1.339,0-4.159,1.692-4.652,2.115a2.452,2.452,0,0,0,1.48.422C2598.5,3277.649,2600.756,3276.451,2600.756,3275.677Z" fill="#004272" stroke="#004272" stroke-linecap="round" stroke-linejoin="round" stroke-width="2"/>
    <path id="パス_6254" data-name="パス 6254" d="M2658.687,3285.332a6.985,6.985,0,0,1,.141-1.128c1.057-4.722,8.458-10.148,11.981-10.148a2.248,2.248,0,0,1,.987.211,1.334,1.334,0,0,1,.846,1.2,5.01,5.01,0,0,1-1.339,2.749.613.613,0,0,1-.423.211.759.759,0,0,1-.7-.7l.141-.353a4.071,4.071,0,0,0,1.057-1.763c0-.07-.07-.21-.141-.21a1.034,1.034,0,0,0-.493-.071c-2.467,0-9.726,4.792-10.713,9.162l-.071.7c0,1.057.846,1.551,2.256,1.551,6.061,0,22.7-8.881,24.316-9.938a.517.517,0,0,1,.423-.141c.14,0,.211,0,.281.141.071.07.141.141.141.212a.531.531,0,0,1-.352.493c-2.044,1.48-18.184,10.29-25.162,10.29C2659.955,3287.8,2658.687,3287.094,2658.687,3285.332Z" fill="#004272" stroke="#004272" stroke-linecap="round" stroke-linejoin="round" stroke-width="2"/>
    <path id="パス_6255" data-name="パス 6255" d="M2682.226,3287.729a2.122,2.122,0,0,1-1.48-2.256,8.652,8.652,0,0,1,1.127-3.806,17.347,17.347,0,0,1,5.78-5.779l.282-.071a.681.681,0,0,1,.634.634.533.533,0,0,1-.281.494,16.31,16.31,0,0,0-4.582,4.229,8.941,8.941,0,0,0-1.762,4.228c0,.776.282,1.269,1.269,1.34h.141c2.4,0,6.555-4.088,7.541-5.709a4.66,4.66,0,0,1-1.55-3.384c0-1.409.845-2.466,1.9-2.466a1.521,1.521,0,0,1,.776.141,2.383,2.383,0,0,1,1.41,2.325,6.539,6.539,0,0,1-.917,3.1,5.713,5.713,0,0,0,2.326.423c4.017,0,10.219-2.82,12.686-4.37.212-.141.282-.141.353-.141.211-.07.493.353.423.423a.511.511,0,0,1-.282.423c-2.326,1.48-8.81,4.933-13.391,4.933a5.946,5.946,0,0,1-2.82-.634c-1.832,2.538-5.567,6.061-8.528,6.061A2.76,2.76,0,0,1,2682.226,3287.729Zm9.938-9.938c0-.775-.353-1.269-.705-1.34h-.141c-.564,0-.775.494-.775,1.128a3.5,3.5,0,0,0,.986,2.326A4.139,4.139,0,0,0,2692.164,3277.791Z" fill="#004272" stroke="#004272" stroke-linecap="round" stroke-linejoin="round" stroke-width="2"/>
    <path id="パス_6256" data-name="パス 6256" d="M2700.056,3287.165l.141-.352c1.057-1.551,6.555-9.375,8.317-11.136a.385.385,0,0,1,.352-.212.757.757,0,0,1,.705.7.615.615,0,0,1-.211.423c-.917.916-3.454,4.369-4.722,6.132,3.453-3.1,8.316-6.837,11.065-6.837h.282c1.973.212,2.114,2.537,2.114,4.793v1.268c0,1.48.071,2.749.775,3.1.142.141.423.141.776.141,3.594,0,14.73-7.119,16.633-8.387.212-.141.282-.141.353-.141a.5.5,0,0,1,.423.211.466.466,0,0,1-.212.635c-2.538,1.691-13.039,8.881-17.409,8.881a2.019,2.019,0,0,1-1.2-.283c-2.537-1.55-.211-8.739-2.4-8.951h-.282c-3.665,0-12.193,8.458-14.378,10.5a.518.518,0,0,1-.423.141A.7.7,0,0,1,2700.056,3287.165Z" fill="#004272" stroke="#004272" stroke-linecap="round" stroke-linejoin="round" stroke-width="2"/>
    <path id="パス_6257" data-name="パス 6257" d="M2735.365,3286.53a3.98,3.98,0,0,1-1.128-2.96,14.847,14.847,0,0,1,2.044-6.484l.281-.493c3.736-7.048,9.727-13.674,15.154-19.664-8.81.563-17.409,1.056-24.175,2.184h-.211a.472.472,0,0,1-.494-.423.547.547,0,0,1,.564-.493c7.189-1.2,16.211-2.044,25.584-2.607.283-.142,7.33-8.035,10.431-8.035a1.268,1.268,0,0,1,1.058.493,1.19,1.19,0,0,1,.211.7c0,1.339-1.9,3.665-4.44,6.484,9.374-.423,18.607-.634,26.219-.634,4.158,0,7.753.07,10.713.14.423,0,.634.212.634.494a.571.571,0,0,1-.634.493c-2.044-.07-4.37-.07-6.978-.07-8.528,0-19.875.281-31.152.846-5.568,5.99-13.814,13.673-18.4,17.9l-3.382,3.172a12.844,12.844,0,0,0-1.9,5.779,3.085,3.085,0,0,0,.845,2.256,4.609,4.609,0,0,0,3.242,1.057c6.978,0,20.228-7.682,23.823-9.938l.282-.07a.991.991,0,0,1,.422.141l.071.282a.61.61,0,0,1-.212.423c-3.453,2.255-16.774,10.36-24.456,10.36A5.541,5.541,0,0,1,2735.365,3286.53Zm21.989-29.884-3.876.212a138.864,138.864,0,0,0-13.885,16.845C2744.034,3269.545,2751.857,3262.285,2757.354,3256.646Zm1.339-1.338c.071-.071,4.864-5.076,4.864-6.344l-.071-.211c-.071-.07-.141-.07-.282-.07-1.621,0-7.964,6.342-8.387,6.836Z" fill="#004272" stroke="#004272" stroke-linecap="round" stroke-linejoin="round" stroke-width="2"/>
    <path id="パス_6258" data-name="パス 6258" d="M2758.9,3287.094a2.4,2.4,0,0,1-.635-1.692c0-3.171,4.37-8.1,6.062-9.867a.613.613,0,0,1,.422-.211.758.758,0,0,1,.705.7.605.605,0,0,1-.211.423c-1.48,1.41-5.78,6.485-5.78,8.881a1.334,1.334,0,0,0,.353.916,2.013,2.013,0,0,0,1.2.353c4.863,0,20.087-8.247,22.765-9.8a2.734,2.734,0,0,1,.423-.141c.141,0,.282.07.282.141l.141.282c0,.141-.141.282-.353.423-.7.493-17.056,10.22-23.328,10.22A2.838,2.838,0,0,1,2758.9,3287.094Zm9.444-14.659v-.283c.493-1.621,2.185-3.665,3.877-3.665h.14a.617.617,0,0,1,.564.635.629.629,0,0,1-.634.634h-.212c-.986,0-2.537,1.621-2.96,2.607-.141.353-.352.494-.493.494C2768.417,3272.857,2768.347,3272.716,2768.347,3272.435Z" fill="#004272" stroke="#004272" stroke-linecap="round" stroke-linejoin="round" stroke-width="2"/>
    <path id="パス_6259" data-name="パス 6259" d="M2776.309,3287.165l.142-.352c1.057-1.551,6.554-9.375,8.316-11.136a.387.387,0,0,1,.353-.212.758.758,0,0,1,.7.7.613.613,0,0,1-.212.423c-.916.916-3.453,4.369-4.722,6.132,3.453-3.1,8.316-6.837,11.065-6.837h.282c1.974.212,2.114,2.537,2.114,4.793v1.268c0,1.48.071,2.749.776,3.1.141.141.423.141.775.141,3.594,0,14.731-7.119,16.634-8.387.211-.141.281-.141.352-.141a.5.5,0,0,1,.423.211.466.466,0,0,1-.211.635c-2.538,1.691-13.04,8.881-17.409,8.881a2.015,2.015,0,0,1-1.2-.283c-2.538-1.55-.212-8.739-2.4-8.951h-.282c-3.665,0-12.193,8.458-14.378,10.5a.517.517,0,0,1-.422.141A.7.7,0,0,1,2776.309,3287.165Z" fill="#004272" stroke="#004272" stroke-linecap="round" stroke-linejoin="round" stroke-width="2"/>
    <path id="パス_6260" data-name="パス 6260" d="M2818.666,3286.953a1.62,1.62,0,0,1-.846-1.551c0-1.621,1.269-4.017,2.185-5.567-1.2.916-7.682,6.413-10.713,6.413a1.479,1.479,0,0,1-1.41-.846,3.542,3.542,0,0,1-.14-.845c0-2.89,4.722-7.612,6.131-9.022a.613.613,0,0,1,.423-.211.7.7,0,0,1,.635.7.606.606,0,0,1-.212.423c-2.467,2.326-5.709,6.132-5.709,7.965v.282c.07.281.282.352.564.352,2.326,0,11.982-7.612,12.616-8.528a.518.518,0,0,1,.423-.141.632.632,0,0,1,.634.635l-.141.352c-.423.634-3.947,5.638-3.947,7.682a.808.808,0,0,0,.423.775,1.363,1.363,0,0,0,.564.071c3.595,0,16.281-8.387,17.338-9.092a.7.7,0,0,1,.423-.141.411.411,0,0,1,.352.141l.071.212a.56.56,0,0,1-.353.493c-2.748,1.9-14.025,9.585-18.4,9.585A3.59,3.59,0,0,1,2818.666,3286.953Z" fill="#004272" stroke="#004272" stroke-linecap="round" stroke-linejoin="round" stroke-width="2"/>
    <path id="パス_6261" data-name="パス 6261" d="M2834.592,3286.953a2.927,2.927,0,0,1-1.268-2.537,7.061,7.061,0,0,1,.14-1.128c.7-3.735,3.877-6.977,7.26-8.528a8.4,8.4,0,0,1,2.96-.776,1.6,1.6,0,0,1,1.691.917,2.07,2.07,0,0,1,.142.7c0,1.692-2.82,3.243-5.216,3.243a3.5,3.5,0,0,1-2.4-.776c-1.48,1.481-3.313,4.23-3.313,6.2a2.035,2.035,0,0,0,.776,1.692,3.064,3.064,0,0,0,2.044.563h.281c5.991,0,20.721-9.867,21.074-9.867a.539.539,0,0,1,.353.141.494.494,0,0,1,.14.282c0,.141-.07.282-.352.423-3.524,2.255-15.435,10.22-21.708,10.22A4.4,4.4,0,0,1,2834.592,3286.953Zm9.726-11.276c-.14-.423-.281-.565-.845-.565-1.339,0-4.088,1.692-4.581,2.115a2.232,2.232,0,0,0,1.409.422C2841.993,3277.649,2844.318,3276.451,2844.318,3275.677Z" fill="#004272" stroke="#004272" stroke-linecap="round" stroke-linejoin="round" stroke-width="2"/>
    <path id="パス_6262" data-name="パス 6262" d="M2853.9,3287.023a2.271,2.271,0,0,1-1.34-2.114c0-4.017,8.246-11.276,12.476-11.276,1.268,0,2.185.7,2.325,2.4v.072a.64.64,0,0,1-.7.563.516.516,0,0,1-.564-.563,1.2,1.2,0,0,0-1.339-1.27c-3.1,0-11,6.978-11,10.009a1.115,1.115,0,0,0,.7,1.057,1.28,1.28,0,0,0,.776.141c1.973,0,5.709-2.256,10.219-5.639,2.679-7.47,23.893-33.9,30.448-33.9a1.879,1.879,0,0,1,.846.212,1.423,1.423,0,0,1,.634,1.269c0,3.665-8.881,12.827-10.29,14.377a177.906,177.906,0,0,1-20.439,18.537,4.609,4.609,0,0,0-.564,2.185,1.707,1.707,0,0,0,1.128,1.832,6.219,6.219,0,0,0,1.2.141c5.216,0,16.07-6.061,19.594-8.246a.519.519,0,0,1,.423-.141c.141,0,.282,0,.352.141l.071.212a.533.533,0,0,1-.282.493c-3.454,2.467-15.153,8.739-20.581,8.739a4.4,4.4,0,0,1-1.48-.211,2.42,2.42,0,0,1-1.621-2.608,4.528,4.528,0,0,1,.142-1.339c-4.37,3.172-8.035,5.145-10.15,5.145A2.231,2.231,0,0,1,2853.9,3287.023Zm32.068-25.3c.846-.916,10.29-11.065,10.29-13.461a.6.6,0,0,0-.14-.423,1.044,1.044,0,0,0-.635-.142c-5.074,0-24.95,25.021-27.981,31.153A198.246,198.246,0,0,0,2885.971,3261.721Z" fill="#004272" stroke="#004272" stroke-linecap="round" stroke-linejoin="round" stroke-width="2"/>
  </g>
</svg>
