<svg height="822.208" viewBox="0 0 694.825 822.208" width="694.825" xmlns="http://www.w3.org/2000/svg" xmlns:xlink="http://www.w3.org/1999/xlink"><linearGradient id="a" gradientUnits="objectBoundingBox" x1="1051.618" x2="1051.192" y1=".824" y2=".021"><stop offset="0" stop-color="#fff"/><stop offset="1" stop-color="#d0d2eb"/></linearGradient><g transform="translate(-816.525 -1015.485)"><path d="m1080.7 1836.239-243.8-139.419c-3.724-2.151-3.254-5.942 1.048-8.427l244.807-141.882c4.3-2.479 10.871-2.749 14.6-.6l243.8 139.429c3.728 2.151 3.254 5.939-1.042 8.421l-244.813 141.875c-4.3 2.485-10.869 2.758-14.6.603z" fill="#9ab4c7" opacity=".5"/><path d="m1079.817 1808.138-261.217-150.233c-3.078-1.779-2.688-4.91.864-6.962l252.827-145.829c3.556-2.053 8.98-2.276 12.057-.5l261.214 150.237c3.083 1.78 2.689 4.913-.861 6.966l-252.828 145.825c-3.549 2.05-8.98 2.273-12.056.496z" fill="#fff"/><path d="m971.906 1709.8c9.641.153 17.273 3.451 17.052 7.37s-8.217 6.972-17.855 6.819-17.274-3.454-17.052-7.366 8.216-6.977 17.855-6.823z" fill="#9ab4c7" opacity=".25"/><path d="m1007.265 1721.27c9.638.153 17.271 3.451 17.052 7.366s-8.216 6.976-17.856 6.823-17.275-3.454-17.052-7.369 8.218-6.972 17.856-6.82z" fill="#9ab4c7" opacity=".25"/><path d="m1031 1714.168c9.642.152 17.273 3.451 17.052 7.369s-8.216 6.972-17.856 6.82-17.273-3.451-17.05-7.366 8.214-6.972 17.854-6.823z" fill="#9ab4c7" opacity=".25"/><path d="m990.075 1624.834 89.837-54.563a28.382 28.382 0 0 1 28.664-.467l139.693 78.457a10.515 10.515 0 0 1 .295 18.145l-89.69 54.5a28.382 28.382 0 0 1 -28.654.48l-139.844-78.4a10.514 10.514 0 0 1 -.301-18.152z" fill="#9ab4c7" opacity=".5"/><path d="m994.233 1628.5 4.188-1.614 87.542-53.171a28.388 28.388 0 0 1 28.667-.467l133.791 75.132 11.23 4.656v2.45a10.417 10.417 0 0 1 -5.033 9.524l-89.69 54.5a28.376 28.376 0 0 1 -28.654.48l-139.849-78.394a10.459 10.459 0 0 1 -5.3-10.277z" fill="#9ab4c7"/><path d="m991.125 1628.247 7.3 1.033 87.542-53.171a28.371 28.371 0 0 1 28.667-.467l35.868 19.934v127.795a28.356 28.356 0 0 1 -14.224-3.642l-139.849-78.393a10.463 10.463 0 0 1 -5.3-10.277z" fill="#c8d7e1" opacity=".8"/><path d="m996.125 1620.264 89.838-54.559a28.381 28.381 0 0 1 28.667-.467l139.689 78.45a10.517 10.517 0 0 1 .3 18.148l-89.69 54.5a28.38 28.38 0 0 1 -28.654.477l-139.849-78.39a10.519 10.519 0 0 1 -.301-18.159z" fill="#fefffc"/><g fill="#c8d7e1"><path d="m0 0h1.401v7.478h-1.401z" transform="matrix(.50702697 -.86193019 .86193019 .50702697 1001.231 1618.289)"/><path d="m0 0h1.402v7.477h-1.402z" transform="matrix(.506 -.863 .863 .506 1016.399 1609.148)"/><path d="m0 0h1.402v7.477h-1.402z" transform="matrix(.50702697 -.86193019 .86193019 .50702697 1031.568 1599.999)"/><path d="m1053.894 1593.434-.712 1.208-6.446-3.788.712-1.208z"/><path d="m0 0h1.404v7.476h-1.404z" transform="matrix(.50687653 -.86201867 .86201867 .50687653 1061.906 1581.708)"/><path d="m0 0h1.403v7.478h-1.403z" transform="matrix(.50415085 -.86361561 .86361561 .50415085 1077.661 1572.862)"/><path d="m1100.056 1566.439-.712 1.208-6.448-3.785.715-1.21z"/><path d="m0 0h1.405v7.476h-1.405z" transform="matrix(.505 -.863 .863 .505 996.677 1629.076)"/><path d="m0 0h1.403v7.475h-1.403z" transform="matrix(.50713227 -.86186824 .86186824 .50713227 1011.85 1619.921)"/><path d="m1034.176 1613.352-.71 1.214-6.448-3.788.709-1.211z"/><path d="m0 0h1.403v7.477h-1.403z" transform="matrix(.50857564 -.86101732 .86101732 .50857564 1042.189 1601.625)"/><path d="m1064.513 1595.064-.712 1.208-6.448-3.785.715-1.208z"/><path d="m0 0h1.407v7.476h-1.407z" transform="matrix(.507 -.862 .862 .507 1073.114 1583.629)"/><path d="m1095.506 1577.218-.712 1.208-6.448-3.788.715-1.211z"/><path d="m0 0h133.359v1.403h-133.359z" transform="matrix(.86016398 -.51001757 .51001757 .86016398 991.213 1630.602)"/><path d="m0 0h139.069v1.403h-139.069z" transform="matrix(.8588437 -.51223774 .51223774 .8588437 994.796 1637.046)"/><path d="m0 0h1.403v7.477h-1.403z" transform="matrix(.506 -.863 .863 .506 1010.202 1629.446)"/><path d="m0 0h1.401v7.476h-1.401z" transform="matrix(.507 -.862 .862 .507 1025.374 1620.294)"/><path d="m0 0h1.405v7.477h-1.405z" transform="matrix(.50597355 -.86254899 .86254899 .50597355 1040.54 1611.156)"/><path d="m0 0h1.403v7.476h-1.403z" transform="matrix(.50616924 -.86243417 .86243417 .50616924 1055.709 1602.009)"/><path d="m0 0h1.405v7.477h-1.405z" transform="matrix(.508 -.861 .861 .508 1070.881 1592.855)"/><path d="m1093.793 1586.583-.709 1.21-6.448-3.791.712-1.208z"/><path d="m1109.03 1577.59-.715 1.211-6.445-3.788.712-1.208z"/><path d="m0 0h139.069v1.404h-139.069z" transform="matrix(.859 -.512 .512 .859 1001.72 1641.338)"/><path d="m0 0h1.402v7.477h-1.402z" transform="matrix(.50516039 -.86302548 .86302548 .50516039 1011.143 1636.995)"/><path d="m0 0h1.402v7.476h-1.402z" transform="matrix(.50601871 -.8625225 .8625225 .50601871 1026.313 1627.846)"/><path d="m0 0h1.405v7.477h-1.405z" transform="matrix(.50671102 -.86211597 .86211597 .50671102 1041.484 1618.697)"/><path d="m0 0h1.403v7.477h-1.403z" transform="matrix(.507 -.862 .862 .507 1056.652 1609.551)"/><path d="m0 0h1.405v7.476h-1.405z" transform="matrix(.506 -.863 .863 .506 1071.819 1600.412)"/><path d="m0 0h1.404v7.476h-1.404z" transform="matrix(.50671102 -.86211597 .86211597 .50671102 1087.579 1591.55)"/><path d="m0 0h1.403v7.477h-1.403z" transform="matrix(.508 -.861 .861 .508 1102.814 1582.553)"/><path d="m1129.422 1574.939-119.442 71.234-.718-1.2 119.436-71.24z"/><path d="m0 0h1.405v7.477h-1.405z" transform="matrix(.506 -.863 .863 .506 1024.667 1637.368)"/><path d="m0 0h1.401v7.478h-1.401z" transform="matrix(.508 -.861 .861 .508 1039.839 1628.213)"/><path d="m1062.164 1621.653-.712 1.208-6.448-3.788.712-1.208z"/><path d="m1077.332 1612.5-.709 1.211-6.451-3.785.715-1.211z"/><path d="m0 0h1.404v7.476h-1.404z" transform="matrix(.509 -.861 .861 .509 1085.348 1600.772)"/><path d="m0 0h1.401v7.477h-1.401z" transform="matrix(.50616924 -.86243417 .86243417 .50616924 1101.102 1591.927)"/><path d="m1123.5 1585.512-.715 1.21-6.445-3.788.712-1.208z"/><path d="m0 0h139.068v1.403h-139.068z" transform="matrix(.859 -.512 .512 .859 1016.187 1649.26)"/><path d="m0 0h1.402v7.477h-1.402z" transform="matrix(.50702697 -.86193019 .86193019 .50702697 1025.612 1644.908)"/><path d="m0 0h1.403v7.476h-1.403z" transform="matrix(.50756844 -.86161144 .86161144 .50756844 1040.781 1635.762)"/><path d="m0 0h1.407v7.476h-1.407z" transform="matrix(.507 -.862 .862 .507 1055.947 1626.621)"/><path d="m0 0h1.403v7.477h-1.403z" transform="matrix(.50671102 -.86211597 .86211597 .50671102 1071.117 1617.474)"/><path d="m0 0h1.401v7.477h-1.401z" transform="matrix(.50798944 -.8613633 .8613633 .50798944 1086.289 1608.323)"/><path d="m0 0h1.404v7.476h-1.404z" transform="matrix(.50687653 -.86201867 .86201867 .50687653 1102.045 1599.472)"/><path d="m1124.436 1593.059-.712 1.208-6.444-3.785.708-1.211z"/><path d="m0 0h139.068v1.406h-139.068z" transform="matrix(.859 -.512 .512 .859 1023.726 1652.887)"/><path d="m0 0h1.406v7.475h-1.406z" transform="matrix(.50671102 -.86211597 .86211597 .50671102 1039.134 1645.286)"/><path d="m0 0h1.404v7.477h-1.404z" transform="matrix(.505 -.863 .863 .505 1054.3 1636.146)"/><path d="m1076.63 1629.575-.715 1.208-6.445-3.788.712-1.208z"/><path d="m0 0h1.404v7.476h-1.404z" transform="matrix(.507 -.862 .862 .507 1084.64 1617.849)"/><path d="m0 0h1.405v7.476h-1.405z" transform="matrix(.507 -.862 .862 .507 1099.807 1608.704)"/><path d="m0 0h1.407v7.476h-1.407z" transform="matrix(.508 -.861 .861 .508 1115.57 1599.841)"/><path d="m0 0h1.401v7.477h-1.401z" transform="matrix(.50789924 -.86141649 .86141649 .50789924 1130.803 1590.849)"/><path d="m0 0h139.068v1.406h-139.068z" transform="matrix(.859 -.512 .512 .859 1030.651 1657.18)"/><path d="m0 0h1.401v7.477h-1.401z" transform="matrix(.508 -.861 .861 .508 1040.078 1652.825)"/><path d="m0 0h1.406v7.477h-1.406z" transform="matrix(.506 -.863 .863 .506 1055.242 1643.691)"/><path d="m1077.57 1637.119-.712 1.208-6.445-3.785.709-1.21z"/><path d="m0 0h1.402v7.478h-1.402z" transform="matrix(.50516039 -.86302548 .86302548 .50516039 1085.58 1625.401)"/><path d="m0 0h1.403v7.479h-1.403z" transform="matrix(.50789924 -.86141649 .86141649 .50789924 1100.751 1616.245)"/><path d="m0 0h1.402v7.478h-1.402z" transform="matrix(.507 -.862 .862 .507 1116.51 1607.391)"/><path d="m0 0h1.405v7.475h-1.405z" transform="matrix(.508 -.861 .861 .508 1131.745 1598.396)"/><path d="m0 0h139.069v1.406h-139.069z" transform="matrix(.8588437 -.51223774 .51223774 .8588437 1038.191 1660.809)"/><path d="m0 0h1.404v7.476h-1.404z" transform="matrix(.50595849 -.86255783 .86255783 .50595849 1053.597 1653.211)"/><path d="m0 0h1.403v7.474h-1.403z" transform="matrix(.50789924 -.86141649 .86141649 .50789924 1068.77 1644.057)"/><path d="m0 0h1.405v7.477h-1.405z" transform="matrix(.50853055 -.86104395 .86104395 .50853055 1083.938 1634.909)"/><path d="m0 0h1.404v7.478h-1.404z" transform="matrix(.50671102 -.86211597 .86211597 .50671102 1099.104 1625.771)"/><path d="m0 0h1.402v7.476h-1.402z" transform="matrix(.50687653 -.86201867 .86201867 .50687653 1114.273 1616.625)"/><path d="m0 0h1.404v7.476h-1.404z" transform="matrix(.509 -.86 .86 .509 1130.037 1607.757)"/><path d="m0 0h1.404v7.475h-1.404z" transform="matrix(.50687653 -.86201867 .86201867 .50687653 1145.267 1598.777)"/><path d="m0 0h139.068v1.404h-139.068z" transform="matrix(.85882581 -.51226772 .51226772 .85882581 1045.116 1665.104)"/><path d="m1061.7 1663.333-.715 1.208-6.446-3.788.714-1.208z"/><path d="m1076.868 1654.187-.712 1.208-6.448-3.788.712-1.208z"/><path d="m0 0h1.402v7.476h-1.402z" transform="matrix(.50687653 -.86201867 .86201867 .50687653 1084.879 1642.46)"/><path d="m1107.2 1635.9-.709 1.208-6.451-3.782.715-1.214z"/><path d="m1122.374 1626.75-.715 1.208-6.445-3.788.712-1.207z"/><path d="m0 0h1.401v7.477h-1.401z" transform="matrix(.50789924 -.86141649 .86141649 .50789924 1130.978 1615.308)"/><path d="m1153.367 1608.9-.715 1.21-6.445-3.788.712-1.208z"/><path d="m0 0h139.071v1.403h-139.071z" transform="matrix(.859 -.512 .512 .859 1052.656 1668.732)"/><path d="m0 0h1.405v7.475h-1.405z" transform="matrix(.509 -.861 .861 .509 1068.066 1661.121)"/><path d="m1090.39 1654.562-.712 1.208-6.448-3.785.715-1.211z"/><path d="m1105.56 1645.416-.715 1.208-6.445-3.788.712-1.208z"/><path d="m1120.728 1636.271-.712 1.208-6.448-3.788.715-1.208z"/><path d="m0 0h1.401v7.477h-1.401z" transform="matrix(.505 -.863 .863 .505 1128.737 1624.553)"/><path d="m1151.657 1618.265-.715 1.211-6.445-3.785.709-1.211z"/><path d="m0 0h1.403v7.477h-1.403z" transform="matrix(.506 -.862 .862 .506 1159.731 1606.699)"/><path d="m0 0h139.069v1.404h-139.069z" transform="matrix(.859 -.512 .512 .859 1059.581 1673.027)"/><path d="m0 0h1.404v7.477h-1.404z" transform="matrix(.50671102 -.86211597 .86211597 .50671102 1069.005 1668.674)"/><path d="m0 0h1.404v7.477h-1.404z" transform="matrix(.505 -.863 .863 .505 1084.172 1659.534)"/><path d="m0 0h1.403v7.477h-1.403z" transform="matrix(.50687653 -.86201867 .86201867 .50687653 1099.343 1650.382)"/><path d="m0 0h1.406v7.476h-1.406z" transform="matrix(.507 -.862 .862 .507 1114.511 1641.239)"/><path d="m1136.839 1634.672-.712 1.208-6.448-3.788.712-1.208z"/><path d="m0 0h1.405v7.477h-1.405z" transform="matrix(.508 -.861 .861 .508 1145.441 1623.228)"/><path d="m0 0h1.405v7.477h-1.405z" transform="matrix(.50844038 -.8610972 .8610972 .50844038 1160.675 1614.238)"/><path d="m1187.28 1606.622-119.441 71.24-.718-1.21 119.437-71.233z"/><path d="m0 0h1.405v7.475h-1.405z" transform="matrix(.508 -.861 .861 .508 1082.531 1669.044)"/><path d="m0 0h1.407v7.476h-1.407z" transform="matrix(.50579289 -.86265495 .86265495 .50579289 1097.696 1659.911)"/><path d="m1120.022 1653.335-.708 1.211-6.448-3.785.709-1.214z"/><path d="m0 0h1.403v7.477h-1.403z" transform="matrix(.507 -.862 .862 .507 1128.035 1641.612)"/><path d="m0 0h1.407v7.476h-1.407z" transform="matrix(.506 -.863 .863 .506 1143.202 1632.474)"/><path d="m0 0h1.402v7.476h-1.402z" transform="matrix(.50698184 -.86195673 .86195673 .50698184 1158.963 1623.609)"/><path d="m0 0h1.403v7.477h-1.403z" transform="matrix(.508 -.862 .862 .508 1174.197 1614.615)"/><path d="m0 0h139.069v1.405h-139.069z" transform="matrix(.859 -.512 .512 .859 1074.046 1680.945)"/><path d="m1090.628 1679.174-.712 1.208-6.445-3.785.709-1.211z"/><path d="m0 0h1.401v7.477h-1.401z" transform="matrix(.50616924 -.86243417 .86243417 .50616924 1098.639 1667.45)"/><path d="m0 0h1.405v7.477h-1.405z" transform="matrix(.50851552 -.86105282 .86105282 .50851552 1113.809 1658.298)"/><path d="m0 0h1.405v7.477h-1.405z" transform="matrix(.506 -.863 .863 .506 1128.974 1649.166)"/><path d="m0 0h1.405v7.478h-1.405z" transform="matrix(.50671102 -.86211597 .86211597 .50671102 1144.146 1640.014)"/><path d="m1167.063 1633.735-.715 1.208-6.445-3.788.712-1.208z"/><path d="m0 0h1.4v7.478h-1.4z" transform="matrix(.50616924 -.86243417 .86243417 .50616924 1175.137 1622.166)"/><path d="m1201.742 1614.544-119.437 71.237-.718-1.208 119.437-71.237z"/><path d="m0 0h1.401v7.477h-1.401z" transform="matrix(.508 -.862 .862 .508 1096.994 1676.964)"/><path d="m1119.317 1670.4-.709 1.211-6.448-3.788.715-1.208z"/><path d="m0 0h1.402v7.477h-1.402z" transform="matrix(.50618429 -.86242534 .86242534 .50618429 1127.33 1658.68)"/><path d="m0 0h1.405v7.477h-1.405z" transform="matrix(.509 -.861 .861 .509 1142.502 1649.527)"/><path d="m1164.826 1642.969-.712 1.208-6.448-3.788.715-1.208z"/><path d="m0 0h1.402v7.477h-1.402z" transform="matrix(.50516039 -.86302548 .86302548 .50516039 1173.426 1631.538)"/><path d="m0 0h1.405v7.475h-1.405z" transform="matrix(.507 -.862 .862 .507 1188.662 1622.541)"/><path d="m0 0h139.069v1.407h-139.069z" transform="matrix(.859 -.512 .512 .859 1088.51 1688.866)"/><path d="m0 0h1.406v7.476h-1.406z" transform="matrix(.50595849 -.86255783 .86255783 .50595849 1097.934 1684.52)"/><path d="m1120.261 1677.951-.712 1.208-6.448-3.785.715-1.211z"/><path d="m0 0h1.404v7.476h-1.404z" transform="matrix(.507 -.862 .862 .507 1128.273 1666.225)"/><path d="m0 0h1.402v7.476h-1.402z" transform="matrix(.50671102 -.86211597 .86211597 .50671102 1143.442 1657.082)"/><path d="m0 0h1.402v7.476h-1.402z" transform="matrix(.5062746 -.86237232 .86237232 .5062746 1158.611 1647.936)"/><path d="m0 0h1.402v7.477h-1.402z" transform="matrix(.50600366 -.86253133 .86253133 .50600366 1174.368 1639.08)"/><path d="m0 0h1.402v7.478h-1.402z" transform="matrix(.50616924 -.86243417 .86243417 .50616924 1189.603 1630.088)"/><path d="m0 0h139.069v1.404h-139.069z" transform="matrix(.859 -.512 .512 .859 1096.052 1692.497)"/><path d="m0 0h1.402v7.479h-1.402z" transform="matrix(.506 -.863 .863 .506 1111.456 1684.893)"/><path d="m0 0h1.404v7.477h-1.404z" transform="matrix(.50671102 -.86211597 .86211597 .50671102 1126.628 1675.748)"/><path d="m0 0h1.404v7.476h-1.404z" transform="matrix(.50698184 -.86195673 .86195673 .50698184 1141.796 1666.602)"/><path d="m0 0h1.405v7.475h-1.405z" transform="matrix(.509 -.861 .861 .509 1156.968 1657.448)"/><path d="m1179.288 1650.889-.708 1.211-6.448-3.788.715-1.211z"/><path d="m1195.05 1642.032-.712 1.208-6.448-3.788.715-1.208z"/><path d="m0 0h1.407v7.476h-1.407z" transform="matrix(.506 -.863 .863 .506 1203.125 1630.469)"/><path d="m0 0h139.067v1.408h-139.067z" transform="matrix(.85885264 -.51222275 .51222275 .85885264 1102.977 1696.784)"/><path d="m0 0h1.403v7.477h-1.403z" transform="matrix(.50687653 -.86201867 .86201867 .50687653 1112.4 1692.437)"/><path d="m1134.729 1685.87-.715 1.211-6.448-3.788.715-1.211z"/><path d="m0 0h1.404v7.477h-1.404z" transform="matrix(.505 -.863 .863 .505 1142.735 1674.153)"/><path d="m1165.064 1667.582-.712 1.208-6.445-3.785.709-1.211z"/><path d="m0 0h1.404v7.477h-1.404z" transform="matrix(.50516039 -.86302548 .86302548 .50516039 1173.074 1655.864)"/><path d="m1195.991 1649.576-.709 1.211-6.448-3.788.709-1.211z"/><path d="m0 0h1.401v7.477h-1.401z" transform="matrix(.506 -.862 .862 .506 1204.069 1638.008)"/><path d="m0 0h139.069v1.404h-139.069z" transform="matrix(.859 -.512 .512 .859 1110.517 1700.416)"/><path d="m1133.08 1695.39-.708 1.211-6.448-3.788.709-1.211z"/><path d="m1148.251 1686.248-.715 1.208-6.444-3.788.712-1.208z"/><path d="m0 0h1.404v7.476h-1.404z" transform="matrix(.50698184 -.86195673 .86195673 .50698184 1156.262 1674.521)"/><path d="m0 0h1.407v7.476h-1.407z" transform="matrix(.508 -.861 .861 .508 1171.432 1665.371)"/><path d="m0 0h1.401v7.477h-1.401z" transform="matrix(.5062746 -.86237232 .86237232 .5062746 1186.598 1656.232)"/><path d="m1209.515 1649.954-.712 1.208-6.448-3.788.715-1.208z"/><path d="m1224.747 1640.961-.709 1.211-6.448-3.788.712-1.208z"/><path d="m1237.6 1634.678-119.437 71.237-.718-1.208 119.434-71.233z"/><path d="m0 0h1.406v7.477h-1.406z" transform="matrix(.506 -.863 .863 .506 1126.863 1700.363)"/><path d="m1149.195 1693.792-.715 1.207-6.445-3.784.712-1.208z"/><path d="m0 0h1.402v7.476h-1.402z" transform="matrix(.5059886 -.86254016 .86254016 .5059886 1157.203 1682.07)"/><path d="m1179.53 1675.5-.712 1.208-6.448-3.788.712-1.208z"/><path d="m0 0h1.404v7.476h-1.404z" transform="matrix(.50687653 -.86201867 .86201867 .50687653 1187.54 1663.777)"/><path d="m1210.456 1657.5-.709 1.211-6.451-3.788.715-1.208z"/><path d="m1225.69 1648.508-.712 1.208-6.448-3.785.715-1.211z"/><path d="m1245.139 1638.308-119.439 71.236-.718-1.208 119.438-71.236z"/><path d="m1147.545 1703.312-.712 1.208-6.448-3.785.715-1.211z"/><path d="m0 0h1.404v7.478h-1.404z" transform="matrix(.50959715 -.86041312 .86041312 .50959715 1155.561 1691.578)"/><path d="m1177.884 1685.024-.712 1.208-6.448-3.788.715-1.208z"/><path d="m1193.051 1675.875-.708 1.211-6.448-3.785.709-1.211z"/><path d="m0 0h1.403v7.477h-1.403z" transform="matrix(.508 -.862 .862 .508 1201.065 1664.15)"/><path d="m0 0h1.404v7.477h-1.404z" transform="matrix(.50508508 -.86306956 .86306956 .50508508 1216.819 1655.302)"/><path d="m0 0h1.404v7.477h-1.404z" transform="matrix(.505 -.863 .863 .505 1232.054 1646.312)"/><path d="m0 0h139.067v1.404h-139.067z" transform="matrix(.859 -.512 .512 .859 1131.907 1712.629)"/><path d="m0 0h1.404v7.477h-1.404z" transform="matrix(.505 -.863 .863 .505 1141.328 1708.288)"/><path d="m0 0h1.405v7.476h-1.405z" transform="matrix(.506 -.863 .863 .506 1156.498 1699.141)"/><path d="m0 0h1.402v7.476h-1.402z" transform="matrix(.50618429 -.86242534 .86242534 .50618429 1171.668 1689.992)"/><path d="m0 0h1.405v7.477h-1.405z" transform="matrix(.50859066 -.86100844 .86100844 .50859066 1186.838 1680.838)"/><path d="m0 0h1.404v7.478h-1.404z" transform="matrix(.508 -.862 .862 .508 1202.006 1671.696)"/><path d="m1224.921 1665.417-.709 1.214-6.451-3.788.715-1.211z"/><path d="m0 0h1.406v7.477h-1.406z" transform="matrix(.50671102 -.86211597 .86211597 .50671102 1232.997 1653.851)"/><path d="m0 0h136.994v1.404h-136.994z" transform="matrix(.859 -.512 .512 .859 1139.447 1716.26)"/><path d="m1162.011 1711.235-.712 1.208-6.448-3.785.715-1.208z"/><path d="m1177.181 1702.089-.715 1.208-6.445-3.788.712-1.208z"/><path d="m0 0h1.404v7.477h-1.404z" transform="matrix(.505 -.863 .863 .505 1185.187 1690.373)"/><path d="m0 0h1.404v7.476h-1.404z" transform="matrix(.504 -.864 .864 .504 1200.356 1681.232)"/><path d="m0 0h1.404v7.477h-1.404z" transform="matrix(.50687653 -.86201867 .86201867 .50687653 1215.53 1672.073)"/><path d="m0 0h1.402v7.476h-1.402z" transform="matrix(.50616924 -.86243417 .86243417 .50616924 1231.287 1663.219)"/><path d="m1253.68 1656.805-.715 1.208-6.444-3.788.712-1.208z"/><path d="m0 0h128.873v1.403h-128.873z" transform="matrix(.86034196 -.50971728 .50971728 .86034196 1148.179 1719.035)"/></g><path d="m1043.5 1578.184c-7.058-4.1-5.944-6.048-9.187-9.95-1.808-2.177-4.337-.848-11.065-1-8.521-.19-2.928-3.279-9.859-.057-3.94 1.834-2.5 2.361-2.747 3.826-2.757.181-5.657 2.132-9.461 1.437-1.1-.2-1.959 2.144-2.446 2.659-.944 1.008-3.045 1.02-4.049 1.926-1.4 1.265-4.109.705-5.7 1.694-2.477 1.541-.559 2.672-.614 4.605-.046 1.573 1.935 1.862 2.925 2.532 2.032 1.382-1.375 4.706 3.855 5.695 1.563.3 1.67.95 2.475 1.459-.386.473-.712.861-.953 1.1-1.252 1.271-7.481 2.946-12.468 4.687a16.809 16.809 0 0 0 -3.618-1.649 22.257 22.257 0 0 0 -5.036-.591l-1.684 1.779a3.992 3.992 0 0 0 -2.7 3.016c-.5 2.835 2.211 6.073 6.056 7.239 1.91.582.062 3.677 1.483 3.14 0 0 3.731-1.223 6.171-2.272 1.993-.861 2.3-3.2 2.579-4.77a4.571 4.571 0 0 0 -.442-2.755c3.855-2.714 8.115-5.755 13.337-5.428a30.383 30.383 0 0 0 6.81-.422c-.233.839.045 1.639 1.643 2.51 2.833 1.544 8.038 1.573 11.52 4.033 3.1 2.189 5.183-3.639 7.464-4.348 3.176-.991 5.107 1.113 8.086.588 4.654-.826 4.317-3.292 7.09-5.85 2.256-2.078-3.351-.8-2.93-2.132 2.256-7.105 10.388-8.685 3.465-12.701zm-35.667 16.54c-2.555.426-4.928.636-5.323-.095a18.452 18.452 0 0 1 4.09-1.125 5.616 5.616 0 0 1 1.439.88c-.069.116-.139.229-.205.34z" fill="#9ab4c7" opacity=".5"/><path d="m979.319 1549.4c-3.422-3.839-3.133 1.067-8.966-2.492-1.079-.654-1.5-1.481-3.24-1.5-1.762-.019-2.85-2.92-3.881-1.042-1.263-1.923-2.569-.864-3.964-.575-2.026-.976-3.42-.687-3.576 1.363-3.36-1.007-2.867 4.242-4.9 6.394-4.643 1.992-6.94-1.942-9.958 1.989-1.9 2.485-.095 6.74-3.806 9.711-1.011.808 2.286 3.254 2.831 4.055 1.053 1.548-.226 3.378.634 4.907 1.2 2.129-1.395 4.074-.764 6.168.986 3.27 4.013 2.428 7.131 3.877 2.537 1.185 4.234-.324 5.944-.7 3.509-.76 6.821 4.6 11.667.791 1.965-1.551 3.348-.292 5.426-1.808 1.821-1.332.529-4.112 2.522-5.441 5.024-3.342 5.6-.47 10.124-4.178 2.426-1.986-4.2-4.513-3.98-9.559.281-6.39 4.67-7.569.756-11.96z" fill="#c8d7e1"/><path d="m981.2 1607.578a17.163 17.163 0 0 1 -15.552 0c-2.166-1.252-3.25-2.9-3.245-4.537l-.014 2.7c-.005 1.636 1.076 3.282 3.246 4.534 4.309 2.489 11.27 2.489 15.549 0 2.131-1.236 3.192-2.853 3.2-4.477l.017-2.695c-.011 1.619-1.077 3.236-3.201 4.475z" fill="#e6effb"/><path d="m981.145 1598.566c-4.307-2.488-11.271-2.488-15.549 0s-4.26 6.518.048 9.009a17.163 17.163 0 0 0 15.552 0c4.282-2.488 4.257-6.521-.051-9.009z" fill="#fff"/><path d="m980.387 1599.875a15.638 15.638 0 0 0 -14.031 0c-1.556.906-2.446 2.063-2.446 3.178 0 1.131.909 2.3 2.49 3.213a15.62 15.62 0 0 0 14.035 0c1.555-.9 2.445-2.059 2.442-3.178s-.908-2.301-2.49-3.213z" fill="#9ab4c7"/><path d="m980.417 1571.275c-.081-.114-.039-3.82-.1-3.746-.968-4.182-2.585 11.157-6.278 10.677-.361-3.467 2.6-7.639 1.7-10.823-.062-.112-.037-.121-.118-.175-6.519-.534-2.215 11.414-5.936 11.929-5.142.712-7.782-14.738-10.283-12.234-1.465 2.491 8.476 13.331 10.191 15.984 1.932 2.99-1.5 16.185.58 21.015.65 1.512 4.017 1.868 6.857-.629.495-.436 1.424 1.935 1.424 1.261 0-6.238-8.427-16.54-2.679-23.093 2.778-3.165 3.91-6.975 4.642-10.166z" fill="#6a90ad"/><path d="m993.441 1533.018c-4.731-2-4.194-11-13-10.515-3.572.2-4.157-2.409-7.833-2.346-3.221.061-4 4.373-7.416 4.287-8.626-.219-6.932-4.045-15.277-3.432-4.471.331 1.2 8.73-3.205 14.456-5.579 7.252-11.678 5.021-10.709 13.375.848 7.3 4.541 1.329 8.44 10.277.723 1.659.542 2.971 2.558 4.421 2.045 1.464.931 5.761 3.682 4.4-.1 3.289 2.3 3.121 4.163 3.937 1.566 2.806 3.436 3.61 5.3 1.345 3.1 3.934 6.839-2.606 10.977-3.458 7.073 1.481 6.528 7.973 13.285 5.854 4.268-1.338 5.652-7.8 12.433-8.224 1.845-.118 0-5.692.021-7.074.04-2.673 3.041-3.763 3.292-6.257.351-3.477 4.981-3.623 5.962-6.588 1.533-4.636-2.7-6.14-5.155-10.4-1.993-3.461-5.217-3.089-7.518-4.058z" fill="#c8d7e1"/><path d="m993.441 1533.018c-4.506-1.9-4.242-10.147-11.8-10.515 8.245 2.551 8.987 14.624 2.261 18.927a10.507 10.507 0 0 1 .822 7.525c12.385 1.1 12 20.881-1.091 20.881-7.208 0-10.556-5.978-10.059-11.545-4.457 1.63-9.1 2.695-13.634 4.245-4.808 1.647-10.164-1.344-12.265-5.72-10.425-2.831-9.425-20.538 2.966-20.538a9.492 9.492 0 0 1 8.546 4.621c1.177-.331 2.356-.652 3.534-.985a25.363 25.363 0 0 0 6.565-2.559c-.075-.158-.148-.32-.215-.486a10.358 10.358 0 0 1 -4.989 1.195c-9.487 0-12.28-10.344-8.426-16.486a13.112 13.112 0 0 0 -5.734-.566c-4.471.331 1.2 8.73-3.205 14.456-5.579 7.252-11.678 5.021-10.709 13.375.848 7.3 4.541 1.329 8.44 10.277.723 1.659.542 2.971 2.558 4.421 2.045 1.464.931 5.761 3.682 4.4-.1 3.289 2.3 3.121 4.163 3.937 1.566 2.806 3.436 3.61 5.3 1.345 3.1 3.934 6.839-2.606 10.977-3.458 7.073 1.481 6.528 7.973 13.285 5.854 4.268-1.338 5.652-7.8 12.433-8.224 1.845-.118 0-5.692.021-7.074.04-2.673 3.041-3.763 3.292-6.257.351-3.477 4.981-3.623 5.962-6.588 1.533-4.636-2.7-6.14-5.155-10.4-2-3.461-5.224-3.089-7.525-4.058z" fill="#9ab4c7" opacity=".5"/><path d="m971.6 1520.338a10.056 10.056 0 0 1 1.751 2.892 10.216 10.216 0 0 1 4.468-1.185c-1.6-.7-2.662-1.932-5.208-1.888a3.342 3.342 0 0 0 -1.011.181z" fill="#9ab4c7" opacity=".5"/><path d="m1172.049 1747.821c-7.058-4.093-5.942-6.048-9.187-9.95-1.808-2.177-4.334-.845-11.062-.995-8.523-.19-2.93-3.279-9.864-.057-3.937 1.831-2.5 2.361-2.745 3.823-2.755.181-5.657 2.136-9.457 1.436-1.1-.2-1.961 2.145-2.45 2.667-.944 1-3.045 1.013-4.049 1.922-1.4 1.265-4.106.7-5.694 1.694-2.476 1.541-.56 2.673-.614 4.6-.047 1.573 1.936 1.862 2.924 2.536 2.034 1.383-1.373 4.706 3.855 5.692 1.563.3 1.671.95 2.475 1.461-.384.474-.712.859-.95 1.1-1.252 1.271-7.481 2.946-12.47 4.687a16.619 16.619 0 0 0 -3.619-1.652 22.243 22.243 0 0 0 -5.034-.591l-1.684 1.783a3.98 3.98 0 0 0 -2.7 3.015c-.5 2.832 2.215 6.07 6.056 7.239 1.91.579.064 3.674 1.485 3.14 0 0 3.73-1.224 6.168-2.275 1.992-.858 2.3-3.2 2.58-4.767a4.574 4.574 0 0 0 -.439-2.755c3.852-2.717 8.11-5.755 13.337-5.428a30.072 30.072 0 0 0 6.807-.426c-.232.842.045 1.643 1.647 2.514 2.828 1.541 8.036 1.573 11.519 4.03 3.1 2.189 5.18-3.636 7.461-4.348 3.175-.988 5.107 1.119 8.088.588 4.652-.823 4.315-3.289 7.086-5.847 2.26-2.081-3.349-.8-2.926-2.132 2.249-7.108 10.378-8.688 3.456-12.704zm-35.667 16.543c-2.555.423-4.926.636-5.323-.095a18.484 18.484 0 0 1 4.09-1.125 5.809 5.809 0 0 1 1.442.877c-.069.118-.143.232-.209.343z" fill="#9ab4c7" opacity=".5"/><path d="m1107.867 1719.039c-3.419-3.835-3.133 1.068-8.964-2.488-1.077-.658-1.507-1.481-3.242-1.5-1.76-.022-2.85-2.926-3.88-1.048-1.264-1.92-2.57-.861-3.965-.575-2.025-.976-3.42-.687-3.575 1.363-3.362-1-2.867 4.242-4.894 6.394-4.643 1.992-6.941-1.939-9.96 1.989-1.9 2.485-.095 6.74-3.8 9.711-1.014.81 2.285 3.254 2.828 4.058 1.055 1.545-.226 3.375.632 4.907 1.2 2.129-1.395 4.074-.762 6.168.988 3.27 4.013 2.425 7.131 3.877 2.539 1.182 4.232-.328 5.942-.7 3.511-.763 6.823 4.6 11.669.788 1.967-1.551 3.349-.292 5.425-1.808 1.823-1.328.53-4.112 2.523-5.437 5.024-3.347 5.6-.471 10.124-4.179 2.428-1.983-4.2-4.513-3.979-9.562.274-6.39 4.662-7.566.747-11.958z" fill="#c8d7e1"/><path d="m1109.745 1777.215c-4.28 2.485-11.246 2.485-15.552 0-2.167-1.252-3.251-2.9-3.244-4.535l-.016 2.7c0 1.643 1.077 3.283 3.247 4.535 4.307 2.488 11.272 2.488 15.55 0 2.129-1.236 3.193-2.854 3.2-4.474l.016-2.7c-.01 1.621-1.074 3.235-3.201 4.474z" fill="#e6effb"/><path d="m1109.691 1768.2c-4.305-2.488-11.268-2.488-15.545 0s-4.262 6.518.047 9.009 11.272 2.485 15.552 0 4.255-6.518-.054-9.009z" fill="#fff"/><path d="m1108.935 1769.516a15.634 15.634 0 0 0 -14.033 0c-1.554.9-2.444 2.062-2.444 3.177s.909 2.3 2.492 3.213a15.668 15.668 0 0 0 14.033 0c1.557-.9 2.447-2.063 2.443-3.181s-.908-2.298-2.491-3.209z" fill="#9ab4c7"/><path d="m1108.967 1740.915c-.083-.117-.041-3.823-.1-3.746-.969-4.182-2.586 11.157-6.279 10.674-.362-3.467 2.606-7.639 1.7-10.82-.063-.115-.038-.121-.117-.175-6.518-.537-2.215 11.411-5.936 11.926-5.142.715-7.783-14.735-10.284-12.231-1.468 2.491 8.475 13.33 10.188 15.984 1.935 2.99-1.5 16.181.582 21.012.651 1.512 4.017 1.868 6.861-.63.492-.432 1.423 1.939 1.423 1.265 0-6.238-8.427-16.544-2.682-23.1 2.777-3.158 3.913-6.974 4.644-10.159z" fill="#6a90ad"/><path d="m1121.986 1702.655c-4.728-2-4.191-10.995-12.994-10.512-3.572.2-4.156-2.412-7.833-2.346-3.222.058-4 4.373-7.417 4.284-8.628-.216-6.934-4.045-15.276-3.432-4.471.331 1.2 8.73-3.206 14.459-5.58 7.252-11.678 5.018-10.709 13.375.848 7.3 4.541 1.326 8.44 10.277.721 1.659.543 2.971 2.558 4.418 2.047 1.467.935 5.761 3.683 4.41-.1 3.286 2.295 3.121 4.163 3.934 1.567 2.806 3.436 3.61 5.3 1.341 3.1 3.938 6.839-2.6 10.982-3.457 7.068 1.484 6.524 7.973 13.28 5.856 4.268-1.337 5.654-7.8 12.432-8.227 1.849-.117 0-5.688.022-7.07.041-2.676 3.041-3.766 3.292-6.261.353-3.476 4.98-3.619 5.965-6.587 1.531-4.637-2.7-6.136-5.158-10.4-1.994-3.465-5.217-3.09-7.524-4.062z" fill="#c8d7e1"/><path d="m1121.986 1702.655c-4.5-1.9-4.236-10.147-11.8-10.512 8.246 2.548 8.987 14.624 2.263 18.923a10.515 10.515 0 0 1 .82 7.528c12.386 1.1 12 20.882-1.091 20.882-7.207 0-10.556-5.978-10.057-11.545-4.455 1.63-9.1 2.695-13.636 4.246-4.808 1.642-10.163-1.348-12.267-5.724-10.423-2.828-9.422-20.538 2.968-20.538a9.493 9.493 0 0 1 8.546 4.624c1.179-.331 2.358-.649 3.536-.985a25.4 25.4 0 0 0 6.563-2.562c-.073-.158-.15-.32-.213-.482a10.349 10.349 0 0 1 -4.989 1.194c-9.489 0-12.282-10.347-8.428-16.486a13.145 13.145 0 0 0 -5.733-.569c-4.471.331 1.2 8.73-3.206 14.459-5.58 7.252-11.678 5.018-10.709 13.375.848 7.3 4.541 1.326 8.44 10.277.721 1.659.543 2.971 2.558 4.418 2.047 1.467.935 5.761 3.683 4.41-.1 3.286 2.295 3.121 4.163 3.934 1.567 2.806 3.436 3.61 5.3 1.341 3.1 3.938 6.839-2.6 10.982-3.457 7.068 1.484 6.524 7.973 13.28 5.856 4.268-1.337 5.654-7.8 12.432-8.227 1.849-.117 0-5.688.022-7.07.041-2.676 3.041-3.766 3.292-6.261.353-3.476 4.98-3.619 5.965-6.587 1.531-4.637-2.7-6.136-5.158-10.4-1.996-3.465-5.219-3.09-7.526-4.062z" fill="#9ab4c7" opacity=".5"/><path d="m1100.148 1689.979a9.943 9.943 0 0 1 1.748 2.888 10.231 10.231 0 0 1 4.472-1.182c-1.6-.7-2.664-1.935-5.209-1.888a3.229 3.229 0 0 0 -1.011.182z" fill="#9ab4c7" opacity=".5"/><path d="m933.928 1622.069c-5.587-3.244-4.7-4.789-7.274-7.884-1.432-1.719-3.435-.667-8.763-.785-6.748-.156-2.318-2.6-7.809-.048-3.119 1.449-1.98 1.872-2.174 3.029-2.185.143-4.479 1.69-7.492 1.138-.873-.159-1.552 1.7-1.94 2.109-.747.795-2.41.8-3.2 1.526-1.106 1-3.254.556-4.51 1.338-1.962 1.22-.443 2.119-.488 3.648-.036 1.245 1.534 1.474 2.317 2.008 1.61 1.093-1.088 3.724 3.052 4.506 1.24.235 1.324.753 1.961 1.154-.3.378-.564.683-.755.877-.991 1-5.923 2.332-9.873 3.712a13.421 13.421 0 0 0 -2.866-1.31 17.592 17.592 0 0 0 -3.987-.467l-1.335 1.411a3.156 3.156 0 0 0 -2.14 2.39c-.4 2.243 1.753 4.808 4.795 5.729 1.516.461.051 2.911 1.176 2.485 0 0 2.954-.966 4.886-1.8 1.579-.683 1.824-2.539 2.043-3.778a3.641 3.641 0 0 0 -.347-2.184c3.049-2.151 6.423-4.557 10.561-4.3a24 24 0 0 0 5.393-.337c-.186.668.034 1.3 1.3 1.99 2.242 1.22 6.365 1.245 9.123 3.193 2.457 1.732 4.1-2.879 5.909-3.444 2.517-.782 4.046.883 6.405.47 3.685-.655 3.42-2.612 5.615-4.637 1.786-1.646-2.653-.638-2.321-1.69 1.78-5.618 8.221-6.871 2.738-10.049zm-28.246 13.1c-2.023.334-3.9.5-4.214-.083a14.839 14.839 0 0 1 3.237-.886 4.562 4.562 0 0 1 1.142.693c-.055.097-.111.186-.165.278z" fill="#9ab4c7" opacity=".5"/><path d="m883.1 1599.272c-2.709-3.038-2.48.848-7.1-1.971-.856-.521-1.193-1.175-2.567-1.185-1.4-.016-2.258-2.317-3.073-.826-1-1.522-2.036-.687-3.141-.458-1.6-.772-2.706-.543-2.83 1.081-2.663-.8-2.271 3.355-3.876 5.062-3.678 1.579-5.5-1.535-7.887 1.576-1.508 1.967-.078 5.339-3.016 7.69-.8.642 1.812 2.578 2.242 3.213.836 1.224-.178 2.676.5 3.887.947 1.684-1.106 3.225-.6 4.884.781 2.587 3.179 1.919 5.647 3.07 2.01.937 3.352-.258 4.706-.55 2.781-.6 5.4 3.645 9.241.626 1.556-1.227 2.652-.235 4.3-1.433 1.443-1.052.42-3.254 2-4.31 3.979-2.646 4.432-.371 8.018-3.308 1.923-1.573-3.324-3.571-3.151-7.572.213-5.066 3.687-5.997.587-9.476z" fill="#c8d7e1"/><path d="m884.586 1645.343a13.554 13.554 0 0 1 -12.315 0c-1.716-.988-2.574-2.291-2.569-3.591l-.013 2.139c0 1.3.853 2.6 2.571 3.591a13.57 13.57 0 0 0 12.315 0c1.686-.979 2.528-2.259 2.533-3.543l.011-2.139c-.003 1.284-.847 2.568-2.533 3.543z" fill="#e6effb"/><path d="m884.547 1638.209a13.565 13.565 0 0 0 -12.313 0c-3.391 1.973-3.375 5.164.037 7.134a13.554 13.554 0 0 0 12.315 0c3.391-1.97 3.373-5.161-.039-7.134z" fill="#fff"/><path d="m883.947 1639.248a11.333 11.333 0 0 0 -5.564-1.318 11.212 11.212 0 0 0 -5.55 1.318 3.255 3.255 0 0 0 -1.935 2.514 3.3 3.3 0 0 0 1.97 2.545 12.37 12.37 0 0 0 11.116 0 3.246 3.246 0 0 0 1.935-2.52 3.3 3.3 0 0 0 -1.972-2.539z" fill="#9ab4c7"/><path d="m883.971 1616.6c-.065-.092-.033-3.029-.078-2.968-.767-3.311-2.048 8.837-4.973 8.456-.286-2.749 2.064-6.051 1.347-8.571-.047-.088-.028-.1-.092-.139-5.162-.426-1.754 9.041-4.7 9.447-4.073.563-6.163-11.672-8.143-9.689-1.162 1.974 6.711 10.56 8.07 12.661 1.53 2.367-1.185 12.815.459 16.639.515 1.2 3.183 1.48 5.431-.5.392-.347 1.13 1.531 1.13 1 0-4.942-6.675-13.1-2.123-18.292a17.888 17.888 0 0 0 3.672-8.044z" fill="#6a90ad"/><path d="m894.283 1586.3c-3.746-1.583-3.32-8.714-10.291-8.329-2.83.156-3.292-1.91-6.205-1.856-2.551.048-3.165 3.464-5.872 3.394-6.833-.175-5.492-3.2-12.1-2.717-3.54.261.952 6.912-2.535 11.446-4.421 5.746-9.251 3.979-8.482 10.592.67 5.784 3.594 1.052 6.683 8.141.572 1.313.429 2.355 2.026 3.5 1.62 1.166.737 4.566 2.915 3.495-.081 2.6 1.82 2.47 3.3 3.115 1.241 2.224 2.722 2.86 4.2 1.061 2.458 3.121 5.415-2.059 8.694-2.736 5.6 1.176 5.167 6.314 10.519 4.636 3.381-1.058 4.477-6.177 9.846-6.514 1.462-.092 0-4.5.018-5.6.031-2.12 2.408-2.981 2.607-4.958.276-2.752 3.943-2.866 4.72-5.218 1.216-3.667-2.138-4.859-4.081-8.23-1.586-2.748-4.138-2.453-5.962-3.222z" fill="#c8d7e1"/><path d="m894.283 1586.3c-3.567-1.506-3.357-8.04-9.347-8.329 6.53 2.021 7.116 11.586 1.789 14.987a8.3 8.3 0 0 1 .651 5.961c9.809.874 9.507 16.537-.862 16.537-5.711 0-8.36-4.732-7.967-9.139-3.528 1.29-7.206 2.129-10.8 3.359-3.807 1.3-8.048-1.065-9.712-4.529-8.255-2.243-7.464-16.267 2.349-16.267a7.523 7.523 0 0 1 6.767 3.658c.933-.258 1.867-.512 2.8-.779a19.882 19.882 0 0 0 5.2-2.027c-.058-.127-.116-.254-.17-.381a8.214 8.214 0 0 1 -3.951.947c-7.512 0-9.726-8.2-6.672-13.058a10.336 10.336 0 0 0 -4.543-.448c-3.54.261.952 6.912-2.535 11.446-4.422 5.746-9.251 3.979-8.482 10.592.67 5.784 3.594 1.052 6.683 8.141.572 1.313.429 2.355 2.026 3.5 1.62 1.166.737 4.566 2.915 3.495-.081 2.6 1.82 2.47 3.3 3.115 1.241 2.224 2.722 2.86 4.2 1.061 2.458 3.121 5.415-2.059 8.694-2.736 5.6 1.176 5.167 6.314 10.519 4.636 3.381-1.058 4.477-6.177 9.846-6.514 1.462-.092 0-4.5.018-5.6.031-2.12 2.408-2.981 2.607-4.958.276-2.752 3.943-2.866 4.72-5.218 1.216-3.667-2.138-4.859-4.081-8.23-1.586-2.748-4.138-2.453-5.962-3.222z" fill="#9ab4c7" opacity=".5"/><path d="m876.986 1576.258a8.011 8.011 0 0 1 1.388 2.288 8.086 8.086 0 0 1 3.538-.937c-1.266-.553-2.108-1.532-4.125-1.494a2.66 2.66 0 0 0 -.801.143z" fill="#9ab4c7" opacity=".5"/><path d="m1342.1 1640.2c-5.586-3.242-4.706-4.786-7.277-7.878-1.43-1.726-3.432-.671-8.761-.788-6.75-.153-2.317-2.6-7.808-.048-3.121 1.452-1.98 1.872-2.177 3.032-2.183.143-4.477 1.69-7.49 1.138-.874-.159-1.554 1.7-1.942 2.109-.746.795-2.408.8-3.2 1.523-1.107 1-3.255.559-4.51 1.341-1.961 1.223-.442 2.116-.489 3.645-.035 1.245 1.535 1.477 2.316 2.008 1.612 1.093-1.086 3.725 3.054 4.506 1.24.238 1.322.756 1.961 1.157-.308.378-.563.683-.753.874-.995 1.007-5.927 2.332-9.877 3.711a13.338 13.338 0 0 0 -2.863-1.306 17.612 17.612 0 0 0 -3.988-.467l-1.335 1.411a3.141 3.141 0 0 0 -2.138 2.387c-.4 2.243 1.751 4.811 4.8 5.732 1.513.461.048 2.911 1.172 2.485 0 0 2.956-.966 4.888-1.8 1.579-.68 1.824-2.536 2.043-3.775a3.61 3.61 0 0 0 -.35-2.184c3.051-2.154 6.426-4.557 10.563-4.3a24 24 0 0 0 5.393-.337c-.184.667.035 1.3 1.3 1.993 2.243 1.22 6.365 1.245 9.127 3.19 2.456 1.735 4.1-2.879 5.907-3.441 2.514-.786 4.046.883 6.407.467 3.683-.655 3.419-2.609 5.608-4.634 1.79-1.649-2.65-.638-2.316-1.69 1.774-5.623 8.216-6.872 2.735-10.061zm-28.247 13.105c-2.024.334-3.9.5-4.217-.079a14.8 14.8 0 0 1 3.238-.89 4.523 4.523 0 0 1 1.144.7c-.058.093-.112.185-.166.274z" fill="#9ab4c7" opacity=".5"/><path d="m1291.27 1617.414c-2.707-3.038-2.482.845-7.1-1.974-.858-.518-1.2-1.172-2.567-1.185-1.4-.016-2.257-2.314-3.073-.826-1-1.522-2.037-.684-3.143-.458-1.6-.772-2.7-.54-2.828 1.081-2.663-.8-2.272 3.358-3.877 5.062-3.677 1.582-5.495-1.535-7.884 1.579-1.51 1.964-.08 5.336-3.019 7.687-.8.642 1.814 2.581 2.243 3.213.833 1.227-.178 2.676.5 3.886.951 1.688-1.1 3.226-.6 4.885.779 2.59 3.178 1.922 5.648 3.072 2.008.938 3.352-.26 4.706-.556 2.78-.6 5.4 3.652 9.241.626 1.557-1.223 2.65-.228 4.3-1.429 1.443-1.052.417-3.254 2-4.307 3.981-2.646 4.433-.374 8.021-3.311 1.919-1.573-3.328-3.572-3.153-7.569.215-5.069 3.684-6 .585-9.476z" fill="#c8d7e1"/><path d="m1292.758 1663.485a13.583 13.583 0 0 1 -12.317 0c-1.716-.991-2.574-2.291-2.571-3.591l-.013 2.136c0 1.3.855 2.6 2.574 3.591a13.567 13.567 0 0 0 12.314 0c1.684-.979 2.526-2.256 2.529-3.54l.013-2.139c-.003 1.281-.845 2.565-2.529 3.543z" fill="#e6effb"/><path d="m1292.716 1656.351a13.55 13.55 0 0 0 -12.314 0c-3.387 1.97-3.371 5.164.039 7.134a13.583 13.583 0 0 0 12.317 0c3.39-1.97 3.371-5.164-.042-7.134z" fill="#fff"/><path d="m1292.116 1657.387a11.323 11.323 0 0 0 -5.565-1.319 11.2 11.2 0 0 0 -5.548 1.319 3.254 3.254 0 0 0 -1.935 2.517 3.316 3.316 0 0 0 1.97 2.545 12.395 12.395 0 0 0 11.116 0 3.254 3.254 0 0 0 1.935-2.52 3.3 3.3 0 0 0 -1.973-2.542z" fill="#9ab4c7"/><path d="m1292.141 1634.736c-.067-.092-.032-3.026-.079-2.965-.766-3.311-2.047 8.837-4.973 8.453-.283-2.746 2.065-6.051 1.347-8.571-.048-.085-.026-.095-.092-.139-5.161-.423-1.755 9.04-4.7 9.447-4.074.566-6.162-11.672-8.145-9.686-1.16 1.97 6.711 10.56 8.075 12.657 1.528 2.368-1.192 12.816.457 16.642.512 1.2 3.178 1.478 5.431-.495.391-.347 1.128 1.531 1.128 1 0-4.941-6.676-13.1-2.122-18.291a17.885 17.885 0 0 0 3.673-8.052z" fill="#6a90ad"/><path d="m1302.453 1604.439c-3.746-1.583-3.321-8.711-10.293-8.326-2.828.156-3.289-1.91-6.2-1.859-2.552.047-3.165 3.464-5.872 3.394-6.833-.172-5.492-3.2-12.1-2.717-3.543.26.95 6.915-2.539 11.45-4.421 5.745-9.251 3.975-8.482 10.591.671 5.78 3.594 1.052 6.686 8.138.572 1.316.429 2.352 2.025 3.5 1.617 1.163.737 4.566 2.917 3.492-.083 2.606 1.818 2.473 3.3 3.115 1.243 2.224 2.72 2.86 4.2 1.064 2.457 3.121 5.415-2.059 8.691-2.739 5.6 1.179 5.171 6.317 10.519 4.636 3.381-1.058 4.477-6.177 9.848-6.511 1.462-.092 0-4.506.016-5.6.031-2.117 2.409-2.981 2.605-4.958.28-2.749 3.947-2.866 4.726-5.215 1.214-3.67-2.139-4.858-4.084-8.233-1.587-2.749-4.139-2.453-5.963-3.222z" fill="#c8d7e1"/><path d="m1302.453 1604.439c-3.568-1.5-3.359-8.037-9.349-8.326 6.53 2.021 7.118 11.58 1.792 14.986a8.325 8.325 0 0 1 .649 5.962c9.81.871 9.508 16.537-.861 16.537-5.711 0-8.361-4.735-7.967-9.142-3.531 1.29-7.205 2.132-10.8 3.362-3.808 1.3-8.05-1.065-9.715-4.532-8.256-2.243-7.464-16.267 2.352-16.267a7.53 7.53 0 0 1 6.768 3.661c.931-.258 1.866-.515 2.8-.779a20 20 0 0 0 5.2-2.027c-.058-.127-.118-.254-.172-.384a8.161 8.161 0 0 1 -3.947.946c-7.515 0-9.727-8.192-6.673-13.057a10.391 10.391 0 0 0 -4.541-.448c-3.543.26.95 6.915-2.539 11.45-4.421 5.745-9.251 3.975-8.482 10.591.671 5.78 3.594 1.052 6.686 8.138.572 1.316.429 2.352 2.025 3.5 1.617 1.163.737 4.566 2.917 3.492-.083 2.606 1.818 2.473 3.3 3.115 1.243 2.224 2.72 2.86 4.2 1.064 2.457 3.121 5.415-2.059 8.691-2.739 5.6 1.179 5.171 6.317 10.519 4.636 3.381-1.058 4.477-6.177 9.848-6.511 1.462-.092 0-4.506.016-5.6.031-2.117 2.409-2.981 2.605-4.958.28-2.749 3.947-2.866 4.726-5.215 1.214-3.67-2.139-4.858-4.084-8.233-1.588-2.749-4.14-2.453-5.964-3.222z" fill="#9ab4c7" opacity=".5"/><path d="m1285.156 1594.4a7.92 7.92 0 0 1 1.389 2.288 8.014 8.014 0 0 1 3.537-.938c-1.265-.555-2.11-1.531-4.125-1.5a2.48 2.48 0 0 0 -.801.15z" fill="#9ab4c7" opacity=".5"/><path d="m1102.519 1677.655 100.05-65.99v-99.065l-100.05 57.454z" fill="#e6effb"/><path d="m1007.856 1635.219 94.635 52.618.028-10.182-94.636-52.618z" fill="#6a90ad"/><path d="m1008.793 1561.586-.148 63.829 93.873 52.24.146-58.862.372-45.439z" fill="#c8d7e1"/><path d="m1018.444 1622.736 31.54 18.212v-47.34l-31.54-18.209z" fill="#6a90ad"/><path d="m1021.174 1621.16 14.858 8.529v-41.038l-14.858-8.526z" fill="#9ab4c7"/><path d="m1038.825 1631.447 8.431 4.773v-41.035l-8.431-4.773z" fill="#9ab4c7"/><path d="m995.651 1565.095 107.681 5.177 99.236-57.667-105.858-6.089z" fill="#9ab4c7"/><path d="m1115.116 1619.263c-.006.013-.01.025-.016.041a.138.138 0 0 0 .013-.031.264.264 0 0 1 .009-.026v.01z" fill="#838383"/><path d="m1115.122 1619.247.01-.016c0-.009 0-.009.006-.012-.006.009-.01.019-.016.028z" fill="#838383"/><path d="m1115.138 1619.219v-.006-.006.006z" fill="#838383"/><path d="m1059.965 1646.49 31.54 18.209v-50.771l-31.54-18.212z" fill="#6a90ad"/><path d="m1062.7 1644.911 14.859 8.529v-44.467l-14.859-8.529z" fill="#9ab4c7"/><path d="m1080.348 1655.2 8.431 4.77v-44.47l-8.431-4.77z" fill="#9ab4c7"/><path d="m995.651 1565.095 2.51 3.527 105.38 6.4v-4.757z" fill="#6a90ad"/><path d="m1103.542 1575.019 99.026-57.239v-5.18l-99.026 57.658z" fill="#6a90ad"/><path d="m1102.491 1687.837 40.781-26.436v-10.627l-40.752 26.881z" fill="#9ab4c7"/><path d="m1127.02 1672.564 47.3 26.741.029-10.182-47.3-26.745z" fill="#6a90ad"/><path d="m1174.321 1699.305 63.168-36.926.025-10.185-63.165 36.929z" fill="#9ab4c7"/><path d="m1127.957 1598.928-.146 63.832 46.539 26.363.149-58.866-45.907-67.537z" fill="#c8d7e1"/><path d="m1174.35 1689.124 62.059-36.246.146-51.973-62.056 29.353z" fill="#e6effb"/><path d="m1192.482 1671.83 31.54-18.209v-29.668l-31.54 18.212z" fill="#6a90ad"/><path d="m1206.433 1660.574 14.863-8.532v-23.36l-14.863 8.529z" fill="#9ab4c7"/><path d="m1195.209 1667.1 8.434-4.773v-23.363l-8.434 4.773z" fill="#9ab4c7"/><path d="m1186.95 1630.732c-.006.013-.013.025-.019.041a.232.232 0 0 1 .016-.035l.009-.022v.009z" fill="#838383"/><path d="m1186.956 1630.716.01-.016a.031.031 0 0 1 .006-.013.123.123 0 0 1 -.016.029z" fill="#838383"/><path d="m0 0h.007v.003h-.007z" fill="#838383" transform="matrix(.41036873 -.91191968 .91191968 .41036873 1186.971 1630.685)"/><path d="m1131.8 1657.959 31.543 18.209v-53.711l-31.543-18.209z" fill="#6a90ad"/><path d="m1134.529 1656.38 14.856 8.532v-47.406l-14.856-8.529z" fill="#9ab4c7"/><path d="m1152.175 1666.666 8.434 4.776v-47.406l-8.434-4.773z" fill="#9ab4c7"/><path d="m1127.284 1560.684 52.866 80 3.861-1.526-55.351-83.7z" fill="#6a90ad"/><path d="m1128.453 1555.475 55.49 83.668 62.495-35.582-55.932-84.332z" fill="#9ab4c7"/><path d="m1025.38 1644.778s1.386.365.413 3.053l3.322-.552-2.351-4.828z" fill="#f2e1c7"/><path d="m1033.791 1689.677c-1.749-3.915.441-9.429.441-9.429l-8.186.741s-.58 6.342.913 9.73 4.872 17.519 5.579 20.735 3.6 1.487 3.359-.121.739-15.294-2.106-21.656z" fill="#f2e1c7"/><path d="m1020.121 1682.841s-1.537 11.056-.639 14.688a196.339 196.339 0 0 1 2.617 20.061c.152 3.305 3.02 1.878 3.058.251s1.664-11.789.955-16.975.722-13.5 2.083-16.306-8.074-1.719-8.074-1.719z" fill="#f2e1c7"/><path d="m1021.727 1717.279s.23 3.48-1.719 4.655-3.947.846-3.778 1.542.8 1.369 3.007 1.4c2.11.025 4.268-2.911 5.962-2.911l-.52 2.9h1.033c0-1.242 1.179-2.084 1.05-3.505-.146-1.595-1.355-3.4-1.355-4.464a9.582 9.582 0 0 1 -3.68.383z" fill="#6a90ad"/><path d="m1032.28 1711.607s.228 3.476-1.72 4.655-3.947.842-3.779 1.541.8 1.37 3.008 1.4c2.11.029 4.266-2.911 5.96-2.911l-.52 2.9h1.035c0-1.243 1.179-2.085 1.049-3.5-.145-1.592-1.354-3.407-1.354-4.465a9.563 9.563 0 0 1 -3.679.38z" fill="#6a90ad"/><path d="m1037.554 1677.582c.572-3.222-1-7.414-2.674-10.245a23.343 23.343 0 0 1 -2.312-5.148l-10.059 1.2c-1.171 7.89-6.914 25.715-6.914 39.471 0 0 8.239 5.012 15.851-.349 2.175-1.532 7.924-2.647 7.924-2.647-1.17-6.457-2.382-19.091-1.816-22.282z" fill="#6a90ad"/><path d="m1033.157 1655.906c-.009-3.117-.589-8.052-4.042-8.627-3.142-.528-6.481.746-7.021 2.774a45.774 45.774 0 0 1 -1.307 4.573c-.965 2.469 1.536 3.705 1.652 4.1.689 2.377-.866 7.668-1.322 10.808 3.765 2.015 9.756.448 13.407-2.819-1.662-4.657-1.358-7.923-1.367-10.809z" fill="#9ab4c7"/><path d="m1023.213 1637.148a5.911 5.911 0 0 0 -.034 1.484c.076.362-.079.515-.386.937-.079.115-.793 2.091.721 4.7 1.291 2.222 7.564-2.281 6.038-4.82s-5.966-5.425-6.339-2.301z" fill="#f2e1c7"/><path d="m1039.5 1640.666c-1.529-3.785-4.106-.684-5.587-3.954-1.8-3.962-2.9-1.967-6.277-2.844s-4.665 1.294-4.819 2.587c-.232 1.948 4.617 3.073 3.352 4.862-2.128 3.019 1.044 3.756.949 5.431s3.309.585 2.992 3.238c-.394 3.305 4.069 1.068 3.511 5.752s6.5 4.776 6.5 4.776c-1.733-2.844-.308-3.826.48-5.79s2.83-4.8.935-7.827c-2.22-3.549-.507-2.444-2.036-6.231z" fill="#6a90ad"/><path d="m1025.632 1639.874c-.181.862.182 1.456.112 1.789-.054.258.251.43.6-.076a2.148 2.148 0 0 0 .317-1.875c-.245-.556-.976-.079-1.029.162z" fill="#f2e1c7"/><path d="m1024.152 1648.74c-.949.042-2.284 1.618-2.454 5.714a46.347 46.347 0 0 1 -1.237 7.811c-.185 1.01 1.816 4.786 2.848 3.422 2.619-3.467 3.649-8.106 4.132-11.335.506-3.391-.865-5.717-3.289-5.612z" fill="#f2e1c7"/><path d="m1005.563 1665.3c.993-.757-.27.622-.168 1.013a5.773 5.773 0 0 0 1.245 1.446v.016l.271.273a.608.608 0 0 0 .066.083c.184.235 1.248-.489 2.053-.826a1.812 1.812 0 0 1 .507-.169 18.623 18.623 0 0 1 2.121-.368c.353 0 .353-2.174.353-2.174a13.428 13.428 0 0 0 -2.642-1.532 1.144 1.144 0 0 1 -.322-.136v.842c.053.07.053.1 0 .133a13.842 13.842 0 0 1 -2.2.118.932.932 0 0 0 -.237.019.776.776 0 0 0 -.2.051.465.465 0 0 0 -.135.035 9.065 9.065 0 0 0 -2.526 1.665c-.358.267.804.283 1.814-.489z" fill="#f2e1c7"/><path d="m1020.7 1662.186c-2.029.3-7.422 2.262-9.27 2.087a1.815 1.815 0 0 0 -.2 2.533s10.01.531 11.81-.867-1.415-3.89-2.34-3.753z" fill="#f2e1c7"/><path d="m989.035 1659.434c1.365-.016 9.9 3.441 9.9 3.441l1.3-3.982s-8.863-1.169-10.866-2.211c-.769-.407-1.558 2.764-.334 2.752z" fill="#f2e1c7"/><path d="m1005.581 1652.868a47.121 47.121 0 0 1 -6.72 5.015c-1.042.709-1.257 6.123.825 5.85 5.277-.692 9.111-3.788 11.685-6.219 3.049-2.882 4.746-5.383 2.553-7.391-1.947-1.783-4.624-.623-8.343 2.745z" fill="#f7f8f8"/><path d="m983.433 1656.405c-.434-.114-1.328-.264-1.363-.877-.046-.775 1.155.057 2.378-.143a4.949 4.949 0 0 1 2.218.629 9.074 9.074 0 0 0 2.622.62c.245.025-.152 2.8-.152 2.8a20.025 20.025 0 0 0 -3.075.092 15.231 15.231 0 0 1 -3.968.772c-1.418-.064-1.347-1.423-2.57-1.757-.169-.048-.661-.114-.482-.512s4.173-.664 4.785-1.315c.222-.233-.226-.264-.393-.309z" fill="#f2e1c7"/><path d="m1003.782 1722.662c-.4.858.334 2.237 1.049 2.86.789.683 5.521 4.78 8.591 3.6a2.543 2.543 0 0 0 1.009-.611c.46-.508-.188-3.289-.7-3.788-.672-.653-9.625-2.769-9.949-2.061z" fill="#e6effb"/><path d="m1009.264 1722.268c-2.174-.842-5.031-.753-5.358-.044-.4.857.807 2.322 1.519 2.949 2.048 1.8 6.171 3.711 7.661 3.212a3.721 3.721 0 0 0 1.345-.693c.46-.508.038-2.291-.51-2.818a26.522 26.522 0 0 0 -4.657-2.606z" fill="#6a90ad"/><path d="m1010.274 1726.075a.582.582 0 1 0 .432.559.51.51 0 0 0 -.432-.559z" fill="#fff"/><path d="m1013.255 1724.289-.861 1.138.221.406a6.715 6.715 0 0 1 .357 2.629 1.677 1.677 0 0 0 1.336-.652c.255-1.986-.546-2.749-.546-2.749z" fill="#fff"/><path d="m1008.329 1723.164c-.178.388.156 1.488 2.058 2.3a4.166 4.166 0 0 0 2.228.374.727.727 0 0 1 .3-.813.829.829 0 0 1 .844.041 14.652 14.652 0 0 1 -.318-1.534c-.531.087-4.554-1.601-5.112-.368z" fill="#f2e1c7"/><path d="m1007.208 1700.306c.127 5.333 1.47 22.6 1.47 22.6s1.995 1.856 5.786.394c0 0 1.022-12.286 1.36-16.054a20.906 20.906 0 0 0 -.591-7.732c-.851-1.906-8.153-4.537-8.025.792z" fill="#9ab4c7"/><path d="m1013.965 1671.884c-.907-.689-3.7-1.09-6.509 1.351-5.053 4.4-.189 25.152-.189 28.651 0 3.616 7.281 3.27 8.125-1.576.566-3.254 1.935-14.539 2.11-16.582.191-2.228.216-9.006-3.537-11.844z" fill="#9ab4c7"/><path d="m995.477 1726.736c-.4.858.332 2.237 1.049 2.86.788.683 5.519 4.779 8.591 3.6a2.554 2.554 0 0 0 1.009-.61c.46-.508-.191-3.289-.7-3.787-.675-.655-9.626-2.772-9.949-2.063z" fill="#e6effb"/><path d="m1001.308 1725.722c-2.174-.842-5.034-.753-5.358-.051-.4.865.8 2.33 1.518 2.956 2.048 1.8 6.171 3.712 7.661 3.212a3.881 3.881 0 0 0 1.345-.692c.46-.509.038-2.292-.514-2.822a26.619 26.619 0 0 0 -4.652-2.603z" fill="#6a90ad"/><path d="m1001.964 1730.149a.581.581 0 1 0 .437.563.51.51 0 0 0 -.437-.563z" fill="#fff"/><path d="m1004.947 1728.363-.858 1.138.221.407a6.73 6.73 0 0 1 .357 2.624 1.662 1.662 0 0 0 1.335-.645c.255-1.989-.547-2.752-.547-2.752z" fill="#fff"/><path d="m1000.023 1727.235c-.18.394.157 1.49 2.059 2.3a4.2 4.2 0 0 0 2.228.375.725.725 0 0 1 .3-.814.835.835 0 0 1 .843.041 14.855 14.855 0 0 1 -.318-1.535c-.535.09-4.553-1.602-5.112-.367z" fill="#f2e1c7"/><path d="m999.12 1704.7c.126 5.333 1.438 22.257 1.438 22.257a4.767 4.767 0 0 0 5.765 1.383s1.072-12.934 1.412-16.7.122-7.618-.192-8.323c-.853-1.911-8.553-3.948-8.423 1.383z" fill="#9ab4c7"/><path d="m1007.206 1676.5c-.906-.684-4.365-2.651-7.239-.286-3.88 3.193-.791 26.563-.791 30.064 0 3.614 7.283 3.268 8.124-1.575.566-3.258 2.712-17.339 2.888-19.379.189-2.229.773-5.985-2.982-8.824z" fill="#9ab4c7"/><path d="m1016.355 1661.572c.823-5.536.561-13.115-5.393-13.115-2.942 0-12.615 2.441-12.615 8.692 0 5.485.938 17.7-.588 24.259 0 0 15.76 3.432 20.136-1.627.005 0-2.365-12.673-1.54-18.209z" fill="#c8d7e1"/><path d="m1006.871 1638.47a3.093 3.093 0 0 0 -1.991-.315 3.689 3.689 0 0 0 -2.147.763c-.543.486-1.393-.041-1.458.683s.634 1.033.37 1.713a2.773 2.773 0 0 0 -.022 2.132c1.285 2.132 2.164 3.934 3.552 3.528.352 1.461-1 3.142-.816 3.117a24.22 24.22 0 0 0 4.889-1.656c-.5-3.263.311-5.732-1.416-8.818a3.125 3.125 0 0 0 -.961-1.147z" fill="#f2e1c7"/><path d="m1007.652 1635.978c.418-2.2-3.546-2.132-3.486-.229-2.008-1.147-5.033 1.262-3.2 4.767 0 0 .366-1.112 1.156-.743 0 1.82 1.234.794 1.665 2.885a5 5 0 0 0 1.81 3.388c.981.658 3.482-.016 3.482-.016s.391-.985.5-1.243c.507-1.166 2.408-3.1 1.424-5.04 1.019-2.472-1.509-4.047-3.351-3.769z" fill="#6a90ad"/><path d="m1008.952 1646.977a9.984 9.984 0 0 0 -4.455 1.458 2.778 2.778 0 0 0 -1.265 2.32l7.263-2.316-.667-1.017a.986.986 0 0 0 -.876-.445z" fill="#f7f8f8"/><path d="m997.514 1676.686a2.885 2.885 0 0 1 -1.867.394c-1.03-.442-2.4-.6-2.3-.137.046.232 1.287.7 1.785 1.094.438.352-.04.428-.909 1.3a10.14 10.14 0 0 0 -1.728 3.693c-.126.473 1.114-.563 1.647-1.869.656-1.6.178.734.532 1.014a13.654 13.654 0 0 0 2.607.546c.4.111 1.162-1.846 1.607-2.59 1.153-1.944 9.174-9.072 9.174-9.072l-3.2-2.7s-5.162 6.833-7.348 8.327z" fill="#f2e1c7"/><path d="m1001.273 1652.766c-2.34 1.224-2.167 4.135-.264 8.778a47.143 47.143 0 0 1 2.422 8.027c.311 1.223 5.328 3.27 5.78 1.223 1.146-5.2-.452-9.86-1.859-13.108-1.67-3.849-3.445-6.295-6.079-4.92z" fill="#f7f8f8"/><path d="m979.993 1664.4s-2.9-.5-2.959-.264a6.836 6.836 0 0 1 -.753 2.269 4.88 4.88 0 0 0 -.907 2.116c.037 1.243-.942 2.327-.167 2.381.612.044.879-.824 1.046-1.24.065-.165.154-.6.359-.349.569.692.311 4.684.686 4.916s.5-.255.571-.417c.488-1.166 1.827-.921 2.075-2.319a15.375 15.375 0 0 0 -.254-4.033 20.409 20.409 0 0 1 .303-3.06z" fill="#f2e1c7"/><path d="m972.416 1632.143c-1.845-.674-4.265 1.372-2.956 5.965.274.965 2.73 7.2 4.951 13.191s5.013 4.611 6.01 3.133.4-3.172-1.431-10.658-3.724-10.589-6.574-11.631z" fill="#6a90ad"/><path d="m974.788 1652.392a59.314 59.314 0 0 1 1.239 12.949s1.724 2.365 4.714.566c0 0 1.515-9.515-.16-14.948s-6.535-2.059-5.793 1.433z" fill="#6a90ad"/><path d="m979.26 1707.889c-.654-.261-.6-1.85-.6-1.85l-4.878-.788s.07 4.15.127 4.868a1.753 1.753 0 0 0 2.185 1.783 11.087 11.087 0 0 1 4.83.134 8.152 8.152 0 0 0 3.653.073c1.564-.3 2.607-1.046 1.311-2.164s-5.066-1.445-6.628-2.056z" fill="#6a90ad"/><path d="m969.54 1683.509c0 1.315 1.465 13.359 3.257 23.359.523 2.924 6.765.56 6.8-.759.073-2.488-1.473-19.791-2.368-24.787-.56-3.143-7.681-1.822-7.689 2.187z" fill="#6a90ad"/><path d="m961.444 1713.761a3.581 3.581 0 0 0 -.114-.848l-4.252-.82a5.033 5.033 0 0 0 -.477 1.573c-.109.88-.276 2.8-.337 3.355a4.13 4.13 0 0 0 1.057 3.229c1.151 1.3 1.746 1.815 3.3 1.284s1.541-2.726 1.28-3.855a26.356 26.356 0 0 1 -.457-3.918z" fill="#6a90ad"/><path d="m956.821 1688.034c-.234 1.287-.911 13.419-.911 23.608 0 2.977 6.543 1.963 6.812.68.51-2.425 2.034-19.728 2.034-24.819 0-3.203-7.224-3.403-7.935.531z" fill="#6a90ad"/><path d="m965.636 1664.88c-.072 2.488.92 5.994 1.473 8.348s1.93 10.49 2.658 12.82c.945 3.031 7.863 2 7.871-2 0-1.315.35-17.385-1.441-27.379-.524-2.933-10.522 6.892-10.561 8.211z" fill="#6a90ad"/><path d="m955.91 1667.553c-.879 3.311.385 20.579.687 23.017.4 3.174 7.364 3.616 8.076-.312.234-1.29 2.847-17.046 2.847-27.233 0-2.981-11.274 3.26-11.61 4.528z" fill="#6a90ad"/><path d="m968.205 1631.609-6.036-1.532a3.733 3.733 0 0 0 -1.446.448 5.226 5.226 0 0 0 -1.085 1.789 4.581 4.581 0 0 1 -1.3 1.847 67.646 67.646 0 0 0 -5.335 4.512c-3.725 4.335 1.8 26.4 1.8 36.424 0 0 9.343-.175 14.4-1.487l1.033-3.769 1.573 2.58c1.754-.5 5.9-3.543 6.076-3.772s-1.678-33.513-5.4-36.421c-.846-.66-4.28-.619-4.28-.619z" fill="#9ab4c7"/><path d="m969.6 1633.821a3.5 3.5 0 0 0 -1.092-1.532 2.184 2.184 0 0 0 -1.889-.566s1.583.588 1.325 2.911c-.1.915.038 2.431-.1 4.134-.156 1.955.891 8.142.891 8.142l2.676-7.621-1.3-1.28 1.413-.995z" fill="#6a90ad"/><path d="m961.073 1630.083c-.719.566-1.23 1.627.54 3.823a39.986 39.986 0 0 1 2.782 4.141 79.951 79.951 0 0 1 4.223 7.665s.045-1.29.1-3.378c.013-.474 0-6.419-.39-7.859-.928-3.425-5.01-6.133-7.255-4.392z" fill="#fff"/><path d="m966.294 1635.692-1.9 2.355c.594.992 1.2 2.062 1.778 3.149.116.226 1.932 2.984 1.932 2.984l.613-1.846c.013-.474.024-.982.037-1.526a37.978 37.978 0 0 0 -.2-4.658z" fill="url(#a)"/><path d="m961.811 1628.237a11.775 11.775 0 0 1 -.707 2.73.746.746 0 0 0 .115.727c.651.811 2.429 2.781 4.258 2.781a3.528 3.528 0 0 0 1.333-2.281c0-1.24-4.999-3.957-4.999-3.957z" fill="#f2e1c7"/><path d="m964.816 1618.837c-5.771.156-4.174 6.553-4.174 6.553s-.428.188-.2 1.01.284.909.4 1.319.408 1.167.988 1.046c0 0 .871 2.221 4.643 3.505a1.306 1.306 0 0 0 1.7-.677c.18-.664 1.44-2.6 1.484-4.087.035-1.128-.392-1.039-.1-1.674s1.031-7.154-4.741-6.995z" fill="#f2e1c7"/><path d="m965.175 1618.405c-3.931-.172-6.713 3.175-4.768 7.538.709-1.068 1.512.194 1.63.61.064.232.28 1.2.637 1.2.261 0 .342-.941.342-.941 0-2.675-.973-3.371.359-4.01 1.136-.543 3.4 1.805 5.624 1.805 1.995.004 1.573-5.964-3.824-6.202z" fill="#6a90ad"/><path d="m967.795 1636-1.5-.3-.976 1.224a6.273 6.273 0 0 0 1.06 1.484 5.805 5.805 0 0 0 -.205 2.8c.458.963 2.569 5.717 2.569 5.717l.03-6.273a4.714 4.714 0 0 0 -.983-2.615z" fill="#9ab4c7"/><path d="m983.968 1655.414c.436-.115 1.329-.264 1.365-.877.045-.779-1.156.054-2.38-.143a4.9 4.9 0 0 0 -2.218.629 6.815 6.815 0 0 1 -2.347.451c-.244.026-.121 2.968-.121 2.968a20.5 20.5 0 0 1 3.073.1 15.511 15.511 0 0 0 3.966.775c1.422-.067 1.351-1.427 2.571-1.761.17-.047.664-.111.485-.515s-4.173-.66-4.788-1.309c-.221-.245.226-.277.394-.318z" fill="#f2e1c7"/><path d="m968.087 1652.274c-3.884-5.075-7.852-10.474-8.521-11.221-3.187-3.553-6.259-3.015-6.686-.686-.662 3.6 1.039 6.228 6.4 11.774s4.259 4.674 6.038 4.617 6.656.588 2.769-4.484z" fill="#6a90ad"/><path d="m967.028 1651.731c-3.367-1.186-7.343 3.2-2.168 5.564s14.8 2.085 14.8 2.085c2.169-2.733.044-4.745.044-4.745a59.476 59.476 0 0 1 -12.676-2.904z" fill="#6a90ad"/><path d="m961.608 1633.913c-1.765-2.2-.537-3.826-.537-3.826a2.637 2.637 0 0 0 -1.553 1.8 4.181 4.181 0 0 0 -.115 2.262l1.015 4.723 1.169-.121-.335 1.245 7.49 6.919s-2.938-6.979-4.361-8.867c-1.241-1.641-2.072-3.274-2.773-4.135z" fill="#6a90ad"/><path d="m961.686 1626.289a.6.6 0 0 0 -1.031.042l-.005.006a1.206 1.206 0 0 0 .173 1.389 6.6 6.6 0 0 0 2.981 1.757.395.395 0 0 0 .318-.712 8.234 8.234 0 0 1 -2.436-2.482z" fill="#6a90ad"/><path d="m960.524 1625.425a1 1 0 0 0 0 1.366.088.088 0 0 0 .13.013.094.094 0 0 0 .013-.13.817.817 0 0 1 -.013-1.116.659.659 0 0 1 .941.061 2.32 2.32 0 0 1 .664 2.157.094.094 0 0 0 .068.115h.022a.091.091 0 0 0 .091-.067 2.468 2.468 0 0 0 -.726-2.345.842.842 0 0 0 -1.19-.054z" fill="#6a90ad"/><path d="m1511.321 1239.073c.077-123.068-103.847-225.529-226.814-223.56-121.462.014-223.637 101.976-223.074 223.559-1.089 122.8 100.2 225.331 223.072 225.727 123.595 1.962 228.84-101.746 226.816-225.726zm-287.952-151.473c1.1-1.308 2.172-2.644 3.221-4 4.776-6.158 9.9-13.018 13.271-20.124 3.136-6.612 5.727-14.127 4.213-21.612-1.277-6.317-5.8-9.489-11.476-10.7a203.648 203.648 0 0 1 51.907-5.8c6.124-.012 12.192.27 18.2.8l-.357.113a102.524 102.524 0 0 0 -30.209 15.975 179.553 179.553 0 0 0 -16.393 13.945c-3.3 3.162-8.834 8.321-12.114 11.5-5.99 5.812-23.574 23.822-23.574 23.822zm-59.319 226.351c-2.324.947-27.385 10.358-52.93-1.145-21.628-9.738-36.966-31.572-40.017-54.975-.221-2.52-.409-5.049-.536-7.591a62.987 62.987 0 0 1 .26-7.227c-.172.052-.322.128-.483.192-.022-1.375-.043-2.749-.037-4.13-.851-68.084 32.192-129.994 83.044-169.459.273-.165.545-.345.818-.508 9.409-5.6 30.361-18.087 39.508-10.764 4.118 3.3 4.413 9.466 4.6 13.383.543 11.373-5.529 20.172-8.782 24.674-15.587 21.567-33.88 37.77-41.04 44.049-24.133 21.163-26.491 22.854-35.51 32.453-9.767 10.394-18.19 24.422-18.31 39.194-.128 15.657 10.709 27.984 23.8 35.242 10.929 6.057 24.3 9.322 36.734 6.959 24.264-4.612 36.5-35.1 46.629-54.552 22.476-43.184 48.918-84.826 83.425-119.168 7.366-7.331 15.346-14.477 25.092-18.087a41.8 41.8 0 0 1 40.429 6.923c8.005 6.661 13.419 17.14 11.823 27.43a35.539 35.539 0 0 1 -8.968 18.059c-26.566 29.327-79.131 78.246-92.279 90.828a445.518 445.518 0 0 0 -32.671 34.332c-37.076 43.471-39.5 63.665-64.599 73.886zm206.248-47.224c-6.261 0-11.164-5.254-11.164-11.963s4.886-11.764 11.366-11.764a10.048 10.048 0 0 1 8.009 3.7 13 13 0 0 1 2.791 8.165c0 6.761-4.731 11.86-11 11.86zm124.46-19.754c-.009.255-.009.512-.02.766q-.031 1.168-.076 2.324c-.284 5.307-.829 10.554-1.513 15.764l-.009.055c-3.422 18.734-15.163 37.135-28.888 52.02-8.677 9.412-25.937 15.238-39.7 13.808-14.984-1.558-24.3-20.752-27.053-33.68-3.677-17.263-2.358-32.024-10.153-50.085a38.763 38.763 0 0 0 -6.654-9.886c-9.353-9.589-19.582-12.358-34.118-9.981-19.06 3.117-34.695 13.453-39.254 17.9-5.706 5.57-12.688 12.445-12.241 21.094.416 8.069 7.025 12.133 15.8 20.681 5.133 5 25.465 24.794 31.329 48.435 2.916 11.754 1.577 21.728-.66 38.4-1.319 9.823-4.407 19.419-5.019 29.334-.51 8.269.685 17.252 5.788 24.046 4.1 5.463 9.886 8.029 16.194 8.716a213.974 213.974 0 0 1 -145.179 2.436 28.019 28.019 0 0 0 12.926-4.909c5.307-3.856 8.881-9.694 11.288-15.8 5.532-14.023 5.449-29.527 5.647-44.6.112-8.585.8-17.159.839-25.745.217-41.828 3.159-92.312 35.547-122.837a95.4 95.4 0 0 1 32.2-19.923c12.837-4.758 26.268-6.809 38.886-12.447 11.479-5.129 22.67-10.608 33-17.914 19.5-13.792 35.072-32.744 42.453-55.655a107.8 107.8 0 0 0 4.367-20.091 47.994 47.994 0 0 0 .063-13.525c35.8 34.86 59.611 81.96 63.78 133.506.312 7.96.665 18.114.43 27.791zm-155.615 11.627c-.174-.385-.27-.533-.575-.556-.36-.034-.957-.034-1.649-.034h-3.359a9.593 9.593 0 0 0 -1.554.063c-.212.048-.379.085-.6.65-.4.93-1.4 4.038-1.658 4.907a2.945 2.945 0 0 0 -.193.911c0 .416.127.47.909.612.548.1 1.021.181 1.021.652 0 .223-.1.488-.588.488h-5.554c-.514 0-.621-.265-.621-.488a.723.723 0 0 1 .517-.65 2.369 2.369 0 0 1 .46-.055 3.562 3.562 0 0 0 .63-.078c1.029-.256 1.55-1.677 1.83-2.441 3.24-8.742 4.07-10.976 4.79-12.843l1.564-4.024c.162-.393.376-1.007.518-1.413.064-.185.116-.335.146-.416a1.488 1.488 0 0 1 1.54-.819c.636 0 .792.176 1.075.882.382.94 1.245 3.3 2.1 5.729.011.03.086.241.21.592 3.4 9.629 4.615 12.706 5.038 13.592.59 1.21 1.079 1.224 2.261 1.257a.616.616 0 0 1 .617.654.494.494 0 0 1 -.554.521h-7.518c-.2 0-.787 0-.787-.488s.69-.6 1.061-.653c.635-.1 1-.286 1-.511a43.643 43.643 0 0 0 -2.077-6.041z" fill="#004272"/></g></svg>