<svg height="100.704" viewBox="0 0 483.359 100.704" width="483.359" xmlns="http://www.w3.org/2000/svg"><g fill="#004272" transform="translate(-902.352 -4275.728)"><path d="m908.369 4283.054a25.946 25.946 0 0 1 -4.019 2.4 1.441 1.441 0 0 1 -.533.2c-.155 0-.221-.155-.4-.555a5.209 5.209 0 0 0 -1-1.465 18.512 18.512 0 0 0 8.525-6.461 6.618 6.618 0 0 0 .778-1.442 17.03 17.03 0 0 1 2.4.465c.266.067.4.157.4.311a.363.363 0 0 1 -.222.355 1.766 1.766 0 0 0 -.311.2 19.993 19.993 0 0 0 9.391 6.349 6.57 6.57 0 0 0 -.955 1.665c-.154.4-.222.555-.377.555a1.509 1.509 0 0 1 -.511-.178 24.49 24.49 0 0 1 -4.24-2.353v1.643c0 .222-.023.244-.245.244-.133 0-.733-.044-2.508-.044h-3.42c-1.775 0-2.375.044-2.508.044-.222 0-.244-.022-.244-.244zm-1.422 6.016c-2.086 0-2.8.045-2.929.045-.245 0-.267-.022-.267-.244v-1.666c0-.222.022-.244.267-.244.132 0 .843.045 2.929.045h11.834c2.087 0 2.8-.045 2.931-.045.244 0 .267.022.267.244v1.666c0 .222-.023.244-.267.244-.134 0-.844-.045-2.931-.045h-6.86a41.862 41.862 0 0 1 -1.976 4.174c2.309-.133 4.729-.333 6.838-.555-.511-.621-1.021-1.244-1.621-1.886-.155-.178-.133-.268.133-.4l1.422-.732c.244-.133.31-.111.466.045a39.187 39.187 0 0 1 4.129 5.15c.112.178.112.266-.111.422l-1.531 1c-.134.089-.2.133-.268.133s-.11-.044-.177-.155c-.377-.621-.754-1.2-1.11-1.732-3.685.466-8.215.843-11.988 1.132a1.981 1.981 0 0 0 -.8.2.557.557 0 0 1 -.378.134c-.154 0-.265-.111-.31-.311-.2-.734-.333-1.51-.466-2.287a17.63 17.63 0 0 0 2.42 0c.221 0 .466-.023.71-.023a35.945 35.945 0 0 0 1.954-4.307zm7.594-6.193c1.487 0 2.153-.023 2.4-.045a20.246 20.246 0 0 1 -4.2-4.062 20.721 20.721 0 0 1 -4.062 4.062c.2.022.821.045 2.441.045z"/><path d="m906.06 4312.633a23.435 23.435 0 0 1 -2.109 1.843c-.222.177-.355.288-.467.288-.132 0-.222-.178-.355-.51a6.1 6.1 0 0 0 -.777-1.576 15.332 15.332 0 0 0 5.794-6.573h-2.508c-1.687 0-2.22.045-2.353.045-.223 0-.244-.022-.244-.244v-1.643c0-.222.021-.244.244-.244.133 0 .666.044 2.353.044h.422v-.911a13.806 13.806 0 0 0 -.177-2.708c.843.023 1.509.067 2.308.156.222.021.356.132.356.222a1.043 1.043 0 0 1 -.134.465 4.693 4.693 0 0 0 -.134 1.777v1h.934a.757.757 0 0 0 .422-.088.648.648 0 0 1 .244-.09c.133 0 .354.134.82.578.422.422.6.643.6.8a.431.431 0 0 1 -.222.355 2.242 2.242 0 0 0 -.511.644 22.447 22.447 0 0 1 -1.886 3.241 12.623 12.623 0 0 0 3.263 2.6 5.313 5.313 0 0 0 -.888 1.443c-.155.333-.266.488-.422.488-.111 0-.244-.088-.444-.265a16.816 16.816 0 0 1 -1.91-2.066v6.239c0 1.643.045 2.508.045 2.62 0 .222-.021.244-.265.244h-1.778c-.244 0-.265-.022-.265-.244 0-.133.044-.977.044-2.62zm7.415 7.326c-2.11 0-2.842.045-2.975.045-.223 0-.244-.023-.244-.244v-1.754c0-.223.021-.244.244-.244.133 0 .865.044 2.975.044h1.865v-8.3h-1c-1.976 0-2.664.022-2.8.022-.2 0-.222 0-.222-.221v-1.754c0-.223.023-.223.222-.223.134 0 .822.023 2.8.023h1v-3.531a20 20 0 0 0 -.178-3.351c.844.021 1.688.066 2.465.154.2.024.355.111.355.223a.9.9 0 0 1 -.111.467 7.233 7.233 0 0 0 -.178 2.441v3.6h1.4c1.976 0 2.664-.023 2.8-.023.221 0 .244 0 .244.223v1.754c0 .221-.023.221-.244.221-.134 0-.822-.022-2.8-.022h-1.4v8.3h2.021c2.108 0 2.819-.044 2.952-.044.244 0 .268.021.268.244v1.754c0 .221-.024.244-.268.244-.133 0-.844-.045-2.952-.045z"/><path d="m904.55 4329.734c.289.067.333.112.311.356a19.266 19.266 0 0 1 -.756 4.861c-.066.223-.11.2-.354.09l-1.065-.444c-.29-.111-.311-.222-.245-.445a18.46 18.46 0 0 0 .71-4.506c0-.222.044-.2.355-.133zm.887-1.531a20.348 20.348 0 0 0 -.177-3.353c.844.023 1.554.067 2.287.156.223.021.355.111.355.222a1.105 1.105 0 0 1 -.111.444 8.9 8.9 0 0 0 -.154 2.465v12.9c0 2.509.044 3.775.044 3.885 0 .244-.023.268-.245.268h-1.8c-.222 0-.244-.024-.244-.268 0-.11.043-1.376.043-3.863zm3.354.576c.244-.088.311-.066.4.134a16.108 16.108 0 0 1 .912 2.642c.066.222.044.266-.245.378l-.932.333c-.289.111-.356.111-.4-.133a16.572 16.572 0 0 0 -.82-2.688c-.09-.244-.066-.288.222-.377zm4.063 5.063c-2.155 0-2.887.021-3.02.021-.223 0-.244 0-.244-.244v-1.265c0-.221.021-.245.244-.245.133 0 .865.045 3.02.045h1.865v-1.021h-1.111c-2 0-2.641.045-2.8.045-.222 0-.245-.023-.245-.267v-1.11c0-.222.023-.244.245-.244.156 0 .8.045 2.8.045h1.111v-1h-1.466c-2.087 0-2.8.044-2.931.044-.221 0-.244-.021-.244-.244v-1.2c0-.244.023-.265.244-.265.133 0 .844.043 2.931.043h1.466c-.023-.776-.067-1.4-.157-2.175.823.022 1.444.067 2.2.155.244.022.355.133.355.223a2.2 2.2 0 0 1 -.155.576 4.87 4.87 0 0 0 -.089 1.221h2.127c2.064 0 2.774-.043 2.908-.043.244 0 .266.021.266.265v1.2c0 .223-.022.244-.266.244-.134 0-.844-.044-2.908-.044h-2.132v1h1.51c1.975 0 2.641-.045 2.774-.045.223 0 .244.022.244.244v1.11c0 .244-.021.267-.244.267-.133 0-.8-.045-2.774-.045h-1.51v1.021h2.753c2.131 0 2.887-.045 3-.045.222 0 .244.024.244.245v1.265c0 .244-.022.244-.244.244-.11 0-.866-.021-3-.021zm8.192 5.728c0 1.11.044 2.4.044 3.086a2.338 2.338 0 0 1 -.577 1.865c-.377.333-.91.51-2.531.555-.688.022-.711.022-.866-.688a5.105 5.105 0 0 0 -.511-1.376c.511.044 1.11.066 1.51.066.644 0 .778-.223.778-.666v-.889h-6.018v1.022c0 1.555.045 2.287.045 2.4 0 .246-.022.267-.266.267h-1.732c-.244 0-.267-.021-.267-.267 0-.11.044-.776.044-2.352v-5.193c0-1.555-.044-2.266-.044-2.4 0-.244.023-.266.267-.266.133 0 .8.044 2.753.044h4.418c1.954 0 2.6-.044 2.753-.044.222 0 .244.022.244.266 0 .133-.044.955-.044 2.6zm-8.171-3.109v1.044h6.018v-1.044zm6.018 3.6v-1.088h-6.018v1.088z"/><path d="m906.748 4355.317v-1.754h-.6c-1.709 0-2.264.044-2.4.044-.222 0-.245-.021-.245-.244v-1.4c0-.2.023-.223.245-.223.133 0 .688.045 2.4.045h.6v-.045a14.146 14.146 0 0 0 -.155-2.441 20.152 20.152 0 0 1 2.2.155c.244.023.355.11.355.222a.866.866 0 0 1 -.133.4 2.416 2.416 0 0 0 -.134 1.11v.6h.488c1.71 0 2.266-.045 2.4-.045.2 0 .221.024.221.223v1.4c0 .223-.022.244-.221.244-.133 0-.689-.044-2.4-.044h-.488v1.754h.756c1.908 0 2.508-.044 2.641-.044.222 0 .245.022.245.266v1.377c0 .222-.023.244-.245.244-.133 0-.733-.045-2.641-.045h-4c-1.865 0-2.487.045-2.6.045-.245 0-.268-.022-.268-.244v-1.377c0-.244.023-.266.268-.266.11 0 .732.044 2.6.044zm0 8.548v-1.82h-1.133c-1.864 0-2.486.044-2.6.044-.222 0-.245-.023-.245-.267v-1.377c0-.221.023-.244.245-.244.111 0 .733.045 2.6.045h2.62c.267-.644.511-1.31.71-1.953a7.4 7.4 0 0 0 .223-1.045 16.551 16.551 0 0 1 1.865.445c.222.067.311.133.311.245a.337.337 0 0 1 -.156.265 1.2 1.2 0 0 0 -.288.422 17.641 17.641 0 0 1 -.711 1.621c1.465 0 2-.045 2.131-.045.223 0 .244.023.244.244v1.377c0 .244-.021.267-.244.267-.133 0-.732-.044-2.619-.044h-.822v1.82h.6c1.732 0 2.287-.045 2.419-.045.223 0 .245.023.245.244v1.377c0 .222-.022.245-.245.245-.132 0-.687-.045-2.419-.045h-.6v1.443c0 1.488.045 2.2.045 2.309 0 .222-.023.244-.244.244h-1.733c-.221 0-.244-.022-.244-.244 0-.133.045-.821.045-2.309v-1.443h-.732c-1.733 0-2.309.045-2.443.045-.221 0-.244-.023-.244-.245v-1.377c0-.221.023-.244.244-.244.134 0 .71.045 2.443.045zm-1.154-3.708a1.1 1.1 0 0 1 -.244.044c-.112 0-.2-.088-.245-.244a13.082 13.082 0 0 0 -.71-1.887c-.112-.244-.067-.266.2-.355l1.221-.377c.245-.067.312-.023.4.155a11.438 11.438 0 0 1 .756 1.931c.066.222.066.289-.223.378zm14.364-2.819a1.227 1.227 0 0 0 .622-.09.578.578 0 0 1 .332-.088c.134 0 .312.067.844.6.533.554.622.71.622.865a.535.535 0 0 1 -.155.377 1.565 1.565 0 0 0 -.377.844 20.561 20.561 0 0 1 -1.8 5.129 14.815 14.815 0 0 0 3.175 2.576 5.1 5.1 0 0 0 -.867 1.51c-.155.332-.244.488-.376.488-.089 0-.223-.09-.445-.244a19.979 19.979 0 0 1 -2.664-2.4 19.313 19.313 0 0 1 -1.888 2.242c-.221.2-.332.311-.443.311-.133 0-.223-.154-.4-.466a5.535 5.535 0 0 0 -.954-1.309c.022 1.043.044 1.621.044 1.709 0 .2-.022.222-.245.222h-1.709c-.244 0-.266-.022-.266-.222 0-.155.044-1.621.044-4.64v-9.569c0-3.041-.044-4.551-.044-4.707 0-.221.022-.245.266-.245.133 0 1 .045 2.753.045h3.573c1.776 0 2.376-.045 2.508-.045.223 0 .311.068.289.289-.045.422-.045.755-.066 1.133a9.4 9.4 0 0 1 -.488 3.33c-.422.866-1.044 1.176-2.42 1.176-.378 0-.778 0-1.178-.021-.51-.045-.533-.045-.621-.577a7.963 7.963 0 0 0 -.356-1.421 12.7 12.7 0 0 0 1.733.132c.576 0 .8-.132.932-.577a5.107 5.107 0 0 0 .156-1.376h-4.907v5.018zm-4.773 10.279a15.12 15.12 0 0 0 2.331-2.51 16.251 16.251 0 0 1 -2.176-5.771h-.155zm2.02-8.281a14.556 14.556 0 0 0 1.487 3.8 17.737 17.737 0 0 0 1.2-3.8z"/></g><path d="m27.291.177v99.706" fill="none" stroke="#004272" stroke-miterlimit="10"/><g fill="#004272" transform="translate(-902.352 -4275.728)"><path d="m988.4 4376.432a32.019 32.019 0 0 1 -11.951-2.176 28.1 28.1 0 0 1 -9.487-6.16 27.365 27.365 0 0 1 -6.2-9.448 32.2 32.2 0 0 1 -2.177-12.033 29.961 29.961 0 0 1 2.3-11.828 28.5 28.5 0 0 1 15.976-15.606 32.32 32.32 0 0 1 12.115-2.218 30.7 30.7 0 0 1 8.05 1.068 27.949 27.949 0 0 1 7.352 3.162 24.749 24.749 0 0 1 5.873 4.969l-8.543 9.776a24.56 24.56 0 0 0 -3.655-3.163 15.655 15.655 0 0 0 -4.23-2.095 16.042 16.042 0 0 0 -4.929-.739 16.252 16.252 0 0 0 -6.2 1.191 15.072 15.072 0 0 0 -8.5 8.666 18.885 18.885 0 0 0 -1.231 6.981 18.334 18.334 0 0 0 1.231 6.86 15.6 15.6 0 0 0 3.451 5.3 14.5 14.5 0 0 0 5.379 3.368 20.426 20.426 0 0 0 7.023 1.149 16.838 16.838 0 0 0 5.011-.739 18.256 18.256 0 0 0 4.394-2.012 18.661 18.661 0 0 0 3.573-2.916l6.736 10.678a19.431 19.431 0 0 1 -5.462 4.107 32.984 32.984 0 0 1 -7.557 2.833 34.561 34.561 0 0 1 -8.342 1.025z"/><path d="m1045.49 4376.432a31.4 31.4 0 0 1 -11.992-2.217 28.292 28.292 0 0 1 -15.688-15.69 33.085 33.085 0 0 1 0-23.82 28.288 28.288 0 0 1 15.688-15.688 33.082 33.082 0 0 1 23.82 0 28.43 28.43 0 0 1 9.447 6.242 27.951 27.951 0 0 1 6.2 9.446 33.555 33.555 0 0 1 0 23.779 27.837 27.837 0 0 1 -6.2 9.488 28.448 28.448 0 0 1 -9.447 6.243 30.948 30.948 0 0 1 -11.828 2.217zm-.082-13.142a15.4 15.4 0 0 0 6.2-1.232 14.552 14.552 0 0 0 4.928-3.492 16.028 16.028 0 0 0 3.245-5.3 19.822 19.822 0 0 0 0-13.307 16.083 16.083 0 0 0 -3.245-5.3 14.57 14.57 0 0 0 -4.928-3.491 16.225 16.225 0 0 0 -12.4 0 15 15 0 0 0 -4.97 3.491 15.217 15.217 0 0 0 -3.244 5.3 19.286 19.286 0 0 0 -1.109 6.653 19.645 19.645 0 0 0 1.109 6.7 14.708 14.708 0 0 0 3.244 5.3 15.164 15.164 0 0 0 11.171 4.683z"/><path d="m1085.985 4375.611v-57.5h12.486l20.945 34.088-8.953-.082 21.192-34.006h11.992v57.5h-13.552v-17.911q0-7.394.369-13.307t1.273-11.746l1.561 4.272-15.936 24.723h-5.421l-15.606-24.558 1.561-4.437q.9 5.5 1.273 11.294t.369 13.759v17.907z"/><path d="m1158.1 4375.611v-57.5h24.805a18.827 18.827 0 0 1 9.653 2.464 18.56 18.56 0 0 1 9.24 16.346 19.79 19.79 0 0 1 -2.505 9.979 18.851 18.851 0 0 1 -6.735 6.942 18.364 18.364 0 0 1 -9.653 2.547h-10.842v19.22zm13.716-31.46h9.118a6.164 6.164 0 0 0 3.286-.9 6.844 6.844 0 0 0 2.381-2.465 7.07 7.07 0 0 0 .905-3.613 6.8 6.8 0 0 0 -.905-3.615 6.378 6.378 0 0 0 -2.381-2.3 6.66 6.66 0 0 0 -3.286-.822h-9.118z"/><path d="m1205.169 4375.611 22.753-57.5h11.828l22.588 57.5h-14.128l-10.842-29.16q-.659-1.726-1.314-3.7t-1.315-4.066q-.657-2.094-1.273-4.107t-1.027-3.737l2.464-.083q-.492 2.054-1.108 4.025t-1.232 3.9q-.618 1.932-1.356 3.86t-1.4 3.984l-10.842 29.078zm10.843-11.007 4.352-10.514h26.449l4.272 10.514z"/><path d="m1269.483 4375.611v-57.5h12.486l30.145 41.07-2.711-.412q-.411-2.709-.657-5.173t-.452-4.847q-.205-2.38-.328-4.847t-.164-5.338q-.044-2.875-.041-6.243v-14.21h13.552v57.5h-12.649l-31.46-42.384 4.19.575q.409 3.943.7 6.694t.493 4.887q.2 2.139.287 3.861t.123 3.408q.04 1.685.041 3.739v19.22z"/><path d="m1350.637 4375.611v-28.668l.575 4.026-23.246-32.856h15.853l17.743 25.463-7.229-.246 16.018-25.217h15.36l-22.261 33.76 1.233-5.586v29.324z"/></g></svg>