<svg viewBox="0 0 187.9 57.1" xmlns="http://www.w3.org/2000/svg"><path d="m31 45.7h130.6v5.1 5.2l25.2-27.5-25.2-27.4v5.1 5.1h-160.5z" fill="#ffda2a"/><path d="m1.1 11.3 29.9 34.4h130.6v5.1 5.2l25.2-27.5-25.2-27.4" fill="none" stroke="#fff" stroke-linecap="round" stroke-linejoin="round" stroke-width="2.2"/><g fill="#004272"><path d="m50.6 26.3c-.8 0-1.6.1-2.7.1s-.4 0-.4-.3-.1-.8-.2-1.4h1.2c.7 0 1.4 0 2-.1 0-.5 0-1.1 0-1.8s0-.9-.1-1.3c.8 0 1.5.2 1.9.3.2 0 .3.2.3.3s0 .1 0 .3c-.1.2-.2.4-.2.6v1.3c.7-.1 1.4-.4 2-.6.1 0 .3 0 .3.1v1.2s0 .2-.2.3c-1.1.3-1.3.4-2.3.6v2.3c1.5-.6 2.9-.9 3.9-.9 2 0 3.4 1.3 3.4 3.2s-1.3 3.2-3.5 3.2-1 0-1.3-.1c-.3 0-.4-.2-.4-.5 0-.4-.1-.9-.5-1.4.8.3 1.4.3 2 .3.9 0 1.7-.5 1.7-1.6s-.6-1.6-1.8-1.6-2 .2-3.7 1.1v1.9c0 .7.1 1.7.1 2.1s0 .5-.2.5c-.4 0-.9.2-1.2.2-.2 0-.2-.1-.4-.3-.4-.6-1.3-1.4-2.3-2-.2 0-.4.2-.5.4 0 0-.2.1-.3.1s-.3 0-.4-.3c-.2-.3-.5-1-.7-1.5.4 0 .9-.3 1.5-.6.7-.4 1.4-.8 2.6-1.5v-2.7zm-1.5 5.5c.4.2 1 .5 1.5.7.1 0 .2 0 .2-.1 0-.4 0-1.2 0-1.7-.4.3-1 .7-1.6 1.1zm7.7-8.4c.1-.2.2-.2.3-.2 1.5.4 2.6 1.1 3.4 2v.2s0 0 0 .2c-.2.3-.6.8-.9 1.1s-.3 0-.3 0c-.8-.9-2-1.5-3.2-2 .2-.4.5-.8.7-1.2z"/><path d="m68.7 21.2h1.6c.1 0 .2 0 .2.2s0 .6 0 1.6v2.1 1.6c0 .2 0 .2-.2.2s-.6 0-1.6 0h-2.6v5 3.4c0 .2 0 .2-.2.2h-1.4c-.2 0-.2 0-.2-.2s0-1.2 0-3.4v-6.9c0-2.2 0-3.3 0-3.4 0-.2 0-.2.2-.2s.7 0 1.9 0h2.2zm-2.6 1.2v.9h2.7v-.9zm2.7 2h-2.7v1.1h2.7zm-.6 9.3c-.2 0-.2 0-.2-.2s0-.5 0-2.6v-1.2c0-1.2 0-1.6 0-1.7 0-.2 0-.2.2-.2s.5 0 1.7 0h2.1 1.7c.2 0 .2 0 .2.2s0 .5 0 1.4v1.2 2.5c0 .2 0 .2-.2.2h-1.2c-.2 0-.2 0-.2-.2v-.5h-2.8v.9c0 .2 0 .2-.2.2h-1.2zm1.4-2.4h2.8v-2h-2.8zm8.1-1.4v3.2s0 1.1-.5 1.5c-.4.3-.8.4-2.2.4s-.5 0-.6-.5c0-.5-.2-.8-.4-1.2h1.3s.7-.1.7-.6v-6.2h-2.6c-1.2 0-1.7 0-1.8 0-.2 0-.2 0-.2-.2s0-.5 0-1.4v-2.3c0-1 0-1.3 0-1.5s0-.2.2-.2.5 0 1.8 0h2.3 1.8c.2 0 .2 0 .2.2s0 .8 0 2.1v6.6zm-4.6-7.6v.9h2.9v-.9zm2.9 3.1v-1.1h-2.9v1.1z"/><path d="m84.6 23.5c.1 0 .3.2.3.3s0 .3-.1.4c0 .2-.1.9-.1 1.6 0 1 0 2.2.3 3.6.2 1.3.6 2.4 1.3 2.4s.9-.6 1.5-2.2c.4.6.7.9 1 1.2.2.2.2.4.1.6-.6 1.6-1.6 2.5-2.7 2.5s-2.6-1.5-3-4.2c-.3-1.5-.4-3.2-.4-4.7s0-1.4-.2-2.1c.8 0 1.6.3 2 .5zm7.4 1h.2s.1 0 .2 0c1.5 1.3 2.7 3.5 3.1 5.5 0 .2 0 .3-.2.4-.4.3-.8.5-1.2.6-.2 0-.3 0-.3-.2-.5-2.3-1.4-4-3-5.6.6-.4 1-.6 1.3-.7z"/><path d="m103.1 25.9c-.9.7-1.9 1.3-3 1.9-.2 0-.3.2-.4.2s-.2-.1-.3-.4c-.2-.4-.5-.8-.8-1.1 2.9-1.3 4.9-3 6.2-4.9.3-.4.5-.7.6-1.1.6 0 1.2.2 1.7.3.2 0 .3.1.3.3s0 .2-.2.2c0 0 0 0-.1.1 1.9 2.4 4.1 3.9 6.8 4.9-.3.3-.5.8-.7 1.2 0 .3-.2.4-.3.4s-.2 0-.4-.1c-1.1-.5-2.2-1.1-3.1-1.8v1.1c0 .2 0 .2-.2.2s-.5 0-1.8 0h-2.5c-1.3 0-1.7 0-1.8 0-.2 0-.2 0-.2-.2v-1.2zm-1.5 9.3c-.2 0-.2 0-.2-.2s0-.5 0-2.8v-1.4c0-1.4 0-1.8 0-1.9 0-.2 0-.2.2-.2s.7 0 2.2 0h5.1 2.2c.2 0 .2 0 .2.2s0 .6 0 1.7v1.6 2.8c0 .2 0 .2-.2.2h-1.4c-.2 0-.2 0-.2-.2v-.5h-6.4v.6c0 .2 0 .2-.2.2h-1.4zm1.6-2.2h6.4v-2.8h-6.4zm4.4-7.3h1.6c-1.2-.9-2.1-1.9-2.9-3-.8 1.2-1.8 2.1-2.9 3h1.7z"/><path d="m122 26.9c1.4-1.2 2.9-1.9 4.6-1.9 2.4 0 4 1.6 4 4.1s-1.5 4.2-4.3 5.2c0 0-.2 0-.3 0-.2 0-.3 0-.4-.2-.3-.4-.7-.7-1.3-1.1 1.6-.4 2.4-.9 3.2-1.6.7-.7 1.1-1.5 1.1-2.4 0-1.5-.8-2.5-2.4-2.5s-2.7.7-4.3 2v6.1c0 .1 0 .2-.2.2s-.9 0-1.4 0-.2 0-.2-.2c0-1.6 0-3.3 0-4.9-.8 1.2-1.6 2.3-2.2 3.2 0 0-.1.2-.2.2s-.1 0-.2 0c-.4-.3-.7-.6-1-1 0 0 0-.1 0-.2s0-.1 0-.2c1.4-1.7 2.3-2.8 3.5-4.5 0-.4 0-.8 0-1.1-.5.1-1.2.4-1.8.6-.3.1-.4.3-.5.3s-.2 0-.3-.3c-.2-.4-.4-.9-.6-1.4.4 0 .6 0 1.1-.2.4 0 1-.2 2.3-.6 0-.7 0-1.4 0-2.1s0-.9-.2-1.4c.9 0 1.5.2 1.9.3.3 0 .4.3.3.6 0 .2-.1.4-.2.7v1.4h.1.1c.1 0 .3.2.4.4.2.3.3.4.3.5s0 .2-.3.4c-.2.3-.5.6-.8 1.2v.5z"/><path d="m137.7 24.2c0-.8 0-1.1-.2-1.7.8 0 1.5.2 1.9.3.2 0 .3.2.3.3s0 .2 0 .3c0 .2-.1.4-.2.7v1.5c1.1-.1 2.8-.3 4-.4 0-.8 0-1.7 0-2.3s0-1.2-.2-1.8c1 .1 1.5.2 1.9.3.2 0 .3.1.3.3s0 .3 0 .3c0 .3-.1.4-.2.7v2.2c1.3 0 2.3-.1 3.1-.2.1 0 .2 0 .2.2v1.3c0 .2 0 .2-.2.2-1.1 0-2.1 0-3.2.1 0 1.1 0 1.8-.2 2.5-.2 1.2-.9 1.8-2.1 1.8s-.7 0-1 0-.3-.1-.3-.4c0-.5-.1-.9-.4-1.4.5.1 1 .2 1.4.2s.7-.1.8-.7c0-.5 0-1.1.1-1.7-1.3 0-2.7.3-3.9.4v3.6c0 1.3.4 1.6 2.4 1.6s3-.1 4.1-.3c.2 0 .3 0 .3.2v1.3s0 .3-.2.3c-.7.1-2.7.2-4 .2-3.2 0-4.2-.7-4.4-2.8 0-.9-.1-2.2-.1-3.9-.8.1-1.3.2-1.9.3-.2 0-.4.1-.7.2-.2 0-.3 0-.4-.2-.2-.4-.4-1.1-.4-1.6.3 0 1 0 1.7-.2.4 0 1.2-.2 1.8-.3v-1.7z"/></g></svg>