<?xml version="1.0" encoding="UTF-8"?>
<svg id="_レイヤー_2" data-name="レイヤー 2" xmlns="http://www.w3.org/2000/svg" viewBox="0 0 203.67 203.78">
  <defs>
    <style>
      .cls-1 {
        fill: #df381c;
      }

      .cls-1, .cls-2 {
        stroke-width: 0px;
      }

      .cls-2 {
        fill: #004272;
      }
    </style>
  </defs>
  <g id="_レイヤー_1-2" data-name="レイヤー 1">
    <g>
      <g>
        <g>
          <path class="cls-2" d="m27.68,182.04c.79-1.17,1.84-2.56,2.41-2.56.75,0,3.5,2.29,3.5,3.2,0,.53-.6.87-2.11.87H.83c-.49,0-.83-.15-.83-.75,0-.56.34-.75.83-.75h14.67v-2.97H5.87c-.49,0-.83-.15-.83-.75,0-.56.34-.75.83-.75h9.63c0-.94,0-1.88-.04-2.75H3.8c-.49,0-.83-.15-.83-.75,0-.56.34-.75.83-.75h11.62c-.04-1.28-.11-2.37-.19-3.08-.04-.34.19-.53.53-.53.64,0,4.4.11,4.4,1.09,0,.83-.83,1.13-1.99,1.39v1.13h7.3c.75-1.13,1.73-2.45,2.29-2.45.75,0,3.42,2.22,3.42,3.12,0,.53-.64.83-2.03.83h-10.98v2.75h5.98c.75-1.09,1.69-2.33,2.22-2.33.72,0,3.31,2.14,3.31,3.01,0,.53-.6.83-1.96.83h-9.55v2.97h9.52Zm-5.04,4.14c.6-.79,1.5-1.77,1.77-1.77.94,0,3.46,2.14,3.46,2.86,0,.56-.83.98-1.73,1.28-.04,3.08,0,7.86-.04,11.92,0,2.22-2.07,3.16-3.54,3.16s-.56-1.39-3.08-2.11c-.83-.26-.68-1.24.04-1.24.34,0,1.84.23,2.52.23.98,0,1.35-.34,1.43-1.24.04-.68.04-1.58.08-2.56h-13.05l.04,5.87c0,.83-.56,1.2-1.73,1.2-.68,0-1.05-.38-1.05-1.05.04-3.05.3-13.43-.11-17.42-.04-.26.23-.53.53-.49.6.04,2.37.68,3.31,1.35h11.17Zm-11.59,1.5c-.15.04-.3.08-.49.11-.04.6-.04,1.73-.08,2.93h13.05v-3.05h-12.49Zm12.49,7.52v-2.97h-13.05v2.97h13.05Z"/>
          <path class="cls-2" d="m66.43,177.23c.64-.75,1.43-1.58,1.84-1.58.79,0,3.05,1.96,3.05,2.75,0,.49-.71.94-1.47,1.28-.26,1.54-.6,3.01-1.02,4.4,1.05,8.35,4.63,14.29,11.81,16.32,1.13.38.83.87,0,1.17-1.02.3-1.47.72-1.81,1.2-.38.53-.75.79-1.73.3-5.6-2.75-8.35-8.39-9.33-15.84-1.02,2.45-2.26,4.66-3.84,6.66-3.46,4.4-9.59,8.2-16.89,9.86-1.13.23-1.43-.87-.41-1.28,6.47-2.18,11.96-5.72,14.93-9.52,2.9-3.72,4.78-8.24,5.38-14.22h-8.01c-2.26,4.85-5.42,9.89-10.31,13.96-.79.75-1.66.04-.98-.79,5.49-6.36,9.33-13.5,10.8-21.52.08-.41.23-.56.64-.53,1.35.23,4.14,1.2,4.25,1.96.04.64-.94.94-1.99.9-.53,1.47-1.09,2.97-1.77,4.51h6.85Z"/>
          <path class="cls-2" d="m120.48,173.73c.83-1.24,1.96-2.71,2.56-2.71.75,0,3.65,2.37,3.65,3.31,0,.53-.68.9-2.18.9h-8.76c1.17.41,2.37,1.17,2.41,1.66,0,.56-.53.75-1.69.79-.87,1.17-1.73,2.18-2.82,2.93-.11.08-.23.15-.34.19h7.82c.6-.75,1.32-1.54,1.58-1.54.94,0,3.46,2.14,3.46,2.86,0,.53-.83.98-1.69,1.28-.11,4.29-.04,11.28-.08,16.93,0,2.33-1.96,3.27-3.39,3.27s-.6-1.47-2.86-2.18c-.79-.26-.68-1.2.04-1.2.34,0,1.62.15,2.26.15.9,0,1.28-.34,1.35-1.32.11-1.96.08-5.64.08-8.35v-8.39h-9.14c.94.15,2.26.49,2.26,1.02,0,.41-.49.64-1.28.79-.04.26-.04,1.99-.04,2.22,0,.56.23.53,2.14.53,2.07,0,1.99-.23,2.33-.49.41-.41.6-1.09.83-1.77.26-.79,1.2-.64,1.2.23-.08,1.73.53,1.73.53,2.41,0,1.17-1.62,1.69-4.93,1.69-3.72,0-4.4-.08-4.4-1.81,0-.83-.04-3.5-.07-4.21-.04-.34.04-.53.19-.6h-4.7c1.13.15,2.22.56,2.22,1.09,0,.49-.45.75-1.43.87-.41,1.35-1.05,2.56-1.99,3.46-1.2,1.17-2.82,2.14-5.68,2.71-.83.26-1.39-.72-.38-1.24,2.07-.79,3.23-1.58,4.06-2.48.79-.83,1.32-2.11,1.58-3.76.04-.34.08-.53.23-.64h-5.72c-.26.15-.64.23-1.02.3-.11,1.84-.11,7.79-.11,8.99l.04,10.87c0,.83-.53,1.24-1.69,1.24-.68,0-1.02-.38-1.02-1.05,0-3.69.38-17.9-.15-22.49-.04-.26.23-.53.53-.53.53.04,2.03.56,3.01,1.17h13.35c-.26-.15-.34-.53-.11-.98.64-1.32,1.28-2.67,1.62-4.36,0-.08.04-.15.08-.23h-20.24c-.49,0-.83-.15-.83-.75,0-.56.34-.75.83-.75h14.52c0-1.24-.04-2.6-.11-3.54-.04-.38.19-.56.53-.56.64,0,4.06.11,4.06,1.09,0,.75-.79,1.05-1.96,1.28v1.73h9.48Zm-16.93,4.78c-.26-.6-.64-1.28-.98-1.88-.45-.87.08-1.66,1.2-1.13,1.77.79,3.5,1.88,3.31,3.46-.11,1.02-.87,1.69-1.99,1.54-.94-.08-1.17-1.05-1.54-1.99Zm9.67,12.6c.45-.64,1.09-1.35,1.43-1.35.64,0,2.56,1.47,2.56,2.18,0,.38-.38.68-.87.9-.04,1.54,0,4.78,0,5.68,0,1.17-.53,1.43-1.54,1.43-.87,0-1.09-.68-1.09-1.28v-.53h-7.18v1.2c0,.79-.56,1.13-1.62,1.13-.64,0-.98-.34-.98-.98,0-2.14.19-6.32-.15-9.29-.04-.3.23-.53.56-.45.72.08,2.33.71,3.08,1.35h5.79Zm.53,5.53c0-1.32.04-2.93.04-4.02h-7.22c-.04.75-.08,2.41-.08,3.05v.98h7.26Z"/>
          <path class="cls-2" d="m168.4,175.01c.83-1.24,1.92-2.71,2.52-2.71.79,0,3.65,2.33,3.65,3.31,0,.53-.68.9-2.18.9h-25.35c.08,3.01,0,5.72-.11,9.03-.19,5.6-1.05,12.34-6.43,16.7-.87.79-1.81.04-1.05-.94,3.27-4.33,4.66-8.65,4.74-16.7,0-3.23-.11-6.96-.34-10.38-.08-.6.19-.79.68-.71.64.11,2.29.83,3.16,1.5h8.8c.04-1.54,0-3.42-.11-4.59-.04-.38.19-.56.53-.56.64,0,4.44.11,4.44,1.13,0,.79-.83,1.09-1.99,1.35v2.67h9.06Zm-1.5,8.09c.83-1.24,1.92-2.71,2.56-2.71.79,0,3.54,2.37,3.54,3.31,0,.56-.79.9-2.11.9h-10.76v6.21h5.6c.56-.71,1.24-1.47,1.65-1.47.79,0,3.08,1.69,3.08,2.52,0,.53-.64.87-1.32,1.13-.11,2.71,0,7.82,0,9.22,0,1.17-.6,1.43-1.69,1.43-.9,0-1.2-.68-1.2-1.28v-1.54h-13.58v1.77c0,.79-.6,1.17-1.73,1.17-.71,0-1.05-.38-1.05-1.02,0-2.52.23-9.37-.15-12.79-.04-.3.23-.53.53-.49.64.04,2.37.68,3.31,1.35h3.95c.08-4.14,0-10.64-.3-12.98-.04-.34.19-.53.53-.53.64,0,4.36.11,4.36,1.09,0,.83-.83,1.13-1.99,1.39v3.31h6.77Zm-.6,16.21c0-2.41.04-5.53.04-7h-13.2c-.15.04-.26.04-.41.08-.04.98-.04,3.91-.04,4.59v2.33h13.62Z"/>
        </g>
        <g>
          <path class="cls-1" d="m201.65,203.22h-14.76c-1.11,0-2.02-.91-2.02-2.02v-14.76c0-1.11.91-2.02,2.02-2.02h14.76c1.11,0,2.02.91,2.02,2.02v14.76c0,1.11-.91,2.02-2.02,2.02Zm-14.76-17.81c-.57,0-1.03.46-1.03,1.03v14.76c0,.57.46,1.03,1.03,1.03h14.76c.57,0,1.03-.46,1.03-1.03v-14.76c0-.57-.46-1.03-1.03-1.03h-14.76Z"/>
          <g>
            <g>
              <path class="cls-1" d="m188.3,188.71c-.49,0-.74-.05-.74-.16,0-.15.4-.25,1.21-.28,1.07-.05,2.8-.08,5.22-.09v-.57c-.5,0-1.25.01-2.24.03-.99.02-1.74.03-2.24.03-.53,0-.8-.06-.8-.17,0-.15.4-.24,1.21-.27.88-.03,2.24-.05,4.07-.05v-.5c-2.27.05-3.51.08-3.73.08-1.28,0-1.93-.26-1.93-.78,0-.38.14-.57.41-.57.22,0,.35.19.39.57.02.23.35.34.99.34.46,0,1.1,0,1.93-.03.91-.02,1.56-.02,1.94-.02v-.56c.05-.3.19-.45.41-.45s.34.15.39.45v.56c1.73.02,3,.02,3.79.02.67,0,1.02-.11,1.05-.33.05-.39.18-.58.39-.58.27,0,.41.19.41.58,0,.52-.67.78-2.02.78-.57,0-1.78-.01-3.62-.04v.48c1.84,0,3.2.02,4.07.05.8.03,1.21.13,1.21.27,0,.11-.27.17-.8.17-.24,0-.56,0-.97-.02-.49-.02-.81-.03-.97-.03-.74-.01-1.59-.02-2.54-.02v.57c1.16,0,2.9.04,5.22.09.8.03,1.21.13,1.21.28,0,.11-.25.16-.74.16-.13,0-.28,0-.47,0-2.01-.07-3.88-.11-5.61-.11s-3.61.04-5.63.11c-.19,0-.34,0-.47,0Zm6.06.39c.97,0,1.82.02,2.54.05,1.3.06,1.96.4,2.01,1.04.07,1.13.11,2.08.11,2.87,0,.59-.12.89-.36.89-.28,0-.42-.2-.42-.61,0-.7-.02-1.15-.06-1.35-1.08-.02-2.17-.03-3.28-.03-1.46,0-2.95.02-4.47.06-.06.55-.11.99-.14,1.33-.04.41-.18.61-.41.61-.26,0-.39-.19-.38-.56v-.1c0-.06.09-1.14.28-3.23.03-.35.29-.6.78-.74.33-.09.87-.15,1.6-.18.64-.02,1.37-.03,2.19-.03Zm3.79,1.7c-1.25-.02-2.51-.03-3.76-.03s-2.51.01-3.76.03c-.05.24-.08.49-.08.75,1.16-.03,2.32-.04,3.48-.04,1.39,0,2.78.02,4.17.06l.02-.21c0-.15-.02-.34-.06-.56Zm-7.52-.44c1.25-.02,2.51-.03,3.76-.03s2.49.01,3.73.03c.02-.31-.2-.54-.67-.68-.34-.11-.86-.17-1.54-.18.35,0-.16,0-1.55,0-1.04,0-1.88.02-2.51.06-.84.05-1.24.29-1.22.73v.06Z"/>
              <path class="cls-1" d="m189.88,194.07c-.14,0-.25-.04-.34-.13-.11-.12-.16-.3-.16-.56v-.1s0-.1.28-3.24c.04-.41.33-.69.87-.85.35-.09.88-.15,1.63-.18.63-.02,1.37-.03,2.2-.03.96,0,1.82.02,2.54.05,1.36.06,2.07.45,2.12,1.15.07,1.13.11,2.1.11,2.87,0,.25,0,1.01-.48,1.01-.2,0-.54-.09-.54-.73,0-.59-.02-1.01-.05-1.23-1.06-.02-2.13-.03-3.17-.03-1.43,0-2.9.02-4.36.06-.06.5-.1.91-.13,1.23-.06.59-.32.72-.53.72Zm4.48-4.85c-.83,0-1.56.01-2.19.03-.72.03-1.25.09-1.57.18-.44.13-.67.34-.7.64-.23,2.57-.28,3.16-.28,3.22v.1c0,.19.03.32.09.39.04.04.09.06.17.06.06,0,.24,0,.29-.5.03-.34.08-.79.14-1.34v-.1s.12,0,.12,0c1.5-.04,3-.06,4.47-.06,1.08,0,2.18.01,3.28.03h.1s.02.09.02.09c.04.22.07.67.07,1.38,0,.49.21.49.3.49.15,0,.24-.28.24-.77,0-.77-.04-1.74-.11-2.86-.04-.56-.67-.87-1.89-.92-.72-.03-1.57-.05-2.53-.05Zm3.95,2.48h-.11c-1.4-.04-2.8-.06-4.16-.06-1.14,0-2.31.01-3.48.04h-.12s0-.12,0-.12c0-.27.03-.53.08-.78l.02-.09h.09c1.28-.02,2.55-.04,3.76-.04s2.48.01,3.76.03h.1s.02.1.02.1c.04.23.06.42.06.58l-.02.34Zm-4.28-.3c1.33,0,2.69.02,4.06.06v-.1c0-.11,0-.26-.04-.43-1.25-.02-2.48-.03-3.66-.03s-2.42.01-3.66.03c-.03.17-.05.34-.06.51,1.13-.03,2.25-.04,3.36-.04Zm-3.52-.91v-.18c-.02-.5.42-.79,1.33-.85.63-.04,1.47-.06,2.51-.06.83,0,1.35,0,1.55,0h0s0,0,0,0c.68.01,1.21.07,1.57.18.53.15.78.42.76.8v.11s-.12,0-.12,0c-1.27-.02-2.52-.03-3.73-.03s-2.48.01-3.76.03h-.12Zm5.4-.86c-.22.01-.67.01-1.55.01-1.04,0-1.88.02-2.5.06-.71.04-1.09.23-1.11.55,1.24-.02,2.46-.03,3.64-.03s2.38.01,3.61.03c-.03-.13-.14-.31-.58-.44-.32-.1-.79-.16-1.41-.17h0s-.04,0-.1,0h0Zm4.56-.8c-.13,0-.28,0-.47,0-2-.07-3.88-.11-5.61-.11s-3.62.04-5.62.11c-.19,0-.35,0-.47,0-.51,0-.86-.05-.86-.28,0-.21.22-.36,1.32-.4,1.06-.05,2.78-.08,5.1-.09v-.34c-.49,0-1.18.01-2.12.03-.97.02-1.73.03-2.24.03-.55,0-.92-.05-.92-.29,0-.2.22-.35,1.32-.39.86-.03,2.19-.05,3.96-.05v-.26c-2.28.05-3.4.07-3.61.07-1.38,0-2.05-.29-2.05-.9s.33-.69.53-.69.45.12.51.68c.01.15.34.24.87.24.46,0,1.1,0,1.92-.03.82-.01,1.43-.02,1.83-.02v-.45c.08-.47.33-.56.53-.56s.43.09.51.54v.47c1.68.02,2.9.02,3.67.02.83,0,.92-.18.93-.23.06-.45.23-.68.51-.68.2,0,.53.09.53.7s-.7.9-2.14.9c-.58,0-1.76-.01-3.5-.04v.24c1.77,0,3.1.02,3.96.05,1.1.05,1.32.19,1.32.39,0,.24-.37.29-.92.29-.24,0-.57,0-.98-.02-.49-.02-.81-.03-.97-.03-.71-.01-1.52-.02-2.42-.02v.34c1.14,0,2.81.04,5.1.09,1.1.05,1.32.19,1.32.4,0,.23-.34.28-.86.28Zm-6.08-.36c1.73,0,3.62.04,5.61.11.76.02.98-.02,1.06-.05-.06-.03-.29-.12-1.07-.15-2.37-.06-4.07-.09-5.21-.09h-.12v-.81h.12c.95,0,1.8,0,2.54.02.16,0,.48,0,.97.03.4.01.73.02.97.02.43,0,.59-.04.66-.06-.07-.03-.3-.11-1.07-.14-.87-.03-2.24-.05-4.07-.05h-.12v-.72h.12c1.81.03,3.03.04,3.62.04.87,0,1.9-.11,1.9-.66,0-.46-.2-.46-.29-.46-.14,0-.23.16-.27.48-.05.39-.69.44-1.17.44-.79,0-2.06,0-3.79-.02h-.12v-.68c-.06-.33-.21-.33-.27-.33-.11,0-.24.04-.29.35v.66s-.12,0-.12,0c-.39,0-1.03,0-1.94.02-.82.02-1.47.03-1.93.03s-1.07-.05-1.11-.45c-.05-.46-.22-.46-.27-.46-.09,0-.29,0-.29.45,0,.55.98.66,1.81.66.21,0,1.39-.03,3.73-.08h.12s0,.73,0,.73h-.12c-1.83,0-3.2.02-4.07.05-.73.03-.98.11-1.06.15.07.02.24.06.65.06.51,0,1.27-.01,2.24-.03,1.02-.02,1.75-.03,2.24-.03h.12v.81h-.12c-2.38.02-4.14.05-5.21.09-.74.03-.99.11-1.06.15.09.03.31.07,1.05.05,2.01-.07,3.9-.11,5.63-.11Z"/>
            </g>
            <g>
              <path class="cls-1" d="m192.64,196.54c-.06.27-.09.54-.09.8,0,1.23.72,2.22,2.16,2.97,1.22.62,3.02,1.1,5.39,1.44.71.1,1.07.22,1.07.34,0,.1-.13.15-.38.15-.2,0-.53-.03-.99-.09-5.39-.75-8.09-2.31-8.09-4.67,0-.3.04-.61.13-.93l-1,.03c-1.17.04-1.82.38-1.96,1.04-.18.86-.27,2.24-.27,4.14,0,.42-.12.62-.36.62s-.37-.17-.41-.5c-.01-.06-.02-.28-.02-.66,0-1.35.08-2.54.24-3.58.07-.48.33-.83.78-1.06.45-.23,1.11-.36,1.99-.4.88-.04,1.98-.06,3.31-.06-.16,0,1.37.03,4.58.09h.11c.51.01.84-.15.99-.48.02-.05.06-.33.13-.84-1.91-.06-3.82-.09-5.74-.09-.64,0-1.6.02-2.89.05-1.29.03-2.26.05-2.91.05-.57,0-.86-.06-.86-.19,0-.14.38-.22,1.13-.26,1.41-.06,3.3-.09,5.66-.09,1.89,0,3.78.03,5.67.09.04-.47.21-.7.5-.7.23,0,.35.21.35.62,0,.05-.07.44-.2,1.16-.07.38-.22.64-.45.8-.27.19-.74.29-1.41.29s-1.7,0-3.07-.02c-1.37-.02-2.39-.03-3.07-.03Z"/>
              <path class="cls-1" d="m188.25,202.5c-.21,0-.46-.11-.53-.61,0-.04-.02-.16-.02-.67,0-1.34.08-2.56.24-3.6.08-.52.36-.9.85-1.15.46-.24,1.15-.37,2.04-.41.87-.04,1.98-.06,3.31-.06h0c.09,0,1.63.03,4.58.09h.11c.47,0,.75-.12.88-.41,0-.02.03-.13.1-.68-1.87-.06-3.75-.09-5.6-.09-.62,0-1.56.02-2.89.05-1.33.03-2.28.05-2.91.05-.7,0-.98-.09-.98-.31,0-.19.21-.33,1.24-.38,1.4-.06,3.3-.09,5.66-.09,1.85,0,3.73.03,5.57.09.08-.57.37-.7.61-.7.21,0,.46.13.46.74,0,.03,0,.09-.21,1.18-.08.41-.25.7-.51.87-.29.21-.78.31-1.48.31s-1.7,0-3.07-.02c-1.31-.02-2.3-.03-2.97-.03-.05.23-.07.46-.07.68,0,1.18.71,2.14,2.1,2.86,1.2.61,3,1.09,5.35,1.42.97.14,1.17.28,1.17.46s-.17.27-.5.27c-.2,0-.53-.03-1-.1-5.43-.76-8.19-2.37-8.19-4.79,0-.26.03-.53.09-.81l-.85.03c-1.1.04-1.72.35-1.85.94-.18.84-.26,2.23-.26,4.12,0,.61-.26.74-.48.74Zm5.89-6.29v.02c-1.32,0-2.44.02-3.3.06-.86.04-1.51.17-1.94.39-.42.21-.65.53-.72.97-.15,1.03-.23,2.23-.23,3.57,0,.48,0,.61.01.64.05.4.22.4.29.4.06,0,.24,0,.24-.51,0-1.91.09-3.31.27-4.17.15-.71.84-1.09,2.07-1.13l1.16-.04-.04.15c-.08.31-.12.62-.12.9,0,2.28,2.69,3.81,7.98,4.55.45.06.78.09.97.09.14,0,.21-.02.24-.03-.06-.04-.26-.13-.95-.23-2.37-.34-4.2-.82-5.43-1.45-1.48-.77-2.23-1.8-2.23-3.07,0-.26.03-.54.1-.82l.02-.09h.09c.68,0,1.7,0,3.07.03,1.37.02,2.39.02,3.07.02.64,0,1.09-.09,1.34-.27.2-.14.34-.38.41-.72.16-.87.2-1.1.2-1.14,0-.5-.17-.5-.23-.5-.08,0-.33,0-.38.59v.11s-.12,0-.12,0c-1.87-.06-3.78-.09-5.67-.09-2.35,0-4.26.03-5.65.09-.67.03-.91.1-.98.14.07.03.25.07.71.07.63,0,1.58-.02,2.9-.05,1.33-.03,2.27-.05,2.89-.05,1.9,0,3.83.03,5.74.09h.13s-.02.13-.02.13c-.1.79-.12.84-.14.87-.17.38-.54.58-1.1.55h-.11l-3.44-.06c-.67-.01-.99-.02-1.13-.04Z"/>
            </g>
          </g>
        </g>
      </g>
      <g>
        <path class="cls-2" d="m98.69,92.69c-.63-.02-.89-.02-1.2-.67-.33-.68-1.23-3.11-2.67-7.21-.07-.19-.11-.3-.11-.32-.46-1.32-.91-2.54-1.11-3.04-.15-.37-.23-.47-.57-.47-.29,0-.65.05-.82.44-.02.04-.04.12-.08.22-.08.21-.19.54-.27.75l-.83,2.13c-.39,1-.83,2.18-2.54,6.81-.22.6-.49,1.18-.97,1.3-.11.03-.23.03-.33.04-.1,0-.19.01-.24.03-.14.03-.28.2-.28.35,0,.12.06.26.33.26h2.95c.26,0,.31-.14.31-.26,0-.25-.25-.29-.54-.35-.42-.08-.48-.1-.48-.32,0-.16.05-.33.1-.48.14-.46.67-2.11.88-2.6.12-.3.21-.32.32-.34.15-.03.45-.03.82-.03h1.78c.37,0,.68,0,.87.02.16.01.21.09.3.29.28.62,1.1,2.89,1.1,3.21,0,.12-.19.22-.53.27-.2.03-.56.08-.56.35s.31.26.42.26h3.99c.18,0,.29-.11.29-.28,0-.2-.14-.35-.33-.35Zm-4.92-4.63s-.13.04-.23.04h-2.65c-.15,0-.15-.02-.15-.06.04-.2,1.41-4.1,1.56-4.49.02-.04.03-.07.05-.09,0,.02.02.04.03.08.2.6,1.33,4.15,1.39,4.52Z"/>
        <g>
          <path class="cls-2" d="m174.95,78.45C174.98,35.27,138.51-.68,95.36,0,52.74.01,16.89,35.79,17.09,78.45c-.38,43.09,35.16,79.07,78.27,79.2,43.37.69,80.3-35.7,79.59-79.2ZM73.91,25.3c.39-.46.76-.93,1.13-1.4,1.68-2.16,3.47-4.57,4.66-7.06,1.1-2.32,2.01-4.96,1.48-7.58-.45-2.22-2.03-3.33-4.03-3.76,5.85-1.43,11.96-2.14,18.21-2.04,2.15,0,4.28.09,6.39.28-.04.01-.08.03-.13.04-3.81,1.24-7.42,3.18-10.6,5.61-2.15,1.64-3.81,3.03-5.75,4.89-1.16,1.11-3.1,2.92-4.25,4.04-2.1,2.04-8.27,8.36-8.27,8.36l1.16-1.38Zm-20.81,79.42c-.82.33-9.61,3.63-18.57-.4-7.59-3.42-12.97-11.08-14.04-19.29-.08-.88-.14-1.77-.19-2.66-.01-.85,0-1.69.09-2.54-.06.02-.11.05-.17.07,0-.48-.02-.96-.01-1.45-.3-23.89,11.3-45.61,29.14-59.46.1-.06.19-.12.29-.18,3.3-1.97,10.65-6.35,13.86-3.78,1.45,1.16,1.55,3.32,1.61,4.7.19,3.99-1.94,7.08-3.08,8.66-5.47,7.57-11.89,13.25-14.4,15.46-8.47,7.43-9.3,8.02-12.46,11.39-3.43,3.65-6.38,8.57-6.42,13.75-.04,5.49,3.76,9.82,8.35,12.37,3.84,2.13,8.53,3.27,12.89,2.44,8.51-1.62,12.81-12.32,16.36-19.14,7.89-15.15,17.16-29.76,29.27-41.81,2.58-2.57,5.38-5.08,8.8-6.35,4.71-1.75,10.32-.78,14.19,2.43,2.81,2.34,4.71,6.01,4.15,9.62-.49,3.15-2.26,5.36-3.15,6.34-9.32,10.29-27.77,27.46-32.38,31.87-2.47,2.36-6.57,6.31-11.46,12.05-13.01,15.25-13.86,22.34-22.67,25.93Zm78.05-11.42h-4.45c-.15,0-.26-.14-.26-.26,0-.31.45-.37.84-.42.16-.02.42-.06.48-.11-.03-.04-.1-.13-.13-.17-2.06-2.55-3.79-4.49-4.17-4.86-.12-.12-.15-.13-.21-.13h-.14c-.06,0-.08.02-.08.08v2.15c0,2.92.01,2.92.8,3.11.25.05.38.17.38.34,0,.26-.34.26-.61.26h-3.44c-.16,0-.26-.1-.26-.26,0-.28.29-.33.38-.35.6-.11.76-.14.76-1.84,0-.42,0-.98,0-1.55,0-.57,0-1.14,0-1.58s0-1.07,0-1.76c0-.82-.01-1.71-.01-2.44,0-1.53-.25-1.6-.76-1.74-.11-.03-.36-.09-.36-.34,0-.18.12-.28.35-.28h3.63c.13,0,.42,0,.42.22,0,.15-.15.35-.46.43-.82.22-.84.35-.84,4.63,0,.15.02.15.04.15.05,0,.11-.06.17-.13,1.64-1.55,2.39-2.35,3.49-3.54l.11-.11c.27-.28.43-.45.43-.61,0-.19-.29-.29-.55-.37-.26-.08-.51-.16-.51-.37,0-.15.12-.29.35-.29h3.33c.17,0,.35.1.35.29,0,.08-.04.28-.39.33-.52.08-.64.1-1.57.89-.99.85-1.84,1.74-2.75,2.68l-.49.51s-.04.05-.07.08c-.04.05-.13.14-.13.17.01.02.12.16.17.22.95,1.18,4.19,4.97,5.05,5.78.3.29.46.34.71.42.07.02.15.05.25.09.34.13.52.24.52.41,0,.08-.04.26-.4.26Zm38-12.09c0,.09,0,.18,0,.27,0,.27-.02.55-.03.82-.1,1.86-.29,3.7-.53,5.53,0,0,0,.01,0,.02-1.2,6.57-5.32,13.03-10.14,18.25-3.04,3.3-9.1,5.35-13.93,4.84-5.26-.55-8.53-7.28-9.49-11.82-1.29-6.06-.83-11.24-3.56-17.57-.5-1.15-1.55-2.67-2.33-3.47-3.28-3.36-6.87-4.34-11.97-3.5-6.69,1.09-12.17,4.72-13.77,6.28-2,1.95-4.45,4.37-4.3,7.4.15,2.83,2.46,4.26,5.55,7.26,1.8,1.75,8.94,8.7,10.99,17,1.02,4.12.55,7.62-.23,13.47-.46,3.45-1.55,6.81-1.76,10.29-.18,2.9.24,6.05,2.03,8.44,1.44,1.92,3.47,2.82,5.68,3.06-8.1,3.15-16.86,4.89-25.97,4.89-8.7.15-17.12-1.29-24.97-4.03,1.63-.21,3.21-.76,4.54-1.72,1.86-1.35,3.12-3.4,3.96-5.54,1.94-4.92,1.91-10.36,1.98-15.65.04-3.01.28-6.02.29-9.03.08-14.68,1.11-32.39,12.47-43.1,3.25-3.06,7.12-5.44,11.3-6.99,4.5-1.67,9.22-2.39,13.64-4.37,4.03-1.8,7.95-3.72,11.58-6.29,6.84-4.84,12.31-11.49,14.9-19.53.74-2.29,1.24-4.66,1.53-7.05.23-1.93.23-3.46.02-4.75,12.56,12.23,20.92,28.76,22.38,46.85.11,2.79.23,6.35.15,9.75Zm-53.87,6.02c0,3.59-2.51,6.29-5.83,6.29s-5.92-2.79-5.92-6.35,2.59-6.24,6.03-6.24c1.72,0,3.19.68,4.25,1.96.94,1.14,1.48,2.72,1.48,4.33Z"/>
          <path class="cls-2" d="m109.31,81.81c-3.24,0-3.59,3.53-3.59,5.05,0,2.92,1.18,5.86,3.82,5.86,2.16,0,3.45-2.03,3.45-5.42,0-2.05-.48-5.49-3.67-5.49Z"/>
        </g>
        <g>
          <path class="cls-2" d="m146.23,81.19h-3.03c-.2,0-.4.11-.4.29,0,.16.12.27.32.29l.46.04c.17.01.35.09.35.22,0,.09-.05.23-.11.32-1.29,1.97-1.55,2.35-2.45,3.65-.09.14-.11.15-.14.15,0,0-.03,0-.1-.1-.98-1.35-2.12-2.96-2.31-3.24-.22-.35-.34-.59-.34-.72,0-.09.08-.14.14-.17.06-.02.16-.04.26-.06.15-.03.3-.06.4-.1.22-.09.26-.24.26-.32,0-.24-.23-.24-.33-.24h-4.11c-.2,0-.33.1-.33.26,0,.22.22.27.38.3.04,0,.08.02.12.03.59.15.82.39,1.36,1.11.6.8,1.19,1.65,2.15,3.03.11.17.21.31.3.43.24.33.38.53.46.77.12.33.14.5.14,2.03,0,.65,0,1.09-.01,1.44,0,.23,0,.42,0,.6-.02.99-.02,1.33-.96,1.53-.14.03-.44.08-.44.33,0,.13.07.28.38.28h4.09c.17,0,.29-.12.29-.28,0-.2-.23-.31-.45-.34-.8-.18-.86-.49-.91-1.44-.04-.6-.04-1.19-.04-1.76,0-1.42.01-2.34.08-2.54.16-.47,2.65-3.78,3.05-4.29.4-.52.68-.84,1.31-.86.1,0,.42,0,.42-.35,0-.26-.21-.26-.28-.26Z"/>
          <path class="cls-2" d="m161.96,81.19h-3.3c-.42,0-.51.18-.51.33,0,.23.22.27.3.28h.09c.17.04.3.06.39.1.43.18.47.65.47,1.25.03,2.45.03,2.84.03,3.17,0,.09,0,.92-.02,1.78-.03.92-.19,2.2-.54,3.07-.43,1.06-1.21,1.6-2.32,1.6-2,0-2.65-1.71-2.87-2.73-.11-.54-.26-1.6-.26-4.48,0-1.14.02-2.03.07-2.66.05-.68.13-.97.63-1.11.08-.02.15-.03.22-.04.18-.03.37-.06.37-.25s-.2-.31-.47-.31h-3.69c-.2,0-.33.12-.33.29,0,.25.28.3.37.31.75.13.9.16.9,1.3,0,.28,0,.65-.02,1.13-.02.78-.05,1.85-.05,3.14,0,.94,0,2.52.86,3.95.87,1.44,2.3,2.24,4.04,2.24,2.11,0,3.82-1.14,4.59-3.06.43-1.1.47-2.19.47-3.72,0-.62,0-1.45-.01-2.18,0-.57,0-1.08,0-1.39,0-.95.03-1.21.71-1.35.15-.02.49-.11.49-.33,0-.2-.25-.33-.61-.33Z"/>
        </g>
      </g>
    </g>
  </g>
</svg>