<svg height="83.382" viewBox="0 0 482.203 83.382" width="482.203" xmlns="http://www.w3.org/2000/svg"><g fill="#004272" transform="translate(-127.01 -14753.353)"><g><path d="m134.977 14795.781v-21.066h-7.967v-5.745h22.636v5.745h-8.158v21.066z"/><path d="m154.242 14795.781v-26.812h18.69v5.555h-12.37v15.7h12.754v5.555zm3.064-10.992v-5.286h13.9v5.286z"/><path d="m178.945 14795.781v-26.812h6.512v21.066h11.949v5.745z"/></g><g><path d="m227.718 14796.589a17.224 17.224 0 0 1 -9.558-2.56 16.139 16.139 0 0 1 -6.044-7.356 32.887 32.887 0 0 1 0-23.047 16.143 16.143 0 0 1 6.044-7.354 19.169 19.169 0 0 1 19.146 0 16.1 16.1 0 0 1 6.076 7.354 32.916 32.916 0 0 1 0 23.047 16.094 16.094 0 0 1 -6.076 7.356 17.374 17.374 0 0 1 -9.588 2.56zm0-8.576a6.7 6.7 0 0 0 5.986-3.335q2.114-3.333 2.114-9.527 0-6.372-2.114-9.8a6.944 6.944 0 0 0 -11.971 0q-2.113 3.426-2.113 9.8 0 6.195 2.113 9.527a6.694 6.694 0 0 0 5.985 3.335z"/><path d="m264.641 14796.411a18.939 18.939 0 0 1 -8.546-1.907 16.687 16.687 0 0 1 -6.342-5.478l5.42-5.955a15.386 15.386 0 0 0 4.526 3.662 10.763 10.763 0 0 0 4.644.981 7.254 7.254 0 0 0 3.4-.772 5.922 5.922 0 0 0 2.352-2.175 5.83 5.83 0 0 0 .864-3.127 5.934 5.934 0 0 0 -.864-3.185 6.447 6.447 0 0 0 -2.322-2.234 6.674 6.674 0 0 0 -3.365-.834 13.1 13.1 0 0 0 -2.561.238 13.334 13.334 0 0 0 -2.531.8 28.909 28.909 0 0 0 -3.185 1.639l-4.288-5.718 2.56-18.4h23.941v8.516h-19.122l2.62-3.335-1.964 13.221-3.574-1.19a11.406 11.406 0 0 1 2.769-1.786 20.682 20.682 0 0 1 3.544-1.281 14.8 14.8 0 0 1 3.811-.507 13.786 13.786 0 0 1 7.057 1.817 13.458 13.458 0 0 1 4.973 5.031 14.584 14.584 0 0 1 1.846 7.386 13.608 13.608 0 0 1 -2.085 7.414 15.108 15.108 0 0 1 -5.6 5.24 16.26 16.26 0 0 1 -7.978 1.939z"/><path d="m286.854 14795.994-1.965-4.884 12.149-13.28q1.013-1.131 2.2-2.562t2.323-2.947a18.083 18.083 0 0 0 1.817-2.947 6.145 6.145 0 0 0 .684-2.622 3.98 3.98 0 0 0 -.536-2.084 3.681 3.681 0 0 0 -1.548-1.4 5.724 5.724 0 0 0 -2.561-.506 5.39 5.39 0 0 0 -2.621.686 7.713 7.713 0 0 0 -2.352 2.113 18 18 0 0 0 -2.055 3.515l-7.5-4.05a19.25 19.25 0 0 1 3.543-6.105 16.242 16.242 0 0 1 5.39-4.109 15.326 15.326 0 0 1 6.61-1.459 15.029 15.029 0 0 1 6.67 1.578 12.057 12.057 0 0 1 4.735 4.229 11.408 11.408 0 0 1 1.756 6.342 12.374 12.374 0 0 1 -.3 2.621 17.377 17.377 0 0 1 -.893 2.829 23 23 0 0 1 -1.578 3.1 36.534 36.534 0 0 1 -2.353 3.424q-1.371 1.789-3.215 3.813l-9.47 10.3-1.191-4.525h20.847v8.934z"/><path d="m319.012 14783.25v-8.755h20.606v8.755z"/><path d="m359.747 14796.589a17.82 17.82 0 0 1 -8.844-2.114 19.483 19.483 0 0 1 -6.878-7.295l7.266-4.705a15.452 15.452 0 0 0 2.709 3.335 9.2 9.2 0 0 0 2.918 1.816 9.032 9.032 0 0 0 3.186.566 6.428 6.428 0 0 0 3.068-.744 5.936 5.936 0 0 0 2.262-2.114 5.692 5.692 0 0 0 .864-3.1 6.128 6.128 0 0 0 -.745-3.127 4.755 4.755 0 0 0 -2.143-1.937 7.923 7.923 0 0 0 -3.365-.654 9.482 9.482 0 0 0 -1.906.208 22.049 22.049 0 0 0 -2.144.565 15.939 15.939 0 0 0 -2.322.954l-2.205-5.9 10.125-11.017 2.74 1.489-17.39-.358v-8.516h25.607l1.847 3.691-13.757 14.771-2.382-2.8a6.555 6.555 0 0 1 1.579-.447 11.374 11.374 0 0 1 2.113-.208 13.571 13.571 0 0 1 5.241 1.011 14.383 14.383 0 0 1 4.348 2.8 12.878 12.878 0 0 1 2.977 4.2 12.545 12.545 0 0 1 1.073 5.152 13.29 13.29 0 0 1 -2.115 7.414 15.086 15.086 0 0 1 -5.717 5.15 16.846 16.846 0 0 1 -8.01 1.914z"/><path d="m381.364 14795.994-1.965-4.884 12.149-13.28q1.011-1.131 2.2-2.562t2.323-2.947a18.074 18.074 0 0 0 1.816-2.947 6.148 6.148 0 0 0 .685-2.622 3.98 3.98 0 0 0 -.536-2.084 3.687 3.687 0 0 0 -1.548-1.4 5.725 5.725 0 0 0 -2.562-.506 5.387 5.387 0 0 0 -2.62.686 7.713 7.713 0 0 0 -2.352 2.113 17.95 17.95 0 0 0 -2.055 3.515l-7.5-4.05a19.25 19.25 0 0 1 3.543-6.105 16.232 16.232 0 0 1 5.39-4.109 15.323 15.323 0 0 1 6.61-1.459 15.029 15.029 0 0 1 6.67 1.578 12.061 12.061 0 0 1 4.734 4.229 11.4 11.4 0 0 1 1.757 6.342 12.312 12.312 0 0 1 -.3 2.621 17.275 17.275 0 0 1 -.892 2.829 23.108 23.108 0 0 1 -1.578 3.1 36.733 36.733 0 0 1 -2.353 3.424q-1.371 1.789-3.216 3.813l-9.469 10.3-1.191-4.525h20.846v8.934z"/><path d="m427.577 14796.589a17.82 17.82 0 0 1 -8.844-2.114 19.483 19.483 0 0 1 -6.878-7.295l7.266-4.705a15.452 15.452 0 0 0 2.709 3.335 9.2 9.2 0 0 0 2.918 1.816 9.032 9.032 0 0 0 3.186.566 6.425 6.425 0 0 0 3.068-.744 5.936 5.936 0 0 0 2.262-2.114 5.684 5.684 0 0 0 .864-3.1 6.118 6.118 0 0 0 -.745-3.127 4.75 4.75 0 0 0 -2.143-1.937 7.923 7.923 0 0 0 -3.365-.654 9.482 9.482 0 0 0 -1.906.208 22.051 22.051 0 0 0 -2.144.565 15.985 15.985 0 0 0 -2.322.954l-2.2-5.9 10.125-11.017 2.739 1.489-17.39-.358v-8.516h25.608l1.846 3.691-13.757 14.771-2.381-2.8a6.529 6.529 0 0 1 1.578-.447 11.374 11.374 0 0 1 2.113-.208 13.571 13.571 0 0 1 5.241 1.011 14.383 14.383 0 0 1 4.348 2.8 12.864 12.864 0 0 1 2.977 4.2 12.545 12.545 0 0 1 1.073 5.152 13.282 13.282 0 0 1 -2.115 7.414 15.086 15.086 0 0 1 -5.717 5.15 16.846 16.846 0 0 1 -8.014 1.914z"/><path d="m448.717 14783.25v-8.755h20.606v8.755z"/><path d="m484.925 14793.076v-33.826l2.205 5.061-8.934 4.229-1.727-9.052 11.851-5.778h6.552v39.366zm-7.622 2.918v-8.934h25.37v8.934z"/><path d="m522.563 14796.411a18.936 18.936 0 0 1 -8.546-1.907 16.69 16.69 0 0 1 -6.343-5.478l5.42-5.955a15.4 15.4 0 0 0 4.527 3.662 10.76 10.76 0 0 0 4.644.981 7.254 7.254 0 0 0 3.395-.772 5.922 5.922 0 0 0 2.352-2.175 5.83 5.83 0 0 0 .864-3.127 5.934 5.934 0 0 0 -.864-3.185 6.448 6.448 0 0 0 -2.322-2.234 6.679 6.679 0 0 0 -3.365-.834 13.1 13.1 0 0 0 -2.561.238 13.313 13.313 0 0 0 -2.531.8 28.914 28.914 0 0 0 -3.185 1.639l-4.289-5.718 2.561-18.4h23.94v8.516h-19.116l2.62-3.335-1.965 13.221-3.573-1.19a11.406 11.406 0 0 1 2.769-1.786 20.682 20.682 0 0 1 3.544-1.281 14.8 14.8 0 0 1 3.811-.507 13.789 13.789 0 0 1 7.057 1.817 13.458 13.458 0 0 1 4.973 5.031 14.584 14.584 0 0 1 1.846 7.386 13.608 13.608 0 0 1 -2.085 7.414 15.115 15.115 0 0 1 -5.6 5.24 16.26 16.26 0 0 1 -7.978 1.939z"/><path d="m558.056 14796.411a18.939 18.939 0 0 1 -8.546-1.907 16.687 16.687 0 0 1 -6.342-5.478l5.42-5.955a15.4 15.4 0 0 0 4.526 3.662 10.763 10.763 0 0 0 4.644.981 7.254 7.254 0 0 0 3.4-.772 5.931 5.931 0 0 0 2.353-2.175 5.838 5.838 0 0 0 .863-3.127 5.942 5.942 0 0 0 -.863-3.185 6.458 6.458 0 0 0 -2.323-2.234 6.674 6.674 0 0 0 -3.365-.834 13.1 13.1 0 0 0 -2.561.238 13.334 13.334 0 0 0 -2.531.8 28.909 28.909 0 0 0 -3.185 1.639l-4.288-5.718 2.56-18.4h23.941v8.516h-19.122l2.62-3.335-1.964 13.221-3.574-1.19a11.406 11.406 0 0 1 2.769-1.786 20.684 20.684 0 0 1 3.544-1.281 14.8 14.8 0 0 1 3.811-.507 13.786 13.786 0 0 1 7.057 1.817 13.458 13.458 0 0 1 4.973 5.031 14.584 14.584 0 0 1 1.846 7.386 13.608 13.608 0 0 1 -2.085 7.414 15.107 15.107 0 0 1 -5.6 5.24 16.26 16.26 0 0 1 -7.978 1.939z"/><path d="m593.549 14796.411a18.932 18.932 0 0 1 -8.549-1.911 16.682 16.682 0 0 1 -6.343-5.478l5.42-5.955a15.4 15.4 0 0 0 4.526 3.662 10.767 10.767 0 0 0 4.645.981 7.253 7.253 0 0 0 3.394-.772 5.925 5.925 0 0 0 2.353-2.175 5.839 5.839 0 0 0 .863-3.127 5.942 5.942 0 0 0 -.863-3.185 6.451 6.451 0 0 0 -2.323-2.234 6.674 6.674 0 0 0 -3.365-.834 13.093 13.093 0 0 0 -2.56.238 13.32 13.32 0 0 0 -2.532.8 28.909 28.909 0 0 0 -3.185 1.639l-4.288-5.718 2.56-18.4h23.941v8.516h-19.112l2.62-3.335-1.965 13.221-3.573-1.19a11.379 11.379 0 0 1 2.768-1.786 20.712 20.712 0 0 1 3.544-1.281 14.809 14.809 0 0 1 3.812-.507 13.785 13.785 0 0 1 7.056 1.817 13.458 13.458 0 0 1 4.973 5.031 14.585 14.585 0 0 1 1.847 7.386 13.616 13.616 0 0 1 -2.085 7.414 15.118 15.118 0 0 1 -5.6 5.24 16.26 16.26 0 0 1 -7.979 1.943z"/></g><g><path d="m252.672 14817.109c.281-.108.345-.065.475.087a11.713 11.713 0 0 1 1.255 2.034c.108.193.108.216-.194.323l-1.515.5h8.633a17.53 17.53 0 0 0 1.1-2.077 7.88 7.88 0 0 0 .347-1.082 15.791 15.791 0 0 1 2.055.627c.2.088.282.152.282.281a.425.425 0 0 1 -.2.368 1.565 1.565 0 0 0 -.454.521c-.3.5-.541.931-.823 1.362h.433c1.99 0 2.7-.044 2.856-.044.216 0 .238.023.238.239 0 .129-.043.541-.043 1.146v.952c0 1.905.043 2.251.043 2.38 0 .218-.022.238-.238.238h-1.722c-.216 0-.238-.021-.238-.238v-2.812h-13.913v2.791c0 .238-.022.259-.239.259h-1.73c-.217 0-.239-.021-.239-.259 0-.13.043-.477.043-2.38v-.78c0-.756-.043-1.146-.043-1.3 0-.216.022-.239.239-.239.151 0 .865.044 2.855.044h.5a.4.4 0 0 1 -.108-.174 10.414 10.414 0 0 0 -1.1-1.99c-.13-.193-.108-.237.152-.323zm7.723 6.124c1.948 0 2.641-.044 2.792-.044.195 0 .216.021.216.26 0 .107-.043.476-.043 1.471v1.905c0 1 .043 1.361.043 1.492 0 .217-.021.237-.216.237-.151 0-.844-.043-2.792-.043h-1.643c-.2.541-.412 1.018-.607 1.449h4.112c2.12 0 2.877-.021 3.029-.021.216 0 .216.021.216.237 0 .13-.022.65-.022 1.666v1.385c0 2.554.022 3.029.022 3.159 0 .2 0 .216-.216.216h-1.818c-.216 0-.238-.021-.238-.216v-.648h-10.43v.734c0 .218-.022.238-.216.238h-1.839c-.217 0-.239-.021-.239-.238 0-.13.043-.6.043-3.2v-1.169c0-1.275-.043-1.8-.043-1.926 0-.217.022-.237.239-.237.151 0 .908.021 3.029.021h2.1a14.628 14.628 0 0 0 .605-1.449h-.887c-1.968 0-2.661.043-2.791.043-.195 0-.216-.021-.216-.237 0-.151.043-.5.043-1.492v-1.905c0-1-.043-1.363-.043-1.471 0-.238.021-.26.216-.26.13 0 .823.044 2.791.044zm-7.594 10.623h10.429v-1.99h-10.43zm1.991-7.055h6.425v-1.882h-6.425zm3.05-9.93c.26-.087.325-.044.433.151a14.385 14.385 0 0 1 1.082 2.162c.087.175.065.218-.238.3l-1.449.432c-.326.086-.347.065-.433-.172a19.138 19.138 0 0 0 -1.018-2.122c-.129-.215-.064-.238.2-.324z"/><path d="m273.034 14831.433c-1.947 0-2.6.043-2.726.043-.238 0-.259-.021-.259-.237v-1.277c0-.237.021-.259.259-.259.13 0 .779.044 2.726.044h5.345v-1.169h-3.051c-2.1 0-2.857.044-2.987.044-.215 0-.215-.023-.215-.239v-1.232c0-.238 0-.261.215-.261.13 0 .888.043 2.987.043h3.051v-1.146h-4.068c-2.077 0-2.769.043-2.9.043-.238 0-.26-.022-.26-.216v-1.277c0-.216.022-.238.26-.238.13 0 .822.043 2.9.043h1.32c-.238-.518-.455-.951-.693-1.362-.108-.194-.13-.281.152-.367l1.406-.39h-3.462c-1.947 0-2.6.043-2.726.043-.238 0-.259-.021-.259-.237v-1.342c0-.238.021-.261.259-.261.13 0 .779.043 2.726.043h.152a10.305 10.305 0 0 0 -1.233-1.859c-.13-.152-.087-.239.173-.368l1.255-.584c.216-.109.281-.087.411.087a12.842 12.842 0 0 1 1.449 2.1c.108.194.108.217-.173.367l-.519.26h2.012v-1.428a8.472 8.472 0 0 0 -.13-1.882c.671.022 1.515.065 2.1.129.173.022.26.087.26.2a1.122 1.122 0 0 1 -.087.367 3.367 3.367 0 0 0 -.13 1.189v1.428h1.753v-1.405a8.582 8.582 0 0 0 -.13-1.9c.649.022 1.493.065 2.077.151.195.021.281.087.281.194a1.015 1.015 0 0 1 -.086.347 3.379 3.379 0 0 0 -.129 1.189v1.428h1.34a15.8 15.8 0 0 0 1-1.773 4.11 4.11 0 0 0 .368-1.168 18.2 18.2 0 0 1 2.1.562c.2.066.282.173.282.281a.45.45 0 0 1 -.216.369 2.133 2.133 0 0 0 -.368.411c-.282.454-.584.886-.887 1.318h.3c1.947 0 2.6-.043 2.726-.043.216 0 .237.022.237.261v1.342c0 .216-.021.237-.237.237-.13 0-.779-.043-2.726-.043h-3.787c.563.107 1.06.217 1.709.39.173.043.282.13.282.259a.378.378 0 0 1 -.239.325 1.488 1.488 0 0 0 -.3.454l-.39.691h1.406c2.077 0 2.77-.043 2.9-.043.216 0 .238.022.238.238v1.277c0 .193-.022.216-.238.216-.13 0-.823-.043-2.9-.043h-4.37v1.146h3.441c2.12 0 2.855-.043 2.985-.043.217 0 .238.022.238.261v1.232c0 .216-.021.239-.238.239-.13 0-.865-.044-2.985-.044h-3.441v1.169h5.691c1.947 0 2.6-.044 2.726-.044.216 0 .237.021.237.259v1.277c0 .217-.021.237-.237.237-.13 0-.779-.043-2.726-.043h-3.861a19.637 19.637 0 0 0 7.2 2.813 6.144 6.144 0 0 0 -.844 1.384c-.173.412-.259.563-.475.563a2.279 2.279 0 0 1 -.5-.108 18.883 18.883 0 0 1 -7.27-3.873c0 2.575.108 3.916.108 4.284 0 .216-.022.238-.238.238h-1.84c-.194 0-.215-.022-.215-.238 0-.368.064-1.622.086-4.2a17.5 17.5 0 0 1 -6.946 3.873 1.641 1.641 0 0 1 -.5.13c-.2 0-.281-.15-.476-.562a5.126 5.126 0 0 0 -.866-1.3 18.005 18.005 0 0 0 6.9-3.009zm8.352-7.292a13.781 13.781 0 0 0 .584-1.255 3.925 3.925 0 0 0 .239-.864h-5.518c.065.021.108.087.173.173a13.657 13.657 0 0 1 .974 1.946z"/><path d="m298.265 14827.668c0 5.388.044 6.362.044 6.492 0 .216-.021.237-.238.237h-1.558c-.2 0-.216-.021-.216-.237v-.952h-1.991v1.709c0 .216-.021.238-.216.238h-1.6c-.217 0-.238-.022-.238-.238 0-.13.043-1.234.043-6.665v-4.716c0-3.916-.043-5.064-.043-5.194 0-.216.021-.236.238-.236.151 0 .562.043 1.86.043h1.862c1.3 0 1.709-.043 1.86-.043.217 0 .238.021.238.236 0 .13-.044 1.191-.044 4.371zm-3.959-7.551v4.479h1.994v-4.479zm1.991 11.121v-4.673h-1.991v4.673zm5.755-5.755c-2.055 0-2.769.043-2.9.043-.238 0-.26-.022-.26-.261v-1.491c0-.218.022-.238.26-.238.13 0 .844.043 2.9.043h1.558v-2.229h-1.017c-1.925 0-2.6.043-2.726.043-.238 0-.26-.021-.26-.236v-1.516c0-.237.022-.26.26-.26.13 0 .8.043 2.726.043h1.017a18.037 18.037 0 0 0 -.151-2.443c.843.021 1.427.063 2.228.15.217.022.347.108.347.216a1.219 1.219 0 0 1 -.13.454 5.045 5.045 0 0 0 -.108 1.623h1.449c1.969 0 2.618-.043 2.748-.043.217 0 .238.022.238.26v1.516c0 .216-.021.236-.238.236-.13 0-.779-.043-2.748-.043h-1.445v2.229h2.293c2.055 0 2.769-.043 2.9-.043.238 0 .26.021.26.238v1.491c0 .238-.022.261-.26.261-.13 0-.844-.043-2.9-.043zm.086 4.066c-2.054 0-2.747.044-2.877.044-.238 0-.259-.021-.259-.237v-1.516c0-.216.021-.238.259-.238.13 0 .823.045 2.877.045h4.262a15.9 15.9 0 0 0 -.151-1.9c.822.043 1.6.107 2.185.193.239.045.368.131.368.238a.734.734 0 0 1 -.108.368 2.738 2.738 0 0 0 -.108 1.1c1.471 0 2.055-.045 2.164-.045.237 0 .258.022.258.238v1.516c0 .216-.021.237-.258.237-.109 0-.693-.021-2.164-.044v2.144c0 1 .021 1.926.021 2.66a2.012 2.012 0 0 1 -.757 1.84 5 5 0 0 1 -2.813.476c-.649 0-.671 0-.823-.649a4.814 4.814 0 0 0 -.648-1.578c.757.063 1.406.086 2.12.086.52 0 .714-.174.714-.671v-4.307zm-.367.607c.216-.13.281-.13.454.021a17.13 17.13 0 0 1 1.99 2.489c.13.194.109.259-.107.411l-1.32.908c-.13.087-.2.13-.26.13s-.108-.043-.173-.152a18.153 18.153 0 0 0 -1.9-2.661c-.152-.173-.152-.237.108-.389z"/><path d="m319.646 14817.607c1.406 0 2.055-.043 2.185-.043.2 0 .217.021.217.26 0 .13-.043.757-.043 2.054v2.684c0 1.319.043 1.927.043 2.057 0 .237-.022.259-.217.259-.13 0-.779-.043-2.185-.043h-3.506v7.01c0 2.986.044 4.457.044 4.609 0 .216-.022.238-.238.238h-1.839c-.217 0-.238-.022-.238-.238 0-.152.043-1.623.043-4.609v-9.369c0-3.007-.043-4.521-.043-4.65 0-.239.021-.26.238-.26.151 0 .974.043 2.553.043zm-3.506 1.623v1.275h3.743v-1.275zm3.743 2.747h-3.743v1.3h3.743zm-.822 13.221c-.216 0-.237-.022-.237-.26 0-.131.043-.715.043-3.916v-1.9c0-1.905-.043-2.553-.043-2.7 0-.217.021-.239.237-.239.152 0 .671.043 2.316.043h2.923c1.644 0 2.164-.043 2.315-.043.216 0 .238.022.238.239 0 .129-.044.778-.044 2.337v2.141c0 3.139.044 3.723.044 3.83 0 .217-.022.238-.238.238h-1.558c-.216 0-.238-.021-.238-.238v-.671h-3.96v.888c0 .237-.021.26-.26.26zm1.8-5.863h3.96v-1.451h-3.96zm3.96 3.072v-1.516h-3.96v1.516zm7.118-2.835c0 1.514.087 3.246.087 4.306a2.351 2.351 0 0 1 -.628 1.991c-.454.411-1.059.584-3.094.584-.649 0-.649.021-.779-.671a6.806 6.806 0 0 0 -.518-1.579 14.812 14.812 0 0 0 1.817.107c.714 0 .887-.194.887-.844v-8.633h-3.548c-1.689 0-2.251.043-2.381.043-.216 0-.237-.021-.237-.259 0-.13.043-.628.043-1.905v-2.986c0-1.255-.043-1.772-.043-1.9 0-.239.021-.26.237-.26.13 0 .692.043 2.381.043h3.181c1.687 0 2.271-.043 2.4-.043.216 0 .238.021.238.26 0 .13-.044 1.016-.044 2.854zm-6.231-10.342v1.275h4v-1.275zm4 4.046v-1.3h-4v1.3z"/><path d="m343.147 14831.736c.3 1.1.822 1.58 1.731 1.58 1.839 0 2.9-1.56 3.007-5.887a3.548 3.548 0 0 1 -3.375 1.97c-2.509 0-4.392-2.057-4.392-5.322 0-3.571 1.947-5.778 4.976-5.778 3.268 0 5.367 2.359 5.367 7.919 0 6.6-2.078 9.174-5.626 9.174-2.25 0-3.678-.887-4.349-2.66zm2.056-11.36c-1.6 0-2.337 1.385-2.337 3.635 0 2.1.887 3.312 2.271 3.312a2.863 2.863 0 0 0 2.619-2.077c-.022-3.225-.779-4.87-2.556-4.87z"/><path d="m364.2 14822.281a1.833 1.833 0 0 1 -1.861 1.859 1.8 1.8 0 0 1 -1.838-1.859 1.823 1.823 0 0 1 1.838-1.839 1.856 1.856 0 0 1 1.861 1.839zm0 9.151a1.832 1.832 0 0 1 -1.861 1.86 1.8 1.8 0 0 1 -1.838-1.86 1.823 1.823 0 0 1 1.838-1.839 1.857 1.857 0 0 1 1.861 1.84z"/><path d="m384.586 14826.781c0 6.124-1.861 8.61-5.236 8.61-3.4 0-5.172-2.443-5.172-8.566s1.883-8.526 5.215-8.526 5.193 2.38 5.193 8.482zm-7.617.021c0 4.869.671 6.449 2.381 6.449 1.752 0 2.445-1.6 2.445-6.449 0-4.868-.671-6.359-2.4-6.359-1.689-.001-2.426 1.47-2.426 6.357z"/><path d="m396.985 14826.781c0 6.124-1.86 8.61-5.235 8.61-3.4 0-5.172-2.443-5.172-8.566s1.883-8.526 5.215-8.526 5.192 2.38 5.192 8.482zm-7.616.021c0 4.869.671 6.449 2.381 6.449 1.752 0 2.444-1.6 2.444-6.449 0-4.868-.671-6.359-2.4-6.359-1.689-.001-2.425 1.47-2.425 6.357z"/><path d="m399.324 14827.473c1.752-2.012 3.31-2.984 5.106-2.984a8.978 8.978 0 0 1 4.392 1.362c2.251 1.19 3.376 1.645 4.565 1.645 1.364 0 2.424-.389 4.025-2.077l.866.909c-1.688 2.141-3.332 3.072-5.15 3.072a8.813 8.813 0 0 1 -4.392-1.406c-2.186-1.191-3.311-1.646-4.565-1.646-1.321 0-2.316.391-3.96 2.014z"/><path d="m427.389 14832.991h3.094v2.1h-8.914v-2.1h3.246v-11.771a12.132 12.132 0 0 1 -3.052 1.473l-.432-2.273a12.167 12.167 0 0 0 3.851-1.947h2.207z"/><path d="m443.553 14830.8c0 2.748-2.1 4.587-5.322 4.587-3.267 0-5.345-1.709-5.345-4.5 0-1.9 1-3.028 3.2-4.11-2.055-1.061-2.813-2.38-2.813-4.22 0-2.38 1.969-4.263 4.934-4.263 2.921 0 4.976 1.732 4.976 4.176 0 1.775-.952 2.966-2.9 3.766 2.384 1.13 3.27 2.428 3.27 4.564zm-5.82-3.2c-1.536.845-2.271 1.732-2.271 3.116a2.551 2.551 0 0 0 2.748 2.684 2.452 2.452 0 0 0 2.769-2.511c0-1.3-.628-2.033-2.618-2.985zm.952-2.142a2.961 2.961 0 0 0 1.947-2.877 2.25 2.25 0 0 0 -2.422-2.294 2.172 2.172 0 0 0 -2.381 2.251c0 1.125.541 1.838 2.251 2.639z"/><path d="m457.078 14822.281a1.833 1.833 0 0 1 -1.861 1.859 1.8 1.8 0 0 1 -1.838-1.859 1.823 1.823 0 0 1 1.838-1.839 1.856 1.856 0 0 1 1.861 1.839zm0 9.151a1.832 1.832 0 0 1 -1.861 1.86 1.8 1.8 0 0 1 -1.838-1.86 1.823 1.823 0 0 1 1.838-1.839 1.857 1.857 0 0 1 1.861 1.84z"/><path d="m477.463 14826.781c0 6.124-1.861 8.61-5.236 8.61-3.4 0-5.172-2.443-5.172-8.566s1.883-8.526 5.215-8.526 5.193 2.38 5.193 8.482zm-7.617.021c0 4.869.671 6.449 2.381 6.449 1.752 0 2.445-1.6 2.445-6.449 0-4.868-.671-6.359-2.4-6.359-1.689-.001-2.426 1.47-2.426 6.357z"/><path d="m489.862 14826.781c0 6.124-1.86 8.61-5.235 8.61-3.4 0-5.172-2.443-5.172-8.566s1.883-8.526 5.215-8.526 5.192 2.38 5.192 8.482zm-7.616.021c0 4.869.671 6.449 2.381 6.449 1.752 0 2.444-1.6 2.444-6.449 0-4.868-.671-6.359-2.4-6.359-1.689-.001-2.425 1.47-2.425 6.357z"/></g></g></svg>