<svg height="203.785" viewBox="0 0 203.666 203.785" width="203.666" xmlns="http://www.w3.org/2000/svg"><g transform="translate(-131.982 -5325.71)"><g fill="#004272"><path d="m159.666 5507.754c.79-1.167 1.843-2.558 2.407-2.558.753 0 3.5 2.294 3.5 3.2 0 .527-.6.865-2.107.865h-30.657c-.489 0-.827-.15-.827-.752 0-.564.338-.752.827-.752h14.67v-2.972h-9.629c-.49 0-.828-.151-.828-.752 0-.564.338-.752.828-.752h9.629c0-.941 0-1.881-.038-2.747h-11.66c-.489 0-.828-.15-.828-.752 0-.564.339-.752.828-.752h11.619c-.038-1.279-.113-2.37-.188-3.084-.038-.339.188-.527.526-.527.64 0 4.4.113 4.4 1.091 0 .827-.828 1.128-1.993 1.391v1.129h7.3c.752-1.129 1.73-2.445 2.294-2.445.753 0 3.423 2.219 3.423 3.122 0 .526-.639.827-2.031.827h-10.981v2.747h5.98c.753-1.091 1.693-2.333 2.219-2.333.716 0 3.311 2.144 3.311 3.009 0 .527-.6.828-1.956.828h-9.554v2.972zm-5.04 4.137c.6-.79 1.5-1.768 1.768-1.768.94 0 3.46 2.144 3.46 2.859 0 .564-.827.978-1.73 1.279-.038 3.084 0 7.861-.038 11.924a3.334 3.334 0 0 1 -3.536 3.16c-1.466 0-.564-1.393-3.084-2.107-.827-.264-.677-1.241.038-1.241.338 0 1.843.225 2.52.225.978 0 1.354-.338 1.429-1.241.038-.677.038-1.579.076-2.557h-13.053l.038 5.867c0 .828-.564 1.2-1.731 1.2a.952.952 0 0 1 -1.053-1.053c.038-3.047.3-13.428-.113-17.416a.467.467 0 0 1 .527-.489 9.16 9.16 0 0 1 3.31 1.354zm-11.586 1.5c-.15.038-.3.076-.489.113-.037.6-.037 1.731-.075 2.935h13.053v-3.039zm12.489 7.523v-2.971h-13.053v2.971z"/><path d="m198.408 5502.939c.64-.752 1.43-1.58 1.844-1.58.789 0 3.047 1.956 3.047 2.746 0 .489-.715.94-1.468 1.279a37.631 37.631 0 0 1 -1.015 4.4c1.053 8.35 4.626 14.294 11.811 16.324 1.128.377.828.865 0 1.166a2.985 2.985 0 0 0 -1.806 1.2c-.376.527-.752.791-1.73.3-5.6-2.746-8.35-8.388-9.328-15.836a27.666 27.666 0 0 1 -3.837 6.658c-3.461 4.4-9.592 8.2-16.889 9.856-1.129.225-1.43-.866-.414-1.28 6.47-2.181 11.962-5.717 14.933-9.516a26.608 26.608 0 0 0 5.379-14.219h-8.012a39.189 39.189 0 0 1 -10.306 13.955c-.79.753-1.655.038-.978-.789a45.326 45.326 0 0 0 10.795-21.516c.075-.414.226-.564.639-.526 1.355.225 4.138 1.2 4.251 1.955.037.64-.94.941-1.993.9-.527 1.467-1.092 2.972-1.769 4.514z"/><path d="m252.46 5499.44c.827-1.241 1.956-2.707 2.558-2.707.752 0 3.648 2.369 3.648 3.309 0 .527-.677.9-2.181.9h-8.764c1.165.414 2.369 1.167 2.407 1.656 0 .564-.527.752-1.693.789a12.36 12.36 0 0 1 -2.821 2.934 1.568 1.568 0 0 1 -.339.188h7.825c.6-.752 1.317-1.542 1.58-1.542.941 0 3.461 2.144 3.461 2.858 0 .527-.828.979-1.693 1.28-.113 4.287-.038 11.284-.075 16.926a3.252 3.252 0 0 1 -3.386 3.273c-1.466 0-.6-1.468-2.858-2.182-.79-.263-.677-1.2.037-1.2.339 0 1.618.151 2.257.151.9 0 1.279-.339 1.354-1.317.114-1.955.076-5.642.076-8.35v-8.388h-9.141c.941.15 2.257.489 2.257 1.016 0 .413-.489.639-1.279.79-.037.263-.037 1.993-.037 2.219 0 .564.225.526 2.144.526 2.068 0 1.993-.226 2.332-.489a4.547 4.547 0 0 0 .827-1.768c.264-.789 1.2-.639 1.2.226-.075 1.73.526 1.73.526 2.407 0 1.166-1.617 1.693-4.927 1.693-3.724 0-4.4-.075-4.4-1.806 0-.827-.037-3.5-.075-4.212-.038-.338.038-.526.188-.6h-4.7c1.129.15 2.219.564 2.219 1.091 0 .489-.451.752-1.429.865a7.93 7.93 0 0 1 -1.993 3.46 10.526 10.526 0 0 1 -5.68 2.709c-.828.263-1.392-.715-.377-1.242a10.072 10.072 0 0 0 4.063-2.482 6.966 6.966 0 0 0 1.58-3.761c.037-.339.075-.527.225-.64h-5.717a3.6 3.6 0 0 1 -1.016.3c-.112 1.843-.112 7.786-.112 8.99l.037 10.87c0 .828-.526 1.242-1.693 1.242a.925.925 0 0 1 -1.015-1.054c0-3.686.376-17.9-.151-22.493a.514.514 0 0 1 .527-.527 9.432 9.432 0 0 1 3.009 1.166h13.355c-.263-.15-.338-.527-.112-.978a17.562 17.562 0 0 0 1.617-4.363.533.533 0 0 1 .075-.226h-20.238c-.49 0-.828-.15-.828-.752 0-.565.338-.753.828-.753h14.519c0-1.241-.038-2.595-.113-3.535a.473.473 0 0 1 .527-.564c.639 0 4.062.113 4.062 1.091 0 .752-.79 1.053-1.956 1.278v1.73zm-16.927 4.778c-.263-.6-.639-1.279-.978-1.881-.451-.865.076-1.655 1.2-1.128 1.768.79 3.5 1.88 3.31 3.46a1.66 1.66 0 0 1 -1.993 1.542c-.937-.075-1.163-1.053-1.539-1.993zm9.667 12.6c.452-.639 1.091-1.354 1.429-1.354.64 0 2.558 1.467 2.558 2.181 0 .376-.376.677-.865.9-.037 1.542 0 4.777 0 5.68 0 1.166-.526 1.429-1.542 1.429-.865 0-1.091-.677-1.091-1.279v-.526h-7.184v1.2c0 .79-.564 1.129-1.617 1.129a.875.875 0 0 1 -.979-.978 88.329 88.329 0 0 0 -.15-9.291.428.428 0 0 1 .564-.451 7.616 7.616 0 0 1 3.084 1.354zm.527 5.529c0-1.317.037-2.934.037-4.025h-7.222c-.037.752-.075 2.407-.075 3.047v.978z"/><path d="m300.38 5500.72c.828-1.242 1.918-2.709 2.52-2.709.79 0 3.649 2.332 3.649 3.311 0 .526-.677.9-2.182.9h-25.352c.075 3.009 0 5.718-.113 9.028-.188 5.6-1.053 12.338-6.432 16.7-.865.791-1.806.038-1.053-.94 3.272-4.325 4.664-8.651 4.739-16.7 0-3.235-.113-6.958-.339-10.382-.075-.6.189-.79.677-.714a9.871 9.871 0 0 1 3.16 1.505h8.8a43.706 43.706 0 0 0 -.113-4.589.473.473 0 0 1 .527-.564c.639 0 4.438.112 4.438 1.128 0 .79-.827 1.091-1.993 1.354v2.671zm-1.505 8.087c.828-1.242 1.919-2.709 2.558-2.709.79 0 3.536 2.371 3.536 3.311 0 .564-.79.9-2.106.9h-10.758v6.207h5.6c.565-.715 1.242-1.467 1.655-1.467.79 0 3.085 1.693 3.085 2.52 0 .527-.639.865-1.317 1.128-.113 2.708 0 7.824 0 9.216 0 1.166-.6 1.43-1.692 1.43a1.159 1.159 0 0 1 -1.2-1.279v-1.543h-13.579v1.768c0 .79-.6 1.167-1.73 1.167a.925.925 0 0 1 -1.053-1.016c0-2.521.225-9.367-.151-12.789a.45.45 0 0 1 .527-.489 8.911 8.911 0 0 1 3.31 1.354h3.949c.075-4.138 0-10.645-.3-12.977-.037-.339.188-.527.527-.527.64 0 4.363.113 4.363 1.091 0 .827-.827 1.128-1.993 1.391v3.311zm-.6 16.212c0-2.407.037-5.53.037-7h-13.2c-.15.038-.263.038-.413.076-.038.977-.038 3.912-.038 4.589v2.332z"/></g><path d="m333.627 5528.926h-14.758a2.024 2.024 0 0 1 -2.021-2.021v-14.758a2.024 2.024 0 0 1 2.021-2.021h14.758a2.024 2.024 0 0 1 2.021 2.021v14.753a2.024 2.024 0 0 1 -2.021 2.026zm-14.758-17.807a1.029 1.029 0 0 0 -1.027 1.028v14.753a1.029 1.029 0 0 0 1.027 1.028h14.758a1.029 1.029 0 0 0 1.028-1.028v-14.758a1.029 1.029 0 0 0 -1.028-1.028z" fill="#df381c"/><g fill="#df381c"><path d="m320.283 5514.415c-.492 0-.737-.054-.737-.163 0-.154.4-.249 1.207-.282q1.6-.07 5.218-.094v-.574q-.753 0-2.241.03t-2.241.03c-.532 0-.8-.057-.8-.171q0-.222 1.207-.273 1.315-.053 4.074-.052v-.5q-3.4.076-3.73.077-1.926 0-1.927-.779c0-.382.135-.573.408-.573q.329 0 .391.573.031.342.987.342.69 0 1.928-.026 1.363-.024 1.943-.025v-.565c.052-.3.188-.445.408-.445s.339.149.391.445v.565q2.6.026 3.792.025 1 0 1.05-.334c.052-.387.183-.581.392-.581.271 0 .408.194.408.581q0 .78-2.022.779-.863 0-3.62-.042v.479q2.759 0 4.074.052 1.207.05 1.207.273 0 .171-.8.171c-.241 0-.564-.006-.972-.017-.491-.017-.814-.026-.971-.026q-1.113-.016-2.539-.017v.574q1.74.007 5.218.094c.8.033 1.207.128 1.207.282 0 .109-.246.163-.736.163-.126 0-.283 0-.471-.009q-3.008-.111-5.609-.111t-5.626.111c-.186.009-.343.013-.468.013zm6.064.393q1.458 0 2.538.051 1.944.087 2.006 1.036.109 1.693.11 2.866 0 .891-.36.89c-.282 0-.423-.2-.423-.608a8.735 8.735 0 0 0 -.063-1.351q-1.614-.034-3.275-.035-2.195 0-4.466.061-.094.821-.141 1.334-.063.608-.408.607-.391 0-.376-.564v-.1q0-.094.282-3.226c.032-.353.293-.6.784-.744a7.861 7.861 0 0 1 1.6-.179q.954-.039 2.192-.038zm3.792 1.7q-1.881-.035-3.76-.035t-3.762.035a3.544 3.544 0 0 0 -.078.753q1.74-.044 3.479-.043 2.084 0 4.168.06l.016-.214a2.984 2.984 0 0 0 -.063-.553zm-7.522-.437q1.881-.034 3.762-.034 1.863 0 3.729.034c.021-.314-.2-.539-.674-.676a5.783 5.783 0 0 0 -1.536-.179q.532.009-1.551.008-1.567 0-2.507.06-1.254.078-1.223.728z"/><path d="m321.865 5519.778a.455.455 0 0 1 -.338-.13.74.74 0 0 1 -.157-.556v-.1c0-.027 0-.1.283-3.236.036-.406.328-.692.869-.849a7.882 7.882 0 0 1 1.626-.183c.628-.024 1.368-.035 2.2-.035.963 0 1.819.017 2.544.051 1.36.06 2.073.447 2.119 1.147.073 1.129.11 2.1.11 2.874 0 .249 0 1.009-.479 1.009-.2 0-.543-.094-.543-.727a11.218 11.218 0 0 0 -.045-1.234c-1.065-.022-2.132-.033-3.173-.033-1.432 0-2.9.02-4.36.058q-.084.749-.128 1.228c-.062.593-.321.716-.528.716zm4.482-4.851c-.828 0-1.565.012-2.189.035a7.792 7.792 0 0 0 -1.572.175c-.441.128-.669.337-.7.64-.231 2.565-.28 3.164-.281 3.216v.1a.553.553 0 0 0 .089.386.218.218 0 0 0 .167.059c.059 0 .238 0 .289-.5q.047-.513.141-1.336l.012-.1h.1c1.5-.041 3-.061 4.469-.061 1.075 0 2.178.011 3.277.035h.1l.019.094a8.728 8.728 0 0 1 .065 1.375c0 .489.213.489.3.489.153 0 .241-.281.241-.771 0-.774-.037-1.735-.11-2.858-.037-.559-.673-.871-1.892-.925-.714-.035-1.566-.053-2.525-.053zm3.95 2.477h-.114c-1.4-.04-2.8-.06-4.165-.06-1.142 0-2.311.014-3.476.043h-.122v-.122a3.654 3.654 0 0 1 .081-.778l.02-.092h.094c1.281-.023 2.547-.035 3.764-.035s2.482.012 3.762.035h.1l.019.094a3.169 3.169 0 0 1 .064.579zm-4.279-.3c1.327 0 2.692.019 4.057.057l.008-.1a2.656 2.656 0 0 0 -.044-.431c-1.245-.021-2.477-.033-3.66-.033s-2.417.012-3.664.033a3.56 3.56 0 0 0 -.055.513c1.126-.028 2.255-.043 3.358-.043zm-3.52-.906v-.181c-.025-.5.424-.791 1.334-.847.627-.04 1.473-.06 2.515-.06h1.553a5.884 5.884 0 0 1 1.566.184c.528.154.783.423.758.8l-.008.114h-.113c-1.269-.022-2.523-.034-3.727-.034s-2.48.012-3.759.034zm5.4-.864c-.225.014-.669.014-1.55.014-1.037 0-1.878.02-2.5.06-.713.044-1.086.228-1.11.547 1.239-.022 2.464-.032 3.642-.032s2.378.01 3.605.032c-.026-.127-.139-.311-.583-.44a5.464 5.464 0 0 0 -1.407-.173h-.1zm4.562-.8c-.127 0-.285 0-.474-.009-2-.073-3.882-.111-5.606-.111s-3.617.038-5.622.111c-.19 0-.348.009-.474.009-.514 0-.857-.048-.857-.282 0-.208.225-.356 1.322-.4 1.06-.046 2.776-.077 5.1-.093v-.337c-.488 0-1.183.012-2.119.03-.975.02-1.73.03-2.244.03-.551 0-.918-.049-.918-.29 0-.2.224-.347 1.321-.393.856-.033 2.187-.05 3.96-.051v-.256c-2.284.052-3.4.075-3.611.075-1.377 0-2.046-.294-2.046-.9s.33-.692.527-.692.448.117.51.679c.013.148.338.236.868.236.457 0 1.1-.009 1.925-.026s1.432-.023 1.827-.025v-.446c.081-.47.331-.564.527-.564s.429.094.508.544v.467q2.511.024 3.673.024c.835 0 .925-.177.932-.231.061-.454.233-.684.51-.684.2 0 .527.091.527.7s-.7.9-2.141.9c-.578 0-1.755-.013-3.5-.04v.239c1.771 0 3.1.018 3.959.051 1.1.046 1.322.19 1.322.393 0 .241-.368.29-.919.29-.242 0-.566 0-.975-.017-.49-.017-.812-.025-.968-.025q-1.068-.016-2.419-.018v.336c1.14.007 2.812.038 5.1.094 1.1.045 1.323.193 1.323.4.006.234-.336.282-.849.282zm-6.08-.358c1.727 0 3.616.037 5.613.111a3.509 3.509 0 0 0 1.06-.048 3.03 3.03 0 0 0 -1.069-.15c-2.366-.058-4.073-.089-5.213-.094h-.119v-.812h.119q1.428 0 2.54.017.234 0 .975.026.607.018.967.017a2.065 2.065 0 0 0 .656-.063 3.226 3.226 0 0 0 -1.069-.143c-.871-.035-2.241-.052-4.069-.052h-.119v-.719h.121c1.811.028 3.028.042 3.618.042.868 0 1.9-.114 1.9-.66 0-.462-.2-.462-.288-.462-.139 0-.231.161-.274.478-.055.392-.692.437-1.168.437q-1.191 0-3.793-.025h-.118v-.683c-.06-.326-.214-.326-.272-.326-.107 0-.236.04-.291.347v.663h-.12q-.579 0-1.941.025c-.822.018-1.472.026-1.93.026s-1.069-.046-1.105-.451c-.051-.464-.219-.464-.273-.464-.087 0-.288 0-.288.454 0 .545.982.66 1.807.66.211 0 1.395-.025 3.727-.077h.123v.737h-.12c-1.829 0-3.2.017-4.069.052a3.136 3.136 0 0 0 -1.06.146 2.177 2.177 0 0 0 .647.06c.513 0 1.266-.011 2.239-.03 1.017-.02 1.751-.03 2.243-.03h.12v.811h-.119c-2.385.016-4.139.048-5.214.094a2.909 2.909 0 0 0 -1.063.152 3.709 3.709 0 0 0 1.054.046c2.011-.075 3.906-.112 5.634-.112z"/></g><g fill="#df381c"><path d="m324.623 5522.253a3.6 3.6 0 0 0 -.094.8 3.351 3.351 0 0 0 2.163 2.969 17.908 17.908 0 0 0 5.39 1.437q1.065.153 1.066.342c0 .1-.125.155-.376.155a8.345 8.345 0 0 1 -.987-.1q-8.086-1.128-8.086-4.672a3.72 3.72 0 0 1 .125-.932l-1 .034q-1.755.06-1.958 1.035a22.65 22.65 0 0 0 -.267 4.141q0 .625-.36.625-.345 0-.408-.5c-.01-.063-.016-.282-.016-.659a24.307 24.307 0 0 1 .236-3.584 1.363 1.363 0 0 1 .783-1.061 5.023 5.023 0 0 1 1.99-.4q1.317-.062 3.307-.061-.235 0 4.575.086h.11a.935.935 0 0 0 .987-.479 7.086 7.086 0 0 0 .126-.838q-2.868-.094-5.735-.095-.957 0-2.892.047t-2.906.048q-.863 0-.863-.189c0-.136.376-.223 1.129-.256q2.115-.094 5.657-.094 2.835 0 5.672.094.063-.7.5-.7c.229 0 .345.209.345.625 0 .052-.068.436-.2 1.156a1.176 1.176 0 0 1 -.455.8 2.53 2.53 0 0 1 -1.41.291q-1.018 0-3.071-.025t-3.077-.04z"/><path d="m320.236 5528.207c-.206 0-.464-.1-.526-.609a5.777 5.777 0 0 1 -.017-.674 24.626 24.626 0 0 1 .237-3.6 1.482 1.482 0 0 1 .847-1.148 5.15 5.15 0 0 1 2.039-.415c.869-.041 1.983-.061 3.312-.061.091 0 1.631.032 4.577.085h.108c.468 0 .752-.123.878-.408a6.409 6.409 0 0 0 .1-.676c-1.867-.059-3.751-.09-5.6-.09-.619 0-1.564.015-2.889.047s-2.279.048-2.909.048c-.7 0-.982-.089-.982-.308 0-.193.211-.33 1.242-.375 1.4-.063 3.3-.094 5.663-.094 1.854 0 3.727.03 5.566.09.083-.574.372-.7.608-.7.211 0 .464.129.464.744 0 .03 0 .087-.206 1.178a1.294 1.294 0 0 1 -.5.872 2.6 2.6 0 0 1 -1.477.311q-1.02 0-3.072-.025-1.959-.026-2.974-.026a3.351 3.351 0 0 0 -.071.677 3.254 3.254 0 0 0 2.1 2.863 17.9 17.9 0 0 0 5.353 1.425c.973.14 1.168.28 1.168.46s-.167.274-.495.274a8.3 8.3 0 0 1 -1-.1c-5.433-.758-8.189-2.37-8.189-4.79a3.731 3.731 0 0 1 .093-.808l-.847.029c-1.1.038-1.723.354-1.845.94a22.6 22.6 0 0 0 -.264 4.117c-.012.618-.273.747-.492.747zm5.892-6.287v.015c-1.325 0-2.436.021-3.3.061a4.974 4.974 0 0 0 -1.942.389 1.245 1.245 0 0 0 -.72.973 24.386 24.386 0 0 0 -.233 3.566c0 .483.009.608.014.64.05.405.224.405.29.405s.241 0 .241-.506a22.822 22.822 0 0 1 .269-4.165c.147-.708.844-1.088 2.071-1.13l1.162-.04-.039.154a3.638 3.638 0 0 0 -.122.9c0 2.282 2.686 3.814 7.983 4.554a8.393 8.393 0 0 0 .971.094.608.608 0 0 0 .24-.032 2.76 2.76 0 0 0 -.947-.228 18.122 18.122 0 0 1 -5.427-1.449 3.473 3.473 0 0 1 -2.228-3.075 3.726 3.726 0 0 1 .1-.823l.021-.092h.095q1.02 0 3.073.026t3.07.025a2.44 2.44 0 0 0 1.341-.269 1.068 1.068 0 0 0 .407-.721c.163-.867.2-1.1.2-1.135 0-.5-.17-.5-.225-.5-.082 0-.33 0-.383.594l-.01.113h-.113c-1.872-.063-3.779-.094-5.668-.094-2.355 0-4.257.031-5.652.094a3 3 0 0 0 -.983.136 2.124 2.124 0 0 0 .712.071c.628 0 1.578-.016 2.9-.048s2.274-.047 2.9-.047c1.895 0 3.826.032 5.738.095h.131l-.016.129a4.21 4.21 0 0 1 -.136.874 1.023 1.023 0 0 1 -1.1.548h-.113l-3.442-.062c-.668-.013-.983-.019-1.13-.04z"/></g><g fill="#004272"><g><path d="m245.221 5407.2a.394.394 0 0 0 -.031.059c-.1.26-1.011 2.843-1.034 2.969 0 .032 0 .043.1.043h1.744a.415.415 0 0 0 .155-.028c-.039-.244-.8-2.625-.918-2.989a.559.559 0 0 0 -.016-.054z"/><path d="m254.994 5409.447c0 2.679 1.268 3.879 2.524 3.879 1.428 0 2.28-1.341 2.28-3.587 0-1.357-.316-3.634-2.431-3.634-2.142-.005-2.373 2.337-2.373 3.342z"/><path d="m306.931 5404.164c.027-43.183-36.438-79.135-79.586-78.444-42.619 0-78.471 35.782-78.273 78.443-.382 43.088 35.159 79.066 78.272 79.205 43.369.688 80.297-35.702 79.587-79.204zm-101.038-53.151c.387-.459.762-.927 1.13-1.4a40.218 40.218 0 0 0 4.657-7.061c1.1-2.32 2.009-4.957 1.478-7.584a4.723 4.723 0 0 0 -4.027-3.756 71.45 71.45 0 0 1 18.213-2.035c2.149 0 4.279.1 6.387.282l-.125.04a35.943 35.943 0 0 0 -10.6 5.6 63.18 63.18 0 0 0 -5.752 4.893c-1.158 1.109-3.1 2.92-4.25 4.036-2.1 2.039-8.272 8.359-8.272 8.359zm-20.814 79.424c-.816.332-9.609 3.634-18.573-.4a24.965 24.965 0 0 1 -14.041-19.29c-.078-.884-.144-1.772-.188-2.664a22.142 22.142 0 0 1 .091-2.535c-.06.018-.113.044-.17.067-.007-.483-.015-.965-.012-1.449-.3-23.89 11.295-45.614 29.138-59.461.1-.058.192-.121.288-.178 3.3-1.967 10.653-6.347 13.862-3.777 1.445 1.157 1.549 3.321 1.614 4.695.191 3.991-1.94 7.079-3.081 8.658a95.583 95.583 0 0 1 -14.4 15.457c-8.468 7.425-9.3 8.019-12.46 11.387-3.428 3.647-6.383 8.569-6.425 13.753-.045 5.493 3.757 9.818 8.352 12.365a19.676 19.676 0 0 0 12.89 2.442c8.514-1.618 12.809-12.315 16.361-19.141 7.887-15.153 17.165-29.765 29.273-41.815 2.585-2.572 5.385-5.079 8.8-6.346a14.664 14.664 0 0 1 14.186 2.429c2.809 2.337 4.709 6.014 4.149 9.625a12.462 12.462 0 0 1 -3.147 6.336c-9.322 10.291-27.766 27.456-32.38 31.871a156.757 156.757 0 0 0 -11.463 12.046c-13.007 15.253-13.858 22.338-22.664 25.925zm72.369-16.571a4.02 4.02 0 0 1 -3.917-4.2 3.97 3.97 0 0 1 3.987-4.128 3.526 3.526 0 0 1 2.81 1.3 4.557 4.557 0 0 1 .98 2.865 3.931 3.931 0 0 1 -3.86 4.163zm43.672-6.931c0 .09 0 .18-.008.269q-.01.409-.026.815c-.1 1.862-.291 3.7-.531 5.532v.019c-1.2 6.573-5.321 13.03-10.137 18.253-3.045 3.3-9.1 5.347-13.932 4.845-5.257-.547-8.526-7.282-9.492-11.818-1.29-6.057-.828-11.237-3.563-17.574a13.575 13.575 0 0 0 -2.335-3.469c-3.282-3.364-6.871-4.336-11.971-3.5a29.178 29.178 0 0 0 -13.774 6.282c-2 1.955-4.452 4.367-4.3 7.4.146 2.831 2.465 4.257 5.546 7.257 1.8 1.753 8.935 8.7 10.992 17 1.023 4.124.554 7.624-.231 13.474-.463 3.447-1.547 6.814-1.761 10.293-.179 2.9.24 6.054 2.031 8.438a7.879 7.879 0 0 0 5.682 3.058 75.076 75.076 0 0 1 -50.941.855 9.83 9.83 0 0 0 4.535-1.723 12.274 12.274 0 0 0 3.961-5.542c1.941-4.921 1.912-10.361 1.981-15.65.04-3.013.279-6.021.295-9.034.076-14.677 1.108-32.391 12.473-43.1a33.471 33.471 0 0 1 11.3-6.991c4.5-1.67 9.217-2.389 13.644-4.368a67.182 67.182 0 0 0 11.58-6.285 38.791 38.791 0 0 0 14.9-19.529 37.845 37.845 0 0 0 1.532-7.05 16.818 16.818 0 0 0 .022-4.746 74.012 74.012 0 0 1 22.38 46.846c.106 2.785.228 6.347.148 9.743zm-54.6 4.08c-.061-.135-.094-.186-.2-.2-.126-.012-.335-.012-.578-.012h-1.179a3.386 3.386 0 0 0 -.545.022c-.074.017-.133.03-.21.229-.14.326-.491 1.417-.581 1.721a1.03 1.03 0 0 0 -.068.32c0 .146.044.165.319.215.192.034.358.063.358.228 0 .079-.036.172-.206.172h-1.949c-.181 0-.218-.093-.218-.172a.254.254 0 0 1 .181-.228.881.881 0 0 1 .162-.019 1.188 1.188 0 0 0 .221-.027c.361-.09.544-.589.642-.857 1.137-3.067 1.428-3.851 1.68-4.506l.55-1.412c.056-.138.131-.353.181-.5.022-.065.041-.117.051-.146a.523.523 0 0 1 .541-.287c.223 0 .278.062.377.309.134.33.437 1.157.736 2.01 0 .011.03.085.074.208 1.192 3.379 1.619 4.459 1.768 4.769.206.425.378.43.793.441a.217.217 0 0 1 .217.23.174.174 0 0 1 -.195.183h-2.642c-.068 0-.276 0-.276-.172s.242-.21.372-.228c.223-.035.352-.1.352-.18a15.268 15.268 0 0 0 -.732-2.111z"/><path d="m245.223 5407.047q-.087 0-.156.159c-.01.028-1.043 2.914-1.043 3.011 0 .183.155.183.23.183h1.746c.03 0 .288 0 .288-.148 0-.176-.881-2.912-.925-3.043-.015-.057-.05-.162-.14-.162zm.782 3.287h-1.751c-.117 0-.163-.023-.163-.116 0-.071.945-2.743 1.038-2.988.035-.082.07-.117.094-.117s.058.046.081.117c.094.28.922 2.871.922 3.022 0 .059-.14.082-.221.082z"/><path d="m246.9 5413.38c-.163.024-.315.059-.315.163s.14.106.21.106h2.638c.047 0 .128-.012.128-.117a.151.151 0 0 0 -.152-.164c-.431-.011-.63-.023-.851-.478-.374-.782-1.809-4.89-1.844-4.984-.316-.9-.608-1.692-.736-2.007-.093-.233-.128-.268-.315-.268-.233 0-.4.058-.479.245-.035.093-.151.443-.233.642l-.548 1.412c-.257.665-.561 1.482-1.681 4.5-.128.35-.315.805-.688.9-.141.035-.3.024-.386.047a.193.193 0 0 0 -.128.163c0 .082.058.106.152.106h1.949c.046 0 .14 0 .14-.106s-.105-.128-.3-.163c-.257-.047-.373-.07-.373-.28a1.087 1.087 0 0 1 .07-.338c.093-.315.443-1.4.583-1.728.082-.21.152-.244.257-.268a3.318 3.318 0 0 1 .56-.024h1.179c.245 0 .455 0 .584.012.151.012.2.1.257.234a15.254 15.254 0 0 1 .735 2.147c-.001.168-.258.225-.413.248zm-.266-2.419c-.055-.121-.117-.257-.311-.273-.132-.012-.344-.012-.59-.012h-1.179a3.279 3.279 0 0 0 -.574.025c-.134.03-.218.086-.3.307-.148.343-.5 1.447-.586 1.732a1.152 1.152 0 0 0 -.073.36c0 .267.17.3.427.345.2.036.25.055.25.1 0 .027 0 .04-.074.04h-1.949c-.086 0-.086-.019-.086-.04a.129.129 0 0 1 .081-.1.826.826 0 0 1 .138-.016 1.462 1.462 0 0 0 .244-.03c.43-.108.628-.649.735-.94 1.137-3.067 1.428-3.85 1.68-4.5l.548-1.411c.058-.14.131-.349.184-.5l.049-.139c.064-.146.185-.205.418-.205.149 0 .165.006.254.227.133.328.435 1.153.735 2.006l.073.206c.959 2.717 1.555 4.326 1.773 4.783.242.5.479.5.911.516a.086.086 0 0 1 .086.1c0 .031 0 .051-.062.051h-2.636c-.067 0-.144 0-.144-.04s.087-.072.26-.1c.308-.048.464-.152.464-.31a15.011 15.011 0 0 0 -.743-2.182z"/><path d="m257.519 5405.607a4.112 4.112 0 1 0 3.723 4.1 3.825 3.825 0 0 0 -3.723-4.1zm3.657 4.1a3.8 3.8 0 0 1 -3.728 4.03 3.89 3.89 0 0 1 -3.785-4.065 3.841 3.841 0 0 1 3.855-4 3.724 3.724 0 0 1 3.658 4.028z"/><path d="m254.861 5409.447a5.749 5.749 0 0 0 .6 2.683 2.282 2.282 0 0 0 2.062 1.328c1.511 0 2.412-1.39 2.412-3.719 0-1.406-.333-3.766-2.563-3.766-2.272 0-2.511 2.427-2.511 3.474zm5 .292c0 1.972-.676 3.653-2.345 3.653-1.892 0-2.592-2.136-2.592-3.945 0-1.412.432-3.408 2.44-3.408 2.115 0 2.5 2.206 2.5 3.7z"/></g><g><path d="m272.441 5413.649a.114.114 0 0 1 -.105-.1c0-.269.875-.164.875-.35a.469.469 0 0 0 -.105-.152c-1.331-1.646-2.486-2.953-2.766-3.221-.082-.082-.117-.1-.186-.1h-.094a.1.1 0 0 0 -.117.116v1.424c0 1.926 0 1.984.584 2.124.116.024.2.07.2.164s-.175.1-.338.1h-2.276a.092.092 0 0 1 -.1-.1c0-.129.128-.152.2-.164.456-.081.56-.163.56-1.283 0-.561.012-1.494.012-2.066 0-.631-.012-1.891-.012-2.778 0-1-.163-1.109-.548-1.214-.093-.023-.187-.058-.187-.163s.082-.117.164-.117h2.4c.117 0 .21.012.21.082s-.082.175-.257.221c-.607.164-.607.339-.607 3.128 0 .094.012.164.094.164.058 0 .105-.047.163-.106 1.086-1.026 1.6-1.575 2.311-2.345.234-.245.373-.374.373-.525 0-.316-.7-.292-.7-.491 0-.058.047-.128.163-.128h2.206c.071 0 .164.035.164.128s-.117.14-.2.152c-.362.059-.455.082-1.073.607-.771.665-1.4 1.342-2.148 2.113-.058.069-.151.151-.151.21 0 .023.023.058.128.186.6.736 2.766 3.28 3.35 3.828a1.321 1.321 0 0 0 .653.35c.21.082.3.141.3.211 0 .093-.129.1-.2.1z"/><path d="m275.382 5413.715h-2.941a.178.178 0 0 1 -.171-.172c0-.2.294-.243.554-.279a1.054 1.054 0 0 0 .317-.07c-.018-.029-.068-.088-.086-.11-1.271-1.572-2.464-2.932-2.761-3.215-.078-.079-.1-.088-.14-.088h-.094c-.039 0-.051.012-.051.051v1.424c0 1.932.011 1.935.533 2.06.165.033.25.11.25.227 0 .172-.225.172-.4.172h-2.276a.157.157 0 0 1 -.171-.172c0-.185.184-.216.253-.228.4-.071.505-.091.505-1.218 0-.279 0-.651.006-1.024s.006-.755.006-1.042 0-.708-.006-1.165c0-.541-.006-1.132-.006-1.613 0-1.013-.167-1.059-.5-1.15-.069-.018-.235-.059-.235-.228 0-.121.077-.182.23-.182h2.4c.09 0 .276 0 .276.148 0 .1-.1.229-.306.285-.542.146-.558.232-.558 3.064 0 .1.015.1.028.1.031 0 .07-.04.116-.086 1.077-1.019 1.579-1.555 2.309-2.344l.068-.07c.18-.188.288-.3.288-.41 0-.128-.194-.191-.365-.246s-.335-.109-.335-.245a.206.206 0 0 1 .229-.194h2.206a.209.209 0 0 1 .23.194c0 .116-.093.195-.255.218-.342.055-.424.068-1.041.591-.65.563-1.214 1.146-1.809 1.764l-.333.344c-.012.015-.029.034-.047.053a.477.477 0 0 0 -.086.112c.007.014.084.109.113.144.63.779 2.774 3.287 3.344 3.822a.984.984 0 0 0 .468.28c.048.016.1.033.163.056.225.088.347.157.347.272-.001.055-.027.17-.266.17zm-5.322-4.066h.094a.3.3 0 0 1 .233.125c.291.279 1.447 1.589 2.77 3.226.091.107.12.151.12.194 0 .143-.2.17-.435.2-.175.023-.44.059-.44.147 0 .013.02.04.039.04h2.941c.064 0 .133-.013.133-.04s-.026-.056-.262-.148c-.059-.022-.11-.039-.157-.054a1.1 1.1 0 0 1 -.518-.31c-.573-.538-2.724-3.054-3.355-3.834-.115-.139-.143-.181-.143-.229a.343.343 0 0 1 .121-.2c.016-.017.032-.034.045-.051l.336-.348c.6-.62 1.163-1.206 1.819-1.773.624-.528.726-.56 1.107-.621.054-.008.143-.029.143-.087s-.094-.062-.1-.062h-2.206c-.071 0-.1.034-.1.062s.153.09.244.119c.2.066.456.148.456.372 0 .163-.122.29-.324.5l-.067.07c-.731.79-1.235 1.327-2.313 2.347a.311.311 0 0 1 -.209.124c-.16 0-.16-.167-.16-.23 0-2.787 0-3.015.656-3.192.147-.039.208-.121.208-.157a.345.345 0 0 0 -.144-.016h-2.4c-.1 0-.1.019-.1.05s.022.071.137.1c.426.116.6.264.6 1.278 0 .481 0 1.072.007 1.613 0 .456.005.876.005 1.165s0 .666-.006 1.043-.006.744-.006 1.023c0 1.132-.108 1.258-.614 1.349-.108.017-.144.042-.144.1 0 .035.005.04.039.04h2.276c.075 0 .272 0 .272-.04 0-.018 0-.068-.145-.1-.637-.152-.637-.267-.637-2.189v-1.424a.17.17 0 0 1 .184-.182z"/></g><g><path d="m281.037 5413.649c-.081 0-.187-.012-.187-.117s.106-.128.234-.152c.665-.14.677-.408.688-1.073 0-.3.012-.643.012-1.354a3.912 3.912 0 0 0 -.093-1.366 4.374 4.374 0 0 0 -.514-.8c-.607-.876-1.015-1.459-1.424-2.008-.35-.466-.513-.653-.934-.758-.128-.035-.28-.035-.28-.152 0-.082.082-.1.152-.1h2.719c.094 0 .152.012.152.093 0 .035-.011.1-.128.152s-.327.07-.432.1a.2.2 0 0 0 -.14.175 1.357 1.357 0 0 0 .234.514c.128.2.91 1.295 1.528 2.147.059.082.094.093.117.093.059 0 .094-.034.152-.128.6-.863.77-1.12 1.622-2.416a.509.509 0 0 0 .082-.245c0-.128-.152-.2-.292-.21l-.3-.023c-.094-.012-.152-.059-.152-.129s.1-.128.2-.128h2.008c.081 0 .117.023.117.1 0 .14-.094.163-.21.163-.444.012-.643.234-.922.6-.164.21-1.915 2.521-2.031 2.859a10.4 10.4 0 0 0 -.059 1.7c0 .385 0 .77.024 1.167.035.654.081.887.653 1.015.07.012.245.059.245.164a.12.12 0 0 1 -.128.117z"/><path d="m283.745 5413.715h-2.708c-.209 0-.253-.1-.253-.183 0-.164.194-.2.288-.217.619-.13.623-.352.634-1.01 0-.119 0-.244 0-.4 0-.232.008-.526.008-.956a3.816 3.816 0 0 0 -.09-1.345 2.281 2.281 0 0 0 -.306-.5c-.058-.082-.124-.175-.2-.285-.633-.911-1.026-1.472-1.423-2-.356-.474-.5-.635-.9-.734-.027-.008-.054-.013-.08-.019-.106-.021-.25-.051-.25-.2 0-.1.086-.171.218-.171h2.719c.066 0 .218 0 .218.159a.229.229 0 0 1 -.17.214 1.406 1.406 0 0 1 -.263.067 1.643 1.643 0 0 0 -.172.039.136.136 0 0 0 -.1.113 1.207 1.207 0 0 0 .224.477c.122.189.892 1.272 1.526 2.144.043.06.063.066.063.066.021 0 .039-.007.1-.1.594-.864.767-1.116 1.623-2.418a.445.445 0 0 0 .071-.209c0-.081-.119-.135-.231-.144l-.3-.023c-.133-.017-.213-.092-.213-.195 0-.121.134-.194.264-.194h2.008a.158.158 0 0 1 .183.171c0 .23-.208.23-.277.23-.416.011-.6.223-.869.569s-1.914 2.529-2.02 2.841a11.246 11.246 0 0 0 -.056 1.682c0 .378 0 .768.024 1.163.034.631.069.835.6.955.047.008.3.058.3.228a.184.184 0 0 1 -.19.185zm-5.054-7.89c-.025 0-.085 0-.085.039s.028.044.144.068c.029.006.058.012.087.02.451.113.623.322.969.783.4.534.793 1.1 1.426 2.009.075.11.141.2.2.284a2.357 2.357 0 0 1 .323.536 3.957 3.957 0 0 1 .1 1.389c0 .431 0 .725-.007.958v.4c-.012.657-.018.986-.742 1.138-.16.03-.181.062-.181.087s0 .051.121.051h2.708a.055.055 0 0 0 .062-.051c0-.035-.089-.081-.19-.1-.632-.142-.674-.433-.708-1.077-.024-.4-.024-.791-.024-1.171a9.647 9.647 0 0 1 .062-1.724c.126-.37 2.023-2.856 2.041-2.88.292-.378.5-.609.973-.62.131 0 .145-.032.145-.1a.064.064 0 0 0 0-.033.093.093 0 0 0 -.045-.006h-2.008c-.066 0-.132.031-.132.062s.066.059.094.063l.3.023c.17.014.353.106.353.276a.574.574 0 0 1 -.092.282c-.857 1.3-1.03 1.556-1.623 2.417-.053.085-.107.156-.207.156-.058 0-.111-.037-.17-.12-.647-.891-1.405-1.956-1.531-2.15a1.328 1.328 0 0 1 -.244-.549.26.26 0 0 1 .18-.237 1.674 1.674 0 0 1 .194-.045 1.42 1.42 0 0 0 .237-.059c.089-.036.089-.078.089-.092a.05.05 0 0 0 0-.017.183.183 0 0 0 -.084-.01z"/></g><g><path d="m297.383 5405.759c.21 0 .338.07.338.152s-.2.14-.269.151c-.5.106-.525.327-.525.957 0 .456.012 1.623.012 2.358a6.391 6.391 0 0 1 -.3 2.439 3.1 3.1 0 0 1 -2.977 1.984 2.928 2.928 0 0 1 -2.614-1.447 4.814 4.814 0 0 1 -.56-2.579c0-1.366.046-2.334.046-2.825 0-.77-.116-.828-.653-.922-.07-.011-.187-.035-.187-.14s.07-.128.152-.128h2.439c.128 0 .245.058.245.14s-.163.082-.338.128c-.385.106-.432.351-.467.794-.035.467-.047 1.109-.047 1.762a15.038 15.038 0 0 0 .175 2.977 2.02 2.02 0 0 0 1.961 1.855 1.618 1.618 0 0 0 1.6-1.1 6.637 6.637 0 0 0 .362-2.054c.011-.583.011-1.155.011-1.178 0-.223 0-.479-.023-2.1 0-.373-.012-.747-.35-.886a1.492 1.492 0 0 0 -.339-.071c-.081-.011-.139-.035-.139-.116 0-.117.116-.152.268-.152z"/><path d="m293.659 5413.866a3 3 0 0 1 -2.671-1.479 4.911 4.911 0 0 1 -.569-2.613c0-.855.018-1.562.032-2.078.008-.313.014-.563.014-.747 0-.752-.1-.77-.6-.856-.06-.01-.242-.041-.242-.206a.194.194 0 0 1 .218-.194h2.439c.178 0 .311.088.311.206s-.123.143-.243.163c-.045.008-.094.016-.144.03-.334.091-.382.283-.418.734-.031.408-.047 1-.047 1.757a15.151 15.151 0 0 0 .174 2.963 1.981 1.981 0 0 0 1.9 1.8 1.552 1.552 0 0 0 1.538-1.056 6.686 6.686 0 0 0 .357-2.031c.011-.566.012-1.116.012-1.176 0-.225 0-.479-.024-2.1 0-.4-.023-.708-.309-.826a1.09 1.09 0 0 0 -.265-.057l-.058-.009c-.054-.008-.2-.028-.2-.182 0-.1.058-.218.335-.218h2.183c.242 0 .4.087.4.218s-.226.2-.324.216c-.449.1-.47.277-.47.892v.918c0 .482.007 1.028.007 1.44a6.433 6.433 0 0 1 -.308 2.463 3.161 3.161 0 0 1 -3.028 2.028zm-3.816-8.041c-.086 0-.086.042-.086.062s.023.057.132.075c.584.1.709.2.709.987 0 .184-.007.436-.015.751-.013.515-.032 1.221-.032 2.074a4.79 4.79 0 0 0 .551 2.545 2.875 2.875 0 0 0 2.557 1.415 3.033 3.033 0 0 0 2.915-1.942 6.349 6.349 0 0 0 .3-2.415c0-.411 0-.958-.007-1.439 0-.379-.005-.718-.005-.919 0-.624.024-.905.578-1.022a.361.361 0 0 0 .216-.086c0-.025-.081-.086-.272-.086h-2.184c-.2 0-.2.063-.2.086s0 .039.083.051l.059.009a1.143 1.143 0 0 1 .3.066c.39.161.39.6.39.947.024 1.622.024 1.877.024 2.1 0 .061 0 .612-.012 1.179a6.606 6.606 0 0 1 -.366 2.078 1.694 1.694 0 0 1 -1.661 1.138 2.08 2.08 0 0 1 -2.026-1.908 15.411 15.411 0 0 1 -.176-2.99c0-.761.016-1.356.047-1.767.036-.453.089-.736.515-.852.055-.015.108-.024.156-.032a.44.44 0 0 0 .136-.036c0-.026-.079-.071-.181-.071z"/></g></g></g></svg>