<?xml version="1.0" encoding="UTF-8"?>
<svg id="_レイヤー_2" data-name="レイヤー 2" xmlns="http://www.w3.org/2000/svg" viewBox="0 0 163.71 163.8">
  <defs>
    <style>
      .cls-1 {
        fill: #df381c;
      }

      .cls-1, .cls-2 {
        stroke-width: 0px;
      }

      .cls-2 {
        fill: #004272;
      }
    </style>
  </defs>
  <g id="_レイヤー_1-2" data-name="レイヤー 1">
    <g>
      <g>
        <g>
          <path class="cls-2" d="m22.25,146.32c.64-.94,1.48-2.06,1.93-2.06.6,0,2.81,1.84,2.81,2.57,0,.42-.48.7-1.69.7H.67c-.39,0-.67-.12-.67-.6,0-.45.27-.6.67-.6h11.79v-2.39h-7.74c-.39,0-.67-.12-.67-.6,0-.45.27-.6.67-.6h7.74c0-.76,0-1.51-.03-2.21H3.05c-.39,0-.67-.12-.67-.6,0-.45.27-.6.67-.6h9.34c-.03-1.03-.09-1.91-.15-2.48-.03-.27.15-.42.42-.42.51,0,3.54.09,3.54.88,0,.66-.67.91-1.6,1.12v.91h5.87c.6-.91,1.39-1.97,1.84-1.97.6,0,2.75,1.78,2.75,2.51,0,.42-.51.66-1.63.66h-8.83v2.21h4.81c.6-.88,1.36-1.87,1.78-1.87.57,0,2.66,1.72,2.66,2.42,0,.42-.48.67-1.57.67h-7.68v2.39h7.65Zm-4.05,3.33c.48-.64,1.21-1.42,1.42-1.42.76,0,2.78,1.72,2.78,2.3,0,.45-.67.79-1.39,1.03-.03,2.48,0,6.32-.03,9.58,0,1.78-1.66,2.54-2.84,2.54s-.45-1.12-2.48-1.69c-.66-.21-.54-1,.03-1,.27,0,1.48.18,2.03.18.79,0,1.09-.27,1.15-1,.03-.54.03-1.27.06-2.06h-10.49l.03,4.72c0,.66-.45.97-1.39.97-.54,0-.85-.3-.85-.85.03-2.45.24-10.79-.09-14-.03-.21.18-.42.42-.39.48.03,1.9.54,2.66,1.09h8.98Zm-9.31,1.21c-.12.03-.24.06-.39.09-.03.48-.03,1.39-.06,2.36h10.49v-2.45h-10.04Zm10.04,6.05v-2.39h-10.49v2.39h10.49Z"/>
          <path class="cls-2" d="m53.39,142.45c.51-.6,1.15-1.27,1.48-1.27.63,0,2.45,1.57,2.45,2.21,0,.39-.57.76-1.18,1.03-.21,1.24-.48,2.42-.82,3.54.85,6.71,3.72,11.49,9.49,13.12.91.3.67.7,0,.94-.82.24-1.18.57-1.45.97-.3.42-.6.64-1.39.24-4.5-2.21-6.71-6.74-7.5-12.73-.82,1.97-1.81,3.75-3.08,5.35-2.78,3.54-7.71,6.59-13.58,7.92-.91.18-1.15-.7-.33-1.03,5.2-1.75,9.61-4.6,12-7.65,2.33-2.99,3.84-6.62,4.32-11.43h-6.44c-1.81,3.9-4.35,7.95-8.28,11.22-.64.61-1.33.03-.79-.63,4.41-5.11,7.5-10.85,8.68-17.29.06-.33.18-.45.51-.42,1.09.18,3.33.97,3.42,1.57.03.51-.76.76-1.6.73-.42,1.18-.88,2.39-1.42,3.63h5.5Z"/>
          <path class="cls-2" d="m96.84,139.64c.67-1,1.57-2.18,2.06-2.18.6,0,2.93,1.9,2.93,2.66,0,.42-.54.73-1.75.73h-7.04c.94.33,1.9.94,1.94,1.33,0,.45-.42.6-1.36.63-.7.94-1.39,1.75-2.27,2.36-.09.06-.18.12-.27.15h6.29c.48-.6,1.06-1.24,1.27-1.24.76,0,2.78,1.72,2.78,2.3,0,.42-.67.79-1.36,1.03-.09,3.45-.03,9.07-.06,13.61,0,1.87-1.57,2.63-2.72,2.63s-.48-1.18-2.3-1.75c-.64-.21-.54-.97.03-.97.27,0,1.3.12,1.81.12.73,0,1.03-.27,1.09-1.06.09-1.57.06-4.53.06-6.71v-6.74h-7.35c.76.12,1.81.39,1.81.82,0,.33-.39.51-1.03.64-.03.21-.03,1.6-.03,1.78,0,.45.18.42,1.72.42,1.66,0,1.6-.18,1.87-.39.33-.33.48-.88.66-1.42.21-.63.97-.51.97.18-.06,1.39.42,1.39.42,1.94,0,.94-1.3,1.36-3.96,1.36-2.99,0-3.54-.06-3.54-1.45,0-.66-.03-2.81-.06-3.39-.03-.27.03-.42.15-.48h-3.78c.91.12,1.78.45,1.78.88,0,.39-.36.6-1.15.7-.33,1.09-.85,2.06-1.6,2.78-.97.94-2.27,1.72-4.57,2.18-.67.21-1.12-.57-.3-1,1.66-.64,2.6-1.27,3.27-2,.64-.67,1.06-1.69,1.27-3.02.03-.27.06-.42.18-.51h-4.6c-.21.12-.51.18-.82.24-.09,1.48-.09,6.26-.09,7.23l.03,8.74c0,.66-.42,1-1.36,1-.54,0-.82-.3-.82-.85,0-2.96.3-14.39-.12-18.08-.03-.21.18-.42.42-.42.42.03,1.63.45,2.42.94h10.73c-.21-.12-.27-.42-.09-.79.51-1.06,1.03-2.15,1.3-3.51,0-.06.03-.12.06-.18h-16.27c-.39,0-.67-.12-.67-.6,0-.45.27-.61.67-.61h11.67c0-1-.03-2.09-.09-2.84-.03-.3.15-.45.42-.45.51,0,3.27.09,3.27.88,0,.6-.63.85-1.57,1.03v1.39h7.62Zm-13.61,3.84c-.21-.48-.51-1.03-.79-1.51-.36-.7.06-1.33.97-.91,1.42.64,2.81,1.51,2.66,2.78-.09.82-.7,1.36-1.6,1.24-.76-.06-.94-.85-1.24-1.6Zm7.77,10.13c.36-.51.88-1.09,1.15-1.09.51,0,2.06,1.18,2.06,1.75,0,.3-.3.54-.7.73-.03,1.24,0,3.84,0,4.57,0,.94-.42,1.15-1.24,1.15-.7,0-.88-.54-.88-1.03v-.42h-5.77v.97c0,.64-.45.91-1.3.91-.51,0-.79-.27-.79-.79,0-1.72.15-5.08-.12-7.47-.03-.24.18-.42.45-.36.57.06,1.87.57,2.48,1.09h4.66Zm.42,4.44c0-1.06.03-2.36.03-3.23h-5.81c-.03.6-.06,1.94-.06,2.45v.79h5.84Z"/>
          <path class="cls-2" d="m135.36,140.67c.67-1,1.54-2.18,2.03-2.18.63,0,2.93,1.87,2.93,2.66,0,.42-.54.73-1.75.73h-20.38c.06,2.42,0,4.6-.09,7.26-.15,4.51-.85,9.92-5.17,13.42-.7.64-1.45.03-.85-.76,2.63-3.48,3.75-6.95,3.81-13.42,0-2.6-.09-5.59-.27-8.34-.06-.48.15-.64.54-.57.51.09,1.84.66,2.54,1.21h7.07c.03-1.24,0-2.75-.09-3.69-.03-.3.15-.45.42-.45.51,0,3.57.09,3.57.91,0,.64-.67.88-1.6,1.09v2.15h7.29Zm-1.21,6.5c.67-1,1.54-2.18,2.06-2.18.64,0,2.84,1.91,2.84,2.66,0,.45-.64.73-1.69.73h-8.65v4.99h4.51c.45-.57,1-1.18,1.33-1.18.64,0,2.48,1.36,2.48,2.03,0,.42-.51.7-1.06.91-.09,2.18,0,6.29,0,7.41,0,.94-.48,1.15-1.36,1.15-.73,0-.97-.54-.97-1.03v-1.24h-10.91v1.42c0,.64-.48.94-1.39.94-.57,0-.85-.3-.85-.82,0-2.03.18-7.53-.12-10.28-.03-.24.18-.42.42-.39.51.03,1.9.54,2.66,1.09h3.17c.06-3.33,0-8.56-.24-10.43-.03-.27.15-.42.42-.42.51,0,3.51.09,3.51.88,0,.66-.67.91-1.6,1.12v2.66h5.44Zm-.48,13.03c0-1.94.03-4.44.03-5.62h-10.61c-.12.03-.21.03-.33.06-.03.79-.03,3.14-.03,3.69v1.87h10.94Z"/>
        </g>
        <g>
          <path class="cls-1" d="m162.08,163.34h-11.86c-.9,0-1.62-.73-1.62-1.62v-11.86c0-.9.73-1.62,1.62-1.62h11.86c.9,0,1.62.73,1.62,1.62v11.86c0,.9-.73,1.62-1.62,1.62Zm-11.86-14.31c-.46,0-.83.37-.83.83v11.86c0,.46.37.83.83.83h11.86c.46,0,.83-.37.83-.83v-11.86c0-.46-.37-.83-.83-.83h-11.86Z"/>
          <g>
            <g>
              <path class="cls-1" d="m151.35,151.68c-.39,0-.59-.04-.59-.13,0-.12.32-.2.97-.23.86-.04,2.25-.06,4.19-.08v-.46c-.4,0-1,0-1.8.02-.8.02-1.4.02-1.8.02-.43,0-.64-.05-.64-.14,0-.12.32-.19.97-.22.71-.03,1.8-.04,3.27-.04v-.4c-1.82.04-2.82.06-3,.06-1.03,0-1.55-.21-1.55-.63,0-.31.11-.46.33-.46.18,0,.28.15.31.46.02.18.28.28.79.28.37,0,.89,0,1.55-.02.73-.01,1.25-.02,1.56-.02v-.45c.04-.24.15-.36.33-.36s.27.12.31.36v.45c1.39.01,2.41.02,3.05.02.54,0,.82-.09.84-.27.04-.31.15-.47.32-.47.22,0,.33.16.33.47,0,.42-.54.63-1.63.63-.46,0-1.43-.01-2.91-.03v.38c1.48,0,2.57.01,3.27.04.65.03.97.1.97.22,0,.09-.21.14-.64.14-.19,0-.45,0-.78-.01-.39-.01-.65-.02-.78-.02-.6,0-1.28-.01-2.04-.01v.46c.93,0,2.33.03,4.19.08.65.03.97.1.97.23,0,.09-.2.13-.59.13-.1,0-.23,0-.38,0-1.61-.06-3.12-.09-4.51-.09s-2.9.03-4.52.09c-.15,0-.28,0-.38,0Zm4.87.32c.78,0,1.46.01,2.04.04,1.04.05,1.58.32,1.61.83.06.91.09,1.68.09,2.3,0,.48-.1.72-.29.72-.23,0-.34-.16-.34-.49,0-.56-.02-.92-.05-1.09-.86-.02-1.74-.03-2.63-.03-1.18,0-2.37.02-3.59.05-.05.44-.09.8-.11,1.07-.03.33-.14.49-.33.49-.21,0-.31-.15-.3-.45v-.08c0-.05.08-.92.23-2.59.03-.28.24-.48.63-.6.27-.07.7-.12,1.28-.14.51-.02,1.1-.03,1.76-.03Zm3.05,1.37c-1.01-.02-2.02-.03-3.02-.03s-2.02,0-3.02.03c-.04.19-.06.39-.06.61.93-.02,1.86-.03,2.8-.03,1.12,0,2.23.02,3.35.05v-.17c.01-.12,0-.27-.04-.45Zm-6.05-.35c1.01-.02,2.02-.03,3.02-.03s2,0,3,.03c.02-.25-.16-.43-.54-.54-.28-.09-.69-.14-1.23-.14.29,0-.13,0-1.25,0-.84,0-1.51.02-2.02.05-.67.04-1,.24-.98.59v.05Z"/>
              <path class="cls-1" d="m152.63,155.99c-.11,0-.2-.04-.27-.1-.09-.09-.13-.24-.13-.45v-.08s0-.08.23-2.6c.03-.33.26-.56.7-.68.28-.08.71-.12,1.31-.15.5-.02,1.1-.03,1.77-.03.77,0,1.46.01,2.04.04,1.09.05,1.67.36,1.7.92.06.91.09,1.68.09,2.31,0,.2,0,.81-.39.81-.16,0-.44-.08-.44-.58,0-.48-.01-.81-.04-.99-.86-.02-1.71-.03-2.55-.03-1.15,0-2.33.02-3.5.05-.05.4-.08.73-.1.99-.05.48-.26.58-.42.58Zm3.6-3.9c-.67,0-1.26,0-1.76.03-.58.02-1,.07-1.26.14-.35.1-.54.27-.56.51-.19,2.06-.23,2.54-.23,2.59v.08c0,.15.02.26.07.31.03.03.07.05.13.05.05,0,.19,0,.23-.4.02-.27.06-.63.11-1.07v-.08s.09,0,.09,0c1.2-.03,2.41-.05,3.59-.05.86,0,1.75,0,2.63.03h.08s.02.08.02.08c.04.17.05.54.05,1.11,0,.39.17.39.24.39.12,0,.19-.23.19-.62,0-.62-.03-1.39-.09-2.3-.03-.45-.54-.7-1.52-.74-.58-.03-1.27-.04-2.04-.04Zm3.17,1.99h-.09c-1.13-.03-2.25-.05-3.35-.05-.92,0-1.86.01-2.79.03h-.1s0-.1,0-.1c0-.22.02-.43.07-.63l.02-.07h.08c1.03-.02,2.05-.03,3.02-.03s2,0,3.02.03h.08s.01.08.01.08c.03.18.05.33.05.47l-.02.27Zm-3.44-.24c1.07,0,2.16.02,3.26.05v-.08c0-.09,0-.21-.03-.35-1-.02-1.99-.03-2.94-.03s-1.94,0-2.94.03c-.02.13-.04.27-.04.41.91-.02,1.81-.03,2.7-.03Zm-2.83-.73v-.15c-.02-.4.34-.64,1.07-.68.5-.03,1.18-.05,2.02-.05.67,0,1.08,0,1.25,0h0s0,0,0,0c.55,0,.97.06,1.26.15.42.12.63.34.61.64v.09s-.1,0-.1,0c-1.02-.02-2.03-.03-3-.03s-1.99,0-3.02.03h-.1Zm4.34-.69c-.18.01-.54.01-1.25.01-.83,0-1.51.02-2.01.05-.57.04-.87.18-.89.44,1-.02,1.98-.03,2.93-.03s1.91,0,2.9.03c-.02-.1-.11-.25-.47-.35-.26-.08-.64-.13-1.13-.14h0s-.03,0-.08,0h0Zm3.67-.64c-.1,0-.23,0-.38,0-1.6-.06-3.12-.09-4.51-.09s-2.91.03-4.52.09c-.15,0-.28,0-.38,0-.41,0-.69-.04-.69-.23,0-.17.18-.29,1.06-.32.85-.04,2.23-.06,4.1-.07v-.27c-.39,0-.95,0-1.7.02-.78.02-1.39.02-1.8.02-.44,0-.74-.04-.74-.23,0-.16.18-.28,1.06-.32.69-.03,1.76-.04,3.18-.04v-.21c-1.84.04-2.73.06-2.9.06-1.11,0-1.65-.24-1.65-.72s.27-.56.42-.56.36.09.41.55c.01.12.27.19.7.19.37,0,.89,0,1.55-.02.66-.01,1.15-.02,1.47-.02v-.36c.07-.38.27-.45.42-.45s.35.08.41.44v.38c1.35.01,2.33.02,2.95.02.67,0,.74-.14.75-.19.05-.36.19-.55.41-.55.16,0,.42.07.42.56s-.56.72-1.72.72c-.46,0-1.41-.01-2.81-.03v.19c1.42,0,2.49.01,3.18.04.88.04,1.06.15,1.06.32,0,.19-.3.23-.74.23-.19,0-.45,0-.78-.01-.39-.01-.65-.02-.78-.02-.57,0-1.22-.01-1.94-.01v.27c.92,0,2.26.03,4.1.08.88.04,1.06.16,1.06.32,0,.19-.27.23-.69.23Zm-4.89-.29c1.39,0,2.91.03,4.51.09.61.02.79-.01.85-.04-.05-.03-.24-.09-.86-.12-1.9-.05-3.27-.07-4.19-.08h-.1v-.65h.1c.76,0,1.45,0,2.04.01.13,0,.39,0,.78.02.33,0,.58.01.78.01.34,0,.48-.03.53-.05-.05-.02-.24-.09-.86-.12-.7-.03-1.8-.04-3.27-.04h-.1v-.58h.1c1.46.02,2.43.04,2.91.04.7,0,1.53-.09,1.53-.53,0-.37-.16-.37-.23-.37-.11,0-.19.13-.22.38-.04.32-.56.35-.94.35-.64,0-1.65,0-3.05-.02h-.1v-.55c-.05-.26-.17-.26-.22-.26-.09,0-.19.03-.23.28v.53s-.09,0-.09,0c-.31,0-.83,0-1.56.02-.66.01-1.18.02-1.55.02s-.86-.04-.89-.36c-.04-.37-.18-.37-.22-.37-.07,0-.23,0-.23.36,0,.44.79.53,1.45.53.17,0,1.12-.02,3-.06h.1s0,.59,0,.59h-.1c-1.47,0-2.57.01-3.27.04-.59.02-.79.09-.85.12.06.02.19.05.52.05.41,0,1.02,0,1.8-.02.82-.02,1.41-.02,1.8-.02h.1v.65h-.1c-1.92.01-3.33.04-4.19.08-.6.02-.79.09-.85.12.07.02.25.05.85.04,1.61-.06,3.14-.09,4.52-.09Z"/>
            </g>
            <g>
              <path class="cls-1" d="m154.84,157.98c-.05.22-.08.43-.08.64,0,.99.58,1.79,1.74,2.39.98.5,2.43.88,4.33,1.15.57.08.86.17.86.28,0,.08-.1.12-.3.12-.16,0-.42-.03-.79-.08-4.33-.6-6.5-1.86-6.5-3.75,0-.24.03-.49.1-.75l-.81.03c-.94.03-1.47.31-1.57.83-.14.69-.21,1.8-.21,3.33,0,.33-.1.5-.29.5s-.29-.14-.33-.41c0-.05-.01-.23-.01-.53,0-1.08.06-2.04.19-2.88.06-.39.27-.67.63-.85.36-.18.89-.29,1.6-.32.71-.03,1.59-.05,2.66-.05-.13,0,1.1.02,3.68.07h.09c.41,0,.68-.12.79-.38.02-.04.05-.26.1-.67-1.54-.05-3.07-.08-4.61-.08-.51,0-1.29.01-2.32.04-1.04.02-1.82.04-2.34.04-.46,0-.69-.05-.69-.15,0-.11.3-.18.91-.21,1.13-.05,2.65-.08,4.55-.08,1.52,0,3.04.02,4.56.08.03-.38.17-.56.4-.56.18,0,.28.17.28.5,0,.04-.05.35-.16.93-.06.3-.18.52-.37.64-.22.16-.6.23-1.13.23s-1.37,0-2.47-.02c-1.1-.01-1.92-.02-2.47-.02Z"/>
              <path class="cls-1" d="m151.32,162.77c-.17,0-.37-.08-.42-.49,0-.03-.01-.13-.01-.54,0-1.08.06-2.05.19-2.9.06-.42.29-.73.68-.92.37-.19.92-.3,1.64-.33.7-.03,1.59-.05,2.66-.05h0c.07,0,1.31.03,3.68.07h.09c.38,0,.6-.1.71-.33,0-.02.03-.11.08-.54-1.5-.05-3.01-.07-4.5-.07-.5,0-1.26.01-2.32.04-1.07.03-1.83.04-2.34.04-.56,0-.79-.07-.79-.25,0-.15.17-.26,1-.3,1.12-.05,2.66-.08,4.55-.08,1.49,0,3,.02,4.47.07.07-.46.3-.56.49-.56.17,0,.37.1.37.6,0,.02,0,.07-.17.95-.06.33-.2.56-.41.7-.23.17-.62.25-1.19.25s-1.37,0-2.47-.02c-1.05-.01-1.85-.02-2.39-.02-.04.19-.06.37-.06.54,0,.95.57,1.72,1.69,2.3.97.49,2.41.88,4.3,1.15.78.11.94.23.94.37s-.13.22-.4.22c-.16,0-.43-.02-.81-.08-4.37-.61-6.58-1.9-6.58-3.85,0-.21.02-.43.07-.65l-.68.02c-.89.03-1.39.28-1.48.76-.14.68-.21,1.79-.21,3.31,0,.49-.21.6-.39.6Zm4.74-5.05h0c-1.06.01-1.96.03-2.65.06-.69.03-1.21.14-1.56.31-.34.17-.52.43-.58.78-.12.83-.19,1.8-.19,2.87,0,.39,0,.49.01.51.04.33.18.33.23.33.05,0,.19,0,.19-.41,0-1.53.07-2.66.22-3.35.12-.57.68-.87,1.66-.91l.93-.03-.03.12c-.06.25-.1.5-.1.73,0,1.83,2.16,3.07,6.42,3.66.37.05.63.08.78.08.12,0,.17-.02.19-.03-.05-.03-.21-.1-.76-.18-1.91-.27-3.38-.66-4.36-1.16-1.19-.62-1.79-1.45-1.79-2.47,0-.21.03-.43.08-.66l.02-.07h.08c.55,0,1.37,0,2.47.02,1.1.01,1.92.02,2.47.02.51,0,.88-.07,1.08-.22.16-.11.27-.3.33-.58.13-.7.16-.88.16-.91,0-.4-.14-.4-.18-.4-.07,0-.26,0-.31.48v.09s-.1,0-.1,0c-1.5-.05-3.04-.08-4.56-.08-1.89,0-3.42.03-4.54.08-.54.02-.73.08-.79.11.05.02.2.06.57.06.51,0,1.27-.01,2.33-.04,1.07-.03,1.83-.04,2.33-.04,1.52,0,3.08.03,4.61.08h.1s-.01.11-.01.11c-.08.63-.1.68-.11.7-.13.3-.43.46-.88.44h-.09l-2.77-.05c-.54,0-.79-.01-.91-.03Z"/>
            </g>
          </g>
        </g>
      </g>
      <g>
        <path class="cls-2" d="m79.33,74.5c-.5-.01-.71-.02-.96-.54-.26-.55-.98-2.5-2.15-5.79-.05-.15-.09-.24-.09-.25-.37-1.06-.73-2.04-.9-2.44-.12-.3-.19-.38-.46-.38-.23,0-.52.04-.66.35-.01.03-.04.1-.06.18-.06.17-.15.43-.22.6l-.67,1.72c-.31.8-.66,1.75-2.04,5.47-.18.48-.39.95-.78,1.04-.09.02-.18.03-.27.03-.08,0-.15,0-.2.02-.11.02-.22.16-.22.28,0,.09.05.21.26.21h2.37c.21,0,.25-.11.25-.21,0-.2-.2-.24-.43-.28-.33-.06-.39-.08-.39-.26,0-.13.04-.27.08-.39.11-.37.54-1.7.71-2.09.09-.24.16-.26.25-.28.12-.03.36-.03.66-.03h1.43c.29,0,.55,0,.7.01.13.01.17.07.24.24.23.5.89,2.32.89,2.58,0,.1-.16.18-.43.22-.16.02-.45.06-.45.28s.25.21.34.21h3.2c.15,0,.24-.09.24-.22,0-.16-.11-.28-.26-.28Zm-3.96-3.72s-.11.03-.19.03h-2.13c-.12,0-.12-.01-.12-.05.03-.16,1.14-3.29,1.26-3.61.01-.03.03-.06.04-.07,0,.01.01.03.02.06.16.49,1.07,3.34,1.11,3.63Z"/>
        <g>
          <path class="cls-2" d="m140.62,63.06C140.64,28.35,111.33-.55,76.65,0,42.4.01,13.58,28.77,13.74,63.06c-.31,34.63,28.26,63.55,62.91,63.66,34.86.55,64.54-28.7,63.97-63.66ZM59.41,20.34c.31-.37.61-.75.91-1.13,1.35-1.74,2.79-3.67,3.74-5.68.88-1.86,1.62-3.98,1.19-6.1-.36-1.78-1.64-2.68-3.24-3.02,4.71-1.15,9.61-1.72,14.64-1.64,1.73,0,3.44.08,5.13.23-.03.01-.07.02-.1.03-3.06,1-5.96,2.55-8.52,4.51-1.72,1.32-3.06,2.43-4.62,3.93-.93.89-2.49,2.35-3.42,3.24-1.69,1.64-6.65,6.72-6.65,6.72l.93-1.11Zm-16.73,63.84c-.66.27-7.72,2.92-14.93-.32-6.1-2.75-10.43-8.9-11.29-15.51-.06-.71-.12-1.42-.15-2.14,0-.68,0-1.36.07-2.04-.05.01-.09.04-.14.05,0-.39-.01-.78-.01-1.16-.24-19.2,9.08-36.66,23.42-47.79.08-.05.15-.1.23-.14,2.65-1.58,8.56-5.1,11.14-3.04,1.16.93,1.24,2.67,1.3,3.77.15,3.21-1.56,5.69-2.48,6.96-4.4,6.08-9.56,10.65-11.57,12.42-6.81,5.97-7.47,6.45-10.02,9.15-2.75,2.93-5.13,6.89-5.16,11.05-.04,4.42,3.02,7.89,6.71,9.94,3.08,1.71,6.85,2.63,10.36,1.96,6.84-1.3,10.3-9.9,13.15-15.39,6.34-12.18,13.8-23.92,23.53-33.61,2.08-2.07,4.33-4.08,7.08-5.1,3.79-1.4,8.3-.63,11.4,1.95,2.26,1.88,3.78,4.83,3.33,7.74-.39,2.53-1.82,4.31-2.53,5.09-7.49,8.27-22.32,22.07-26.03,25.62-1.98,1.9-5.28,5.07-9.21,9.68-10.46,12.26-11.14,17.96-18.22,20.84Zm62.73-9.18h-3.57c-.12,0-.21-.11-.21-.21,0-.25.36-.3.67-.34.13-.02.34-.05.38-.08-.02-.03-.08-.11-.1-.13-1.66-2.05-3.04-3.61-3.35-3.91-.1-.1-.12-.11-.17-.11h-.11s-.06.01-.06.06v1.73c0,2.35.01,2.35.65,2.5.2.04.3.13.3.28,0,.21-.27.21-.49.21h-2.76c-.13,0-.21-.08-.21-.21,0-.23.23-.27.31-.28.48-.09.61-.11.61-1.48,0-.34,0-.79,0-1.24,0-.46,0-.92,0-1.27s0-.86,0-1.41c0-.66,0-1.38,0-1.96,0-1.23-.2-1.29-.61-1.4-.08-.02-.29-.07-.29-.28,0-.15.09-.22.28-.22h2.92c.1,0,.34,0,.34.18,0,.12-.12.28-.37.35-.66.18-.68.28-.68,3.72,0,.12.02.12.03.12.04,0,.09-.05.14-.1,1.31-1.24,1.92-1.89,2.81-2.85l.09-.09c.22-.23.35-.36.35-.49,0-.15-.23-.23-.44-.3-.21-.07-.41-.13-.41-.3,0-.12.1-.24.28-.24h2.68c.14,0,.28.08.28.24,0,.07-.03.22-.31.26-.42.07-.52.08-1.26.72-.79.69-1.48,1.4-2.21,2.15l-.39.41s-.04.04-.06.06c-.04.04-.1.11-.1.14,0,.02.1.13.14.17.77.95,3.37,3.99,4.06,4.64.24.23.37.27.57.34.06.02.12.04.2.07.27.11.42.19.42.33,0,.06-.03.21-.32.21Zm30.54-9.72c0,.07,0,.14,0,.22,0,.22-.01.44-.02.66-.08,1.5-.23,2.98-.43,4.45,0,0,0,.01,0,.02-.97,5.28-4.28,10.47-8.15,14.67-2.45,2.65-7.32,4.3-11.2,3.89-4.23-.44-6.85-5.85-7.63-9.5-1.04-4.87-.67-9.03-2.86-14.13-.4-.92-1.25-2.15-1.88-2.79-2.64-2.7-5.52-3.49-9.62-2.81-5.38.88-9.79,3.79-11.07,5.05-1.61,1.57-3.58,3.51-3.45,5.95.12,2.28,1.98,3.42,4.46,5.83,1.45,1.41,7.18,6.99,8.84,13.66.82,3.32.44,6.13-.19,10.83-.37,2.77-1.24,5.48-1.42,8.27-.14,2.33.19,4.87,1.63,6.78,1.16,1.54,2.79,2.26,4.57,2.46-6.51,2.53-13.55,3.93-20.87,3.93-7,.12-13.76-1.04-20.07-3.24,1.31-.17,2.58-.61,3.65-1.38,1.5-1.09,2.5-2.73,3.18-4.46,1.56-3.96,1.54-8.33,1.59-12.58.03-2.42.22-4.84.24-7.26.06-11.8.89-26.04,10.03-34.64,2.61-2.46,5.72-4.37,9.08-5.62,3.62-1.34,7.41-1.92,10.97-3.51,3.24-1.45,6.39-2.99,9.31-5.05,5.5-3.89,9.89-9.24,11.97-15.7.59-1.84,1-3.74,1.23-5.67.19-1.55.19-2.78.02-3.81,10.1,9.83,16.81,23.12,17.99,37.65.09,2.24.19,5.11.12,7.84Zm-43.3,4.84c0,2.88-2.02,5.06-4.69,5.06s-4.76-2.24-4.76-5.1,2.08-5.02,4.85-5.02c1.38,0,2.56.55,3.41,1.58.76.92,1.19,2.19,1.19,3.48Z"/>
          <path class="cls-2" d="m87.87,65.76c-2.6,0-2.88,2.84-2.88,4.06,0,2.35.95,4.71,3.07,4.71,1.73,0,2.77-1.63,2.77-4.36,0-1.65-.38-4.41-2.95-4.41Z"/>
        </g>
        <g>
          <path class="cls-2" d="m117.54,65.26h-2.44c-.16,0-.32.09-.32.24,0,.13.1.22.26.24l.37.03c.14.01.28.08.28.17,0,.07-.04.18-.09.25-1.04,1.58-1.25,1.89-1.97,2.94-.07.11-.09.12-.12.12,0,0-.02,0-.08-.08-.79-1.09-1.71-2.38-1.85-2.61-.18-.28-.27-.48-.27-.58,0-.07.07-.11.11-.14.05-.02.13-.03.21-.05.12-.02.24-.05.32-.08.18-.07.21-.19.21-.26,0-.19-.19-.19-.26-.19h-3.3c-.16,0-.26.08-.26.21,0,.18.18.21.3.24.03,0,.06.01.1.02.48.12.66.32,1.09.89.48.65.96,1.33,1.73,2.44.09.13.17.25.24.34.19.27.3.43.37.62.09.27.11.4.11,1.63,0,.52,0,.88,0,1.16,0,.19,0,.34,0,.48-.01.8-.02,1.07-.77,1.23-.11.02-.35.06-.35.26,0,.1.05.22.31.22h3.29c.14,0,.24-.1.24-.22,0-.16-.19-.25-.36-.28-.65-.15-.69-.39-.73-1.16-.03-.48-.03-.95-.03-1.41,0-1.14.01-1.88.07-2.04.13-.38,2.13-3.03,2.45-3.45.32-.42.55-.68,1.06-.69.08,0,.34,0,.34-.28,0-.21-.17-.21-.22-.21Z"/>
          <path class="cls-2" d="m130.18,65.26h-2.65c-.34,0-.41.14-.41.26,0,.19.18.21.24.22h.08c.14.03.24.05.32.08.35.14.38.52.38,1,.03,1.97.03,2.28.03,2.55,0,.07,0,.74-.01,1.43-.02.74-.15,1.77-.43,2.47-.35.85-.98,1.28-1.87,1.28-1.61,0-2.13-1.37-2.3-2.19-.09-.44-.21-1.29-.21-3.6,0-.92.02-1.63.06-2.13.04-.55.1-.78.51-.89.06-.02.12-.03.17-.04.15-.03.3-.05.3-.2s-.16-.25-.38-.25h-2.96c-.16,0-.26.09-.26.24,0,.2.22.24.29.25.6.1.73.13.73,1.04,0,.22,0,.53-.02.91-.02.63-.04,1.49-.04,2.53,0,.76,0,2.03.69,3.18.7,1.16,1.85,1.8,3.25,1.8,1.69,0,3.07-.92,3.69-2.46.35-.88.37-1.76.37-2.99,0-.5,0-1.16,0-1.75,0-.46,0-.87,0-1.11,0-.76.02-.97.57-1.08.12-.02.39-.09.39-.26,0-.16-.2-.26-.49-.26Z"/>
        </g>
      </g>
    </g>
  </g>
</svg>