<svg height="142.671" viewBox="0 0 750 142.671" width="750" xmlns="http://www.w3.org/2000/svg"><path d="m0 0h607.329v142.671h-607.329z" fill="#004272"/><g fill="none" stroke="#004272" stroke-miterlimit="10" stroke-width="12"><path d="m607.33 0h142.671v142.671h-142.671z" stroke="none"/><path d="m613.33 6h130.671v130.671h-130.671z" fill="none"/></g><g transform="translate(-2008.897 -1482.516)"><g fill="#fff"><path d="m2080.666 1560.378v-21.065h-7.966v-5.745h22.635v5.745h-8.159v21.065z"/><path d="m2099.929 1560.378v-26.81h18.692v5.554h-12.371v15.7h12.75v5.553zm3.065-10.992v-5.286h13.9v5.285z"/><path d="m2124.632 1560.378v-26.81h6.512v21.065h11.949v5.745z"/></g><g fill="#fff"><path d="m2173.406 1561.187a17.223 17.223 0 0 1 -9.559-2.561 16.147 16.147 0 0 1 -6.043-7.355 32.873 32.873 0 0 1 0-23.047 16.157 16.157 0 0 1 6.043-7.355 19.174 19.174 0 0 1 19.147 0 16.107 16.107 0 0 1 6.076 7.355 32.9 32.9 0 0 1 0 23.047 16.1 16.1 0 0 1 -6.076 7.355 17.366 17.366 0 0 1 -9.588 2.561zm0-8.576a6.7 6.7 0 0 0 5.986-3.335q2.112-3.335 2.114-9.528 0-6.372-2.114-9.8a6.943 6.943 0 0 0 -11.97 0q-2.117 3.426-2.114 9.8 0 6.193 2.114 9.528a6.693 6.693 0 0 0 5.984 3.335z"/><path d="m2210.33 1561.008a18.944 18.944 0 0 1 -8.547-1.906 16.692 16.692 0 0 1 -6.342-5.478l5.42-5.956a15.413 15.413 0 0 0 4.525 3.663 10.759 10.759 0 0 0 4.645.982 7.258 7.258 0 0 0 3.394-.773 5.927 5.927 0 0 0 2.354-2.174 5.849 5.849 0 0 0 .863-3.127 5.955 5.955 0 0 0 -.863-3.186 6.446 6.446 0 0 0 -2.322-2.233 6.673 6.673 0 0 0 -3.366-.834 12.187 12.187 0 0 0 -5.091 1.042 28.887 28.887 0 0 0 -3.186 1.638l-4.289-5.717 2.561-18.4h23.941v8.517h-19.117l2.621-3.335-1.965 13.221-3.574-1.192a11.516 11.516 0 0 1 2.769-1.786 20.762 20.762 0 0 1 3.543-1.28 14.813 14.813 0 0 1 3.813-.507 13.791 13.791 0 0 1 7.057 1.817 13.449 13.449 0 0 1 4.972 5.032 14.566 14.566 0 0 1 1.846 7.385 13.615 13.615 0 0 1 -2.084 7.414 15.127 15.127 0 0 1 -5.6 5.241 16.264 16.264 0 0 1 -7.978 1.932z"/><path d="m2232.543 1560.591-1.965-4.883 12.148-13.281q1.011-1.131 2.2-2.56t2.323-2.949a18 18 0 0 0 1.816-2.947 6.13 6.13 0 0 0 .686-2.621 3.971 3.971 0 0 0 -.538-2.084 3.668 3.668 0 0 0 -1.546-1.4 5.73 5.73 0 0 0 -2.563-.506 5.384 5.384 0 0 0 -2.619.684 7.723 7.723 0 0 0 -2.354 2.115 18.026 18.026 0 0 0 -2.054 3.513l-7.5-4.049a19.212 19.212 0 0 1 3.543-6.1 16.184 16.184 0 0 1 5.388-4.109 15.33 15.33 0 0 1 6.612-1.459 15.029 15.029 0 0 1 6.67 1.578 12.078 12.078 0 0 1 4.734 4.228 11.411 11.411 0 0 1 1.756 6.343 12.427 12.427 0 0 1 -.3 2.62 17.132 17.132 0 0 1 -.893 2.829 22.991 22.991 0 0 1 -1.578 3.1 36.689 36.689 0 0 1 -2.353 3.424q-1.371 1.787-3.215 3.811l-9.471 10.3-1.189-4.525h20.844v8.932z"/><path d="m2264.7 1547.847v-8.755h20.6v8.755z"/><path d="m2305.435 1561.187a17.818 17.818 0 0 1 -8.844-2.114 19.492 19.492 0 0 1 -6.878-7.3l7.265-4.7a15.584 15.584 0 0 0 2.709 3.335 9.242 9.242 0 0 0 2.918 1.816 9.039 9.039 0 0 0 3.188.566 6.41 6.41 0 0 0 3.066-.745 5.934 5.934 0 0 0 2.264-2.114 5.694 5.694 0 0 0 .863-3.1 6.13 6.13 0 0 0 -.744-3.127 4.758 4.758 0 0 0 -2.145-1.936 7.9 7.9 0 0 0 -3.365-.654 9.438 9.438 0 0 0 -1.9.208 21.578 21.578 0 0 0 -2.145.565 15.905 15.905 0 0 0 -2.322.953l-2.205-5.9 10.125-11.018 2.74 1.489-17.39-.357v-8.517h25.607l1.848 3.693-13.758 14.769-2.381-2.8a6.551 6.551 0 0 1 1.578-.448 11.43 11.43 0 0 1 2.113-.208 13.567 13.567 0 0 1 5.241 1.012 14.337 14.337 0 0 1 4.347 2.8 12.85 12.85 0 0 1 2.979 4.2 12.537 12.537 0 0 1 1.072 5.151 13.289 13.289 0 0 1 -2.115 7.414 15.105 15.105 0 0 1 -5.717 5.152 16.858 16.858 0 0 1 -8.014 1.915z"/><path d="m2327.052 1560.591-1.964-4.883 12.148-13.281q1.011-1.131 2.2-2.56t2.322-2.949a18.005 18.005 0 0 0 1.817-2.947 6.124 6.124 0 0 0 .685-2.621 3.971 3.971 0 0 0 -.537-2.084 3.665 3.665 0 0 0 -1.547-1.4 5.723 5.723 0 0 0 -2.562-.506 5.384 5.384 0 0 0 -2.619.684 7.723 7.723 0 0 0 -2.354 2.115 17.977 17.977 0 0 0 -2.054 3.513l-7.5-4.049a19.212 19.212 0 0 1 3.543-6.1 16.184 16.184 0 0 1 5.388-4.109 15.33 15.33 0 0 1 6.612-1.459 15.025 15.025 0 0 1 6.669 1.578 12.074 12.074 0 0 1 4.735 4.228 11.411 11.411 0 0 1 1.756 6.343 12.427 12.427 0 0 1 -.3 2.62 17.132 17.132 0 0 1 -.893 2.829 23.134 23.134 0 0 1 -1.578 3.1 36.689 36.689 0 0 1 -2.353 3.424q-1.371 1.787-3.215 3.811l-9.471 10.3-1.189-4.525h20.843v8.932z"/><path d="m2373.265 1561.187a17.81 17.81 0 0 1 -8.843-2.114 19.482 19.482 0 0 1 -6.879-7.3l7.265-4.7a15.57 15.57 0 0 0 2.709 3.335 9.25 9.25 0 0 0 2.918 1.816 9.039 9.039 0 0 0 3.188.566 6.408 6.408 0 0 0 3.066-.745 5.933 5.933 0 0 0 2.264-2.114 5.692 5.692 0 0 0 .863-3.1 6.13 6.13 0 0 0 -.744-3.127 4.76 4.76 0 0 0 -2.145-1.936 7.9 7.9 0 0 0 -3.365-.654 9.438 9.438 0 0 0 -1.9.208 21.582 21.582 0 0 0 -2.145.565 15.916 15.916 0 0 0 -2.322.953l-2.2-5.9 10.125-11.018 2.74 1.489-17.39-.357v-8.517h25.607l1.848 3.693-13.758 14.769-2.381-2.8a6.547 6.547 0 0 1 1.578-.448 11.436 11.436 0 0 1 2.113-.208 13.567 13.567 0 0 1 5.241 1.012 14.339 14.339 0 0 1 4.347 2.8 12.847 12.847 0 0 1 2.979 4.2 12.533 12.533 0 0 1 1.072 5.151 13.289 13.289 0 0 1 -2.115 7.414 15.1 15.1 0 0 1 -5.717 5.152 16.857 16.857 0 0 1 -8.019 1.915z"/><path d="m2394.406 1547.847v-8.755h20.6v8.755z"/><path d="m2430.613 1557.673v-33.826l2.205 5.062-8.934 4.228-1.726-9.052 11.849-5.777h6.553v39.365zm-7.621 2.918v-8.932h25.369v8.932z"/><path d="m2468.252 1561.008a18.942 18.942 0 0 1 -8.547-1.906 16.692 16.692 0 0 1 -6.342-5.478l5.42-5.956a15.41 15.41 0 0 0 4.525 3.663 10.758 10.758 0 0 0 4.645.982 7.257 7.257 0 0 0 3.394-.773 5.924 5.924 0 0 0 2.354-2.174 5.849 5.849 0 0 0 .863-3.127 5.955 5.955 0 0 0 -.863-3.186 6.442 6.442 0 0 0 -2.322-2.233 6.673 6.673 0 0 0 -3.366-.834 12.185 12.185 0 0 0 -5.091 1.042 28.887 28.887 0 0 0 -3.186 1.638l-4.289-5.717 2.56-18.4h23.942v8.517h-19.117l2.621-3.335-1.965 13.221-3.574-1.192a11.492 11.492 0 0 1 2.769-1.786 20.755 20.755 0 0 1 3.543-1.28 14.813 14.813 0 0 1 3.813-.507 13.787 13.787 0 0 1 7.056 1.817 13.447 13.447 0 0 1 4.973 5.032 14.566 14.566 0 0 1 1.846 7.385 13.625 13.625 0 0 1 -2.084 7.414 15.129 15.129 0 0 1 -5.6 5.241 16.263 16.263 0 0 1 -7.978 1.932z"/><path d="m2503.744 1561.008a18.935 18.935 0 0 1 -8.545-1.906 16.7 16.7 0 0 1 -6.344-5.478l5.42-5.956a15.421 15.421 0 0 0 4.527 3.663 10.759 10.759 0 0 0 4.645.982 7.263 7.263 0 0 0 3.394-.773 5.922 5.922 0 0 0 2.352-2.174 5.832 5.832 0 0 0 .863-3.127 5.938 5.938 0 0 0 -.863-3.186 6.446 6.446 0 0 0 -2.322-2.233 6.662 6.662 0 0 0 -3.365-.834 12.187 12.187 0 0 0 -5.092 1.042 29.237 29.237 0 0 0 -3.186 1.638l-4.287-5.717 2.561-18.4h23.939v8.517h-19.115l2.619-3.335-1.965 13.221-3.572-1.192a11.459 11.459 0 0 1 2.767-1.786 20.784 20.784 0 0 1 3.545-1.28 14.8 14.8 0 0 1 3.811-.507 13.785 13.785 0 0 1 7.057 1.817 13.426 13.426 0 0 1 4.972 5.032 14.567 14.567 0 0 1 1.848 7.385 13.6 13.6 0 0 1 -2.086 7.414 15.114 15.114 0 0 1 -5.6 5.241 16.253 16.253 0 0 1 -7.978 1.932z"/><path d="m2539.238 1561.008a18.947 18.947 0 0 1 -8.547-1.906 16.7 16.7 0 0 1 -6.342-5.478l5.42-5.956a15.4 15.4 0 0 0 4.526 3.663 10.752 10.752 0 0 0 4.644.982 7.262 7.262 0 0 0 3.4-.773 5.93 5.93 0 0 0 2.353-2.174 5.849 5.849 0 0 0 .863-3.127 5.955 5.955 0 0 0 -.863-3.186 6.436 6.436 0 0 0 -2.322-2.233 6.672 6.672 0 0 0 -3.365-.834 12.187 12.187 0 0 0 -5.092 1.042 28.887 28.887 0 0 0 -3.186 1.638l-4.289-5.717 2.561-18.4h23.941v8.517h-19.117l2.621-3.335-1.965 13.221-3.574-1.192a11.5 11.5 0 0 1 2.77-1.786 20.7 20.7 0 0 1 3.543-1.28 14.805 14.805 0 0 1 3.812-.507 13.791 13.791 0 0 1 7.057 1.817 13.442 13.442 0 0 1 4.972 5.032 14.566 14.566 0 0 1 1.846 7.385 13.615 13.615 0 0 1 -2.084 7.414 15.127 15.127 0 0 1 -5.6 5.241 16.258 16.258 0 0 1 -7.983 1.932z"/></g><g fill="#fff"><path d="m2198.359 1581.708c.281-.108.346-.065.476.086a11.819 11.819 0 0 1 1.255 2.035c.108.194.108.215-.2.324l-1.514.5h8.632a17.641 17.641 0 0 0 1.1-2.077 8.2 8.2 0 0 0 .347-1.082 15.366 15.366 0 0 1 2.054.627c.2.087.282.152.282.281a.424.424 0 0 1 -.2.368 1.567 1.567 0 0 0 -.454.52c-.3.5-.541.93-.822 1.363h.432c1.991 0 2.705-.044 2.857-.044.216 0 .237.022.237.238 0 .13-.043.541-.043 1.147v.952c0 1.9.043 2.251.043 2.38 0 .217-.021.238-.237.238h-1.732c-.215 0-.238-.021-.238-.238v-2.813h-13.912v2.791c0 .239-.021.26-.238.26h-1.731c-.217 0-.238-.021-.238-.26 0-.13.043-.475.043-2.38v-.779c0-.757-.043-1.146-.043-1.3 0-.216.021-.238.238-.238.152 0 .865.044 2.856.044h.5a.4.4 0 0 1 -.109-.174 10.413 10.413 0 0 0 -1.1-1.99c-.13-.194-.109-.238.151-.324zm7.724 6.124c1.948 0 2.64-.044 2.792-.044.194 0 .215.022.215.259 0 .109-.042.477-.042 1.472v1.9c0 .995.042 1.363.042 1.493 0 .216-.021.238-.215.238-.152 0-.844-.043-2.792-.043h-1.644c-.2.541-.411 1.016-.606 1.449h4.111c2.12 0 2.878-.021 3.029-.021.216 0 .216.021.216.238 0 .13-.021.649-.021 1.666v1.385c0 2.552.021 3.029.021 3.159 0 .194 0 .216-.216.216h-1.817c-.217 0-.238-.022-.238-.216v-.65h-10.429v.736c0 .217-.023.238-.217.238h-1.839c-.217 0-.238-.021-.238-.238 0-.13.043-.606.043-3.2v-1.169c0-1.277-.043-1.8-.043-1.926 0-.217.021-.238.238-.238.152 0 .908.021 3.03.021h2.1a14.636 14.636 0 0 0 .606-1.449h-.887c-1.969 0-2.661.043-2.791.043-.2 0-.217-.022-.217-.238 0-.152.043-.5.043-1.493v-1.9c0-.995-.043-1.363-.043-1.472 0-.237.022-.259.217-.259.13 0 .822.044 2.791.044zm-7.594 10.623h10.429v-1.991h-10.429zm1.99-7.054h6.426v-1.882h-6.426zm3.051-9.931c.26-.087.324-.044.433.152a14.375 14.375 0 0 1 1.082 2.163c.087.174.064.216-.239.3l-1.449.433c-.325.086-.347.064-.433-.173a18.907 18.907 0 0 0 -1.017-2.121c-.13-.216-.065-.238.2-.324z"/><path d="m2218.721 1596.032c-1.947 0-2.595.043-2.725.043-.239 0-.26-.022-.26-.239v-1.276c0-.237.021-.26.26-.26.13 0 .778.044 2.725.044h5.345v-1.169h-3.051c-2.1 0-2.856.044-2.986.044-.216 0-.216-.022-.216-.238v-1.233c0-.239 0-.26.216-.26.13 0 .888.043 2.986.043h3.051v-1.147h-4.066c-2.077 0-2.77.043-2.9.043-.238 0-.259-.021-.259-.216v-1.276c0-.217.021-.238.259-.238.13 0 .823.043 2.9.043h1.319c-.237-.519-.454-.952-.692-1.364-.109-.194-.13-.281.151-.367l1.406-.389h-3.462c-1.947 0-2.595.043-2.725.043-.239 0-.26-.022-.26-.238v-1.341c0-.239.021-.26.26-.26.13 0 .778.043 2.725.043h.153a10.317 10.317 0 0 0 -1.234-1.861c-.13-.151-.087-.238.173-.368l1.255-.584c.217-.108.281-.087.411.087a12.7 12.7 0 0 1 1.449 2.1c.109.194.109.216-.172.367l-.52.26h2.013v-1.428a8.472 8.472 0 0 0 -.13-1.883c.671.023 1.514.066 2.1.13.173.022.26.087.26.195a1.117 1.117 0 0 1 -.087.368 3.4 3.4 0 0 0 -.13 1.19v1.428h1.753v-1.407a8.588 8.588 0 0 0 -.13-1.9c.65.023 1.494.066 2.078.152.2.022.281.086.281.195a1.024 1.024 0 0 1 -.086.346 3.347 3.347 0 0 0 -.13 1.19v1.428h1.341a16.088 16.088 0 0 0 1-1.775 4.12 4.12 0 0 0 .367-1.168 18.342 18.342 0 0 1 2.1.563c.195.065.281.173.281.281a.446.446 0 0 1 -.216.368 2.214 2.214 0 0 0 -.368.411c-.281.454-.584.887-.887 1.32h.3c1.947 0 2.6-.043 2.727-.043.215 0 .237.021.237.26v1.341c0 .216-.022.238-.237.238-.13 0-.78-.043-2.727-.043h-3.786c.562.108 1.059.216 1.709.389.173.043.281.13.281.26a.375.375 0 0 1 -.238.324 1.506 1.506 0 0 0 -.3.454l-.39.693h1.407c2.077 0 2.769-.043 2.9-.043.217 0 .238.021.238.238v1.276c0 .195-.021.216-.238.216-.13 0-.822-.043-2.9-.043h-4.37v1.147h3.44c2.12 0 2.856-.043 2.985-.043.217 0 .239.021.239.26v1.233c0 .216-.022.238-.239.238-.129 0-.865-.044-2.985-.044h-3.44v1.169h5.69c1.947 0 2.6-.044 2.727-.044.215 0 .237.023.237.26v1.276c0 .217-.022.239-.237.239-.13 0-.78-.043-2.727-.043h-3.852a19.641 19.641 0 0 0 7.206 2.812 6.151 6.151 0 0 0 -.844 1.385c-.173.411-.26.563-.476.563a2.306 2.306 0 0 1 -.5-.108 18.894 18.894 0 0 1 -7.269-3.873c0 2.574.107 3.916.107 4.283 0 .217-.021.239-.237.239h-1.84c-.194 0-.216-.022-.216-.239 0-.367.065-1.622.086-4.2a17.524 17.524 0 0 1 -6.945 3.873 1.653 1.653 0 0 1 -.5.13c-.2 0-.282-.151-.477-.563a5.16 5.16 0 0 0 -.865-1.3 17.988 17.988 0 0 0 6.9-3.008zm8.353-7.292c.194-.367.367-.736.584-1.255a3.982 3.982 0 0 0 .238-.865h-5.517c.064.021.108.087.172.173a13.557 13.557 0 0 1 .974 1.947z"/><path d="m2243.953 1592.267c0 5.388.044 6.361.044 6.491 0 .216-.022.238-.239.238h-1.558c-.195 0-.217-.022-.217-.238v-.952h-1.99v1.709c0 .217-.022.238-.217.238h-1.6c-.216 0-.238-.021-.238-.238 0-.13.043-1.233.043-6.664v-4.717c0-3.916-.043-5.063-.043-5.193 0-.216.022-.237.238-.237.152 0 .563.043 1.861.043h1.861c1.3 0 1.709-.043 1.86-.043.217 0 .239.021.239.237 0 .13-.044 1.19-.044 4.371zm-3.959-7.552v4.48h1.99v-4.48zm1.99 11.121v-4.672h-1.99v4.672zm5.756-5.754c-2.056 0-2.77.043-2.9.043-.238 0-.259-.022-.259-.26v-1.492c0-.217.021-.239.259-.239.13 0 .844.043 2.9.043h1.558v-2.228h-1.017c-1.926 0-2.6.043-2.727.043-.238 0-.259-.022-.259-.238v-1.514c0-.239.021-.26.259-.26.13 0 .8.043 2.727.043h1.017a18.061 18.061 0 0 0 -.152-2.444c.844.021 1.428.064 2.229.151.216.021.346.107.346.216a1.2 1.2 0 0 1 -.13.454 5.027 5.027 0 0 0 -.108 1.623h1.449c1.969 0 2.618-.043 2.748-.043.217 0 .239.021.239.26v1.514c0 .216-.022.238-.239.238-.13 0-.779-.043-2.748-.043h-1.449v2.228h2.293c2.056 0 2.77-.043 2.9-.043.239 0 .26.022.26.239v1.492c0 .238-.021.26-.26.26-.129 0-.843-.043-2.9-.043zm.086 4.067c-2.055 0-2.747.044-2.877.044-.238 0-.26-.023-.26-.238v-1.515c0-.217.022-.238.26-.238.13 0 .822.044 2.877.044h4.263a15.944 15.944 0 0 0 -.152-1.905c.822.043 1.6.109 2.186.2.238.044.368.13.368.238a.732.732 0 0 1 -.109.368 2.753 2.753 0 0 0 -.108 1.1c1.472 0 2.056-.044 2.164-.044.237 0 .259.021.259.238v1.515c0 .215-.022.238-.259.238-.108 0-.692-.023-2.164-.044v2.143c0 .995.022 1.925.022 2.661a2.014 2.014 0 0 1 -.757 1.839 5 5 0 0 1 -2.814.476c-.648 0-.671 0-.822-.649a4.8 4.8 0 0 0 -.648-1.579c.756.064 1.406.086 2.12.086.519 0 .714-.173.714-.671v-4.306zm-.367.606c.215-.129.281-.129.454.022a17.267 17.267 0 0 1 1.99 2.488c.13.195.108.26-.107.411l-1.321.909c-.13.086-.194.129-.26.129s-.108-.043-.172-.151a18.106 18.106 0 0 0 -1.905-2.661c-.151-.173-.151-.238.109-.39z"/><path d="m2265.334 1582.206c1.406 0 2.054-.043 2.184-.043.2 0 .217.021.217.259 0 .13-.043.757-.043 2.055v2.684c0 1.319.043 1.925.043 2.055 0 .238-.021.26-.217.26-.13 0-.778-.044-2.184-.044h-3.506v7.011c0 2.985.044 4.457.044 4.608 0 .217-.023.239-.239.239h-1.838c-.217 0-.239-.022-.239-.239 0-.151.043-1.623.043-4.608v-9.369c0-3.007-.043-4.522-.043-4.652 0-.238.022-.259.239-.259.151 0 .973.043 2.552.043zm-3.506 1.623v1.276h3.743v-1.276zm3.743 2.748h-3.743v1.3h3.743zm-.822 13.219c-.216 0-.238-.021-.238-.259 0-.13.043-.714.043-3.916v-1.905c0-1.9-.043-2.552-.043-2.7 0-.217.022-.238.238-.238.151 0 .671.043 2.315.043h2.921c1.645 0 2.164-.043 2.315-.043.216 0 .239.021.239.238 0 .13-.044.779-.044 2.337v2.142c0 3.137.044 3.721.044 3.83 0 .216-.023.237-.239.237h-1.557c-.217 0-.238-.021-.238-.237v-.671h-3.96v.887c0 .238-.022.259-.26.259zm1.8-5.863h3.96v-1.45h-3.96zm3.96 3.072v-1.514h-3.96v1.514zm7.118-2.835c0 1.515.087 3.247.087 4.307a2.35 2.35 0 0 1 -.628 1.99c-.454.411-1.06.584-3.094.584-.649 0-.649.022-.779-.671a6.792 6.792 0 0 0 -.519-1.579 14.854 14.854 0 0 0 1.817.109c.714 0 .887-.2.887-.844v-8.634h-3.548c-1.688 0-2.251.044-2.381.044-.215 0-.237-.022-.237-.26 0-.13.043-.628.043-1.9v-2.986c0-1.255-.043-1.774-.043-1.9 0-.238.022-.259.237-.259.13 0 .693.043 2.381.043h3.181c1.688 0 2.272-.043 2.4-.043.216 0 .239.021.239.259 0 .13-.044 1.017-.044 2.856zm-6.232-10.341v1.276h4v-1.276zm4 4.046v-1.3h-4v1.3z"/><path d="m2288.835 1596.335c.3 1.1.822 1.58 1.73 1.58 1.84 0 2.9-1.559 3.008-5.886a3.55 3.55 0 0 1 -3.373 1.971c-2.51 0-4.393-2.056-4.393-5.323 0-3.57 1.948-5.777 4.977-5.777 3.267 0 5.366 2.358 5.366 7.919 0 6.6-2.077 9.174-5.626 9.174-2.25 0-3.678-.887-4.348-2.661zm2.055-11.36c-1.6 0-2.337 1.385-2.337 3.635 0 2.1.887 3.31 2.272 3.31a2.861 2.861 0 0 0 2.618-2.077c-.021-3.223-.778-4.868-2.553-4.868z"/><path d="m2309.888 1586.879a1.834 1.834 0 0 1 -1.86 1.861 1.8 1.8 0 0 1 -1.839-1.861 1.822 1.822 0 0 1 1.839-1.838 1.855 1.855 0 0 1 1.86 1.838zm0 9.153a1.833 1.833 0 0 1 -1.86 1.86 1.8 1.8 0 0 1 -1.839-1.86 1.823 1.823 0 0 1 1.839-1.839 1.856 1.856 0 0 1 1.86 1.839z"/><path d="m2330.273 1591.379c0 6.124-1.86 8.612-5.235 8.612-3.4 0-5.172-2.445-5.172-8.568s1.883-8.525 5.215-8.525 5.192 2.38 5.192 8.481zm-7.616.022c0 4.869.671 6.448 2.381 6.448 1.752 0 2.444-1.6 2.444-6.448 0-4.868-.671-6.36-2.4-6.36-1.689 0-2.425 1.47-2.425 6.359z"/><path d="m2342.673 1591.379c0 6.124-1.861 8.612-5.236 8.612-3.4 0-5.172-2.445-5.172-8.568s1.883-8.525 5.215-8.525 5.193 2.38 5.193 8.481zm-7.617.022c0 4.869.671 6.448 2.381 6.448 1.752 0 2.445-1.6 2.445-6.448 0-4.868-.671-6.36-2.4-6.36-1.689 0-2.426 1.47-2.426 6.359z"/><path d="m2345.011 1592.072c1.752-2.012 3.311-2.986 5.107-2.986a8.971 8.971 0 0 1 4.391 1.364c2.251 1.189 3.376 1.643 4.566 1.643 1.363 0 2.424-.388 4.024-2.077l.866.909c-1.688 2.142-3.332 3.073-5.15 3.073a8.8 8.8 0 0 1 -4.391-1.407c-2.186-1.19-3.311-1.644-4.566-1.644-1.32 0-2.315.389-3.96 2.013z"/><path d="m2373.077 1597.589h3.094v2.1h-8.914v-2.1h3.246v-11.77a12.192 12.192 0 0 1 -3.052 1.472l-.433-2.273a12.185 12.185 0 0 0 3.852-1.947h2.207z"/><path d="m2389.241 1595.4c0 2.748-2.1 4.587-5.322 4.587-3.268 0-5.345-1.709-5.345-4.5 0-1.9 1-3.03 3.2-4.112-2.055-1.059-2.812-2.379-2.812-4.218 0-2.38 1.968-4.263 4.933-4.263 2.921 0 4.977 1.731 4.977 4.176 0 1.774-.952 2.965-2.9 3.764 2.382 1.13 3.269 2.428 3.269 4.566zm-5.82-3.2c-1.537.843-2.272 1.731-2.272 3.116a2.551 2.551 0 0 0 2.751 2.684 2.453 2.453 0 0 0 2.77-2.51c0-1.3-.628-2.034-2.618-2.987zm.952-2.142a2.963 2.963 0 0 0 1.947-2.878 2.251 2.251 0 0 0 -2.423-2.294 2.173 2.173 0 0 0 -2.381 2.251c0 1.125.541 1.839 2.251 2.64z"/><path d="m2402.765 1586.879a1.834 1.834 0 0 1 -1.86 1.861 1.8 1.8 0 0 1 -1.839-1.861 1.822 1.822 0 0 1 1.839-1.838 1.855 1.855 0 0 1 1.86 1.838zm0 9.153a1.833 1.833 0 0 1 -1.86 1.86 1.8 1.8 0 0 1 -1.839-1.86 1.823 1.823 0 0 1 1.839-1.839 1.856 1.856 0 0 1 1.86 1.839z"/><path d="m2423.15 1591.379c0 6.124-1.86 8.612-5.235 8.612-3.4 0-5.172-2.445-5.172-8.568s1.883-8.525 5.215-8.525 5.192 2.38 5.192 8.481zm-7.616.022c0 4.869.671 6.448 2.381 6.448 1.752 0 2.444-1.6 2.444-6.448 0-4.868-.671-6.36-2.4-6.36-1.689 0-2.425 1.47-2.425 6.359z"/><path d="m2435.549 1591.379c0 6.124-1.86 8.612-5.235 8.612-3.4 0-5.172-2.445-5.172-8.568s1.883-8.525 5.215-8.525 5.192 2.38 5.192 8.481zm-7.616.022c0 4.869.671 6.448 2.381 6.448 1.752 0 2.444-1.6 2.444-6.448 0-4.868-.67-6.36-2.4-6.36-1.688 0-2.425 1.47-2.425 6.359z"/></g><g fill="none" stroke="#004272" stroke-miterlimit="10" stroke-width="8"><g><path d="m2659.714 1526.003h55.695v55.695h-55.695z" stroke="none"/><path d="m2663.714 1530.003h47.695v47.695h-47.695z" fill="none"/></g><path d="m2711.587 1529.825-24.025 24.026-24.025-24.026"/></g></g></svg>