<svg height="163.8" viewBox="0 0 163.706 163.8" width="163.706" xmlns="http://www.w3.org/2000/svg"><g transform="translate(-60.727 -36.856)"><g fill="#004272"><path d="m82.98 183.181c.635-.938 1.482-2.056 1.935-2.056.6 0 2.812 1.844 2.812 2.57 0 .423-.484.695-1.693.695h-24.641c-.393 0-.666-.121-.666-.6 0-.453.273-.6.666-.6h11.791v-2.389h-7.74c-.393 0-.665-.121-.665-.6 0-.454.272-.605.665-.605h7.74c0-.756 0-1.512-.03-2.207h-9.373c-.393 0-.665-.121-.665-.605 0-.453.272-.6.665-.6h9.343c-.031-1.028-.091-1.905-.152-2.48-.03-.272.152-.423.424-.423.514 0 3.537.091 3.537.877 0 .665-.665.907-1.6 1.118v.908h5.867c.605-.908 1.391-1.966 1.844-1.966.6 0 2.752 1.784 2.752 2.51 0 .423-.514.665-1.633.665h-8.832v2.207h4.807c.6-.877 1.36-1.874 1.784-1.874.574 0 2.661 1.722 2.661 2.418 0 .423-.484.665-1.573.665h-7.679v2.389zm-4.051 3.326c.483-.635 1.209-1.422 1.421-1.422.755 0 2.781 1.724 2.781 2.3 0 .453-.665.786-1.391 1.027-.03 2.479 0 6.319-.03 9.585a2.68 2.68 0 0 1 -2.842 2.54c-1.179 0-.453-1.12-2.479-1.694-.665-.212-.544-1 .03-1 .272 0 1.482.181 2.026.181.786 0 1.088-.272 1.149-1 .03-.544.03-1.269.06-2.055h-10.491l.03 4.716c0 .665-.453.967-1.391.967a.764.764 0 0 1 -.846-.846c.03-2.449.242-10.794-.091-14a.375.375 0 0 1 .423-.393 7.366 7.366 0 0 1 2.661 1.089zm-9.313 1.209c-.121.03-.241.061-.393.091-.03.483-.03 1.39-.06 2.358h10.491v-2.449zm10.038 6.047v-2.389h-10.491v2.389z"/><path d="m114.121 179.311c.514-.605 1.148-1.27 1.481-1.27.635 0 2.449 1.572 2.449 2.207 0 .393-.575.756-1.179 1.028a30.505 30.505 0 0 1 -.816 3.538c.846 6.711 3.718 11.489 9.493 13.121.907.3.665.7 0 .937a2.4 2.4 0 0 0 -1.451.968c-.3.423-.605.635-1.391.242-4.5-2.207-6.712-6.742-7.5-12.729a22.22 22.22 0 0 1 -3.084 5.352c-2.781 3.537-7.71 6.591-13.575 7.921-.907.181-1.149-.7-.333-1.028 5.2-1.753 9.615-4.6 12-7.649a21.388 21.388 0 0 0 4.324-11.429h-6.439a31.512 31.512 0 0 1 -8.284 11.217c-.635.6-1.331.03-.786-.634a36.432 36.432 0 0 0 8.677-17.295c.06-.333.181-.453.514-.423 1.088.181 3.325.967 3.416 1.572.03.514-.755.756-1.6.726-.424 1.179-.877 2.388-1.421 3.628z"/><path d="m157.567 176.5c.665-1 1.572-2.176 2.056-2.176.6 0 2.932 1.9 2.932 2.66 0 .423-.544.726-1.753.726h-7.045c.937.332 1.9.937 1.935 1.33 0 .453-.423.6-1.36.634a9.942 9.942 0 0 1 -2.268 2.359 1.233 1.233 0 0 1 -.272.151h6.289c.483-.6 1.058-1.239 1.269-1.239.756 0 2.782 1.723 2.782 2.3 0 .424-.665.786-1.361 1.028-.09 3.447-.03 9.071-.06 13.606a2.613 2.613 0 0 1 -2.721 2.63c-1.179 0-.484-1.179-2.3-1.753-.635-.212-.544-.968.03-.968.272 0 1.3.121 1.814.121.726 0 1.028-.272 1.089-1.059.091-1.571.06-4.534.06-6.711v-6.743h-7.347c.756.122 1.814.393 1.814.817 0 .332-.393.514-1.028.635-.03.211-.03 1.6-.03 1.784 0 .453.182.423 1.724.423 1.662 0 1.6-.182 1.874-.393a3.64 3.64 0 0 0 .665-1.422c.212-.634.968-.513.968.182-.061 1.391.423 1.391.423 1.935 0 .937-1.3 1.361-3.961 1.361-2.993 0-3.537-.061-3.537-1.452 0-.665-.03-2.811-.061-3.386-.03-.272.031-.423.152-.484h-3.78c.907.122 1.784.454 1.784.877 0 .393-.363.6-1.149.7a6.364 6.364 0 0 1 -1.6 2.781 8.458 8.458 0 0 1 -4.565 2.177c-.666.212-1.119-.575-.3-1a8.1 8.1 0 0 0 3.265-2 5.6 5.6 0 0 0 1.27-3.023c.03-.273.061-.424.181-.515h-4.6a2.845 2.845 0 0 1 -.816.242c-.091 1.482-.091 6.259-.091 7.227l.03 8.737c0 .665-.423 1-1.36 1a.743.743 0 0 1 -.817-.847c0-2.963.3-14.391-.121-18.08a.413.413 0 0 1 .424-.423 7.58 7.58 0 0 1 2.419.937h10.732c-.211-.12-.271-.423-.09-.786a14.09 14.09 0 0 0 1.3-3.507.414.414 0 0 1 .061-.181h-16.265c-.393 0-.665-.122-.665-.6 0-.454.272-.605.665-.605h11.671c0-1-.03-2.086-.091-2.842a.38.38 0 0 1 .423-.453c.515 0 3.266.09 3.266.877 0 .6-.635.846-1.572 1.027v1.384zm-13.606 3.84c-.212-.484-.514-1.028-.786-1.512-.363-.695.061-1.331.967-.907 1.421.635 2.812 1.511 2.661 2.782a1.333 1.333 0 0 1 -1.6 1.239c-.758-.061-.94-.842-1.242-1.603zm7.77 10.128c.363-.513.877-1.088 1.149-1.088.514 0 2.056 1.179 2.056 1.753 0 .3-.3.545-.7.726-.03 1.24 0 3.84 0 4.566 0 .937-.423 1.148-1.24 1.148-.7 0-.877-.544-.877-1.028v-.423h-5.769v.967c0 .636-.454.908-1.3.908a.7.7 0 0 1 -.787-.786 70.65 70.65 0 0 0 -.121-7.468.344.344 0 0 1 .454-.363 6.116 6.116 0 0 1 2.479 1.088zm.424 4.444c0-1.058.03-2.357.03-3.234h-5.8c-.03.6-.061 1.935-.061 2.449v.785z"/><path d="m196.084 177.527c.665-1 1.542-2.177 2.026-2.177.635 0 2.933 1.875 2.933 2.661 0 .423-.545.725-1.754.725h-20.378c.061 2.419 0 4.6-.091 7.257-.151 4.505-.846 9.917-5.17 13.423-.695.636-1.451.031-.846-.755 2.63-3.477 3.749-6.954 3.809-13.425 0-2.6-.09-5.592-.272-8.344-.06-.483.152-.635.544-.574a7.954 7.954 0 0 1 2.54 1.209h7.075a35.213 35.213 0 0 0 -.091-3.688.38.38 0 0 1 .423-.454c.515 0 3.568.09 3.568.907 0 .635-.665.877-1.6 1.089v2.146zm-1.209 6.5c.665-1 1.542-2.177 2.056-2.177.635 0 2.842 1.906 2.842 2.661 0 .454-.635.725-1.693.725h-8.647v4.989h4.505c.453-.574 1-1.179 1.33-1.179.635 0 2.479 1.361 2.479 2.026 0 .424-.514.695-1.058.907-.091 2.177 0 6.289 0 7.408 0 .937-.484 1.149-1.361 1.149a.931.931 0 0 1 -.967-1.029v-1.239h-10.915v1.421c0 .635-.484.937-1.39.937a.743.743 0 0 1 -.847-.816c0-2.026.181-7.529-.121-10.28a.361.361 0 0 1 .423-.393 7.176 7.176 0 0 1 2.661 1.088h3.175c.06-3.325 0-8.556-.242-10.43-.031-.273.151-.424.423-.424.514 0 3.507.091 3.507.877 0 .665-.665.907-1.6 1.118v2.661zm-.484 13.032c0-1.935.03-4.445.03-5.624h-10.612c-.121.03-.211.03-.332.061-.031.785-.031 3.144-.031 3.688v1.875z"/></g><path d="m222.808 200.2h-11.862a1.627 1.627 0 0 1 -1.625-1.625v-11.863a1.628 1.628 0 0 1 1.625-1.625h11.862a1.628 1.628 0 0 1 1.625 1.625v11.862a1.627 1.627 0 0 1 -1.625 1.626zm-11.862-14.313a.827.827 0 0 0 -.826.826v11.862a.827.827 0 0 0 .826.827h11.862a.828.828 0 0 0 .826-.827v-11.863a.828.828 0 0 0 -.826-.826z" fill="#df381c"/><g fill="#df381c"><path d="m212.082 188.535c-.4 0-.592-.043-.592-.131 0-.123.323-.2.97-.227q1.284-.054 4.194-.075v-.461q-.6 0-1.8.024t-1.8.024c-.428 0-.643-.046-.643-.138q0-.178.97-.219 1.058-.042 3.275-.042v-.4q-2.733.062-3 .062-1.548 0-1.549-.626 0-.46.328-.46.264 0 .314.46c.017.184.282.275.794.275q.554 0 1.549-.021 1.1-.02 1.562-.02v-.454c.042-.238.151-.358.328-.358s.272.12.314.358v.454q2.091.021 3.048.02.807 0 .844-.268.063-.467.315-.467c.218 0 .328.156.328.467q0 .627-1.625.626-.693 0-2.91-.034v.385q2.217 0 3.275.042.971.04.97.219 0 .138-.642.138-.291 0-.781-.014-.592-.02-.781-.02-.894-.014-2.041-.014v.461q1.4.006 4.195.075c.646.027.969.1.969.227 0 .088-.2.131-.591.131-.1 0-.227 0-.378-.007q-2.418-.089-4.509-.089t-4.522.089c-.152.005-.277.008-.378.008zm4.874.316q1.172 0 2.041.041 1.562.07 1.612.833.089 1.36.088 2.3 0 .715-.289.715-.341 0-.34-.489a6.975 6.975 0 0 0 -.051-1.086q-1.3-.027-2.633-.028-1.763 0-3.589.049-.076.66-.113 1.072c-.034.326-.143.488-.328.488q-.315 0-.3-.453v-.082q0-.076.226-2.593c.026-.285.235-.484.63-.6a6.344 6.344 0 0 1 1.285-.144q.766-.023 1.761-.023zm3.044 1.369q-1.511-.027-3.022-.028t-3.024.028a2.9 2.9 0 0 0 -.063.6q1.4-.034 2.8-.035 1.674 0 3.35.049l.013-.172a2.386 2.386 0 0 0 -.054-.442zm-6.046-.351q1.512-.027 3.024-.028t3 .028c.017-.252-.164-.433-.541-.543a4.648 4.648 0 0 0 -1.235-.145 11.6 11.6 0 0 1 -1.247.007q-1.26 0-2.015.048-1.008.063-.983.585z"/><path d="m213.354 192.846a.362.362 0 0 1 -.272-.1.591.591 0 0 1 -.126-.447v-.079c0-.023 0-.081.227-2.6.029-.326.264-.556.7-.682a6.359 6.359 0 0 1 1.307-.148c.505-.018 1.1-.027 1.767-.027.774 0 1.462.014 2.045.041 1.093.048 1.667.359 1.7.922.058.907.088 1.684.088 2.31 0 .2 0 .811-.385.811-.163 0-.436-.076-.436-.585a8.985 8.985 0 0 0 -.037-.992c-.856-.017-1.713-.026-2.551-.026-1.15 0-2.329.016-3.5.046-.046.4-.081.73-.1.988-.053.469-.261.568-.427.568zm3.6-3.9c-.665 0-1.257.01-1.76.028a6.356 6.356 0 0 0 -1.262.14c-.355.1-.538.272-.56.515-.186 2.062-.226 2.544-.226 2.585v.082a.453.453 0 0 0 .071.311.178.178 0 0 0 .135.047c.047 0 .191 0 .232-.4q.037-.413.114-1.074l.009-.083h.083c1.2-.032 2.413-.048 3.592-.048.865 0 1.751.009 2.635.027h.077l.015.075a7.036 7.036 0 0 1 .053 1.105c0 .394.17.394.244.394.123 0 .193-.226.193-.62 0-.622-.029-1.4-.088-2.3-.029-.449-.541-.7-1.52-.743-.579-.026-1.264-.04-2.035-.04zm3.175 1.99h-.092c-1.127-.032-2.253-.049-3.347-.049-.918 0-1.858.012-2.794.035h-.1v-.1a2.963 2.963 0 0 1 .066-.625l.016-.074h.076c1.029-.018 2.047-.028 3.025-.028s2 .01 3.024.028h.078l.015.076a2.51 2.51 0 0 1 .052.465zm-3.439-.242c1.067 0 2.163.015 3.261.046l.006-.081a2.165 2.165 0 0 0 -.035-.346c-1-.017-1.991-.026-2.942-.026s-1.943.009-2.945.026a2.9 2.9 0 0 0 -.044.413c.909-.021 1.809-.026 2.701-.026zm-2.829-.728v-.146c-.02-.4.341-.636 1.072-.681.5-.031 1.184-.047 2.021-.047h1.249a4.771 4.771 0 0 1 1.259.148c.424.123.629.34.609.641l-.006.092h-.092c-1.019-.018-2.027-.028-3-.028s-1.994.01-3.022.028zm4.339-.695c-.181.012-.538.012-1.246.012-.833 0-1.509.016-2.009.048-.573.035-.873.183-.892.439 1-.017 1.98-.025 2.927-.025s1.911.008 2.9.025c-.02-.1-.111-.249-.468-.353a4.364 4.364 0 0 0 -1.131-.139h-.078zm3.667-.641c-.1 0-.229 0-.381-.007-1.6-.059-3.12-.089-4.506-.089s-2.907.03-4.519.089c-.153 0-.28.007-.381.007-.413 0-.688-.038-.688-.227 0-.167.18-.286 1.061-.322.853-.037 2.233-.062 4.1-.075v-.271c-.392 0-.951.01-1.7.025-.783.016-1.39.023-1.8.023-.443 0-.739-.039-.739-.233 0-.163.181-.278 1.062-.315.688-.027 1.759-.041 3.183-.042v-.205c-1.835.042-2.732.06-2.9.06-1.107 0-1.645-.236-1.645-.722s.266-.556.424-.556.36.094.41.546c.01.119.272.19.7.19.367 0 .887-.007 1.547-.021s1.151-.019 1.468-.02v-.359c.065-.378.266-.453.424-.453s.345.075.409.437v.375q2.018.02 2.953.02c.67 0 .742-.142.748-.186.05-.365.187-.55.41-.55.158 0 .424.073.424.563s-.563.722-1.721.722c-.465 0-1.411-.011-2.814-.033v.192c1.424 0 2.495.015 3.183.042.882.037 1.062.152 1.062.315 0 .194-.295.233-.738.233q-.291 0-.784-.013-.591-.021-.778-.021-.858-.012-1.945-.014v.27c.917.006 2.261.031 4.1.076.883.036 1.063.155 1.063.322-.003.19-.277.228-.69.228zm-4.887-.288c1.388 0 2.907.03 4.512.09a2.862 2.862 0 0 0 .852-.039 2.4 2.4 0 0 0 -.86-.121c-1.9-.046-3.273-.071-4.19-.075h-.1v-.653h.1q1.147 0 2.042.014.189 0 .783.021.489.014.778.013a1.622 1.622 0 0 0 .527-.051 2.681 2.681 0 0 0 -.859-.115c-.7-.027-1.8-.041-3.271-.041h-.1v-.578h.1c1.455.022 2.434.034 2.908.034.7 0 1.529-.093 1.529-.531 0-.371-.162-.371-.232-.371-.111 0-.185.129-.22.384-.044.315-.556.351-.938.351q-.959 0-3.05-.02h-.1v-.549c-.047-.262-.172-.262-.218-.262-.086 0-.19.032-.234.279v.533h-.1c-.311 0-.83.007-1.56.02-.661.014-1.183.021-1.551.021s-.86-.038-.889-.363c-.041-.373-.175-.373-.219-.373-.07 0-.232 0-.232.365 0 .438.79.53 1.453.53.169 0 1.121-.02 3-.061h.1v.592h-.1c-1.47 0-2.57.014-3.271.041a2.509 2.509 0 0 0 -.851.118 1.722 1.722 0 0 0 .52.048c.412 0 1.017-.008 1.8-.024.817-.016 1.407-.024 1.8-.024h.1v.652h-.1c-1.917.013-3.327.038-4.191.075a2.318 2.318 0 0 0 -.854.123 3.008 3.008 0 0 0 .847.037c1.629-.059 3.152-.089 4.541-.089z"/></g><g fill="#df381c"><path d="m215.571 194.835a2.827 2.827 0 0 0 -.076.64 2.692 2.692 0 0 0 1.738 2.386 14.38 14.38 0 0 0 4.333 1.155q.856.124.857.276c0 .082-.1.124-.3.124a6.831 6.831 0 0 1 -.793-.076q-6.5-.907-6.5-3.755a3.02 3.02 0 0 1 .1-.75l-.806.028q-1.41.048-1.574.832a18.216 18.216 0 0 0 -.214 3.328q0 .5-.29.5t-.328-.4c-.008-.051-.012-.227-.012-.53a19.581 19.581 0 0 1 .189-2.881 1.1 1.1 0 0 1 .63-.853 4.047 4.047 0 0 1 1.6-.323q1.059-.05 2.658-.049-.189 0 3.678.069h.088a.75.75 0 0 0 .793-.385 5.52 5.52 0 0 0 .1-.674q-2.3-.075-4.609-.076-.77 0-2.324.038t-2.337.038q-.693 0-.693-.151t.907-.206q1.7-.076 4.547-.076 2.28 0 4.56.076c.033-.376.168-.565.4-.565.184 0 .277.168.277.5 0 .042-.055.351-.164.929a.944.944 0 0 1 -.365.639 2.035 2.035 0 0 1 -1.134.234q-.819 0-2.468-.02t-2.468-.022z"/><path d="m212.044 199.621c-.165 0-.372-.085-.423-.489a4.993 4.993 0 0 1 -.013-.542 19.8 19.8 0 0 1 .19-2.9 1.191 1.191 0 0 1 .681-.923 4.147 4.147 0 0 1 1.639-.334c.7-.032 1.594-.048 2.662-.048.073 0 1.311.026 3.68.068h.086c.376.005.6-.1.706-.328a4.816 4.816 0 0 0 .08-.542c-1.5-.048-3.015-.073-4.5-.073-.5 0-1.257.012-2.322.038s-1.832.038-2.339.038c-.56 0-.789-.071-.789-.247 0-.155.17-.265 1-.3 1.124-.051 2.656-.076 4.551-.076 1.491 0 3 .025 4.475.073.066-.462.3-.561.488-.561.17 0 .373.1.373.6 0 .024 0 .07-.166.947a1.035 1.035 0 0 1 -.406.7 2.094 2.094 0 0 1 -1.187.25q-.819 0-2.469-.02-1.573-.021-2.391-.021a2.728 2.728 0 0 0 -.057.544 2.615 2.615 0 0 0 1.686 2.3 14.36 14.36 0 0 0 4.3 1.145c.782.114.939.226.939.371s-.134.22-.4.22a6.714 6.714 0 0 1 -.806-.077c-4.368-.61-6.582-1.9-6.582-3.85a3.058 3.058 0 0 1 .074-.65l-.68.024c-.887.03-1.386.284-1.484.755a18.212 18.212 0 0 0 -.212 3.309c.002.496-.208.599-.384.599zm4.736-5.053v.012c-1.065 0-1.958.017-2.653.049a3.99 3.99 0 0 0 -1.561.312 1 1 0 0 0 -.579.782 19.7 19.7 0 0 0 -.187 2.867c0 .388.007.489.011.515.041.325.18.325.233.325s.194 0 .194-.407a18.437 18.437 0 0 1 .216-3.348c.119-.569.679-.874 1.665-.908l.934-.032-.032.124a2.97 2.97 0 0 0 -.1.726c0 1.834 2.158 3.065 6.416 3.66a6.9 6.9 0 0 0 .78.075.484.484 0 0 0 .194-.026 2.26 2.26 0 0 0 -.762-.183 14.558 14.558 0 0 1 -4.362-1.164 2.794 2.794 0 0 1 -1.791-2.472 3.013 3.013 0 0 1 .078-.661l.018-.074h.076q.819 0 2.47.02t2.467.02a1.952 1.952 0 0 0 1.078-.216.856.856 0 0 0 .327-.579c.132-.7.161-.881.162-.912 0-.4-.137-.4-.181-.4-.066 0-.265 0-.308.477l-.008.091h-.091c-1.5-.05-3.037-.075-4.556-.075-1.893 0-3.421.025-4.543.075a2.421 2.421 0 0 0 -.79.11 1.718 1.718 0 0 0 .572.057c.505 0 1.269-.013 2.334-.038s1.828-.039 2.327-.039c1.523 0 3.075.026 4.612.077h.105l-.012.1a3.387 3.387 0 0 1 -.11.7.822.822 0 0 1 -.882.441h-.086l-2.767-.05c-.536-.01-.788-.015-.908-.031z"/></g><g fill="#004272"><g><path d="m151.748 102.355a.307.307 0 0 0 -.025.047c-.079.209-.812 2.285-.831 2.386 0 .026 0 .035.079.035h1.407a.3.3 0 0 0 .124-.023c-.031-.195-.64-2.11-.738-2.4a.348.348 0 0 0 -.016-.045z"/><path d="m159.6 104.163c0 2.154 1.019 3.118 2.03 3.118 1.147 0 1.832-1.078 1.832-2.883 0-1.091-.254-2.921-1.954-2.921-1.719 0-1.908 1.878-1.908 2.686z"/><path d="m201.35 99.916c.022-34.71-29.289-63.607-63.97-63.052-34.257 0-63.075 28.761-62.916 63.052-.307 34.634 28.261 63.552 62.915 63.664 34.859.553 64.542-28.696 63.971-63.664zm-81.214-42.721c.312-.369.613-.746.909-1.127a32.355 32.355 0 0 0 3.743-5.676 9.888 9.888 0 0 0 1.188-6.1 3.8 3.8 0 0 0 -3.237-3.019 57.489 57.489 0 0 1 14.64-1.636c1.727 0 3.439.077 5.134.227l-.1.032a28.911 28.911 0 0 0 -8.52 4.5 50.618 50.618 0 0 0 -4.623 3.933c-.931.892-2.492 2.347-3.417 3.244-1.69 1.639-6.649 6.719-6.649 6.719zm-16.73 63.839a20.4 20.4 0 0 1 -14.928-.323 20.068 20.068 0 0 1 -11.287-15.5c-.062-.71-.115-1.424-.151-2.141a17.8 17.8 0 0 1 .074-2.038c-.049.015-.091.036-.137.054-.006-.388-.012-.775-.01-1.165a59.836 59.836 0 0 1 23.422-47.793c.077-.047.153-.1.23-.144 2.654-1.581 8.563-5.1 11.143-3.036 1.162.93 1.245 2.67 1.3 3.775a11.048 11.048 0 0 1 -2.476 6.959 76.747 76.747 0 0 1 -11.578 12.418c-6.807 5.969-7.472 6.446-10.015 9.153-2.755 2.932-5.131 6.888-5.165 11.055-.036 4.415 3.021 7.892 6.714 9.939a15.816 15.816 0 0 0 10.36 1.963c6.844-1.3 10.3-9.9 13.152-15.386 6.339-12.18 13.8-23.924 23.529-33.61a20.613 20.613 0 0 1 7.077-5.1 11.786 11.786 0 0 1 11.4 1.953 8.721 8.721 0 0 1 3.34 7.733 10.015 10.015 0 0 1 -2.53 5.093c-7.492 8.271-22.318 22.068-26.026 25.617a125.567 125.567 0 0 0 -9.214 9.683c-10.461 12.263-11.145 17.959-18.224 20.841zm58.17-13.319a3.232 3.232 0 0 1 -3.149-3.374 3.191 3.191 0 0 1 3.206-3.317 2.831 2.831 0 0 1 2.258 1.043 3.666 3.666 0 0 1 .787 2.3 3.159 3.159 0 0 1 -3.102 3.348zm35.1-5.571c0 .072 0 .144-.006.216-.006.22-.013.438-.021.656-.08 1.5-.234 2.976-.427 4.446v.015c-.965 5.284-4.276 10.473-8.147 14.672-2.448 2.654-7.316 4.3-11.2 3.894-4.227-.439-6.854-5.853-7.63-9.5-1.038-4.869-.666-9.032-2.864-14.126a10.957 10.957 0 0 0 -1.877-2.788c-2.638-2.7-5.523-3.485-9.622-2.815a23.459 23.459 0 0 0 -11.072 5.049c-1.609 1.571-3.578 3.51-3.452 5.95.117 2.276 1.981 3.422 4.457 5.833 1.448 1.409 7.182 6.992 8.836 13.66.823 3.315.445 6.128-.186 10.831-.372 2.771-1.243 5.477-1.415 8.273a10.218 10.218 0 0 0 1.632 6.782 6.328 6.328 0 0 0 4.567 2.458 60.353 60.353 0 0 1 -40.946.688 7.907 7.907 0 0 0 3.646-1.385 9.864 9.864 0 0 0 3.184-4.455c1.56-3.955 1.536-8.328 1.592-12.579.032-2.422.224-4.84.237-7.261.061-11.8.891-26.036 10.026-34.645a26.891 26.891 0 0 1 9.082-5.619c3.62-1.342 7.408-1.921 10.967-3.511a53.941 53.941 0 0 0 9.307-5.052 31.176 31.176 0 0 0 11.974-15.7 30.4 30.4 0 0 0 1.231-5.667 13.524 13.524 0 0 0 .018-3.814 59.489 59.489 0 0 1 17.989 37.654c.089 2.247.189 5.111.123 7.84zm-43.89 3.28c-.049-.109-.076-.15-.162-.157s-.27-.01-.465-.01h-.948a2.678 2.678 0 0 0 -.438.018c-.06.014-.107.024-.168.183-.113.263-.4 1.139-.468 1.384a.85.85 0 0 0 -.054.257c0 .118.035.133.256.173.154.027.288.051.288.184 0 .063-.029.137-.166.137h-1.561c-.144 0-.175-.074-.175-.137a.206.206 0 0 1 .146-.184.665.665 0 0 1 .13-.015.985.985 0 0 0 .178-.022c.29-.072.437-.473.516-.688.914-2.466 1.148-3.1 1.351-3.623l.441-1.135c.046-.11.106-.284.146-.4l.041-.117a.42.42 0 0 1 .435-.232c.179 0 .223.05.3.249.107.266.351.93.591 1.616 0 .009.025.068.06.167.958 2.716 1.3 3.584 1.421 3.834.166.341.3.345.637.354a.174.174 0 0 1 .174.185.139.139 0 0 1 -.156.146h-2.12c-.055 0-.222 0-.222-.137s.194-.169.3-.184c.179-.028.282-.081.282-.144a12.287 12.287 0 0 0 -.587-1.702z"/><path d="m151.75 102.234c-.047 0-.089.042-.126.128-.008.022-.838 2.342-.838 2.42 0 .147.125.147.185.147h1.407c.023 0 .231 0 .231-.118 0-.142-.708-2.341-.744-2.447-.015-.045-.043-.13-.115-.13zm.628 2.642h-1.407c-.094 0-.132-.019-.132-.094 0-.056.76-2.2.835-2.4.028-.066.057-.094.075-.094s.047.037.066.094c.075.225.741 2.308.741 2.429 0 .046-.113.065-.178.065z"/><path d="m153.1 107.325c-.131.018-.253.047-.253.131s.113.084.169.084h2.12c.038 0 .1-.009.1-.094a.121.121 0 0 0 -.122-.131c-.347-.009-.506-.019-.685-.384-.3-.629-1.454-3.931-1.482-4.006-.253-.723-.488-1.36-.591-1.614-.075-.187-.1-.216-.253-.216-.188 0-.319.047-.385.2-.028.076-.122.357-.188.517l-.44 1.134c-.207.535-.451 1.192-1.351 3.622-.1.281-.253.647-.554.722-.112.028-.244.019-.309.038a.153.153 0 0 0 -.1.131c0 .066.047.084.123.084h1.566c.037 0 .113 0 .113-.084s-.085-.1-.244-.131c-.207-.038-.3-.057-.3-.226a.886.886 0 0 1 .057-.272c.075-.253.356-1.125.469-1.388.065-.169.122-.2.206-.216a2.7 2.7 0 0 1 .45-.019h.948c.2 0 .366 0 .469.01.122.009.16.084.207.188a12.184 12.184 0 0 1 .591 1.726c-.002.128-.209.175-.331.194zm-.214-1.945c-.044-.1-.094-.207-.25-.219-.106-.01-.276-.01-.474-.01h-.948a2.686 2.686 0 0 0 -.461.02c-.108.024-.175.069-.244.247-.118.276-.4 1.163-.471 1.392a.936.936 0 0 0 -.059.289c0 .215.137.24.344.278.161.029.2.044.2.079s0 .031-.06.031h-1.563c-.068 0-.068-.015-.068-.031a.1.1 0 0 1 .065-.08.553.553 0 0 1 .111-.013 1.151 1.151 0 0 0 .2-.024c.345-.087.5-.522.591-.756.913-2.465 1.147-3.094 1.35-3.62l.441-1.134c.046-.113.105-.281.147-.4.018-.051.032-.092.04-.112.051-.117.149-.165.336-.165.12 0 .133 0 .2.182.107.264.35.927.59 1.612 0 .01.025.069.059.167.771 2.184 1.25 3.477 1.426 3.844.194.4.385.4.732.414a.07.07 0 0 1 .069.079c0 .025 0 .04-.05.04h-2.12c-.054 0-.116 0-.116-.031s.07-.059.209-.079c.247-.039.373-.123.373-.249a11.95 11.95 0 0 0 -.599-1.751z"/><path d="m161.633 101.077a3.3 3.3 0 1 0 2.992 3.293 3.074 3.074 0 0 0 -2.992-3.293zm2.939 3.293a3.056 3.056 0 0 1 -3 3.239 3.127 3.127 0 0 1 -3.042-3.268 3.087 3.087 0 0 1 3.1-3.211 2.993 2.993 0 0 1 2.942 3.24z"/><path d="m159.5 104.163a4.614 4.614 0 0 0 .478 2.156 1.834 1.834 0 0 0 1.658 1.068c1.214 0 1.938-1.117 1.938-2.989 0-1.131-.267-3.027-2.06-3.027-1.821 0-2.014 1.953-2.014 2.792zm4.021.235c0 1.585-.544 2.936-1.885 2.936-1.52 0-2.083-1.717-2.083-3.171 0-1.135.347-2.739 1.961-2.739 1.695 0 2.004 1.776 2.004 2.976z"/></g><g><path d="m173.627 107.54a.089.089 0 0 1 -.084-.084c0-.216.7-.131.7-.281a.382.382 0 0 0 -.084-.122c-1.07-1.323-2-2.374-2.223-2.589-.066-.066-.094-.085-.15-.085h-.076a.084.084 0 0 0 -.094.094v1.144c0 1.548 0 1.6.47 1.708.093.018.159.056.159.131s-.141.084-.272.084h-1.829a.074.074 0 0 1 -.085-.084c0-.1.1-.122.16-.131.366-.066.45-.132.45-1.032 0-.45.009-1.2.009-1.661 0-.506-.009-1.52-.009-2.232 0-.807-.131-.892-.441-.976-.075-.019-.15-.047-.15-.132s.066-.093.131-.093h1.933c.094 0 .169.009.169.065s-.066.141-.207.178c-.488.132-.488.273-.488 2.515 0 .075.01.131.076.131.046 0 .084-.037.131-.084.873-.826 1.285-1.267 1.857-1.886.188-.2.3-.3.3-.422 0-.254-.563-.234-.563-.394 0-.047.037-.1.131-.1h1.773c.057 0 .131.028.131.1s-.093.112-.159.122c-.291.047-.366.066-.863.487-.619.535-1.126 1.08-1.726 1.7-.047.056-.122.122-.122.169 0 .018.019.046.1.15.479.591 2.223 2.636 2.693 3.076a1.064 1.064 0 0 0 .525.282c.169.066.244.113.244.169 0 .075-.1.084-.16.084z"/><path d="m175.991 107.593h-2.364a.142.142 0 0 1 -.137-.137c0-.164.236-.2.445-.225a.862.862 0 0 0 .255-.056c-.015-.023-.055-.071-.069-.088-1.022-1.264-1.981-2.357-2.219-2.585-.064-.063-.079-.07-.113-.07h-.076c-.031 0-.04.009-.04.041v1.144c0 1.553.008 1.555.428 1.656.133.027.2.088.2.183 0 .137-.18.137-.325.137h-1.829a.126.126 0 0 1 -.138-.137c0-.149.148-.174.2-.184.32-.057.406-.073.406-.979 0-.224 0-.523 0-.823s.005-.607.005-.837 0-.57 0-.937c0-.435 0-.91 0-1.3 0-.814-.135-.851-.4-.924-.056-.014-.189-.047-.189-.183 0-.1.062-.146.184-.146h1.933c.072 0 .222 0 .222.118 0 .079-.077.185-.246.23-.436.117-.448.186-.448 2.463 0 .078.011.078.022.078s.056-.032.093-.069c.866-.819 1.27-1.249 1.856-1.884l.055-.057c.144-.15.231-.241.231-.329s-.155-.153-.293-.2-.27-.088-.27-.2a.166.166 0 0 1 .185-.156h1.773a.167.167 0 0 1 .185.156c0 .093-.075.156-.205.175-.275.044-.341.055-.837.475-.523.452-.975.921-1.454 1.418l-.268.277-.037.042a.367.367 0 0 0 -.07.09c.006.011.068.087.091.116.507.626 2.23 2.642 2.688 3.072a.8.8 0 0 0 .376.225c.039.013.082.027.131.045.181.071.279.126.279.219-.007.053-.024.146-.216.146zm-4.278-3.267h.076a.242.242 0 0 1 .187.1c.234.224 1.163 1.277 2.227 2.593.072.086.1.121.1.156 0 .114-.162.136-.35.162-.14.019-.353.048-.353.119a.039.039 0 0 0 .031.031h2.364c.051 0 .107-.01.107-.031s-.021-.046-.211-.12l-.126-.043a.884.884 0 0 1 -.416-.249c-.461-.432-2.189-2.455-2.7-3.082-.092-.112-.115-.145-.115-.184a.277.277 0 0 1 .1-.161l.037-.041.27-.28c.481-.5.935-.969 1.462-1.425.5-.425.583-.45.89-.5.043-.006.114-.023.114-.069s-.075-.05-.078-.05h-1.773c-.058 0-.078.027-.078.05s.123.072.2.1c.163.053.367.119.367.3 0 .131-.1.234-.261.4l-.054.056c-.588.636-.993 1.067-1.859 1.887a.248.248 0 0 1 -.168.1c-.129 0-.129-.134-.129-.184 0-2.241 0-2.424.528-2.566.118-.031.167-.1.167-.127a.317.317 0 0 0 -.116-.012h-1.933c-.078 0-.078.015-.078.04s.018.057.11.08c.342.094.481.213.481 1.027v1.3.937s0 .535 0 .838 0 .6 0 .822c0 .91-.087 1.011-.494 1.084-.087.014-.116.034-.116.079 0 .027 0 .031.032.031h1.829c.06 0 .219 0 .219-.031 0-.015 0-.055-.117-.079-.512-.123-.512-.215-.512-1.76v-1.144a.136.136 0 0 1 .139-.154z"/></g><g><path d="m180.537 107.54c-.066 0-.15-.009-.15-.094s.084-.1.187-.121c.535-.113.544-.329.554-.863 0-.244.009-.517.009-1.089a3.106 3.106 0 0 0 -.075-1.1 3.569 3.569 0 0 0 -.413-.648c-.487-.7-.816-1.172-1.144-1.613-.282-.375-.413-.525-.751-.61-.1-.028-.225-.028-.225-.122 0-.065.066-.084.122-.084h2.186c.075 0 .122.009.122.075 0 .028-.01.084-.1.122s-.262.056-.347.084a.159.159 0 0 0 -.112.141 1.076 1.076 0 0 0 .188.412c.1.16.731 1.042 1.229 1.727.046.065.075.075.093.075.047 0 .075-.028.122-.1.479-.695.619-.9 1.3-1.942a.409.409 0 0 0 .066-.2c0-.1-.122-.16-.234-.169l-.245-.019c-.074-.009-.122-.047-.122-.1s.085-.1.16-.1h1.614c.065 0 .093.019.093.084 0 .113-.075.131-.168.131-.357.01-.516.188-.741.479-.132.169-1.539 2.026-1.633 2.3a8.506 8.506 0 0 0 -.047 1.37c0 .31 0 .619.019.938.028.526.066.713.525.816.056.01.2.047.2.131a.1.1 0 0 1 -.1.094z"/><path d="m182.713 107.593h-2.176c-.169 0-.2-.079-.2-.146 0-.132.156-.161.231-.175.5-.1.5-.283.511-.811 0-.1 0-.2 0-.319 0-.187.006-.423.006-.769a3.058 3.058 0 0 0 -.072-1.08 1.843 1.843 0 0 0 -.246-.4c-.047-.066-.1-.141-.16-.23-.509-.732-.825-1.183-1.144-1.611-.286-.381-.4-.511-.721-.59-.022-.006-.043-.011-.065-.015-.084-.018-.2-.042-.2-.159 0-.083.069-.137.175-.137h2.186c.052 0 .175 0 .175.128a.184.184 0 0 1 -.137.171 1.071 1.071 0 0 1 -.211.054 1.358 1.358 0 0 0 -.139.032c-.032.014-.076.043-.076.09a.966.966 0 0 0 .18.384c.1.152.717 1.022 1.227 1.724.034.048.05.052.05.052.017 0 .032 0 .077-.077.478-.694.617-.9 1.3-1.943a.362.362 0 0 0 .057-.168c0-.066-.1-.109-.186-.116l-.243-.019c-.107-.013-.172-.073-.172-.156s.108-.156.213-.156h1.614a.127.127 0 0 1 .147.137c0 .185-.167.185-.222.185-.336.009-.484.179-.7.457s-1.538 2.033-1.624 2.284a9.143 9.143 0 0 0 -.045 1.352c0 .3 0 .617.019.935.027.507.056.671.484.767.037.006.238.047.238.184a.148.148 0 0 1 -.151.141zm-4.062-6.341c-.021 0-.069 0-.069.031s.023.035.116.055a.591.591 0 0 1 .07.016c.363.09.5.258.779.629.32.43.637.881 1.146 1.615.061.088.113.163.16.228a1.88 1.88 0 0 1 .259.431 3.177 3.177 0 0 1 .078 1.116c0 .347 0 .583-.006.77v.319c-.009.528-.014.792-.6.915-.129.024-.145.05-.145.07s0 .04.1.04h2.176c.024 0 .05-.013.05-.04s-.071-.066-.153-.079c-.508-.114-.541-.348-.569-.866-.019-.32-.019-.636-.019-.941a7.713 7.713 0 0 1 .05-1.386c.1-.3 1.626-2.3 1.641-2.315.234-.3.4-.489.781-.5.106 0 .117-.025.117-.078 0-.021 0-.026 0-.026a.073.073 0 0 0 -.036-.005h-1.614c-.054 0-.106.025-.106.05s.052.047.075.05l.241.019c.137.011.284.085.284.222a.468.468 0 0 1 -.074.226c-.689 1.047-.828 1.251-1.3 1.943-.042.068-.085.126-.166.126-.046 0-.089-.03-.137-.1-.519-.716-1.129-1.572-1.23-1.729a1.052 1.052 0 0 1 -.2-.441.208.208 0 0 1 .144-.19 1.425 1.425 0 0 1 .157-.036 1.134 1.134 0 0 0 .19-.048c.072-.029.072-.062.072-.073v-.014s-.015-.008-.067-.008z"/></g><g><path d="m193.675 101.2c.169 0 .272.056.272.122s-.159.112-.216.121c-.4.085-.422.263-.422.77 0 .366.009 1.3.009 1.9a5.127 5.127 0 0 1 -.243 1.961 2.493 2.493 0 0 1 -2.393 1.594 2.353 2.353 0 0 1 -2.1-1.163 3.873 3.873 0 0 1 -.45-2.073c0-1.1.037-1.876.037-2.27 0-.62-.094-.666-.525-.742-.057-.009-.15-.028-.15-.112s.056-.1.122-.1h1.96c.1 0 .2.047.2.112s-.131.066-.272.1c-.309.085-.347.282-.375.638-.028.376-.038.891-.038 1.417a12.081 12.081 0 0 0 .141 2.392 1.624 1.624 0 0 0 1.576 1.492 1.3 1.3 0 0 0 1.285-.882 5.29 5.29 0 0 0 .291-1.651c.01-.469.01-.929.01-.947 0-.179 0-.385-.019-1.689 0-.3-.009-.6-.282-.713a1.178 1.178 0 0 0 -.272-.057c-.065-.009-.112-.028-.112-.093 0-.094.094-.122.216-.122z"/><path d="m190.682 107.715a2.415 2.415 0 0 1 -2.147-1.188 3.953 3.953 0 0 1 -.457-2.1c0-.687.015-1.255.025-1.67.007-.252.012-.453.012-.6 0-.6-.083-.619-.481-.689-.048-.008-.194-.033-.194-.165a.155.155 0 0 1 .174-.156h1.961c.143 0 .251.071.251.165s-.1.115-.2.131c-.035.007-.075.013-.115.024-.268.073-.307.228-.336.591-.025.327-.037.8-.037 1.412a12.246 12.246 0 0 0 .139 2.381 1.594 1.594 0 0 0 1.525 1.45 1.247 1.247 0 0 0 1.235-.849 5.372 5.372 0 0 0 .287-1.633c.009-.455.01-.9.01-.945 0-.181 0-.385-.019-1.689 0-.318-.019-.569-.249-.664a.924.924 0 0 0 -.212-.046l-.048-.007c-.043-.006-.157-.023-.157-.146 0-.08.046-.175.269-.175h1.754c.195 0 .325.07.325.175s-.182.161-.26.174c-.361.076-.378.222-.378.717v.738c0 .386.005.826.005 1.157a5.189 5.189 0 0 1 -.247 1.98 2.54 2.54 0 0 1 -2.435 1.627zm-3.068-6.463c-.068 0-.068.034-.068.05s.018.045.106.06c.469.082.569.159.569.794 0 .147 0 .35-.011.6-.011.414-.026.981-.026 1.667a3.852 3.852 0 0 0 .443 2.046 2.311 2.311 0 0 0 2.055 1.137 2.438 2.438 0 0 0 2.343-1.561 5.11 5.11 0 0 0 .24-1.941c0-.331 0-.77-.005-1.157 0-.305 0-.577 0-.738 0-.5.019-.728.464-.822a.289.289 0 0 0 .174-.069c0-.02-.065-.069-.219-.069h-1.754c-.163 0-.163.05-.163.069s0 .031.067.041l.047.007a.994.994 0 0 1 .239.053c.313.129.313.48.313.761.019 1.3.019 1.509.019 1.69 0 .049 0 .492-.01.948a5.276 5.276 0 0 1 -.294 1.67 1.361 1.361 0 0 1 -1.334.915 1.673 1.673 0 0 1 -1.629-1.534 12.3 12.3 0 0 1 -.142-2.4c0-.612.013-1.09.038-1.421.029-.364.071-.591.414-.685a1.151 1.151 0 0 1 .125-.025.329.329 0 0 0 .109-.029c0-.021-.063-.057-.145-.057z"/></g></g></g></svg>