<svg viewBox="0 0 243.8 243.9" xmlns="http://www.w3.org/2000/svg"><path d="m33.1 217.9c.9-1.4 2.2-3.1 2.9-3.1s4.2 2.7 4.2 3.8-.7 1-2.5 1h-36.7c-.6 0-1-.2-1-.9s.4-.9 1-.9h17.6v-3.6h-11.6c-.6 0-1-.2-1-.9s.4-.9 1-.9h11.5c0-1.1 0-2.3 0-3.3h-14c-.6 0-1-.2-1-.9s.4-.9 1-.9h13.9c0-1.5-.1-2.8-.2-3.7 0-.4.2-.6.6-.6.8 0 5.3.1 5.3 1.3s-1 1.4-2.4 1.7v1.4h8.7c.9-1.4 2.1-2.9 2.7-2.9s4.1 2.7 4.1 3.7-.8 1-2.4 1h-13.1v3.3h7.2c.9-1.3 2-2.8 2.7-2.8s4 2.6 4 3.6-.7 1-2.3 1h-11.4v3.6h11.4zm-6 5c.7-.9 1.8-2.1 2.1-2.1 1.1 0 4.1 2.6 4.1 3.4s-1 1.2-2.1 1.5v14.3c0 2.7-2.5 3.8-4.2 3.8s-.7-1.7-3.7-2.5c-1-.3-.8-1.5 0-1.5s2.2.3 3 .3c1.2 0 1.6-.4 1.7-1.5 0-.8 0-1.9 0-3.1h-15.6v7c0 1-.6 1.4-2 1.4s-1.3-.5-1.3-1.3c0-3.6.4-16.1-.1-20.8 0-.3.3-.6.6-.6.7 0 2.8.8 4 1.6h13.4zm-13.9 1.8c-.2 0-.4 0-.6.1v3.5h15.6v-3.6h-14.9zm14.9 9v-3.6h-15.6v3.6z" fill="#004272"/><path d="m79.5 212.2c.8-.9 1.7-1.9 2.2-1.9.9 0 3.6 2.3 3.6 3.3s-.9 1.1-1.8 1.5c-.3 1.8-.7 3.6-1.2 5.3 1.3 10 5.5 17.1 14.1 19.5 1.4.5 1 1 0 1.4-1.2.4-1.8.9-2.2 1.4-.5.6-.9.9-2.1.4-6.7-3.3-10-10-11.2-19-1.2 2.9-2.7 5.6-4.6 8-4.1 5.3-11.5 9.8-20.2 11.8-1.4.3-1.7-1-.5-1.5 7.7-2.6 14.3-6.8 17.9-11.4 3.5-4.5 5.7-9.9 6.4-17h-9.6c-2.7 5.8-6.5 11.8-12.3 16.7-.9.9-2 0-1.2-.9 6.6-7.6 11.2-16.2 12.9-25.8 0-.5.3-.7.8-.6 1.6.3 5 1.4 5.1 2.3 0 .8-1.1 1.1-2.4 1.1-.6 1.8-1.3 3.6-2.1 5.4h8.2z" fill="#004272"/><path d="m144.2 208c1-1.5 2.3-3.2 3.1-3.2s4.4 2.8 4.4 4-.8 1.1-2.6 1.1h-10.5c1.4.5 2.8 1.4 2.9 2 0 .7-.6.9-2 .9-1 1.4-2.1 2.6-3.4 3.5-.1 0-.3.2-.4.2h9.4c.7-.9 1.6-1.8 1.9-1.8 1.1 0 4.1 2.6 4.1 3.4s-1 1.2-2 1.5c-.1 5.1 0 13.5 0 20.3 0 2.8-2.3 3.9-4.1 3.9s-.7-1.8-3.4-2.6c-.9-.3-.8-1.4 0-1.4s1.9.2 2.7.2 1.5-.4 1.6-1.6c.1-2.3 0-6.8 0-10v-10h-10.9c1.1.2 2.7.6 2.7 1.2s-.6.8-1.5.9v2.7c0 .7.3.6 2.6.6s2.4-.3 2.8-.6c.5-.5.7-1.3 1-2.1.3-.9 1.4-.8 1.4.3 0 2.1.6 2.1.6 2.9 0 1.4-1.9 2-5.9 2s-5.3 0-5.3-2.2 0-4.2 0-5c0-.4 0-.6.2-.7h-5.6c1.4.2 2.7.7 2.7 1.3s-.5.9-1.7 1c-.5 1.6-1.3 3.1-2.4 4.1-1.4 1.4-3.4 2.6-6.8 3.2-1 .3-1.7-.9-.5-1.5 2.5-.9 3.9-1.9 4.9-3 .9-1 1.6-2.5 1.9-4.5 0-.4 0-.6.3-.8h-6.8c-.3.2-.8.3-1.2.4-.1 2.2-.1 9.3-.1 10.8v13c0 1-.6 1.5-2 1.5s-1.2-.5-1.2-1.3c0-4.4.5-21.4-.2-26.9 0-.3.3-.6.6-.6.6 0 2.4.7 3.6 1.4h16c-.3-.2-.4-.6-.1-1.2.8-1.6 1.5-3.2 1.9-5.2 0 0 0-.2 0-.3h-24.2c-.6 0-1-.2-1-.9s.4-.9 1-.9h17.4c0-1.5 0-3.1-.1-4.2 0-.5.2-.7.6-.7.8 0 4.9.1 4.9 1.3s-.9 1.3-2.3 1.5v2.1h11.3zm-20.3 5.7c-.3-.7-.8-1.5-1.2-2.3-.5-1 0-2 1.4-1.4 2.1.9 4.2 2.3 4 4.1-.1 1.2-1 2-2.4 1.8-1.1 0-1.4-1.3-1.8-2.4zm11.6 15.1c.5-.8 1.3-1.6 1.7-1.6.8 0 3.1 1.8 3.1 2.6s-.5.8-1 1.1v6.8s-.6 1.7-1.8 1.7-1.3-.8-1.3-1.5v-.6h-8.6v1.4c0 .9-.7 1.4-1.9 1.4s-1.2-.4-1.2-1.2c0-2.6.2-7.6-.2-11.1 0-.4.3-.6.7-.5.9 0 2.8.9 3.7 1.6h6.9zm.6 6.6c0-1.6 0-3.5 0-4.8h-8.6v3.6 1.2h8.7z" fill="#004272"/><path d="m201.6 209.5c1-1.5 2.3-3.2 3-3.2s4.4 2.8 4.4 4-.8 1.1-2.6 1.1h-30.3c0 3.6 0 6.8-.1 10.8-.2 6.7-1.3 14.8-7.7 20-1 .9-2.2 0-1.3-1.1 3.9-5.2 5.6-10.4 5.7-20 0-3.9-.1-8.3-.4-12.4 0-.7.2-.9.8-.9.8.1 2.7 1 3.8 1.8h10.5c0-1.8 0-4.1-.1-5.5 0-.5.2-.7.6-.7.8 0 5.3.1 5.3 1.4s-1 1.3-2.4 1.6v3.2h10.9zm-1.8 9.7c1-1.5 2.3-3.2 3.1-3.2s4.2 2.8 4.2 4-.9 1.1-2.5 1.1h-12.9v7.4h6.7c.7-.9 1.5-1.8 2-1.8.9 0 3.7 2 3.7 3s-.8 1-1.6 1.4c-.1 3.2 0 9.4 0 11s-.7 1.7-2 1.7-1.4-.8-1.4-1.5v-1.8h-16.3v2.1c0 .9-.7 1.4-2.1 1.4s-1.3-.5-1.3-1.2c0-3 .3-11.2-.2-15.3 0-.4.3-.6.6-.6.8 0 2.8.8 4 1.6h4.7c0-5 0-12.7-.4-15.5 0-.4.2-.6.6-.6.8 0 5.2.1 5.2 1.3s-1 1.4-2.4 1.7v4h8.1zm-.7 19.4c0-2.9 0-6.6 0-8.4h-15.8c-.2 0-.3 0-.5 0v5.5 2.8h16.3z" fill="#004272"/><path d="m241.4 243.3h-17.7c-1.3 0-2.4-1.1-2.4-2.4v-17.7c0-1.3 1.1-2.4 2.4-2.4h17.7c1.3 0 2.4 1.1 2.4 2.4v17.7c0 1.3-1.1 2.4-2.4 2.4zm-17.7-21.3c-.7 0-1.2.6-1.2 1.2v17.7c0 .7.6 1.2 1.2 1.2h17.7c.7 0 1.2-.6 1.2-1.2v-17.7c0-.7-.6-1.2-1.2-1.2z" fill="#df381c"/><path d="m225.4 225.9c-.6 0-.9 0-.9-.2s.5-.3 1.4-.3c1.3 0 3.4 0 6.2-.1v-.7c-.6 0-1.5 0-2.7 0s-2.1 0-2.7 0-1 0-1-.2.5-.3 1.4-.3h4.9v-.6c-2.7 0-4.2 0-4.5 0-1.5 0-2.3-.3-2.3-.9s.2-.7.5-.7.4.2.5.7c0 .3.4.4 1.2.4s1.3 0 2.3 0h2.3v-.7c0-.4.2-.5.5-.5s.4.2.5.5v.7h4.5s1.2-.1 1.3-.4c0-.5.2-.7.5-.7s.5.2.5.7-.8.9-2.4.9-2.1 0-4.3 0v.6h4.9c1 0 1.4.1 1.4.3s-.3.2-1 .2-.7 0-1.2 0c-.6 0-1 0-1.2 0-.9 0-1.9 0-3 0v.7c1.4 0 3.5 0 6.2.1 1 0 1.4.2 1.4.3s-.3.2-.9.2-.3 0-.6 0c-2.4 0-4.6-.1-6.7-.1s-4.3 0-6.7.1c-.2 0-.4 0-.6 0zm7.3.5h3c1.6 0 2.4.5 2.4 1.2 0 1.4.1 2.5.1 3.4s-.1 1.1-.4 1.1-.5-.2-.5-.7c0-.8 0-1.4 0-1.6-1.3 0-2.6 0-3.9 0s-3.5 0-5.3 0c0 .7-.1 1.2-.2 1.6 0 .5-.2.7-.5.7s-.5-.2-.5-.7c0-.2.1-1.5.3-4 0-.4.4-.7.9-.9.4-.1 1-.2 1.9-.2h2.6zm4.5 2c-1.5 0-3 0-4.5 0s-3 0-4.5 0v.9h4.2s3.3 0 5 0v-.3c0-.2 0-.4 0-.7zm-9-.5h4.5s3 0 4.5 0c0-.4-.2-.6-.8-.8-.4-.1-1-.2-1.8-.2.4 0-.2 0-1.9 0s-2.3 0-3 0c-1 0-1.5.4-1.5.9z" fill="#df381c"/><path d="m227.3 232.3c-.2 0-.3 0-.4-.2-.1-.1-.2-.4-.2-.7 0-.2 0-.2.3-4 0-.5.4-.8 1-1 .4-.1 1.1-.2 1.9-.2h2.6s2.2 0 3 0c1.6 0 2.5.5 2.5 1.4 0 1.4.1 2.5.1 3.4s0 1.2-.6 1.2-.6-.1-.6-.9 0-1.2 0-1.5c-1.3 0-2.6 0-3.8 0s-3.5 0-5.2 0c0 .6-.1 1.1-.2 1.5 0 .7-.4.9-.6.9zm5.4-5.8c-1 0-1.9 0-2.6 0-.9 0-1.5.1-1.9.2-.5.2-.8.4-.8.8-.3 3.1-.3 3.8-.3 3.9 0 .3 0 .5.1.6h.2s.3 0 .3-.6c0-.4 0-.9.2-1.6 0-.1.1-.1.1-.1h5.3s2.6 0 3.9 0h.1s0 .1 0 .1v1.6s.3.6.4.6c.2 0 .3-.3.3-.9 0-.9 0-2.1-.1-3.4 0-.7-.8-1-2.3-1.1-.9 0-1.9 0-3 0zm4.7 3h-.1c-1.7 0-3.4 0-5 0s-2.8 0-4.2 0h-.1s0-.1 0-.1c0-.3 0-.6 0-.9 0-.1.1-.1.1-.1h4.5s3 0 4.5 0h.1s0 .1 0 .1v.7.4zm-5.2-.4h4.9c0-.3 0-.4 0-.6-1.5 0-3 0-4.4 0s-2.9 0-4.4 0v.6h4zm-4.2-1.1v-.2c0-.6.5-.9 1.6-1h3s1.6 0 1.9 0 0 0 0 0c.8 0 1.4 0 1.9.2.6.2.9.5.9 1 0 .1-.1.1-.1.1-1.5 0-3 0-4.5 0s-3 0-4.5 0h-.1zm6.5-1c-.3 0-.8 0-1.9 0s-2.2 0-3 0c-.9 0-1.3.3-1.3.7h4.4s2.8 0 4.3 0c0-.2-.2-.4-.7-.5-.4-.1-.9-.2-1.7-.2s0 0-.1 0zm5.5-1c-.2 0-.3 0-.6 0-2.4 0-4.6-.1-6.7-.1s-4.3 0-6.7.1c-.2 0-.4 0-.6 0-.6 0-1 0-1-.3s.3-.4 1.6-.5c1.3 0 3.3 0 6.1-.1v-.4c-.6 0-1.4 0-2.5 0-1.2 0-2.1 0-2.7 0s-1.1 0-1.1-.3.3-.4 1.6-.5h4.7v-.3c-2.7 0-4.1 0-4.3 0-1.6 0-2.5-.4-2.5-1.1s.4-.8.6-.8.5.1.6.8c0 .2.4.3 1 .3s1.3 0 2.3 0h2.2v-.5c0-.6.4-.7.6-.7s.5.1.6.7v.6h4.4s1.1-.2 1.1-.3c0-.5.3-.8.6-.8s.6.1.6.8-.8 1.1-2.6 1.1-2.1 0-4.2 0v.3h4.7c1.3 0 1.6.2 1.6.5s-.4.3-1.1.3-.7 0-1.2 0c-.6 0-1 0-1.2 0-.9 0-1.8 0-2.9 0v.4c1.4 0 3.4 0 6.1.1 1.3 0 1.6.2 1.6.5s-.4.3-1 .3zm-7.3-.4c2.1 0 4.3 0 6.7.1h1.3s-.4-.1-1.3-.2c-2.8 0-4.9-.1-6.2-.1h-.1v-1h.1 3 1.2 1.2.8s-.4-.1-1.3-.2c-1 0-2.7 0-4.9 0h-.1v-.9h.1 4.3c1 0 2.3-.1 2.3-.8s-.2-.6-.3-.6c-.2 0-.3.2-.3.6 0 .5-.8.5-1.4.5-1 0-2.5 0-4.5 0h-.1v-.8c0-.4-.3-.4-.3-.4-.1 0-.3 0-.3.4v.8s-.1 0-.1 0c-.5 0-1.2 0-2.3 0-1 0-1.8 0-2.3 0s-1.3 0-1.3-.5c0-.6-.3-.6-.3-.6-.1 0-.3 0-.3.5s1.2.8 2.2.8 1.7 0 4.5 0h.1s0 .9 0 .9h-.1c-2.2 0-3.8 0-4.9 0-.9 0-1.2.1-1.3.2h.8s1.5 0 2.7 0h2.7.1v1h-.1c-2.9 0-5 0-6.2.1-.9 0-1.2.1-1.3.2h1.3c2.4 0 4.7-.1 6.7-.1z" fill="#df381c"/><path d="m230.6 235.3c0 .3-.1.6-.1 1 0 1.5.9 2.7 2.6 3.6 1.5.7 3.6 1.3 6.5 1.7.9.1 1.3.3 1.3.4s-.1.2-.5.2-.6 0-1.2-.1c-6.5-.9-9.7-2.8-9.7-5.6s0-.7.2-1.1h-1.2c-1.4 0-2.2.5-2.3 1.3-.2 1-.3 2.7-.3 5s-.1.7-.4.7-.4-.2-.5-.6c0 0 0-.3 0-.8 0-1.6 0-3 .3-4.3 0-.6.4-1 .9-1.3s1.3-.4 2.4-.5h4c-.2 0 1.6 0 5.5.1h.1c.6 0 1-.2 1.2-.6 0 0 0-.4.2-1-2.3 0-4.6-.1-6.9-.1s-1.9 0-3.5 0c-1.5 0-2.7 0-3.5 0s-1 0-1-.2.5-.3 1.4-.3c1.7 0 3.9-.1 6.8-.1s4.5 0 6.8.1c0-.6.3-.8.6-.8s.4.2.4.7 0 .5-.2 1.4c0 .5-.3.8-.5 1-.3.2-.9.3-1.7.3s-2 0-3.7 0c-1.6 0-2.9 0-3.7 0z" fill="#df381c"/><path d="m225.4 242.4c-.2 0-.6-.1-.6-.7 0 0 0-.2 0-.8 0-1.6 0-3.1.3-4.3 0-.6.4-1.1 1-1.4s1.4-.4 2.4-.5h4c.1 0 2 0 5.5.1h.1c.6 0 .9-.1 1.1-.5 0 0 0-.2.1-.8-2.2 0-4.5-.1-6.7-.1s-1.9 0-3.5 0-2.7 0-3.5 0-1.2-.1-1.2-.4.3-.4 1.5-.4c1.7 0 4-.1 6.8-.1s4.5 0 6.7.1c0-.7.4-.8.7-.8s.6.2.6.9 0 .1-.2 1.4c0 .5-.3.8-.6 1s-.9.4-1.8.4-2 0-3.7 0c-1.6 0-2.7 0-3.6 0v.8c0 1.4.8 2.6 2.5 3.4 1.4.7 3.6 1.3 6.4 1.7 1.2.2 1.4.3 1.4.6s-.2.3-.6.3-.6 0-1.2-.1c-6.5-.9-9.8-2.8-9.8-5.7s0-.6.1-1h-1c-1.3 0-2.1.5-2.2 1.2-.2 1-.3 2.7-.3 4.9s-.3.9-.6.9zm7.1-7.5c-1.6 0-2.9 0-4 0-1 0-1.8.2-2.3.5s-.8.6-.9 1.2c-.2 1.2-.3 2.7-.3 4.3s0 .7 0 .8c0 .5.3.5.3.5s.3 0 .3-.6c0-2.3.1-4 .3-5 .2-.8 1-1.3 2.5-1.4h1.4s0 .1 0 .1c0 .4-.1.7-.1 1.1 0 2.7 3.2 4.6 9.6 5.5.5 0 .9.1 1.2.1s.3 0 .3 0-.3-.2-1.1-.3c-2.8-.4-5-1-6.5-1.7-1.8-.9-2.7-2.2-2.7-3.7s0-.6.1-1c0-.1.1-.1.1-.1h3.7 3.7s1.3-.1 1.6-.3c.2-.2.4-.5.5-.9.2-1 .2-1.3.2-1.4 0-.6-.2-.6-.3-.6 0 0-.4 0-.5.7 0 .1-.1.1-.1.1-2.2 0-4.5-.1-6.8-.1s-5.1 0-6.8.1c-.8 0-1.1.1-1.2.2h.9s1.9 0 3.5 0h3.5c2.3 0 4.6 0 6.9.1h.2s0 .2 0 .2c-.1.9-.1 1-.2 1-.2.5-.6.7-1.3.7h-4.2c-.8 0-1.2 0-1.4-.1z" fill="#df381c"/><g fill="#004272"><path d="m209.4 93.9c.1-51.7-43.6-94.7-95.2-93.9-51.1 0-94 42.8-93.7 93.9-.5 51.6 42.1 94.6 93.7 94.8 51.9.8 96.1-42.7 95.3-94.8zm-95.2-89.8c2.6 0 5.1.1 7.6.3 0 0 0 0-.2 0-4.6 1.5-8.9 3.8-12.7 6.7-2.6 2-4.6 3.6-6.9 5.9-1.4 1.3-3.7 3.5-5.1 4.8-2.5 2.4-9.9 10-9.9 10l1.4-1.6c.5-.5.9-1.1 1.4-1.7 2-2.6 4.2-5.5 5.6-8.5 1.3-2.8 2.4-5.9 1.8-9.1-.5-2.7-2.4-4-4.8-4.5 7-1.7 14.3-2.6 21.8-2.4zm-55.1 18.6c.1 0 .2-.1.3-.2 4-2.4 12.8-7.6 16.6-4.5 1.7 1.4 1.9 4 1.9 5.6.2 4.8-2.3 8.5-3.7 10.4-6.5 9.1-14.2 15.9-17.2 18.5-10.1 8.9-11.1 9.6-14.9 13.6-4.1 4.4-7.6 10.3-7.7 16.5 0 6.6 4.5 11.8 10 14.8 4.6 2.5 10.2 3.9 15.4 2.9 10.2-1.9 15.3-14.7 19.6-22.9 9.4-18.1 20.5-35.6 35-50.1 3.1-3.1 6.4-6.1 10.5-7.6 5.6-2.1 12.4-.9 17 2.9 3.4 2.8 5.6 7.2 5 11.5-.6 3.8-2.7 6.4-3.8 7.6-11.2 12.3-33.2 32.9-38.8 38.2-3 2.8-7.9 7.6-13.7 14.4-15.6 18.3-16.6 26.7-27.1 31-1 .4-11.5 4.4-22.2-.5-9.1-4.1-15.5-13.3-16.8-23.1 0-1.1-.2-2.1-.2-3.2 0-1 0-2 .1-3 0 0-.1 0-.2 0 0-.6 0-1.2 0-1.7-.4-28.6 13.5-54.6 34.9-71.2zm55.1 160c-10.4.2-20.5-1.5-29.9-4.8 2-.3 3.8-.9 5.4-2.1 2.2-1.6 3.7-4.1 4.7-6.6 2.3-5.9 2.3-12.4 2.4-18.7 0-3.6.3-7.2.4-10.8 0-17.6 1.3-38.8 14.9-51.6 3.9-3.7 8.5-6.5 13.5-8.4 5.4-2 11-2.9 16.3-5.2 4.8-2.2 9.5-4.5 13.9-7.5 8.2-5.8 14.7-13.8 17.8-23.4.9-2.7 1.5-5.6 1.8-8.4.3-2.3.3-4.1 0-5.7 15 14.6 25 34.4 26.8 56.1.1 3.3.3 7.6.2 11.7v.3 1c-.1 2.2-.3 4.4-.6 6.6-1.4 7.9-6.4 15.6-12.1 21.9-3.6 4-10.9 6.4-16.7 5.8-6.3-.7-10.2-8.7-11.4-14.1-1.5-7.3-1-13.5-4.3-21-.6-1.4-1.9-3.2-2.8-4.2-3.9-4-8.2-5.2-14.3-4.2-8 1.3-14.6 5.7-16.5 7.5-2.4 2.3-5.3 5.2-5.1 8.9.2 3.4 3 5.1 6.6 8.7 2.2 2.1 10.7 10.4 13.2 20.3 1.2 4.9.7 9.1-.3 16.1-.6 4.1-1.9 8.2-2.1 12.3-.2 3.5.3 7.2 2.4 10.1 1.7 2.3 4.2 3.4 6.8 3.7-9.7 3.8-20.2 5.9-31.1 5.9z"/><path d="m168.1 105.3s-.1 0-.1-.1c0-.3 1-.2 1-.4s0 0-.1-.2c-1.6-2-3-3.5-3.3-3.9 0 0-.1-.1-.2-.1h-.1s-.1 0-.1.1v1.7c0 2.3 0 2.4.7 2.5.1 0 .2 0 .2.2s-.2.1-.4.1h-2.7s-.1 0-.1-.1c0-.2.2-.2.2-.2.5 0 .7-.2.7-1.5s0-1.8 0-2.5 0-2.3 0-3.3-.2-1.3-.7-1.5c-.1 0-.2 0-.2-.2s0-.1.2-.1h2.9.3s0 .2-.3.3c-.7.2-.7.4-.7 3.7s0 .2.1.2.1 0 .2-.1c1.3-1.2 1.9-1.9 2.8-2.8.3-.3.4-.4.4-.6 0-.4-.8-.3-.8-.6s0-.2.2-.2h2.6s.2 0 .2.2-.1.2-.2.2c-.4 0-.5 0-1.3.7-.9.8-1.7 1.6-2.6 2.5 0 0-.2.2-.2.3s0 0 .2.2c.7.9 3.3 3.9 4 4.6.3.3.4.3.8.4.3 0 .4.2.4.3s-.2.1-.2.1h-3.5z"/><path d="m171.7 105.3h-3.5c-.1 0-.2-.1-.2-.2 0-.2.4-.3.7-.3h.4s0-.1-.1-.1c-1.5-1.9-3-3.5-3.3-3.8 0 0-.1-.1-.2-.1h-.1s0 0 0 0v1.7c0 2.3 0 2.3.6 2.5.2 0 .3.1.3.3s-.3.2-.5.2h-2.7c-.1 0-.2 0-.2-.2s.2-.3.3-.3c.5 0 .6-.1.6-1.5s0-.8 0-1.2c0-.5 0-.9 0-1.2s0-.8 0-1.4 0-1.4 0-1.9c0-1.2-.2-1.3-.6-1.4 0 0-.3 0-.3-.3s0-.2.3-.2h2.9c.1 0 .3 0 .3.2s-.1.3-.4.3c-.6.2-.7.3-.7 3.7s0 .1 0 .1 0 0 .1-.1c1.3-1.2 1.9-1.9 2.8-2.8.2-.3.3-.4.3-.6s-.2-.2-.4-.3c-.2 0-.4-.1-.4-.3s0-.2.3-.2h2.6c.1 0 .3 0 .3.2s-.1.2-.3.3c-.4 0-.5 0-1.2.7-.8.7-1.5 1.4-2.2 2.1l-.4.4s0 0 0 0 0 .1-.1.1c0 0 .1.1.1.2.8.9 3.3 3.9 4 4.6.2.2.4.3.6.3h.2c.3.1.4.2.4.3s0 .2-.3.2zm-6.4-4.9h.1c.1 0 .2 0 .3.1.3.3 1.7 1.9 3.3 3.9.1.1.1.2.1.2 0 .2-.2.2-.5.2-.2 0-.5 0-.5.2s0 0 0 0h3.5.2s0 0-.3-.2c0 0-.1 0-.2 0-.2 0-.4-.1-.6-.4-.7-.6-3.3-3.7-4-4.6-.1-.2-.2-.2-.2-.3 0 0 0-.2.1-.2l.4-.4c.7-.7 1.4-1.4 2.2-2.1.7-.6.9-.7 1.3-.7 0 0 .2 0 .2-.1s-.1 0-.1 0h-2.6-.1s.2.1.3.1c.2 0 .5.2.5.4s-.1.3-.4.6c-.9 1-1.5 1.7-2.8 2.9 0 0-.1.1-.3.1s-.2-.2-.2-.3c0-3.3 0-3.6.8-3.8.2 0 .2-.1.2-.2 0 0 0 0-.2 0h-2.9c-.1 0-.1 0-.1 0s0 0 .2.1c.5.1.7.3.7 1.5s0 1.3 0 1.9v1.4s0 .8 0 1.2v1.2c0 1.4-.1 1.5-.7 1.6-.1 0-.2 0-.2.1s0 0 0 0h2.7.3s0 0-.2-.1c-.8-.2-.8-.3-.8-2.6v-1.7c0-.1 0-.2.2-.2z"/><path d="m178.4 105.3s-.2 0-.2-.1.1-.2.3-.2c.8-.2.8-.5.8-1.3 0-.4 0-.8 0-1.6s0-1.4-.1-1.6c0-.3-.3-.5-.6-1-.7-1-1.2-1.7-1.7-2.4-.4-.6-.6-.8-1.1-.9-.2 0-.3 0-.3-.2s0-.1.2-.1h3.3c.1 0 .2 0 .2.1s0 .1-.2.2c-.1 0-.4 0-.5.1 0 0-.2.1-.2.2 0 .2.2.5.3.6.2.2 1.1 1.6 1.8 2.6 0 0 .1.1.1.1s.1 0 .2-.2c.7-1 .9-1.3 1.9-2.9 0 0 0-.2 0-.3 0-.2-.2-.2-.3-.3h-.4c-.1 0-.2 0-.2-.2s.1-.2.2-.2h2.4s.1 0 .1.1c0 .2-.1.2-.3.2-.5 0-.8.3-1.1.7-.2.3-2.3 3-2.4 3.4v2s0 .9 0 1.4c0 .8 0 1.1.8 1.2 0 0 .3 0 .3.2s0 .1-.2.1h-3.2z"/><path d="m181.7 105.3h-3.2c-.3 0-.3-.1-.3-.2 0-.2.2-.2.3-.3.7-.2.7-.4.8-1.2 0-.1 0-.3 0-.5 0-.3 0-.6 0-1.1 0-1.2 0-1.3-.1-1.6 0-.2-.2-.3-.4-.6 0 0-.1-.2-.2-.3-.8-1.1-1.2-1.8-1.7-2.4-.4-.6-.6-.8-1.1-.9-.1 0-.3 0-.3-.2s.1-.2.3-.2h3.3s.3 0 .3.2 0 .2-.2.3c0 0-.2 0-.3 0h-.2s-.1 0-.1.1 0 .3.3.6c.1.2 1.1 1.5 1.8 2.6s0 0 .1-.1c.7-1 .9-1.3 1.9-2.9 0 0 0-.2 0-.3 0 0-.1-.2-.3-.2h-.4c-.2 0-.3-.1-.3-.3s.2-.2.3-.2h2.4s.2 0 .2.2-.2.3-.3.3c-.5 0-.7.3-1 .7s-2.3 3-2.4 3.4v2s0 .9 0 1.4c0 .8 0 1 .7 1.1 0 0 .4 0 .4.3s0 .2-.2.2zm-6-9.4s-.1 0-.1 0 0 0 .2 0h.1c.5.1.7.4 1.2.9.5.6.9 1.3 1.7 2.4 0 .1.2.2.2.3.2.3.3.4.4.6.1.3.1.5.1 1.7s0 .9 0 1.1v.5c0 .8 0 1.2-.9 1.4-.2 0-.2 0-.2.1s0 0 .1 0h3.2s0 0 0 0-.1 0-.2-.1c-.8-.2-.8-.5-.8-1.3 0-.5 0-.9 0-1.4 0-1.4 0-1.9 0-2.1.2-.4 2.4-3.4 2.4-3.4.3-.5.6-.7 1.2-.7.2 0 .2 0 .2-.1s0 0 0 0h-2.4-.2.1.4c.2 0 .4.2.4.4s0 .2-.1.3c-1 1.6-1.2 1.9-1.9 2.9 0 .1-.1.2-.2.2s-.1 0-.2-.1c-.8-1.1-1.7-2.3-1.8-2.6-.1-.2-.3-.5-.3-.7s0-.2.2-.3h.2.3c.1 0 .1 0 .1-.1s0 0 0 0 0 0-.1 0h-3.3z"/><path d="m198 95.8c.3 0 .4 0 .4.2s-.2.2-.3.2c-.6.1-.6.4-.6 1.1s0 1.9 0 2.8 0 2.1-.4 2.9c-.6 1.5-2 2.4-3.6 2.4s-2.5-.7-3.1-1.7c-.7-1.1-.7-2.3-.7-3.1 0-1.6 0-2.8 0-3.4 0-.9-.1-1-.8-1.1 0 0-.2 0-.2-.2s0-.2.2-.2h2.9c.2 0 .3 0 .3.2s-.2 0-.4.2c-.5.1-.5.4-.6.9v2.1c0 2.3.1 3.2.2 3.6.3 1.2 1 2.2 2.3 2.2s1.5-.3 1.9-1.3c.3-.7.4-1.6.4-2.5 0-.7 0-1.4 0-1.4 0-.3 0-.6 0-2.5 0-.4 0-.9-.4-1.1 0 0-.2 0-.4 0 0 0-.2 0-.2-.1s.1-.2.3-.2h2.6z"/><path d="m193.5 105.5c-1.4 0-2.5-.6-3.2-1.8-.7-1.1-.7-2.4-.7-3.1s0-1.9 0-2.5c0-.4 0-.7 0-.9 0-.9-.1-.9-.7-1 0 0-.3 0-.3-.2s.1-.2.3-.2h2.9c.2 0 .4.1.4.2s-.1.2-.3.2c0 0-.1 0-.2 0-.4.1-.5.3-.5.9v2.1c0 2.3.1 3.1.2 3.5.2.8.7 2.2 2.3 2.2s1.5-.4 1.8-1.3c.3-.7.4-1.7.4-2.4s0-1.3 0-1.4c0-.3 0-.6 0-2.5 0-.5 0-.8-.4-1 0 0-.2 0-.3 0s-.2 0-.2-.2 0-.3.4-.3h2.6c.3 0 .5.1.5.3s-.3.2-.4.3c-.5.1-.6.3-.6 1.1s0 .6 0 1.1v1.7c0 1.2 0 2.1-.4 2.9-.6 1.5-2 2.4-3.6 2.4zm-4.6-9.6c-.1 0-.1 0-.1 0h.2c.7.1.8.2.8 1.2s0 .5 0 .9v2.5s0 2 .7 3c.7 1.1 1.7 1.7 3.1 1.7s2.9-.9 3.5-2.3c.3-.8.4-1.7.4-2.9s0-1.1 0-1.7c0-.5 0-.9 0-1.1 0-.7 0-1.1.7-1.2.1 0 .3 0 .3-.1 0 0 0-.1-.3-.1h-2.6c-.2 0-.2 0-.2.1s0 0 0 0h.4c.5.2.5.7.5 1.1v2.5s0 .7 0 1.4c0 1-.2 1.9-.4 2.5-.4.9-1.1 1.4-2 1.4s-2.1-.8-2.4-2.3c0-.4-.2-1.3-.2-3.6s0-1.6 0-2.1.1-.9.6-1h.2.2s0 0-.2 0h-2.9z"/></g><path d="m137.4 105.3s-.3 0-.3-.1.2-.2.4-.2.5 0 .5-.3-.7-2.1-.9-2.6c0-.2-.1-.3-.3-.3s-.4 0-.7 0h-1.4c-.3 0-.5 0-.7 0-.1 0-.2 0-.3.3-.2.4-.6 1.7-.7 2.1v.4c0 .3.1.3.4.3.2 0 .4 0 .4.2s-.1.1-.2.1h-2.3c-.1 0-.2 0-.2-.1s0-.2.2-.2h.5c.4-.1.7-.7.8-1.1 1.3-3.6 1.7-4.6 2-5.4l.7-1.7c0-.2.2-.7.3-.8 0-.2.3-.3.6-.3s.3 0 .4.3c.2.4.5 1.3.9 2.4 0 .1 1.8 5 2.2 6 .3.5.5.6 1 .6.1 0 .2 0 .2.2s0 .1-.2.1h-3.2zm-.9-4h.3c0-.2-1-3.3-1.1-3.6v-.1s0 0-.1.1c-.1.3-1.2 3.5-1.2 3.6s0 .1.2.1h2.1z" fill="#fff"/><path d="m140.6 105.3h-3.2s-.3 0-.3-.2.3-.3.4-.3c.3 0 .4-.1.4-.2 0-.2-.7-2-.9-2.5 0-.2-.1-.2-.2-.2-.2 0-.4 0-.7 0h-1.4c-.3 0-.5 0-.7 0 0 0-.2 0-.3.3-.2.4-.6 1.7-.7 2.1v.4s0 .2.4.3c.2 0 .4 0 .4.3s0 .2-.2.2h-2.3c-.2 0-.3-.1-.3-.2s.1-.3.2-.3h.2.3c.4-.1.7-.7.8-1 1.4-3.7 1.7-4.6 2-5.4l.7-1.7c0-.2.2-.4.2-.6 0 0 0-.1 0-.2.1-.3.4-.3.6-.3s.3 0 .5.4.5 1.4.9 2.4v.2c1.4 4 1.9 5.3 2.1 5.7.2.5.5.5.9.5.1 0 .3.1.3.3s0 .2-.2.2zm-5.8-3.6h1.4.7c.2 0 .3.2.4.3.2.4.9 2.3.9 2.6s-.2.3-.6.4c-.2 0-.3 0-.3.1s0 0 .2 0h3.2s0-.1-.1-.1c-.5 0-.8 0-1.1-.6-.3-.5-1-2.5-2.1-5.7 0-.1 0-.2 0-.2-.4-1-.7-2-.9-2.4-.1-.3-.1-.3-.3-.3-.3 0-.4 0-.5.2v.2c0 .2-.2.4-.2.6l-.7 1.7c-.3.8-.7 1.7-2 5.4-.1.3-.4 1-.9 1.1 0 0-.2 0-.3 0 0 0-.1 0-.2 0v.1s0 0 .1 0h2.3s0 0-.3-.1c-.3 0-.5 0-.5-.4s0-.3 0-.4c.1-.3.5-1.7.7-2.1.1-.3.2-.3.4-.4zm1.7-.3h-2.1s-.3 0-.3-.2 1.2-3.6 1.2-3.6c0-.1.1-.2.2-.2s.1.1.2.2c0 .2 1.1 3.4 1.1 3.6s-.3.2-.3.2zm-.9-3.8s0 0 0 0c-.1.3-1.2 3.4-1.2 3.6h.1 2.1.2c0-.3-1-3.1-1.1-3.6z" fill="#fff"/><path d="m145.6 100.5c0-2.8 2.1-4.9 4.7-4.9s4.5 2.4 4.5 4.9-1.9 4.9-4.5 4.9-4.6-2.2-4.6-4.9zm7.5 0c0-1.8-.5-4.4-3-4.4s-2.9 2.4-2.9 4.1.8 4.7 3.1 4.7 2.8-2 2.8-4.4z" fill="#fff"/><path d="m150.2 105.5c-2.6 0-4.7-2.2-4.7-5s2.1-4.9 4.8-4.9 2.5.5 3.4 1.6c.7.9 1.2 2.2 1.2 3.4 0 2.8-2 5-4.6 5zm0-9.8c-2.6 0-4.6 2.1-4.6 4.8s2 4.9 4.5 4.9 4.5-2.1 4.5-4.8-2.2-4.8-4.4-4.8zm0 9.3c-1.1 0-1.9-.5-2.5-1.6-.5-.8-.7-2-.7-3.2s.3-4.2 3-4.2 3.1 2.8 3.1 4.5c0 2.8-1.1 4.5-2.9 4.5zm-.2-8.8c-2.6 0-2.8 2.8-2.8 4 0 3.2 1.5 4.6 3 4.6s2.7-1.6 2.7-4.3-.4-4.4-2.9-4.4z" fill="#fff"/></svg>