<svg height="185.696" viewBox="0 0 854.216 185.696" width="854.216" xmlns="http://www.w3.org/2000/svg"><g fill="#004272" transform="translate(-148.386 -427.78)"><g><path d="m436.421 516.887 22.753-57.5h11.826l22.589 57.5h-14.126l-10.843-29.16q-.658-1.725-1.314-3.7t-1.314-4.066q-.658-2.1-1.273-4.107t-1.027-3.737l2.464-.083q-.492 2.055-1.109 4.025t-1.232 3.9q-.617 1.931-1.356 3.86t-1.4 3.984l-10.842 29.078zm10.843-11.007 4.353-10.514h26.449l4.271 10.514z"/><path d="m500.736 516.887v-57.5h24.806a18.814 18.814 0 0 1 9.651 2.464 18.556 18.556 0 0 1 9.241 16.346 19.79 19.79 0 0 1 -2.505 9.98 18.841 18.841 0 0 1 -6.736 6.941 18.349 18.349 0 0 1 -9.651 2.546h-10.842v19.221zm13.717-31.46h9.118a6.164 6.164 0 0 0 3.285-.9 6.858 6.858 0 0 0 2.382-2.463 7.088 7.088 0 0 0 .9-3.615 6.813 6.813 0 0 0 -.9-3.614 6.4 6.4 0 0 0 -2.382-2.3 6.658 6.658 0 0 0 -3.285-.822h-9.118z"/><path d="m555.111 516.887v-57.5h24.806a18.818 18.818 0 0 1 9.652 2.464 18.561 18.561 0 0 1 9.241 16.349 19.79 19.79 0 0 1 -2.506 9.98 18.838 18.838 0 0 1 -6.735 6.941 18.353 18.353 0 0 1 -9.652 2.546h-10.842v19.221zm13.718-31.46h9.117a6.161 6.161 0 0 0 3.285-.9 6.861 6.861 0 0 0 2.383-2.463 7.088 7.088 0 0 0 .9-3.615 6.813 6.813 0 0 0 -.9-3.614 6.4 6.4 0 0 0 -2.383-2.3 6.655 6.655 0 0 0 -3.285-.822h-9.117z"/><path d="m602.176 516.887 22.753-57.5h11.828l22.589 57.5h-14.128l-10.843-29.16q-.659-1.725-1.314-3.7t-1.314-4.066q-.659-2.1-1.273-4.107t-1.027-3.737l2.464-.083q-.492 2.055-1.109 4.025t-1.232 3.9q-.617 1.931-1.356 3.86t-1.4 3.984l-10.842 29.078zm10.843-11.007 4.353-10.514h26.449l4.271 10.514z"/><path d="m666.491 516.887v-57.5h25.874a20.916 20.916 0 0 1 9.98 2.382 17.979 17.979 0 0 1 7.023 6.53 17.629 17.629 0 0 1 2.546 9.4 18.792 18.792 0 0 1 -2.546 9.733 18.258 18.258 0 0 1 -6.982 6.777 20.281 20.281 0 0 1 -10.021 2.464h-12.565v20.207zm13.309-30.887h11.335a7.22 7.22 0 0 0 3.738-.944 6.288 6.288 0 0 0 2.464-2.67 8.7 8.7 0 0 0 .863-3.943 7.588 7.588 0 0 0 -.986-3.9 6.521 6.521 0 0 0 -2.834-2.587 10.124 10.124 0 0 0 -4.477-.9h-10.103zm18.564 30.885-14.624-25.954 14.292-2.054 16.264 28.01z"/><path d="m724.153 516.887v-57.5h40.083v11.913h-26.53v33.678h27.353v11.91zm6.571-23.574v-11.336h29.817v11.336z"/><path d="m777.132 516.887v-57.5h12.485l30.146 41.069-2.711-.41q-.413-2.711-.657-5.175t-.453-4.846q-.2-2.382-.328-4.846t-.164-5.339q-.042-2.876-.041-6.243v-14.21h13.553v57.5h-12.65l-31.459-42.387 4.189.576q.41 3.942.7 6.694t.493 4.887q.2 2.138.288 3.861t.123 3.409q.041 1.685.041 3.737v19.221z"/><path d="m855.9 516.887v-45.178h-17.082v-12.32h48.544v12.32h-17.495v45.178z"/><path d="m187.29 613.476a32 32 0 0 1 -11.951-2.177 28.073 28.073 0 0 1 -9.487-6.16 27.366 27.366 0 0 1 -6.2-9.447 32.223 32.223 0 0 1 -2.176-12.033 29.979 29.979 0 0 1 2.3-11.828 28.5 28.5 0 0 1 15.977-15.607 32.332 32.332 0 0 1 12.115-2.218 30.694 30.694 0 0 1 8.05 1.068 27.954 27.954 0 0 1 7.352 3.162 24.751 24.751 0 0 1 5.873 4.97l-8.543 9.774a24.762 24.762 0 0 0 -3.655-3.162 15.661 15.661 0 0 0 -4.231-2.094 16.008 16.008 0 0 0 -4.928-.74 16.249 16.249 0 0 0 -6.2 1.191 15.064 15.064 0 0 0 -8.5 8.666 18.889 18.889 0 0 0 -1.232 6.982 18.326 18.326 0 0 0 1.232 6.859 15.569 15.569 0 0 0 3.45 5.3 14.483 14.483 0 0 0 5.38 3.368 20.413 20.413 0 0 0 7.023 1.15 16.807 16.807 0 0 0 5.01-.74 18.277 18.277 0 0 0 4.4-2.012 18.674 18.674 0 0 0 3.573-2.916l6.735 10.678a19.4 19.4 0 0 1 -5.461 4.107 32.977 32.977 0 0 1 -7.558 2.834 34.6 34.6 0 0 1 -8.348 1.025z"/><path d="m218.174 612.654v-57.5h13.963v45.177h25.628v12.321z"/><path d="m268.2 612.654v-57.5h40.084v11.91h-26.534v33.678h27.35v11.91zm6.571-23.574v-11.335h29.816v11.335z"/><path d="m313.866 612.654 22.752-57.5h11.829l22.588 57.5h-14.128l-10.843-29.159q-.658-1.725-1.314-3.7t-1.314-4.066q-.658-2.094-1.273-4.107t-1.027-3.737l2.464-.082q-.492 2.053-1.109 4.025t-1.232 3.9q-.615 1.932-1.355 3.861t-1.4 3.984l-10.843 29.077zm10.842-11.007 4.354-10.513h26.449l4.271 10.513z"/><path d="m378.18 612.654v-57.5h25.874a20.914 20.914 0 0 1 9.98 2.383 17.97 17.97 0 0 1 7.023 6.529 17.625 17.625 0 0 1 2.547 9.406 18.784 18.784 0 0 1 -2.547 9.733 18.252 18.252 0 0 1 -6.982 6.777 20.292 20.292 0 0 1 -10.021 2.464h-12.567v20.206zm13.307-30.884h11.335a7.223 7.223 0 0 0 3.738-.945 6.274 6.274 0 0 0 2.463-2.67 8.685 8.685 0 0 0 .863-3.942 7.573 7.573 0 0 0 -.986-3.9 6.5 6.5 0 0 0 -2.834-2.587 10.119 10.119 0 0 0 -4.476-.9h-10.1zm18.563 30.884-14.621-25.954 14.293-2.053 16.263 28.009z"/><path d="m486.357 613.147a27.086 27.086 0 0 1 -12.731-2.916 22.065 22.065 0 0 1 -8.748-8.008 21.645 21.645 0 0 1 -3.163-11.664v-35.4h14.129v34.663a11.345 11.345 0 0 0 1.4 5.627 10.44 10.44 0 0 0 3.779 3.943 10.128 10.128 0 0 0 5.338 1.437 10.664 10.664 0 0 0 5.545-1.437 10.99 10.99 0 0 0 3.9-3.943 10.855 10.855 0 0 0 1.478-5.627v-34.666h13.635v35.4a21.661 21.661 0 0 1 -3.162 11.664 22.092 22.092 0 0 1 -8.748 8.008 26.914 26.914 0 0 1 -12.652 2.919z"/><path d="m524.963 612.654v-57.5h24.807a18.818 18.818 0 0 1 9.651 2.465 18.561 18.561 0 0 1 9.241 16.345 19.785 19.785 0 0 1 -2.506 9.98 18.839 18.839 0 0 1 -6.735 6.941 18.343 18.343 0 0 1 -9.651 2.547h-10.843v19.22zm13.718-31.454h9.119a6.161 6.161 0 0 0 3.285-.9 6.856 6.856 0 0 0 2.383-2.464 7.085 7.085 0 0 0 .9-3.614 6.811 6.811 0 0 0 -.9-3.614 6.4 6.4 0 0 0 -2.383-2.3 6.655 6.655 0 0 0 -3.285-.822h-9.117z"/><path d="m605.623 612.654v-57.5h24.806a18.822 18.822 0 0 1 9.652 2.465 18.558 18.558 0 0 1 9.24 16.345 19.784 19.784 0 0 1 -2.505 9.98 18.846 18.846 0 0 1 -6.735 6.941 18.347 18.347 0 0 1 -9.652 2.547h-10.843v19.22zm13.717-31.454h9.118a6.161 6.161 0 0 0 3.285-.9 6.853 6.853 0 0 0 2.382-2.464 7.075 7.075 0 0 0 .9-3.614 6.8 6.8 0 0 0 -.9-3.614 6.4 6.4 0 0 0 -2.382-2.3 6.655 6.655 0 0 0 -3.285-.822h-9.118z"/><path d="m660 612.654v-57.5h25.874a20.917 20.917 0 0 1 9.98 2.383 17.974 17.974 0 0 1 7.022 6.529 17.624 17.624 0 0 1 2.547 9.406 18.783 18.783 0 0 1 -2.547 9.733 18.249 18.249 0 0 1 -6.981 6.777 20.292 20.292 0 0 1 -10.021 2.464h-12.574v20.206zm13.3-30.884h11.34a7.223 7.223 0 0 0 3.738-.945 6.282 6.282 0 0 0 2.464-2.67 8.7 8.7 0 0 0 .863-3.942 7.583 7.583 0 0 0 -.986-3.9 6.51 6.51 0 0 0 -2.834-2.587 10.124 10.124 0 0 0 -4.477-.9h-10.108zm18.564 30.884-14.616-25.954 14.292-2.053 16.26 28.007z"/><path d="m743.863 613.476a31.392 31.392 0 0 1 -11.992-2.218 28.3 28.3 0 0 1 -15.689-15.689 33.085 33.085 0 0 1 0-23.82 28.294 28.294 0 0 1 15.689-15.689 33.085 33.085 0 0 1 23.82 0 28.462 28.462 0 0 1 9.446 6.242 27.948 27.948 0 0 1 6.2 9.447 33.57 33.57 0 0 1 0 23.779 27.835 27.835 0 0 1 -6.2 9.487 28.434 28.434 0 0 1 -9.446 6.243 30.956 30.956 0 0 1 -11.828 2.218zm-.082-13.143a15.39 15.39 0 0 0 6.2-1.232 14.55 14.55 0 0 0 4.928-3.491 16.038 16.038 0 0 0 3.246-5.3 19.839 19.839 0 0 0 0-13.307 16.063 16.063 0 0 0 -3.246-5.3 14.581 14.581 0 0 0 -4.928-3.492 16.222 16.222 0 0 0 -12.4 0 15.007 15.007 0 0 0 -4.97 3.492 15.2 15.2 0 0 0 -3.245 5.3 19.291 19.291 0 0 0 -1.109 6.654 19.635 19.635 0 0 0 1.109 6.7 14.705 14.705 0 0 0 3.245 5.3 15.17 15.17 0 0 0 11.171 4.682z"/><path d="m784.358 612.654v-57.5h25.381a26.463 26.463 0 0 1 10.022 1.684 13.172 13.172 0 0 1 6.2 4.847 13.445 13.445 0 0 1 2.1 7.6 13.843 13.843 0 0 1 -2.423 8.3 11.819 11.819 0 0 1 -7.024 4.517l-.164-1.56a17.43 17.43 0 0 1 6.7 2.875 14.081 14.081 0 0 1 5.955 11.828 18.142 18.142 0 0 1 -1.479 7.6 14.623 14.623 0 0 1 -4.271 5.463 18.584 18.584 0 0 1 -6.53 3.285 29.957 29.957 0 0 1 -8.255 1.068zm13.142-34.416h10.268a8.716 8.716 0 0 0 3.654-.7 5.119 5.119 0 0 0 2.3-1.972 5.792 5.792 0 0 0 .78-3.08 5.137 5.137 0 0 0 -1.808-4.148 8.26 8.26 0 0 0 -5.421-1.52h-9.773zm0 22.752h12.567a9.272 9.272 0 0 0 3.9-.739 5.718 5.718 0 0 0 2.505-2.177 6.428 6.428 0 0 0 .9-3.491 5.357 5.357 0 0 0 -.945-3.2 5.933 5.933 0 0 0 -2.669-2.012 10.943 10.943 0 0 0 -4.108-.7h-12.15z"/><path d="m841.937 612.654v-57.5h13.963v45.177h25.627v12.321z"/><path d="m891.96 612.654v-57.5h40.084v11.91h-26.531v33.678h27.352v11.91zm6.571-23.574v-11.335h29.817v11.335z"/><path d="m944.939 612.654v-57.5h12.486l20.945 34.089-8.953-.083 21.192-34.006h11.991v57.5h-13.551v-17.906q0-7.394.369-13.307t1.273-11.746l1.561 4.271-15.936 24.724h-5.416l-15.607-24.559 1.561-4.436q.9 5.5 1.273 11.294t.369 13.759v17.906z"/></g><g stroke="#004272" stroke-linecap="round" stroke-linejoin="round" stroke-width="2"><path d="m149.519 524.217a20.18 20.18 0 0 1 1.413-9.609 1.169 1.169 0 0 1 .829-.7 1.134 1.134 0 0 1 1.285.862c.033.227-.066.357-.147.6a17.609 17.609 0 0 0 -1.251 8.309c1.253 8.763 12.456 11.575 25.432 9.72 16.39-2.343 35.786-12.086 41.8-26.882a17.358 17.358 0 0 0 1.543-9.513c-1.627-11.381-17.806-14.876-30.05-15.215-6.925 13.3-14.207 26.538-20.775 39.9a.847.847 0 0 1 -.6.666.82.82 0 0 1 -.928-.8l.033-.585c5.641-11.724 14.647-29.156 19.833-39.189-1.854.033-3.594.049-5.431.2a1.008 1.008 0 0 1 -1.057-.894.964.964 0 0 1 .877-1.171l6.423-.57a18.569 18.569 0 0 0 .779-7.545c-1.48-10.357-14.082-11.575-15.042-18.29a8.649 8.649 0 0 1 .016-2.326c2.129-9.48 22.746-18.815 42.094-21.581 16.617-2.376 32.081.175 33.758 11.9a20.716 20.716 0 0 1 -.943 8.845c-6.144 20.391-32.826 27.109-51.947 29.843 11.707 1.462 23.66 6.257 25.141 16.615a19.183 19.183 0 0 1 -1.755 10.472c-6.487 15.561-26.061 25.677-43.135 28.118-14.34 2.055-26.78-1.277-28.195-11.18zm97.956-74.4a16.878 16.878 0 0 0 .861-7.789c-1.5-10.47-15.757-12.73-31.236-10.516-18.553 2.652-38.746 11.7-40.681 20.1a6.774 6.774 0 0 0 -.015 1.512c.8 5.577 13.708 7.332 15.27 18.259a11.666 11.666 0 0 1 .017 3.365c6.827-13.171 13.541-26.326 18.987-37.79a.991.991 0 0 1 .731-.569 1.03 1.03 0 0 1 1.171.878l-.146.6c-5.9 12.342-13.249 26.75-20.613 41.042l5.252-.634c18.894-2.698 44.664-9.288 50.402-28.458z"/><path d="m240.507 505.052a4.773 4.773 0 0 1 -2.634-3.8 11.414 11.414 0 0 1 -.033-1.854c.276-6.2 4.649-12.162 9.754-15.448a13.714 13.714 0 0 1 4.6-1.935c1.252-.179 2.325.015 2.943 1.089a3.411 3.411 0 0 1 .39 1.1c.39 2.732-3.8 5.887-7.674 6.44a5.715 5.715 0 0 1 -4.049-.7c-2.048 2.732-4.372 7.595-3.917 10.781a3.315 3.315 0 0 0 1.643 2.553 4.992 4.992 0 0 0 3.43.439l.455-.066c9.675-1.382 31.185-20.718 31.753-20.8a.878.878 0 0 1 .6.147.8.8 0 0 1 .293.423c.033.227-.048.471-.471.764-5.17 4.456-22.567 20.067-32.7 21.515a7.169 7.169 0 0 1 -4.383-.648zm13.1-20.456c-.325-.651-.585-.846-1.5-.715-2.162.309-6.211 3.676-6.909 4.472a3.647 3.647 0 0 0 2.374.357c2.739-.391 6.217-2.862 6.038-4.11z"/><path d="m269.043 498.3a11.418 11.418 0 0 1 -.033-1.854c.617-7.87 11.315-18.343 17.006-19.156a3.685 3.685 0 0 1 1.642.112 2.181 2.181 0 0 1 1.643 1.741c.2 1.366-.585 3.219-1.529 4.748a1 1 0 0 1 -.633.44 1.237 1.237 0 0 1 -1.3-.977l.146-.6a6.651 6.651 0 0 0 1.3-3.09c-.016-.114-.163-.325-.277-.309a1.706 1.706 0 0 0 -.813 0c-3.984.57-14.6 9.986-15.185 17.27l.05 1.154c.244 1.707 1.723 2.309 4 1.984 9.788-1.4 34.6-19.581 36.972-21.662a.843.843 0 0 1 .65-.326c.228-.033.341-.049.488.162.13.1.26.2.276.31a.863.863 0 0 1 -.455.877c-2.959 2.862-26.989 20.816-38.257 22.427-3.072.44-5.284-.405-5.691-3.251z"/><path d="m307.611 496.735a3.458 3.458 0 0 1 -2.91-3.3 14.117 14.117 0 0 1 .942-6.407 28.282 28.282 0 0 1 8-10.667l.438-.179a1.111 1.111 0 0 1 1.171.878.867.867 0 0 1 -.341.862 26.634 26.634 0 0 0 -6.422 7.887c-.747 1.268-2.194 4.96-1.868 7.235a1.9 1.9 0 0 0 2.357 1.87l.228-.032c3.87-.554 9.641-8.115 10.86-10.961a7.6 7.6 0 0 1 -3.285-5.106c-.325-2.275.8-4.177 2.5-4.421a2.473 2.473 0 0 1 1.285.047 3.889 3.889 0 0 1 2.813 3.431 10.662 10.662 0 0 1 -.763 5.22 9.311 9.311 0 0 0 3.853.145c6.488-.927 15.853-6.912 19.479-9.985.308-.277.423-.293.536-.31.325-.163.878.456.781.586a.833.833 0 0 1 -.358.748c-3.414 2.927-13.088 10-20.486 11.058a9.694 9.694 0 0 1 -4.7-.372c-2.373 4.52-7.592 11.074-12.372 11.757a4.449 4.449 0 0 1 -1.738.016zm13.754-18.342c-.178-1.252-.862-1.967-1.447-2l-.228.032c-.911.131-1.137.976-.991 2a5.711 5.711 0 0 0 2.13 3.528 6.746 6.746 0 0 0 .536-3.56z"/><path d="m334.944 492.131a.993.993 0 0 1 .244-.732c3.088-5.2 8.843-16.131 11.656-19.2a.991.991 0 0 1 .634-.439.907.907 0 0 1 1.041.779 1 1 0 0 1 -.342.863 68.158 68.158 0 0 0 -5.494 8.684c2.357-3.009 14.468-13.336 19.59-14.068 1.481-.212 2.261.374 2.277 1.3.407 2.845-4.925 11.854-6.112 14.114 2.244-2.179 13.835-14.522 19.071-15.27 1.252-.18 2.13.276 2.293 1.414.488 3.414-5.283 11.789-4.974 13.951.066.456.309.537.992.439 5.235-.749 29.087-19.141 29.2-19.157a.843.843 0 0 1 .65-.326c.455-.065.472.049.764.472a1.093 1.093 0 0 1 -.569.894c-1.04.845-23.607 19.287-30.55 20.28a1.91 1.91 0 0 1 -2.455-1.74c-.537-3.756 5.1-12.227 4.843-14.049-.162-.325-.178-.439-.634-.374-3.756.537-19.965 17.141-21.428 19.092a1.523 1.523 0 0 1 -.747.456.907.907 0 0 1 -1.041-.781l.146-.6c1.414-3.1 8.762-16.7 8.567-18.065a.532.532 0 0 0 -.619-.261 13.6 13.6 0 0 0 -3.8 1.822c-5.805 3.27-14.893 11.189-21.33 20.587a1.4 1.4 0 0 1 -.96.6.785.785 0 0 1 -.913-.685z"/><path d="m399.8 478.676a21.358 21.358 0 0 1 -.114-2.423c.276-6.195 4.649-12.162 9.641-15.432a13.117 13.117 0 0 1 4.6-1.935 2.693 2.693 0 0 1 2.96 1.2 1.892 1.892 0 0 1 .39 1.105c.391 2.732-3.707 5.757-7.576 6.31a5.725 5.725 0 0 1 -4.049-.7c-2.065 2.619-4.194 7.22-3.674 10.862a5.786 5.786 0 0 0 3.448 4.618c1.74.8 4.178.8 7.138.373 17.528-2.506 54.468-21.957 78.614-27.733l.227-.032a.3.3 0 0 1 .39.292c.033.228-.065.358-.39.521-20.763 5.059-58.646 26.039-78.564 28.887-7.28 1.045-12.241-.336-13.041-5.913zm15.543-17.2-.162-.325a1.148 1.148 0 0 0 -1.22-.407c-2.163.31-6.325 3.693-7.024 4.489a4 4 0 0 0 2.488.341c2.735-.396 6.1-2.851 5.921-4.103z"/></g></g></svg>