<svg height="43.236" viewBox="0 0 482.202 43.236" width="482.202" xmlns="http://www.w3.org/2000/svg"><g fill="#004272" transform="translate(-1227.089 -941.325)"><g><path d="m1235.055 983.752v-21.065h-7.966v-5.745h22.635v5.745h-8.158v21.065z"/><path d="m1254.32 983.752v-26.81h18.69v5.558h-12.37v15.7h12.754v5.553zm3.064-10.992v-5.285h13.9v5.285z"/><path d="m1279.023 983.752v-26.81h6.512v21.065h11.949v5.745z"/></g><g><path d="m1327.8 984.561a17.228 17.228 0 0 1 -9.559-2.56 16.149 16.149 0 0 1 -6.044-7.356 32.887 32.887 0 0 1 0-23.047 16.152 16.152 0 0 1 6.044-7.355 19.173 19.173 0 0 1 19.146 0 16.1 16.1 0 0 1 6.076 7.355 32.9 32.9 0 0 1 0 23.047 16.1 16.1 0 0 1 -6.076 7.356 17.374 17.374 0 0 1 -9.587 2.56zm0-8.576a6.7 6.7 0 0 0 5.985-3.335q2.114-3.335 2.114-9.528 0-6.372-2.114-9.8a6.944 6.944 0 0 0 -11.971 0q-2.114 3.426-2.113 9.8 0 6.193 2.113 9.528a6.7 6.7 0 0 0 5.986 3.335z"/><path d="m1364.719 984.382a18.938 18.938 0 0 1 -8.545-1.906 16.7 16.7 0 0 1 -6.343-5.478l5.42-5.955a15.414 15.414 0 0 0 4.526 3.662 10.758 10.758 0 0 0 4.645.982 7.261 7.261 0 0 0 3.394-.773 5.935 5.935 0 0 0 2.353-2.174 5.84 5.84 0 0 0 .863-3.127 5.945 5.945 0 0 0 -.863-3.186 6.454 6.454 0 0 0 -2.323-2.233 6.661 6.661 0 0 0 -3.365-.834 12.2 12.2 0 0 0 -5.092 1.042 29.056 29.056 0 0 0 -3.185 1.638l-4.288-5.717 2.56-18.4h23.941v8.517h-19.117l2.621-3.335-1.965 13.221-3.574-1.192a11.472 11.472 0 0 1 2.769-1.786 20.774 20.774 0 0 1 3.544-1.28 14.808 14.808 0 0 1 3.812-.507 13.784 13.784 0 0 1 7.056 1.817 13.444 13.444 0 0 1 4.973 5.032 14.576 14.576 0 0 1 1.846 7.385 13.616 13.616 0 0 1 -2.084 7.414 15.121 15.121 0 0 1 -5.6 5.241 16.259 16.259 0 0 1 -7.979 1.932z"/><path d="m1386.932 983.965-1.965-4.883 12.149-13.281q1.013-1.131 2.2-2.56t2.323-2.948a18.065 18.065 0 0 0 1.817-2.948 6.136 6.136 0 0 0 .684-2.621 3.97 3.97 0 0 0 -.536-2.084 3.666 3.666 0 0 0 -1.548-1.4 5.721 5.721 0 0 0 -2.561-.506 5.385 5.385 0 0 0 -2.62.684 7.71 7.71 0 0 0 -2.353 2.115 18.031 18.031 0 0 0 -2.055 3.513l-7.5-4.049a19.249 19.249 0 0 1 3.543-6.1 16.212 16.212 0 0 1 5.39-4.109 15.325 15.325 0 0 1 6.61-1.459 15.025 15.025 0 0 1 6.67 1.578 12.061 12.061 0 0 1 4.735 4.228 11.4 11.4 0 0 1 1.757 6.343 12.366 12.366 0 0 1 -.3 2.62 17.231 17.231 0 0 1 -.893 2.829 22.989 22.989 0 0 1 -1.578 3.1 36.515 36.515 0 0 1 -2.353 3.424q-1.371 1.787-3.215 3.811l-9.47 10.3-1.191-4.525h20.844v8.932z"/><path d="m1419.09 971.221v-8.755h20.61v8.755z"/><path d="m1459.825 984.561a17.822 17.822 0 0 1 -8.844-2.114 19.489 19.489 0 0 1 -6.878-7.3l7.266-4.7a15.491 15.491 0 0 0 2.709 3.335 9.219 9.219 0 0 0 2.922 1.818 9.03 9.03 0 0 0 3.186.566 6.415 6.415 0 0 0 3.068-.745 5.935 5.935 0 0 0 2.262-2.114 5.677 5.677 0 0 0 .864-3.1 6.13 6.13 0 0 0 -.744-3.127 4.756 4.756 0 0 0 -2.144-1.936 7.9 7.9 0 0 0 -3.365-.654 9.455 9.455 0 0 0 -1.906.208 21.646 21.646 0 0 0 -2.144.565 16 16 0 0 0 -2.322.953l-2.2-5.9 10.125-11.018 2.739 1.489-17.39-.357v-8.51h25.608l1.846 3.693-13.757 14.769-2.381-2.8a6.545 6.545 0 0 1 1.578-.448 11.43 11.43 0 0 1 2.113-.208 13.569 13.569 0 0 1 5.241 1.012 14.358 14.358 0 0 1 4.348 2.8 12.842 12.842 0 0 1 2.977 4.2 12.535 12.535 0 0 1 1.073 5.151 13.279 13.279 0 0 1 -2.115 7.414 15.1 15.1 0 0 1 -5.717 5.152 16.863 16.863 0 0 1 -8.018 1.906z"/><path d="m1481.442 983.965-1.965-4.883 12.149-13.281q1.011-1.131 2.2-2.56t2.323-2.948a18.056 18.056 0 0 0 1.816-2.948 6.14 6.14 0 0 0 .685-2.621 3.978 3.978 0 0 0 -.536-2.084 3.671 3.671 0 0 0 -1.548-1.4 5.724 5.724 0 0 0 -2.562-.506 5.386 5.386 0 0 0 -2.62.684 7.708 7.708 0 0 0 -2.352 2.115 17.982 17.982 0 0 0 -2.055 3.513l-7.5-4.049a19.249 19.249 0 0 1 3.543-6.1 16.2 16.2 0 0 1 5.39-4.109 15.318 15.318 0 0 1 6.61-1.459 15.024 15.024 0 0 1 6.67 1.578 12.057 12.057 0 0 1 4.734 4.228 11.4 11.4 0 0 1 1.757 6.343 12.3 12.3 0 0 1 -.3 2.62 17.235 17.235 0 0 1 -.892 2.829 23.1 23.1 0 0 1 -1.578 3.1 36.916 36.916 0 0 1 -2.353 3.424q-1.371 1.787-3.216 3.811l-9.469 10.3-1.191-4.525h20.844v8.932z"/><path d="m1527.655 984.561a17.822 17.822 0 0 1 -8.844-2.114 19.49 19.49 0 0 1 -6.878-7.3l7.266-4.7a15.5 15.5 0 0 0 2.709 3.335 9.218 9.218 0 0 0 2.918 1.816 9.034 9.034 0 0 0 3.186.566 6.415 6.415 0 0 0 3.068-.745 5.936 5.936 0 0 0 2.262-2.114 5.678 5.678 0 0 0 .864-3.1 6.131 6.131 0 0 0 -.744-3.127 4.752 4.752 0 0 0 -2.144-1.936 7.9 7.9 0 0 0 -3.365-.654 9.439 9.439 0 0 0 -1.905.208 21.591 21.591 0 0 0 -2.145.565 15.992 15.992 0 0 0 -2.322.953l-2.2-5.9 10.119-11.014 2.739 1.489-17.39-.357v-8.512h25.608l1.846 3.693-13.756 14.769-2.382-2.8a6.549 6.549 0 0 1 1.578-.448 11.432 11.432 0 0 1 2.113-.208 13.568 13.568 0 0 1 5.241 1.012 14.358 14.358 0 0 1 4.348 2.8 12.843 12.843 0 0 1 2.977 4.2 12.533 12.533 0 0 1 1.073 5.151 13.279 13.279 0 0 1 -2.115 7.414 15.1 15.1 0 0 1 -5.717 5.152 16.863 16.863 0 0 1 -8.008 1.906z"/><path d="m1548.8 971.221v-8.755h20.6v8.755z"/><path d="m1585 981.047v-33.826l2.2 5.062-8.934 4.228-1.726-9.051 11.85-5.778h6.552v39.365zm-7.622 2.918v-8.932h25.369v8.932z"/><path d="m1622.641 984.382a18.945 18.945 0 0 1 -8.546-1.906 16.7 16.7 0 0 1 -6.342-5.478l5.42-5.955a15.4 15.4 0 0 0 4.526 3.662 10.754 10.754 0 0 0 4.644.982 7.262 7.262 0 0 0 3.4-.773 5.926 5.926 0 0 0 2.352-2.174 5.832 5.832 0 0 0 .864-3.127 5.937 5.937 0 0 0 -.864-3.186 6.443 6.443 0 0 0 -2.322-2.233 6.661 6.661 0 0 0 -3.365-.834 13.117 13.117 0 0 0 -2.561.238 13.25 13.25 0 0 0 -2.531.8 29.056 29.056 0 0 0 -3.185 1.638l-4.288-5.717 2.56-18.4h23.941v8.517h-19.117l2.62-3.335-1.964 13.221-3.574-1.192a11.472 11.472 0 0 1 2.769-1.786 20.743 20.743 0 0 1 3.544-1.28 14.8 14.8 0 0 1 3.811-.507 13.785 13.785 0 0 1 7.057 1.817 13.444 13.444 0 0 1 4.973 5.032 14.576 14.576 0 0 1 1.846 7.385 13.608 13.608 0 0 1 -2.085 7.414 15.111 15.111 0 0 1 -5.6 5.241 16.259 16.259 0 0 1 -7.983 1.936z"/><path d="m1658.134 984.382a18.938 18.938 0 0 1 -8.545-1.906 16.694 16.694 0 0 1 -6.343-5.478l5.42-5.955a15.412 15.412 0 0 0 4.526 3.662 10.758 10.758 0 0 0 4.645.982 7.26 7.26 0 0 0 3.394-.773 5.936 5.936 0 0 0 2.353-2.174 5.84 5.84 0 0 0 .863-3.127 5.945 5.945 0 0 0 -.863-3.186 6.455 6.455 0 0 0 -2.323-2.233 6.661 6.661 0 0 0 -3.365-.834 13.106 13.106 0 0 0 -2.56.238 13.24 13.24 0 0 0 -2.532.8 29.067 29.067 0 0 0 -3.185 1.638l-4.288-5.717 2.56-18.4h23.941v8.517h-19.117l2.621-3.335-1.965 13.221-3.573-1.192a11.446 11.446 0 0 1 2.768-1.786 20.77 20.77 0 0 1 3.544-1.28 14.808 14.808 0 0 1 3.812-.507 13.784 13.784 0 0 1 7.056 1.817 13.444 13.444 0 0 1 4.973 5.032 14.576 14.576 0 0 1 1.847 7.385 13.617 13.617 0 0 1 -2.085 7.414 15.121 15.121 0 0 1 -5.6 5.241 16.259 16.259 0 0 1 -7.979 1.936z"/><path d="m1693.628 984.382a18.939 18.939 0 0 1 -8.546-1.906 16.694 16.694 0 0 1 -6.343-5.478l5.42-5.955a15.425 15.425 0 0 0 4.526 3.662 10.758 10.758 0 0 0 4.645.982 7.26 7.26 0 0 0 3.394-.773 5.93 5.93 0 0 0 2.353-2.174 5.84 5.84 0 0 0 .863-3.127 5.946 5.946 0 0 0 -.863-3.186 6.452 6.452 0 0 0 -2.322-2.233 6.667 6.667 0 0 0 -3.366-.834 12.187 12.187 0 0 0 -5.091 1.042 28.971 28.971 0 0 0 -3.186 1.638l-4.288-5.717 2.56-18.4h23.941v8.517h-19.116l2.62-3.335-1.965 13.221-3.573-1.192a11.464 11.464 0 0 1 2.768-1.786 20.775 20.775 0 0 1 3.544-1.28 14.807 14.807 0 0 1 3.812-.507 13.784 13.784 0 0 1 7.056 1.817 13.436 13.436 0 0 1 4.973 5.032 14.577 14.577 0 0 1 1.847 7.385 13.618 13.618 0 0 1 -2.085 7.414 15.122 15.122 0 0 1 -5.6 5.241 16.259 16.259 0 0 1 -7.978 1.932z"/></g></g></svg>