<svg height="359.12" viewBox="0 0 649.08 359.12" width="649.08" xmlns="http://www.w3.org/2000/svg"><g fill="#004272" transform="translate(-66.442 -3803.758)"><g><path d="m72.711 3824.943c-2.9 0-3.9.067-4.1.067-.3 0-.333-.033-.333-.367v-2c0-.333.033-.366.333-.366.2 0 1.2.066 4.1.066h8.926v-1.565h-5.5c-3.23 0-4.33.066-4.53.066-.333 0-.366-.033-.366-.333v-1.832c0-.333.033-.366.366-.366.2 0 1.3.066 4.53.066h5.5v-1.465h-4.3c-3.264 0-4.429.066-4.629.066-.367 0-.4-.033-.4-.4 0-.2.067-.633.067-1.733v-1.8c0-1.1-.067-1.532-.067-1.731 0-.366.033-.4.4-.4.2 0 1.365.068 4.629.068h4.3v-1.466h-8.393c-3 0-4.031.066-4.231.066-.333 0-.366-.033-.366-.366v-2.1c0-.333.033-.367.366-.367.2 0 1.233.067 4.231.067h8.393a15.9 15.9 0 0 0 -.233-3.065c1.232.034 2.3.067 3.465.2.3.033.533.166.533.366a1.308 1.308 0 0 1 -.2.633 5.137 5.137 0 0 0 -.2 1.865h8.461c3 0 4.03-.067 4.23-.067.333 0 .366.034.366.367v2.1c0 .333-.033.366-.366.366-.2 0-1.232-.066-4.23-.066h-8.463v1.466h4.43c3.265 0 4.43-.068 4.663-.068.333 0 .367.035.367.4 0 .2-.067.633-.067 1.731v1.8c0 1.1.067 1.532.067 1.733 0 .366-.034.4-.367.4-.233 0-1.4-.066-4.663-.066h-4.43v1.465h5.4c3.265 0 4.431-.066 4.6-.066.333 0 .366.033.366.366 0 .2-.066 1-.066 2.9v.766c1.965 0 2.731-.066 2.9-.066.3 0 .333.033.333.366v2c0 .334-.033.367-.333.367-.167 0-.933-.033-2.9-.067v1.7c0 2 .066 2.864.066 3.065 0 .333-.033.366-.366.366h-2.57c-.333 0-.367-.033-.367-.366v-.733h-7.028c.033.6.033 1.166.033 1.665 0 1.532-.3 2.432-1.2 2.965-.833.466-2.3.7-4.7.732-1 0-1-.033-1.333-.965a10.7 10.7 0 0 0 -1.3-2.532 22.853 22.853 0 0 0 3.365.133c1.432-.033 1.731-.266 1.731-1.232v-.766h-5.457c-3.263 0-4.363.067-4.563.067-.333 0-.366-.034-.366-.4v-1.8c0-.367.033-.4.366-.4.2 0 1.3.067 4.563.067h5.463v-1.566zm8.926-10.159v-1.665h-6.029v1.665zm9.527-1.665h-6.164v1.665h6.162zm-6.164 7.661v1.565h7.061v-1.565zm7.061 5.729v-1.566h-7.061v1.566z"/><path d="m73.143 3862.885c-3 0-4 .067-4.2.067-.367 0-.4-.034-.4-.367v-1.965c0-.367.033-.4.4-.4.2 0 1.2.067 4.2.067h8.228v-1.8h-4.7c-3.231 0-4.4.067-4.6.067-.333 0-.333-.034-.333-.367v-1.9c0-.367 0-.4.333-.4.2 0 1.365.067 4.6.067h4.7v-1.766h-6.262c-3.2 0-4.264.066-4.464.066-.366 0-.4-.033-.4-.333v-1.964c0-.334.033-.367.4-.367.2 0 1.266.067 4.464.067h2.031c-.366-.8-.7-1.466-1.065-2.1-.167-.3-.2-.433.233-.566l2.165-.6h-5.33c-3 0-4 .066-4.2.066-.367 0-.4-.033-.4-.366v-2.065c0-.366.033-.4.4-.4.2 0 1.2.067 4.2.067h.234a15.848 15.848 0 0 0 -1.9-2.864c-.2-.234-.134-.367.267-.567l1.931-.9c.333-.166.433-.133.633.134a19.746 19.746 0 0 1 2.232 3.23c.167.3.167.333-.266.566l-.8.4h3.1v-2.2a13.046 13.046 0 0 0 -.2-2.9c1.033.033 2.332.1 3.231.2q.4.051.4.3a1.776 1.776 0 0 1 -.133.567 5.194 5.194 0 0 0 -.2 1.832v2.2h2.7v-2.165a13.268 13.268 0 0 0 -.2-2.931 32.007 32.007 0 0 1 3.2.233c.3.033.432.133.432.3a1.579 1.579 0 0 1 -.132.534 5.183 5.183 0 0 0 -.2 1.832v2.2h2.066a24.545 24.545 0 0 0 1.532-2.732 6.321 6.321 0 0 0 .567-1.8 27.784 27.784 0 0 1 3.231.866c.3.1.433.266.433.433a.688.688 0 0 1 -.333.567 3.294 3.294 0 0 0 -.567.633c-.432.7-.9 1.365-1.365 2.031h.464c3 0 4-.067 4.2-.067.333 0 .366.034.366.4v2.065c0 .333-.033.366-.366.366-.2 0-1.2-.066-4.2-.066h-5.833c.866.167 1.632.333 2.632.6.266.066.432.2.432.4a.579.579 0 0 1 -.366.5 2.34 2.34 0 0 0 -.467.7l-.6 1.067h2.165c3.2 0 4.263-.067 4.463-.067.333 0 .367.033.367.367v1.964c0 .3-.034.333-.367.333-.2 0-1.265-.066-4.463-.066h-6.728v1.766h5.3c3.265 0 4.4-.067 4.6-.067.333 0 .366.033.366.4v1.9c0 .333-.033.367-.366.367-.2 0-1.332-.067-4.6-.067h-5.3v1.8h8.765c3 0 4-.067 4.2-.067.333 0 .366.033.366.4v1.965c0 .333-.033.367-.366.367-.2 0-1.2-.067-4.2-.067h-5.933c2.8 1.965 6.295 3.264 11.092 4.33a9.455 9.455 0 0 0 -1.3 2.132c-.267.633-.4.866-.733.866a3.5 3.5 0 0 1 -.766-.167 29.071 29.071 0 0 1 -11.192-5.961c0 3.963.167 6.028.167 6.594 0 .333-.034.367-.367.367h-2.831c-.3 0-.333-.034-.333-.367 0-.566.1-2.5.134-6.462a26.985 26.985 0 0 1 -10.693 5.963 2.553 2.553 0 0 1 -.766.2c-.3 0-.432-.232-.732-.865a7.985 7.985 0 0 0 -1.333-2c4.43-1.1 7.828-2.465 10.626-4.63zm12.857-11.225c.3-.567.565-1.133.9-1.932a6.127 6.127 0 0 0 .367-1.333h-8.494c.1.033.166.134.267.267a21.039 21.039 0 0 1 1.5 3z"/><path d="m96.76 3897.528c0 2.9.1 4.663.067 5.8a3.317 3.317 0 0 1 -1.066 2.764c-.733.567-1.9.867-5.163.867-.966 0-1.066-.034-1.266-1.066a8.147 8.147 0 0 0 -.933-2.6c1.4.1 2.865.167 3.5.133 1.032-.034 1.332-.3 1.332-1.132v-5.664a9.849 9.849 0 0 0 -1.665 2.1c-.3.467-.467.7-.666.7-.167 0-.367-.133-.733-.4a20.415 20.415 0 0 1 -6.767-8.23l-.1.267a17.842 17.842 0 0 1 -6.829 8.394c-.366.3-.566.433-.732.433-.2 0-.333-.2-.633-.666a9.213 9.213 0 0 0 -1.6-1.933v4.631c0 3.1.067 4.63.067 4.829 0 .3-.033.334-.4.334h-2.9c-.333 0-.366-.034-.366-.334 0-.232.066-1.8.066-5.229v-12.891c0-3.43-.066-5.03-.066-5.262 0-.333.033-.368.366-.368.233 0 1.332.068 4.5.068h6.527c.034-.767.067-1.566.067-2.4a25.947 25.947 0 0 0 -.2-3.564c1.166.033 2.464.134 3.664.233.333.034.5.2.5.4a2.042 2.042 0 0 1 -.2.7 13.074 13.074 0 0 0 -.167 2.431c0 .733-.033 1.465-.066 2.2h7.102c3.132 0 4.263-.068 4.464-.068.333 0 .366.035.366.368 0 .2-.067 2-.067 5.463zm-23.25-.567a14.138 14.138 0 0 0 6.5-6.894 17.157 17.157 0 0 0 1.032-3.8h-7.532zm19.719-10.692h-8.529a16.981 16.981 0 0 0 8.527 10.16z"/><path d="m74.043 3934.936c-1.066.566-2.2 1.132-3.365 1.665a2.645 2.645 0 0 1 -.8.267c-.3 0-.4-.234-.633-.833a5.678 5.678 0 0 0 -1.234-2.065c5.564-2.065 9.394-4.6 11.959-7.495a11.108 11.108 0 0 0 1.866-2.6 24.891 24.891 0 0 1 3.2.633c.266.068.433.234.433.434 0 .166-.133.267-.333.4l-.067.067c3.331 3.7 7.729 6.362 13.624 8.094a7.41 7.41 0 0 0 -1.2 2.465c-.2.633-.267.867-.532.867a2.023 2.023 0 0 1 -.767-.234c-1.332-.566-2.6-1.133-3.764-1.766v3.865c0 4.3.067 5.1.067 5.262 0 .368-.033.4-.366.4h-2.765c-.367 0-.4-.033-.4-.4v-1.131h-11.459v1.232c0 .333-.033.366-.367.366h-2.8c-.333 0-.366-.033-.366-.366 0-.2.067-1 .067-5.3zm18.357-17.954c3.1 0 4.2-.066 4.43-.066.333 0 .366.033.366.366 0 .2-.066.732-.066 1.565v1.3c0 2.765.066 3.265.066 3.464 0 .334-.033.367-.366.367h-2.8c-.333 0-.366-.033-.366-.367v-3.664h-20.753v3.664c0 .334-.034.367-.367.367h-2.8c-.333 0-.366-.033-.366-.367 0-.233.066-.7.066-3.464v-1.065c0-1.067-.066-1.567-.066-1.8 0-.333.033-.366.366-.366.233 0 1.333.066 4.43.066h7.1a13.271 13.271 0 0 0 -.266-3.165c1.232.033 2.464.1 3.6.2.366.033.533.167.533.3a2.96 2.96 0 0 1 -.2.666 5.865 5.865 0 0 0 -.166 1.933v.066zm-12.025 5.362c.3.167.333.3.333.5s-.234.366-.466.433a3.817 3.817 0 0 0 -1.066.866 24.56 24.56 0 0 1 -5.83 4.464 2.474 2.474 0 0 1 -.8.333c-.267 0-.4-.233-.733-.8a6.157 6.157 0 0 0 -1.632-1.832 16.275 16.275 0 0 0 5.929-3.631 8.177 8.177 0 0 0 1.4-1.731 28.557 28.557 0 0 1 2.862 1.398zm-2.868 17.656h11.458v-4.43h-11.458zm11.359-7.262a26.733 26.733 0 0 1 -5.663-5.1 29.67 29.67 0 0 1 -5.662 5.1zm-.767-11.525c.267-.2.4-.2.634.034a18.023 18.023 0 0 0 7.594 4.663 12.6 12.6 0 0 0 -1.266 2.1c-.266.6-.366.833-.566.833a1.914 1.914 0 0 1 -.766-.3 23.929 23.929 0 0 1 -7.561-5.6c-.234-.267-.234-.333.167-.6z"/></g><g><path d="m186.13 3953.284a53.772 53.772 0 0 1 -15.339-2.033 39.287 39.287 0 0 1 -12.137-5.915 48.85 48.85 0 0 1 -9.487-9.179l12.691-14.415q6.159 8.256 12.382 11.089a30.726 30.726 0 0 0 12.876 2.834 19.852 19.852 0 0 0 6.037-.863 9.174 9.174 0 0 0 4.189-2.526 5.98 5.98 0 0 0 1.479-4.127 6.147 6.147 0 0 0 -.925-3.327 8.88 8.88 0 0 0 -2.525-2.587 20.734 20.734 0 0 0 -3.82-2.033 39.039 39.039 0 0 0 -4.682-1.6q-2.466-.677-5.051-1.171a67.195 67.195 0 0 1 -12.444-3.942 29.932 29.932 0 0 1 -8.81-5.73 21.783 21.783 0 0 1 -5.236-7.762 26.451 26.451 0 0 1 -1.726-9.8 21.911 21.911 0 0 1 2.65-10.657 26.758 26.758 0 0 1 7.146-8.379 33.446 33.446 0 0 1 10.411-5.421 39.849 39.849 0 0 1 12.321-1.91 52.346 52.346 0 0 1 14.6 1.787 31.93 31.93 0 0 1 10.473 5.113 32.3 32.3 0 0 1 7.455 8.009l-12.938 12.443a27.128 27.128 0 0 0 -5.606-5.3 24.716 24.716 0 0 0 -6.406-3.2 22.263 22.263 0 0 0 -6.962-1.109 19.305 19.305 0 0 0 -6.345.925 9.62 9.62 0 0 0 -4.128 2.586 5.829 5.829 0 0 0 -1.478 4.005 5.393 5.393 0 0 0 1.232 3.573 11.623 11.623 0 0 0 3.326 2.649 23.422 23.422 0 0 0 4.806 1.972 47.012 47.012 0 0 0 5.667 1.293 68.751 68.751 0 0 1 12.26 3.573 37.715 37.715 0 0 1 9.487 5.422 22.251 22.251 0 0 1 6.16 7.577 22.732 22.732 0 0 1 2.156 10.165q0 9-4.374 15.216a27.53 27.53 0 0 1 -11.951 9.487 43.724 43.724 0 0 1 -17.434 3.268z"/><path d="m235.659 3952.051v-86.251h60.126v17.865h-39.8v50.517h41.029v17.865zm9.856-35.361v-17h44.726v17z"/><path d="m315.128 3952.051v-86.251h38.81a31.392 31.392 0 0 1 14.971 3.573 26.97 26.97 0 0 1 10.534 9.8 26.436 26.436 0 0 1 3.819 14.108 28.177 28.177 0 0 1 -3.819 14.6 27.356 27.356 0 0 1 -10.473 10.165 30.426 30.426 0 0 1 -15.032 3.7h-18.85v30.309zm19.96-46.327h17a10.829 10.829 0 0 0 5.606-1.417 9.407 9.407 0 0 0 3.7-4 13.029 13.029 0 0 0 1.294-5.914 11.364 11.364 0 0 0 -1.478-5.852 9.765 9.765 0 0 0 -4.251-3.881 15.168 15.168 0 0 0 -6.715-1.356h-15.156zm27.845 46.327-21.933-38.934 21.438-3.08 24.4 42.014z"/><path d="m425.769 3952.051-34.5-86.247h21.808l16.634 43.987q1.477 3.819 2.525 6.653t1.849 5.3q.8 2.465 1.478 4.99t1.54 5.728h-3.819q.984-4.187 1.971-7.454t2.217-6.776q1.232-3.512 3.081-8.439l16.017-43.987h21.44l-34.745 86.247z"/><path d="m487.62 3952.051v-17.619h14.539v-51.009h-14.539v-17.623h50.146v17.619h-14.666v51.009h14.662v17.619z"/><path d="m596.907 3953.284a48.006 48.006 0 0 1 -17.927-3.266 42.118 42.118 0 0 1 -14.231-9.24 41.028 41.028 0 0 1 -9.3-14.17 48.308 48.308 0 0 1 -3.266-18.05 44.941 44.941 0 0 1 3.451-17.742 42.742 42.742 0 0 1 23.963-23.41 48.494 48.494 0 0 1 18.174-3.326 46.057 46.057 0 0 1 12.074 1.6 41.882 41.882 0 0 1 11.028 4.743 37.069 37.069 0 0 1 8.809 7.454l-12.813 14.663a37.024 37.024 0 0 0 -5.484-4.744 23.464 23.464 0 0 0 -6.344-3.141 24.039 24.039 0 0 0 -7.393-1.11 24.363 24.363 0 0 0 -9.3 1.788 22.588 22.588 0 0 0 -12.752 13 28.32 28.32 0 0 0 -1.848 10.472 27.474 27.474 0 0 0 1.848 10.288 23.392 23.392 0 0 0 5.175 7.948 21.741 21.741 0 0 0 8.071 5.051 30.581 30.581 0 0 0 10.534 1.725 25.217 25.217 0 0 0 7.515-1.108 27.535 27.535 0 0 0 6.592-3.019 27.965 27.965 0 0 0 5.361-4.374l10.1 16.017a29.125 29.125 0 0 1 -8.193 6.161 49.528 49.528 0 0 1 -11.335 4.251 51.958 51.958 0 0 1 -12.509 1.539z"/><path d="m643.232 3952.051v-86.251h60.126v17.865h-39.8v50.517h41.032v17.865zm9.857-35.361v-17h44.725v17z"/></g><g><path d="m93.072 4085.039c0 2.577.114 5.383.114 7.673 0 2.12-.228 3.609-1.431 4.753-1.088.86-2.462 1.146-6.185 1.2-1.775 0-1.775.057-2.176-1.717a12.27 12.27 0 0 0 -1.431-3.665c2 .172 3.549.228 4.924.228 1.031-.056 1.489-.458 1.489-1.832v-7.96h-11.453c-.516 6.3-1.6 10.25-3.379 13.8-.4.744-.63 1.088-.916 1.088-.229 0-.458-.229-.8-.63a14.136 14.136 0 0 0 -3.264-3.035c2.978-5.5 3.951-10.709 3.951-21.933v-7.731l-.458.515c-.458.516-.745.8-.973.8-.286 0-.516-.4-.916-1.145a11.725 11.725 0 0 0 -2.234-2.92 36.221 36.221 0 0 0 7.731-12.027 14.754 14.754 0 0 0 1.088-3.893 35.2 35.2 0 0 1 4.81 1.144c.63.172.916.458.916.8a1.2 1.2 0 0 1 -.458.917 6.032 6.032 0 0 0 -1.2 1.946h5.612a2.666 2.666 0 0 0 1.088-.172 1.437 1.437 0 0 1 .744-.228c.287 0 .63.172 1.89 1.2 1.2.917 1.432 1.318 1.432 1.661 0 .4-.115.63-.63 1.031a5.029 5.029 0 0 0 -1.146 1.6c-.744 1.547-1.488 2.979-2.233 4.238 3.379 0 4.582-.115 4.925-.115.631 0 .687.058.687.631 0 .343-.114 2.462-.114 6.643zm-10.881-24.281a44.469 44.469 0 0 0 2.4-4.982h-5.664a49.46 49.46 0 0 1 -2.978 4.982zm-1.6 18.554v-4.981h-3.267c0 1.774-.058 3.493-.115 4.981zm0-9.392v-4.81h-3.267v4.81zm4.524-4.81v4.81h3.264v-4.81zm3.264 14.2v-4.981h-3.267v4.981zm17.351-7.5a22.838 22.838 0 0 0 -.343-4.409c1.89.058 3.894.172 5.5.344.515.057.744.228.744.572a2.742 2.742 0 0 1 -.286.974 7.321 7.321 0 0 0 -.287 2.519v1.489c5.669 0 7.674-.114 8.018-.114.572 0 .63.057.63.63v3.837c0 .63-.058.686-.63.686-.344 0-2.349-.114-8.018-.114v5.326h2.578c4.982 0 6.642-.115 6.986-.115.572 0 .63.058.63.63v3.952c0 .63-.058.687-.63.687-.344 0-2-.115-6.986-.115h-2.578v2.291c0 4.753.115 7.1.115 7.387 0 .573-.057.63-.63.63h-4.243c-.629 0-.687-.057-.687-.63 0-.343.114-2.634.114-7.387v-2.291h-3.321c-4.982 0-6.7.115-7.043.115-.573 0-.631-.057-.631-.687v-3.952c0-.572.058-.63.631-.63.343 0 2.061.115 7.043.115h3.321v-5.326h-5.327c-.4 1.031-.859 1.947-1.26 2.863-.458.86-.687 1.26-1.031 1.26a2.817 2.817 0 0 1 -1.316-.686 18.005 18.005 0 0 0 -3.207-1.375 36.609 36.609 0 0 0 3.836-8.476 15.042 15.042 0 0 0 .573-3.092 40.531 40.531 0 0 1 4.295 1.2c.63.23.916.4.916.688a.919.919 0 0 1 -.172.63 4.385 4.385 0 0 0 -.744 1.775l-.115.286h3.55zm-10.594-21.7c0-.573.058-.63.63-.63.344 0 1.89.114 6.643.114h9.679c4.695 0 6.3-.114 6.642-.114.572 0 .744.171.688.687l-.116 2.863c-.228 5.5-.458 8.247-1.431 10.48-.859 1.947-2.978 2.864-5.383 2.864a29.1 29.1 0 0 1 -3.035-.116c-1.546-.171-1.718-.171-1.832-1.488a11.064 11.064 0 0 0 -1.089-4.009 22.664 22.664 0 0 0 4.066.458c1.661 0 2.12-.286 2.462-1.431a23.8 23.8 0 0 0 .631-5.383h-6.3c-1.088 6.241-3.665 10.021-8.589 13.113-.63.4-.974.63-1.26.63-.344 0-.574-.343-1.088-1.144a11.129 11.129 0 0 0 -2.807-2.864c5.04-2.463 7.274-5.1 8.132-9.735-4.237 0-5.727.114-6.013.114-.572 0-.63-.057-.63-.63z"/><path d="m149.877 4064.308c-5.613 0-7.5.115-7.846.115-.572 0-.63-.057-.63-.63v-4.41c0-.63.058-.63.63-.63.344 0 2.233.058 7.846.058h5.783v-3.723a63.165 63.165 0 0 0 -.4-8.131 50.907 50.907 0 0 1 6.013.458c.573 0 .917.287.917.573a2.981 2.981 0 0 1 -.4 1.2c-.286.687-.344 1.89-.344 5.784v3.837h8.132c5.555 0 7.5-.058 7.9-.058.515 0 .572 0 .572.63v4.41c0 .573-.057.63-.572.63-.4 0-2.348-.115-7.9-.115h-5.955c3.951 7.732 8.188 13.058 15.92 19.586a14.647 14.647 0 0 0 -2.807 3.836c-.4.8-.63 1.2-.916 1.2s-.63-.344-1.2-.916a56.531 56.531 0 0 1 -13.344-19.242c0 5.154.058 10.251.115 14.718h1.309c4.467 0 5.9-.115 6.242-.115.573 0 .63.057.63.63v4.181c0 .63-.057.687-.63.687-.344 0-1.775-.115-6.242-.115h-1.26c.058 5.441.172 9.22.172 9.793s-.058.63-.63.63h-4.925c-.63 0-.687-.058-.687-.63s.115-4.41.229-9.793h-1.031c-4.467 0-5.9.115-6.242.115-.573 0-.63-.057-.63-.687v-4.181c0-.573.057-.63.63-.63.344 0 1.775.115 6.242.115h1.088c.115-4.467.172-9.564.172-14.66a53.576 53.576 0 0 1 -13.057 19.127c-.572.515-.916.859-1.2.859s-.516-.344-.916-1.089a18.665 18.665 0 0 0 -2.577-3.378v5.5c0 5.612.114 8.418.114 8.705 0 .572-.058.63-.63.63h-4.862c-.516 0-.573-.058-.573-.63 0-.344.114-3.093.114-8.705v-13c0-1.89 0-4.181.058-6.472-1.088 1.432-2.176 2.864-3.322 4.181-.4.458-.744.744-1.031.744s-.458-.343-.63-1.03a16.353 16.353 0 0 0 -1.946-4.925 50.623 50.623 0 0 0 10.88-18.611 19.739 19.739 0 0 0 .859-4.067 39.647 39.647 0 0 1 5.555 1.776c.63.286.916.458.916.859s-.172.63-.63 1.03a5.551 5.551 0 0 0 -1.146 2.291 82.7 82.7 0 0 1 -3.721 8.361v23.193a52.98 52.98 0 0 0 15-19.872z"/><path d="m192.193 4093.916c-5.1 0-6.872.114-7.216.114-.573 0-.63-.058-.63-.63v-4.811c0-.572.057-.629.63-.629.344 0 2.119.114 7.216.114h13.8v-29.664h-10.078c-5.555 0-7.387.115-7.731.115-.573 0-.63-.058-.63-.63v-4.81c0-.574.057-.63.63-.63.344 0 2.176.114 7.731.114h27.485c5.5 0 7.33-.114 7.674-.114.572 0 .63.056.63.63v4.81c0 .572-.058.63-.63.63-.344 0-2.177-.115-7.674-.115h-10.935v29.664h14.6c5.1 0 6.872-.114 7.215-.114.573 0 .63.057.63.629v4.811c0 .572-.057.63-.63.63-.343 0-2.118-.114-7.215-.114z"/><path d="m248.654 4082.863c-4.982 0-6.7.114-7.044.114-.516 0-.573-.057-.573-.63v-3.435c0-.574.057-.63.573-.63.344 0 2.062.114 7.044.114h15.346v-2.691h-9.449c-5.555 0-7.445.114-7.789.114-.572 0-.63-.057-.63-.572v-3.15c0-.573.058-.63.63-.63.344 0 2.234.115 7.789.115h9.449v-2.52h-7.387c-5.612 0-7.617.114-7.96.114-.63 0-.688-.057-.688-.687 0-.344.115-1.088.115-2.978v-3.093c0-1.889-.115-2.633-.115-2.977 0-.63.058-.688.688-.688.343 0 2.348.116 7.96.116h7.387v-2.521h-14.43c-5.154 0-6.93.115-7.273.115-.573 0-.63-.057-.63-.629v-3.609c0-.572.057-.63.63-.63.343 0 2.119.115 7.273.115h14.43a27.4 27.4 0 0 0 -.4-5.268c2.118.057 3.951.114 5.955.343.516.057.917.287.917.63a2.225 2.225 0 0 1 -.343 1.088 8.853 8.853 0 0 0 -.344 3.207h14.546c5.153 0 6.928-.115 7.272-.115.572 0 .63.058.63.63v3.609c0 .572-.058.629-.63.629-.344 0-2.119-.115-7.272-.115h-14.546v2.521h7.615c5.612 0 7.616-.116 8.018-.116.572 0 .63.058.63.688 0 .344-.115 1.088-.115 2.977v3.093c0 1.89.115 2.634.115 2.978 0 .63-.058.687-.63.687-.4 0-2.406-.114-8.018-.114h-7.616v2.52h9.277c5.612 0 7.616-.115 7.9-.115.573 0 .629.057.629.63 0 .343-.114 1.718-.114 4.982v1.317c3.379 0 4.695-.114 4.983-.114.514 0 .572.056.572.63v3.435c0 .573-.058.63-.572.63-.288 0-1.6-.057-4.983-.114v2.921c0 3.435.114 4.925.114 5.268 0 .573-.056.63-.629.63h-4.41c-.573 0-.63-.057-.63-.63v-1.259h-12.079c.057 1.03.057 2 .057 2.863 0 2.634-.515 4.179-2.061 5.1-1.432.8-3.952 1.2-8.075 1.26-1.717 0-1.717-.057-2.291-1.661a18.427 18.427 0 0 0 -2.233-4.352 39.019 39.019 0 0 0 5.784.229c2.463-.058 2.978-.458 2.978-2.119v-1.316h-9.392c-5.612 0-7.5.114-7.846.114-.572 0-.63-.058-.63-.688v-3.092c0-.629.058-.687.63-.687.344 0 2.234.114 7.846.114h9.391v-2.691zm15.346-17.463v-2.863h-10.365v2.863zm16.378-2.863h-10.593v2.863h10.594zm-10.594 13.171v2.691h12.14v-2.691zm12.14 9.849v-2.691h-12.14v2.691z"/><path d="m306.661 4085.1c-5.154 0-6.872.114-7.216.114-.63 0-.687-.056-.687-.629v-3.385c0-.63.057-.687.687-.687.344 0 2.062.114 7.216.114h14.139v-3.092h-8.074c-5.555 0-7.559.115-7.9.115-.572 0-.572-.058-.572-.63v-3.265c0-.63 0-.687.572-.687.344 0 2.348.115 7.9.115h8.074v-3.035h-10.76c-5.5 0-7.33.114-7.674.114-.63 0-.688-.057-.688-.572v-3.379c0-.573.058-.63.688-.63.344 0 2.176.114 7.674.114h3.493c-.63-1.374-1.2-2.519-1.833-3.607-.286-.516-.344-.745.4-.974l3.722-1.031h-9.162c-5.154 0-6.872.115-7.216.115-.63 0-.687-.057-.687-.63v-3.55c0-.63.057-.688.687-.688.344 0 2.062.114 7.216.114h.4a27.211 27.211 0 0 0 -3.263-4.924c-.344-.4-.23-.63.458-.974l3.321-1.546c.573-.286.745-.228 1.088.23a34.124 34.124 0 0 1 3.837 5.554c.286.516.286.573-.458.974l-1.374.686h5.325v-3.779a22.483 22.483 0 0 0 -.343-4.982c1.774.057 4.008.172 5.555.343.458.058.686.23.686.516a3.024 3.024 0 0 1 -.228.974 8.927 8.927 0 0 0 -.344 3.149v3.779h4.639v-3.721a22.694 22.694 0 0 0 -.344-5.04 55.06 55.06 0 0 1 5.5.4c.516.058.745.229.745.516a2.682 2.682 0 0 1 -.229.916 8.927 8.927 0 0 0 -.344 3.149v3.779h3.551a42.217 42.217 0 0 0 2.634-4.695 10.9 10.9 0 0 0 .973-3.093 48.07 48.07 0 0 1 5.556 1.49c.514.171.744.458.744.744a1.183 1.183 0 0 1 -.572.973 5.767 5.767 0 0 0 -.974 1.088c-.745 1.2-1.547 2.349-2.349 3.493h.8c5.154 0 6.872-.114 7.216-.114.572 0 .63.058.63.688v3.55c0 .573-.058.63-.63.63-.344 0-2.062-.115-7.216-.115h-10.021c1.489.287 2.806.573 4.524 1.031.458.115.744.344.744.688a.993.993 0 0 1 -.63.858 4.02 4.02 0 0 0 -.8 1.2l-1.03 1.832h3.722c5.5 0 7.33-.114 7.674-.114.573 0 .63.057.63.63v3.379c0 .515-.057.572-.63.572-.344 0-2.176-.114-7.674-.114h-11.569v3.035h9.11c5.611 0 7.559-.115 7.9-.115.574 0 .63.057.63.687v3.265c0 .572-.056.63-.63.63-.343 0-2.291-.115-7.9-.115h-9.11v3.092h15.06c5.154 0 6.872-.114 7.216-.114.572 0 .63.057.63.687v3.379c0 .573-.058.629-.63.629-.344 0-2.062-.114-7.216-.114h-10.193c4.81 3.379 10.823 5.613 19.07 7.445a16.2 16.2 0 0 0 -2.233 3.665c-.458 1.087-.688 1.489-1.26 1.489a6.108 6.108 0 0 1 -1.318-.286 50.018 50.018 0 0 1 -19.241-10.251c0 6.814.286 10.365.286 11.339 0 .572-.057.629-.629.629h-4.869c-.514 0-.572-.057-.572-.629 0-.974.172-4.3.229-11.11-4.81 4.581-10.766 7.788-18.382 10.25a4.367 4.367 0 0 1 -1.318.344c-.515 0-.744-.4-1.259-1.489a13.66 13.66 0 0 0 -2.291-3.436c7.617-1.889 13.458-4.237 18.268-7.96zm22.1-19.3c.516-.973.974-1.947 1.547-3.321a10.5 10.5 0 0 0 .63-2.291h-14.6c.171.058.286.23.458.458a35.977 35.977 0 0 1 2.577 5.154z"/></g><g><path d="m68.787 4162.612v-18.644h7.8a10.051 10.051 0 0 1 3.756.679 8.484 8.484 0 0 1 4.848 4.888 10.971 10.971 0 0 1 0 7.523 8.435 8.435 0 0 1 -1.9 2.957 8.639 8.639 0 0 1 -2.943 1.918 10.081 10.081 0 0 1 -3.756.679zm4.528-3.09-.613-.9h3.756a4.93 4.93 0 0 0 2-.386 4.374 4.374 0 0 0 1.5-1.079 4.89 4.89 0 0 0 .972-1.678 7.066 7.066 0 0 0 0-4.368 4.89 4.89 0 0 0 -.972-1.678 4.367 4.367 0 0 0 -1.5-1.079 4.921 4.921 0 0 0 -2-.386h-3.836l.693-.852z"/><path d="m89.348 4162.612v-18.644h13v3.862h-8.6v10.92h8.869v3.862zm2.131-7.644v-3.675h9.668v3.675z"/><path d="m106.527 4162.612v-18.644h4.049l6.791 11.053-2.9-.026 6.871-11.027h3.888v18.644h-4.396v-5.807q0-2.4.12-4.314t.412-3.809l.507 1.385-5.167 8.018h-1.759l-5.06-7.964.506-1.439a36.749 36.749 0 0 1 .412 3.662q.122 1.878.121 4.461v5.807z"/><path d="m138.408 4162.878a10.186 10.186 0 0 1 -3.889-.719 9.184 9.184 0 0 1 -5.087-5.087 10.745 10.745 0 0 1 0-7.724 9.181 9.181 0 0 1 5.087-5.087 10.731 10.731 0 0 1 7.725 0 9.234 9.234 0 0 1 3.062 2.024 9.05 9.05 0 0 1 2.011 3.063 10.878 10.878 0 0 1 0 7.71 9.012 9.012 0 0 1 -2.011 3.077 9.221 9.221 0 0 1 -3.062 2.024 10.041 10.041 0 0 1 -3.836.719zm-.026-4.261a4.974 4.974 0 0 0 2.01-.4 4.7 4.7 0 0 0 1.6-1.132 5.218 5.218 0 0 0 1.052-1.717 6.43 6.43 0 0 0 0-4.316 5.234 5.234 0 0 0 -1.052-1.717 4.717 4.717 0 0 0 -1.6-1.132 5.254 5.254 0 0 0 -4.021 0 4.848 4.848 0 0 0 -1.612 1.132 4.932 4.932 0 0 0 -1.051 1.717 6.232 6.232 0 0 0 -.361 2.158 6.325 6.325 0 0 0 .361 2.17 4.765 4.765 0 0 0 1.051 1.718 4.926 4.926 0 0 0 3.623 1.519z"/><path d="m151.539 4162.612v-18.644h4.528v14.649h8.31v3.995z"/><path d="m167.385 4162.612v-3.812h3.144v-11.026h-3.144v-3.809h10.841v3.809h-3.17v11.026h3.17v3.809z"/><path d="m186.59 4162.612v-14.649h-5.541v-4h15.741v4h-5.673v14.649z"/><path d="m199.613 4162.612v-3.812h3.144v-11.026h-3.144v-3.809h10.841v3.809h-3.17v11.026h3.17v3.809z"/><path d="m223.264 4162.878a10.181 10.181 0 0 1 -3.888-.719 9.175 9.175 0 0 1 -5.087-5.087 10.731 10.731 0 0 1 0-7.724 9.173 9.173 0 0 1 5.087-5.087 10.728 10.728 0 0 1 7.724 0 9.239 9.239 0 0 1 3.063 2.024 9.049 9.049 0 0 1 2.011 3.063 10.878 10.878 0 0 1 0 7.71 9.012 9.012 0 0 1 -2.011 3.077 9.225 9.225 0 0 1 -3.063 2.024 10.041 10.041 0 0 1 -3.836.719zm-.026-4.261a4.982 4.982 0 0 0 2.011-.4 4.71 4.71 0 0 0 1.6-1.132 5.219 5.219 0 0 0 1.052-1.717 6.43 6.43 0 0 0 0-4.316 5.234 5.234 0 0 0 -1.052-1.717 4.723 4.723 0 0 0 -1.6-1.132 5.256 5.256 0 0 0 -4.022 0 4.854 4.854 0 0 0 -1.611 1.132 4.919 4.919 0 0 0 -1.052 1.717 6.256 6.256 0 0 0 -.36 2.158 6.349 6.349 0 0 0 .36 2.17 4.754 4.754 0 0 0 1.052 1.718 4.922 4.922 0 0 0 3.622 1.519z"/><path d="m236.4 4162.612v-18.644h4.049l9.774 13.317-.878-.133q-.133-.879-.213-1.678t-.147-1.571q-.067-.773-.106-1.572c-.028-.533-.045-1.11-.054-1.731s-.014-1.3-.014-2.024v-4.608h4.4v18.644h-4.1l-10.2-13.743 1.358.186c.088.853.165 1.576.227 2.171s.115 1.123.159 1.584.075.879.094 1.252.03.742.04 1.106.013.768.013 1.211v6.233z"/><path d="m269.767 4162.612-5.593-18.644h4.607l2.8 9.8q.186.666.333 1.346c.1.452.178.883.239 1.291s.111.786.147 1.132.071.635.107.866h-.586q.159-.985.279-1.758t.28-1.452c.106-.452.24-.928.4-1.425l2.771-7.378h3.622l2.716 7.378q.319.879.533 1.651a14.881 14.881 0 0 1 .333 1.479c.08.471.146.936.2 1.4l-.533.08c.036-.32.062-.617.08-.892s.04-.542.066-.8.058-.528.094-.812.089-.6.16-.946.168-.741.293-1.185l2.77-9.775h4.5l-5.593 18.644h-3.463l-4.421-10.734.506.053-4.075 10.681z"/><path d="m301.354 4162.878a10.186 10.186 0 0 1 -3.889-.719 9.178 9.178 0 0 1 -5.086-5.087 10.731 10.731 0 0 1 0-7.724 9.175 9.175 0 0 1 5.086-5.087 10.731 10.731 0 0 1 7.725 0 9.249 9.249 0 0 1 3.063 2.024 9.032 9.032 0 0 1 2.01 3.063 10.878 10.878 0 0 1 0 7.71 9 9 0 0 1 -2.01 3.077 9.235 9.235 0 0 1 -3.063 2.024 10.041 10.041 0 0 1 -3.836.719zm-.026-4.261a4.982 4.982 0 0 0 2.011-.4 4.71 4.71 0 0 0 1.6-1.132 5.219 5.219 0 0 0 1.052-1.717 6.43 6.43 0 0 0 0-4.316 5.234 5.234 0 0 0 -1.052-1.717 4.723 4.723 0 0 0 -1.6-1.132 5.256 5.256 0 0 0 -4.022 0 4.854 4.854 0 0 0 -1.611 1.132 4.919 4.919 0 0 0 -1.052 1.717 6.256 6.256 0 0 0 -.36 2.158 6.349 6.349 0 0 0 .36 2.17 4.754 4.754 0 0 0 1.052 1.718 4.922 4.922 0 0 0 3.622 1.519z"/><path d="m314.485 4162.612v-18.644h8.39a6.769 6.769 0 0 1 3.236.773 5.8 5.8 0 0 1 2.277 2.117 5.714 5.714 0 0 1 .826 3.05 6.089 6.089 0 0 1 -.826 3.155 5.916 5.916 0 0 1 -2.263 2.2 6.591 6.591 0 0 1 -3.25.8h-4.075v6.552zm4.315-10.012h3.676a2.343 2.343 0 0 0 1.212-.305 2.045 2.045 0 0 0 .8-.867 2.813 2.813 0 0 0 .28-1.278 2.451 2.451 0 0 0 -.32-1.265 2.11 2.11 0 0 0 -.919-.839 3.284 3.284 0 0 0 -1.451-.293h-3.278zm6.02 10.015-4.741-8.416 4.635-.666 5.273 9.082z"/><path d="m333.182 4162.612v-18.644h4.529v18.644zm3.3-5.46-1.172-3.809 9.242-9.375h5.354zm8.656 5.46-6.925-9.11 3.063-2.636 9.136 11.746z"/></g></g><path d="m0 316.078h649.08" fill="none" stroke="#004272" stroke-miterlimit="10"/></svg>