<svg height="105.165" viewBox="0 0 1163.413 105.165" width="1163.413" xmlns="http://www.w3.org/2000/svg"><g fill="#004272" transform="translate(-238.681 -1996.168)"><path d="m262.614 2030.857c0 2.317.1 4.838.1 6.9 0 1.9-.206 3.242-1.287 4.271-.978.773-2.213 1.031-5.558 1.081-1.6 0-1.6.052-1.956-1.543a10.975 10.975 0 0 0 -1.287-3.294c1.8.154 3.191.206 4.426.206.926-.052 1.339-.412 1.339-1.648v-7.153h-10.291c-.463 5.661-1.441 9.213-3.037 12.4-.36.669-.566.979-.823.979-.206 0-.412-.206-.721-.567a12.652 12.652 0 0 0 -2.934-2.727c2.677-4.942 3.552-9.625 3.552-19.713v-6.949l-.412.463c-.412.463-.669.72-.875.72-.257 0-.463-.359-.824-1.029a10.542 10.542 0 0 0 -2.006-2.624 32.547 32.547 0 0 0 6.947-10.809 13.233 13.233 0 0 0 .978-3.5 31.594 31.594 0 0 1 4.324 1.03c.566.154.823.412.823.72a1.074 1.074 0 0 1 -.411.824 5.383 5.383 0 0 0 -1.081 1.75h5.044a2.414 2.414 0 0 0 .977-.155 1.3 1.3 0 0 1 .67-.206c.257 0 .565.154 1.7 1.081 1.081.823 1.286 1.184 1.286 1.492 0 .361-.1.567-.566.927a4.522 4.522 0 0 0 -1.029 1.442c-.669 1.389-1.338 2.675-2.007 3.808 3.036 0 4.117-.1 4.426-.1.566 0 .618.051.618.566 0 .309-.1 2.213-.1 5.971zm-9.779-21.822a40.366 40.366 0 0 0 2.162-4.477h-5.1a44.707 44.707 0 0 1 -2.676 4.477zm-1.441 16.676v-4.479h-2.934c0 1.6-.051 3.14-.1 4.479zm0-8.441v-4.324h-2.934v4.324zm4.065-4.324v4.324h2.935v-4.324zm2.935 12.765v-4.479h-2.935v4.479zm15.594-6.743a20.523 20.523 0 0 0 -.309-3.963c1.7.052 3.5.154 4.941.309.463.051.67.206.67.515a2.471 2.471 0 0 1 -.258.875 6.565 6.565 0 0 0 -.258 2.264v1.339c5.1 0 6.9-.1 7.206-.1.515 0 .566.052.566.567v3.448c0 .566-.051.618-.566.618-.309 0-2.11-.1-7.206-.1v4.788h2.317c4.477 0 5.97-.1 6.279-.1.514 0 .566.052.566.566v3.551c0 .567-.052.618-.566.618-.309 0-1.8-.1-6.279-.1h-2.317v2.059c0 4.272.1 6.382.1 6.639 0 .515-.051.567-.565.567h-3.809c-.566 0-.618-.052-.618-.567 0-.308.1-2.367.1-6.639v-2.059h-2.982c-4.478 0-6.022.1-6.331.1-.514 0-.566-.051-.566-.618v-3.551c0-.514.052-.566.566-.566.309 0 1.853.1 6.331.1h2.985v-4.788h-4.785c-.361.927-.772 1.75-1.133 2.574-.411.772-.617 1.132-.926 1.132a2.54 2.54 0 0 1 -1.184-.618 16.21 16.21 0 0 0 -2.882-1.234 32.955 32.955 0 0 0 3.448-7.618 13.485 13.485 0 0 0 .515-2.78 36.5 36.5 0 0 1 3.86 1.082c.566.206.824.36.824.618a.825.825 0 0 1 -.155.565 3.941 3.941 0 0 0 -.669 1.6l-.1.258h3.191zm-9.521-19.506c0-.515.051-.566.566-.566.308 0 1.7.1 5.97.1h8.7c4.22 0 5.661-.1 5.97-.1.515 0 .669.154.618.618l-.1 2.573c-.206 4.94-.412 7.411-1.287 9.419-.772 1.749-2.676 2.573-4.837 2.573a26.548 26.548 0 0 1 -2.729-.1c-1.389-.155-1.543-.155-1.646-1.338a9.945 9.945 0 0 0 -.979-3.6 20.367 20.367 0 0 0 3.655.411c1.492 0 1.9-.257 2.213-1.286a21.383 21.383 0 0 0 .566-4.838h-5.667c-.977 5.61-3.293 9.007-7.719 11.786-.567.361-.875.566-1.133.566-.309 0-.514-.309-.978-1.029a10.015 10.015 0 0 0 -2.522-2.574c4.53-2.213 6.537-4.58 7.309-8.749-3.809 0-5.147.1-5.4.1-.515 0-.566-.052-.566-.567z"/><path d="m313.673 2012.226c-5.044 0-6.743.1-7.051.1-.515 0-.566-.052-.566-.566v-3.96c0-.567.051-.567.566-.567.308 0 2.007.052 7.051.052h5.2v-3.346a56.976 56.976 0 0 0 -.36-7.308 45.981 45.981 0 0 1 5.4.412c.515 0 .823.257.823.515a2.7 2.7 0 0 1 -.36 1.081c-.257.617-.309 1.7-.309 5.2v3.448h7.308c4.993 0 6.743-.052 7.1-.052.463 0 .515 0 .515.567v3.963c0 .514-.052.566-.515.566-.36 0-2.11-.1-7.1-.1h-5.352c3.551 6.948 7.36 11.735 14.308 17.6a13.172 13.172 0 0 0 -2.522 3.448c-.36.721-.566 1.081-.823 1.081s-.567-.309-1.081-.824a50.777 50.777 0 0 1 -11.992-17.293c0 4.632.051 9.213.1 13.228h1.187c4.014 0 5.3-.1 5.61-.1.514 0 .565.052.565.567v3.757c0 .566-.051.618-.565.618-.309 0-1.6-.1-5.61-.1h-1.133c.052 4.889.155 8.286.155 8.8s-.052.566-.567.566h-4.426c-.566 0-.617-.051-.617-.566s.1-3.963.2-8.8h-.926c-4.015 0-5.3.1-5.61.1-.514 0-.566-.052-.566-.618v-3.757c0-.515.052-.567.566-.567.309 0 1.6.1 5.61.1h.978c.1-4.015.154-8.6.154-13.176a48.15 48.15 0 0 1 -11.734 17.19c-.515.463-.824.772-1.081.772s-.463-.309-.824-.978a16.732 16.732 0 0 0 -2.316-3.037v4.942c0 5.044.1 7.565.1 7.823 0 .515-.051.566-.566.566h-4.375c-.463 0-.514-.051-.514-.566 0-.309.1-2.779.1-7.823v-11.684c0-1.7 0-3.757.051-5.815-.978 1.286-1.956 2.573-2.985 3.756-.36.413-.669.669-.927.669s-.411-.308-.565-.925a14.743 14.743 0 0 0 -1.75-4.427 45.5 45.5 0 0 0 9.778-16.727 17.728 17.728 0 0 0 .772-3.654 35.544 35.544 0 0 1 4.992 1.6c.567.257.824.411.824.771s-.154.567-.566.927a4.986 4.986 0 0 0 -1.029 2.059 74.474 74.474 0 0 1 -3.346 7.514v20.844a47.6 47.6 0 0 0 13.485-17.859z"/><path d="m351.71 2038.835c-4.581 0-6.176.1-6.485.1-.515 0-.566-.051-.566-.566v-4.324c0-.515.051-.566.566-.566.309 0 1.9.1 6.485.1h12.4v-26.66h-9.058c-4.993 0-6.639.1-6.949.1-.514 0-.565-.05-.565-.565v-4.323c0-.516.051-.567.565-.567.31 0 1.956.1 6.949.1h24.7c4.941 0 6.588-.1 6.9-.1.515 0 .566.051.566.567v4.323c0 .515-.051.565-.566.565-.309 0-1.956-.1-6.9-.1h-9.83v26.66h13.124c4.581 0 6.176-.1 6.485-.1.515 0 .566.051.566.566v4.324c0 .515-.051.566-.566.566-.309 0-1.9-.1-6.485-.1z"/><path d="m402.46 2028.9c-4.477 0-6.022.1-6.33.1-.463 0-.515-.052-.515-.567v-3.087c0-.515.052-.567.515-.567.308 0 1.853.1 6.33.1h13.794v-2.419h-8.492c-4.993 0-6.691.1-7 .1-.515 0-.566-.051-.566-.514v-2.831c0-.515.051-.567.566-.567.309 0 2.007.1 7 .1h8.492v-2.248h-6.64c-5.043 0-6.845.1-7.154.1-.566 0-.617-.052-.617-.618 0-.309.1-.978.1-2.676v-2.78c0-1.7-.1-2.367-.1-2.675 0-.567.051-.619.617-.619.309 0 2.111.1 7.154.1h6.64v-2.265h-12.97c-4.632 0-6.228.1-6.536.1-.515 0-.567-.052-.567-.567v-3.242c0-.514.052-.566.567-.566.308 0 1.9.1 6.536.1h12.97a24.644 24.644 0 0 0 -.36-4.735c1.9.052 3.551.1 5.352.309.463.051.824.257.824.566a2 2 0 0 1 -.309.978 7.97 7.97 0 0 0 -.309 2.882h13.073c4.632 0 6.227-.1 6.537-.1.514 0 .565.052.565.566v3.242c0 .515-.051.567-.565.567-.31 0-1.9-.1-6.537-.1h-13.073v2.265h6.848c5.044 0 6.846-.1 7.206-.1.515 0 .566.052.566.619 0 .308-.1.977-.1 2.675v2.78c0 1.7.1 2.367.1 2.676 0 .566-.051.618-.566.618-.36 0-2.162-.1-7.206-.1h-6.845v2.265h8.338c5.043 0 6.845-.1 7.1-.1.514 0 .565.052.565.567 0 .308-.1 1.544-.1 4.477v1.184c3.037 0 4.221-.1 4.478-.1.463 0 .515.052.515.567v3.087c0 .515-.052.567-.515.567-.257 0-1.441-.052-4.478-.1v2.625c0 3.088.1 4.426.1 4.736 0 .514-.051.565-.565.565h-3.964c-.514 0-.566-.051-.566-.565v-1.133h-10.863c.052.927.052 1.8.052 2.573 0 2.368-.463 3.758-1.853 4.581-1.286.721-3.551 1.081-7.257 1.132-1.544 0-1.544-.051-2.058-1.492a16.59 16.59 0 0 0 -2.008-3.911 35.177 35.177 0 0 0 5.2.205c2.213-.051 2.676-.411 2.676-1.9v-1.184h-8.441c-5.044 0-6.742.1-7.051.1-.515 0-.566-.051-.566-.618v-2.779c0-.565.051-.617.566-.617.309 0 2.007.1 7.051.1h8.441v-2.432zm13.794-15.7v-2.573h-9.316v2.573zm14.72-2.573h-9.522v2.573h9.522zm-9.522 11.837v2.419h10.911v-2.419zm10.911 8.852v-2.416h-10.911v2.419z"/><path d="m454.6 2030.909c-4.632 0-6.176.1-6.485.1-.566 0-.617-.052-.617-.567v-3.036c0-.566.051-.618.617-.618.309 0 1.853.1 6.485.1h12.713v-2.78h-7.257c-4.993 0-6.794.1-7.1.1-.515 0-.515-.052-.515-.567v-2.933c0-.566 0-.617.515-.617.309 0 2.11.1 7.1.1h7.257v-2.727h-9.676c-4.941 0-6.588.1-6.9.1-.566 0-.617-.051-.617-.515v-3.036c0-.514.051-.566.617-.566.309 0 1.956.1 6.9.1h3.139c-.566-1.235-1.081-2.264-1.647-3.243-.257-.463-.308-.669.361-.875l3.345-.925h-8.235c-4.632 0-6.176.1-6.485.1-.566 0-.617-.052-.617-.566v-3.191c0-.566.051-.618.617-.618.309 0 1.853.1 6.485.1h.36a24.436 24.436 0 0 0 -2.933-4.427c-.309-.361-.206-.566.411-.875l2.986-1.39c.514-.257.669-.205.977.206a30.733 30.733 0 0 1 3.449 4.992c.257.464.257.515-.412.875l-1.235.619h4.786v-3.4a20.216 20.216 0 0 0 -.308-4.477c1.6.051 3.6.154 4.992.308.412.052.618.206.618.464a2.737 2.737 0 0 1 -.206.875 8.016 8.016 0 0 0 -.309 2.83v3.4h4.169v-3.346a20.4 20.4 0 0 0 -.309-4.529 49.312 49.312 0 0 1 4.941.36c.463.052.669.206.669.463a2.425 2.425 0 0 1 -.206.824 8.041 8.041 0 0 0 -.309 2.83v3.4h3.191a38.285 38.285 0 0 0 2.368-4.221 9.847 9.847 0 0 0 .875-2.779 43.331 43.331 0 0 1 4.992 1.337c.464.156.669.413.669.67a1.06 1.06 0 0 1 -.514.875 5.165 5.165 0 0 0 -.875.978c-.669 1.081-1.39 2.11-2.11 3.14h.72c4.632 0 6.176-.1 6.485-.1.515 0 .566.052.566.618v3.191c0 .514-.051.566-.566.566-.309 0-1.853-.1-6.485-.1h-9.007c1.338.256 2.522.514 4.066.925.412.1.669.31.669.618a.892.892 0 0 1 -.566.772 3.575 3.575 0 0 0 -.72 1.081l-.927 1.647h3.346c4.941 0 6.588-.1 6.9-.1.515 0 .567.052.567.566v3.036c0 .464-.052.515-.567.515-.308 0-1.955-.1-6.9-.1h-10.4v2.727h8.183c5.044 0 6.794-.1 7.1-.1.515 0 .566.051.566.617v2.933c0 .515-.051.567-.566.567-.309 0-2.059-.1-7.1-.1h-8.183v2.78h13.536c4.632 0 6.176-.1 6.485-.1.515 0 .566.052.566.618v3.036c0 .515-.051.567-.566.567-.309 0-1.853-.1-6.485-.1h-9.161c4.323 3.036 9.727 5.043 17.138 6.691a14.562 14.562 0 0 0 -2.006 3.294c-.413.977-.618 1.337-1.133 1.337a5.519 5.519 0 0 1 -1.184-.256 44.953 44.953 0 0 1 -17.293-9.213c0 6.125.258 9.315.258 10.19 0 .515-.052.567-.567.567h-4.374c-.464 0-.515-.052-.515-.567 0-.875.154-3.86.206-9.984-4.324 4.117-9.676 7-16.521 9.213a3.979 3.979 0 0 1 -1.184.308c-.463 0-.669-.36-1.132-1.339a12.3 12.3 0 0 0 -2.059-3.087c6.845-1.7 12.1-3.809 16.418-7.154zm19.867-17.345c.463-.875.875-1.75 1.389-2.985a9.343 9.343 0 0 0 .566-2.058h-13.122c.155.05.258.206.412.411a32.266 32.266 0 0 1 2.316 4.632z"/></g><g fill="#004272" transform="translate(-238.681 -1996.168)"><path d="m980.839 2014.926c-1.931 0-2.6.044-2.731.044-.2 0-.221-.023-.221-.244v-1.332c0-.222.021-.245.221-.245.133 0 .8.044 2.731.044h5.95v-1.043h-3.663c-2.153 0-2.886.045-3.02.045-.221 0-.244-.023-.244-.222v-1.221c0-.223.023-.244.244-.244.134 0 .867.044 3.02.044h3.663v-.978h-2.864c-2.175 0-2.952.045-3.086.045-.244 0-.266-.021-.266-.265 0-.134.044-.422.044-1.156v-1.198c0-.732-.044-1.021-.044-1.154 0-.244.022-.268.266-.268.134 0 .911.045 3.086.045h2.864v-.977h-5.6c-2 0-2.686.044-2.819.044-.222 0-.244-.022-.244-.244v-1.4c0-.222.022-.245.244-.245.133 0 .821.045 2.819.045h5.6a10.625 10.625 0 0 0 -.155-2.043c.821.023 1.532.045 2.308.133.2.023.356.111.356.245a.866.866 0 0 1 -.133.421 3.438 3.438 0 0 0 -.134 1.244h5.64c2 0 2.686-.045 2.819-.045.223 0 .244.023.244.245v1.4c0 .222-.021.244-.244.244-.133 0-.821-.044-2.819-.044h-5.64v.977h2.953c2.176 0 2.953-.045 3.109-.045.221 0 .244.024.244.268 0 .133-.045.422-.045 1.154v1.2c0 .734.045 1.022.045 1.156 0 .244-.023.265-.244.265-.156 0-.933-.045-3.109-.045h-2.953v.978h3.6c2.176 0 2.953-.044 3.064-.044.222 0 .245.021.245.244 0 .133-.045.666-.045 1.932v.509c1.31 0 1.821-.044 1.931-.044.2 0 .223.023.223.245v1.332c0 .221-.023.244-.223.244-.11 0-.621-.023-1.931-.044v1.132c0 1.332.045 1.909.045 2.042 0 .222-.023.245-.245.245h-1.71c-.221 0-.244-.023-.244-.245v-.489h-4.684c.022.4.022.778.022 1.112 0 1.02-.2 1.62-.8 1.974a7.168 7.168 0 0 1 -3.13.49c-.666 0-.666-.023-.888-.644a7.148 7.148 0 0 0 -.865-1.688 15 15 0 0 0 2.242.088c.955-.021 1.154-.176 1.154-.82v-.512h-3.641c-2.175 0-2.908.045-3.042.045-.221 0-.244-.021-.244-.266v-1.2c0-.244.023-.266.244-.266.134 0 .867.044 3.042.044h3.641v-1.043zm5.95-6.772v-1.11h-4.018v1.11zm6.35-1.11h-4.108v1.11h4.108zm-4.108 5.106v1.043h4.707v-1.043zm4.707 3.819v-1.043h-4.707v1.043z"/><path d="m981.128 2040.22c-2 0-2.664.044-2.8.044-.244 0-.266-.022-.266-.244v-1.31c0-.244.022-.267.266-.267.134 0 .8.045 2.8.045h5.483v-1.2h-3.13c-2.153 0-2.93.045-3.064.045-.222 0-.222-.023-.222-.244v-1.266c0-.244 0-.267.222-.267.134 0 .911.045 3.064.045h3.13v-1.177h-4.174c-2.13 0-2.841.044-2.974.044-.244 0-.267-.022-.267-.221v-1.31c0-.223.023-.245.267-.245.133 0 .844.045 2.974.045h1.355c-.244-.533-.466-.977-.71-1.4-.111-.2-.134-.288.155-.378l1.443-.4h-3.552c-2 0-2.664.043-2.8.043-.244 0-.266-.022-.266-.244v-1.376c0-.245.022-.267.266-.267.134 0 .8.045 2.8.045h.155a10.556 10.556 0 0 0 -1.265-1.91c-.133-.155-.089-.245.177-.377l1.288-.6c.222-.11.288-.088.422.09a13.277 13.277 0 0 1 1.488 2.152c.111.2.111.223-.178.378l-.533.267h2.065v-1.46a8.647 8.647 0 0 0 -.134-1.932c.689.022 1.555.067 2.154.133.177.021.266.089.266.2a1.155 1.155 0 0 1 -.089.378 3.5 3.5 0 0 0 -.132 1.222v1.465h1.8v-1.444a8.877 8.877 0 0 0 -.132-1.953c.666.022 1.532.067 2.131.154.2.024.288.09.288.2a1.022 1.022 0 0 1 -.088.354 3.46 3.46 0 0 0 -.133 1.222v1.465h1.376a16.368 16.368 0 0 0 1.021-1.821 4.237 4.237 0 0 0 .378-1.2 18.523 18.523 0 0 1 2.154.577c.2.068.288.178.288.288a.458.458 0 0 1 -.222.378 2.293 2.293 0 0 0 -.378.422c-.288.466-.6.91-.91 1.355h.311c2 0 2.664-.045 2.8-.045.223 0 .244.022.244.267v1.376c0 .222-.021.244-.244.244-.133 0-.8-.043-2.8-.043h-3.885c.577.11 1.088.22 1.754.4.177.045.289.134.289.268a.387.387 0 0 1 -.245.332 1.533 1.533 0 0 0 -.311.466l-.4.711h1.443c2.131 0 2.842-.045 2.974-.045.223 0 .245.022.245.245v1.31c0 .2-.022.221-.245.221-.132 0-.843-.044-2.974-.044h-4.485v1.177h3.53c2.176 0 2.93-.045 3.064-.045.222 0 .244.023.244.267v1.266c0 .221-.022.244-.244.244-.134 0-.888-.045-3.064-.045h-3.53v1.2h5.839c2 0 2.664-.045 2.8-.045.223 0 .244.023.244.267v1.31c0 .222-.021.244-.244.244-.133 0-.8-.044-2.8-.044h-3.952a20.134 20.134 0 0 0 7.393 2.885 6.346 6.346 0 0 0 -.865 1.422c-.178.422-.267.577-.489.577a2.3 2.3 0 0 1 -.51-.112 19.375 19.375 0 0 1 -7.46-3.972c0 2.64.111 4.017.111 4.394 0 .223-.023.245-.244.245h-1.888c-.2 0-.222-.022-.222-.245 0-.377.067-1.664.089-4.307a17.98 17.98 0 0 1 -7.127 3.975 1.722 1.722 0 0 1 -.51.133c-.2 0-.289-.155-.489-.577a5.319 5.319 0 0 0 -.887-1.332 18.487 18.487 0 0 0 7.082-3.086zm8.569-7.482c.2-.378.378-.756.6-1.288a4.091 4.091 0 0 0 .244-.887h-5.661c.066.021.111.087.178.177a13.956 13.956 0 0 1 1 2z"/><path d="m996.869 2063.316c0 1.931.067 3.108.044 3.863a2.211 2.211 0 0 1 -.71 1.842c-.489.377-1.266.578-3.441.578-.645 0-.711-.023-.844-.71a5.478 5.478 0 0 0 -.622-1.733c.933.067 1.909.112 2.331.09.688-.023.889-.2.889-.756v-3.773a6.535 6.535 0 0 0 -1.111 1.4c-.2.311-.31.466-.444.466-.11 0-.244-.089-.488-.267a13.59 13.59 0 0 1 -4.507-5.483l-.067.178a11.9 11.9 0 0 1 -4.551 5.595c-.244.2-.377.289-.489.289-.132 0-.221-.134-.422-.446a6.122 6.122 0 0 0 -1.065-1.287v3.086c0 2.065.044 3.086.044 3.219 0 .2-.021.223-.266.223h-1.931c-.223 0-.244-.022-.244-.223 0-.154.044-1.2.044-3.485v-8.592c0-2.286-.044-3.353-.044-3.508 0-.222.021-.244.244-.244.155 0 .887.044 3 .044h4.351c.023-.51.044-1.043.044-1.6a17.236 17.236 0 0 0 -.132-2.376c.777.023 1.642.089 2.442.155.222.023.333.133.333.267a1.356 1.356 0 0 1 -.134.466 8.684 8.684 0 0 0 -.11 1.621c0 .488-.023.976-.045 1.465h4.729c2.087 0 2.842-.044 2.975-.044.222 0 .244.022.244.244 0 .134-.044 1.333-.044 3.641zm-15.5-.378a9.415 9.415 0 0 0 4.329-4.595 11.345 11.345 0 0 0 .689-2.531h-5.018zm13.144-7.126h-5.684a11.321 11.321 0 0 0 5.684 6.771z"/><path d="m981.728 2088.254c-.711.378-1.466.756-2.243 1.111a1.772 1.772 0 0 1 -.533.178c-.2 0-.266-.156-.422-.556a3.775 3.775 0 0 0 -.821-1.376 19.315 19.315 0 0 0 7.97-5 7.429 7.429 0 0 0 1.244-1.731 16.058 16.058 0 0 1 2.131.422c.177.044.289.155.289.288 0 .111-.089.177-.223.266l-.044.044a18.912 18.912 0 0 0 9.08 5.4 4.955 4.955 0 0 0 -.8 1.643c-.133.422-.177.577-.355.577a1.347 1.347 0 0 1 -.511-.155c-.887-.378-1.731-.756-2.509-1.177v2.576c0 2.863.045 3.4.045 3.507 0 .245-.022.266-.244.266h-1.842c-.244 0-.266-.021-.266-.266v-.755h-7.638v.822c0 .223-.022.244-.244.244h-1.865c-.222 0-.244-.021-.244-.244 0-.133.045-.666.045-3.53zm12.232-11.966c2.065 0 2.8-.044 2.953-.044.222 0 .244.022.244.244 0 .133-.044.489-.044 1.043v.865c0 1.844.044 2.176.044 2.31 0 .222-.022.244-.244.244h-1.865c-.222 0-.244-.022-.244-.244v-2.442h-13.831v2.442c0 .222-.023.244-.244.244h-1.866c-.221 0-.244-.022-.244-.244 0-.155.044-.466.044-2.31v-.709c0-.71-.044-1.044-.044-1.2 0-.222.023-.244.244-.244.156 0 .888.044 2.953.044h4.729a8.8 8.8 0 0 0 -.178-2.109c.821.022 1.644.067 2.4.134.244.021.354.11.354.2a2 2 0 0 1 -.133.444 3.9 3.9 0 0 0 -.111 1.288v.044zm-8.015 3.574c.2.112.223.2.223.333s-.155.244-.312.289a2.567 2.567 0 0 0 -.71.577 16.337 16.337 0 0 1 -3.885 2.975 1.644 1.644 0 0 1 -.532.222c-.178 0-.267-.154-.489-.532a4.105 4.105 0 0 0 -1.088-1.222 10.824 10.824 0 0 0 3.952-2.42 5.449 5.449 0 0 0 .932-1.154 19.057 19.057 0 0 1 1.909.932zm-1.909 11.767h7.638v-2.953h-7.638zm7.571-4.84a17.813 17.813 0 0 1 -3.774-3.4 19.826 19.826 0 0 1 -3.774 3.4zm-.51-7.682c.177-.132.265-.132.422.023a12 12 0 0 0 5.061 3.108 8.4 8.4 0 0 0 -.844 1.4c-.177.4-.244.554-.377.554a1.263 1.263 0 0 1 -.51-.2 15.932 15.932 0 0 1 -5.04-3.73c-.156-.178-.156-.222.111-.4z"/></g><path d="m766.074 4.638v99.706" fill="none" stroke="#004272" stroke-miterlimit="10"/><g fill="#004272" transform="translate(-238.681 -1996.168)"><path d="m1056.453 2101.333a35.859 35.859 0 0 1 -10.226-1.355 26.184 26.184 0 0 1 -8.091-3.943 32.513 32.513 0 0 1 -6.325-6.12l8.46-9.61q4.107 5.505 8.255 7.392a20.471 20.471 0 0 0 8.584 1.89 13.211 13.211 0 0 0 4.025-.575 6.114 6.114 0 0 0 2.793-1.684 3.987 3.987 0 0 0 .985-2.752 4.1 4.1 0 0 0 -.616-2.218 5.913 5.913 0 0 0 -1.684-1.724 13.819 13.819 0 0 0 -2.546-1.356 26.024 26.024 0 0 0 -3.121-1.067q-1.644-.452-3.368-.781a44.772 44.772 0 0 1 -8.3-2.628 19.961 19.961 0 0 1 -5.873-3.82 14.551 14.551 0 0 1 -3.491-5.174 17.642 17.642 0 0 1 -1.15-6.531 14.605 14.605 0 0 1 1.766-7.1 17.866 17.866 0 0 1 4.764-5.585 22.29 22.29 0 0 1 6.941-3.614 26.552 26.552 0 0 1 8.214-1.274 34.915 34.915 0 0 1 9.734 1.192 21.29 21.29 0 0 1 6.981 3.408 21.516 21.516 0 0 1 4.97 5.339l-8.625 8.3a18.088 18.088 0 0 0 -3.738-3.533 16.445 16.445 0 0 0 -4.27-2.135 14.8 14.8 0 0 0 -4.642-.74 12.846 12.846 0 0 0 -4.229.617 6.4 6.4 0 0 0 -2.752 1.724 3.882 3.882 0 0 0 -.986 2.67 3.6 3.6 0 0 0 .822 2.382 7.763 7.763 0 0 0 2.218 1.766 15.506 15.506 0 0 0 3.2 1.314 31.141 31.141 0 0 0 3.778.862 45.854 45.854 0 0 1 8.173 2.383 25.181 25.181 0 0 1 6.325 3.614 14.846 14.846 0 0 1 4.106 5.051 15.157 15.157 0 0 1 1.438 6.778 17.2 17.2 0 0 1 -2.916 10.143 18.349 18.349 0 0 1 -7.968 6.325 29.157 29.157 0 0 1 -11.615 2.169z"/><path d="m1089.473 2100.512v-57.5h40.084v11.91h-26.532v33.678h27.353v11.91zm6.571-23.574v-11.338h29.816v11.336z"/><path d="m1142.452 2100.512v-57.5h25.874a20.916 20.916 0 0 1 9.98 2.382 17.964 17.964 0 0 1 7.023 6.53 17.626 17.626 0 0 1 2.546 9.405 18.792 18.792 0 0 1 -2.546 9.733 18.253 18.253 0 0 1 -6.982 6.777 20.294 20.294 0 0 1 -10.021 2.464h-12.567v20.207zm13.307-30.885h11.335a7.215 7.215 0 0 0 3.737-.944 6.285 6.285 0 0 0 2.465-2.67 8.715 8.715 0 0 0 .862-3.943 7.586 7.586 0 0 0 -.986-3.9 6.52 6.52 0 0 0 -2.833-2.587 10.129 10.129 0 0 0 -4.477-.9h-10.1zm18.563 30.885-14.621-25.956 14.293-2.054 16.264 28.01z"/><path d="m1216.214 2100.512-23-57.5h14.539l11.089 29.324q.985 2.546 1.683 4.435t1.233 3.532q.532 1.644.985 3.327t1.028 3.819h-2.547q.657-2.791 1.314-4.97t1.479-4.517q.819-2.342 2.053-5.626l10.678-29.324h14.293l-23.164 57.5z"/><path d="m1257.447 2100.512v-11.746h9.693v-34.006h-9.693v-11.746h33.432v11.746h-9.779v34.006h9.775v11.746z"/><path d="m1330.305 2101.333a32.02 32.02 0 0 1 -11.951-2.177 28.087 28.087 0 0 1 -9.488-6.16 27.37 27.37 0 0 1 -6.2-9.446 32.216 32.216 0 0 1 -2.177-12.034 29.963 29.963 0 0 1 2.3-11.828 28.5 28.5 0 0 1 15.977-15.607 32.332 32.332 0 0 1 12.115-2.218 30.7 30.7 0 0 1 8.05 1.069 27.883 27.883 0 0 1 7.351 3.162 24.688 24.688 0 0 1 5.873 4.969l-8.543 9.775a24.607 24.607 0 0 0 -3.655-3.162 15.594 15.594 0 0 0 -4.229-2.095 16.018 16.018 0 0 0 -4.929-.739 16.253 16.253 0 0 0 -6.2 1.19 15.065 15.065 0 0 0 -8.5 8.666 18.87 18.87 0 0 0 -1.233 6.983 18.3 18.3 0 0 0 1.233 6.858 15.56 15.56 0 0 0 3.45 5.3 14.5 14.5 0 0 0 5.38 3.368 20.387 20.387 0 0 0 7.022 1.149 16.815 16.815 0 0 0 5.011-.739 18.317 18.317 0 0 0 4.4-2.011 18.721 18.721 0 0 0 3.573-2.916l6.735 10.677a19.393 19.393 0 0 1 -5.462 4.108 32.985 32.985 0 0 1 -7.556 2.833 34.615 34.615 0 0 1 -8.347 1.025z"/><path d="m1361.188 2100.512v-57.5h40.084v11.91h-26.531v33.678h27.353v11.91zm6.572-23.574v-11.338h29.816v11.336z"/></g><g fill="#004272" transform="translate(-238.681 -1996.168)"><path d="m240.788 2100.583v-16.759h7.012a9.027 9.027 0 0 1 3.376.612 7.655 7.655 0 0 1 2.646 1.735 7.747 7.747 0 0 1 1.711 2.657 9.209 9.209 0 0 1 .6 3.376 9.3 9.3 0 0 1 -.6 3.388 7.6 7.6 0 0 1 -1.711 2.657 7.773 7.773 0 0 1 -2.646 1.724 9.046 9.046 0 0 1 -3.376.61zm4.07-2.777-.551-.814h3.376a4.434 4.434 0 0 0 1.8-.347 3.916 3.916 0 0 0 1.352-.97 4.382 4.382 0 0 0 .874-1.508 6.351 6.351 0 0 0 0-3.926 4.4 4.4 0 0 0 -.874-1.509 3.926 3.926 0 0 0 -1.352-.969 4.418 4.418 0 0 0 -1.8-.347h-3.448l.623-.767z"/><path d="m259.27 2100.583v-16.759h11.683v3.472h-7.733v9.815h7.972v3.472zm1.915-6.871v-3.3h8.69v3.3z"/><path d="m274.711 2100.583v-16.759h3.639l6.1 9.936-2.609-.024 6.176-9.912h3.5v16.759h-3.951v-5.219q0-2.154.108-3.879t.371-3.422l.455 1.244-4.645 7.206h-1.58l-4.548-7.159.455-1.291q.262 1.6.371 3.291t.108 4.01v5.219z"/><path d="m303.368 2100.822a9.146 9.146 0 0 1 -3.5-.646 8.249 8.249 0 0 1 -4.573-4.572 9.637 9.637 0 0 1 0-6.943 8.239 8.239 0 0 1 4.573-4.573 9.634 9.634 0 0 1 6.942 0 8.3 8.3 0 0 1 2.753 1.819 8.134 8.134 0 0 1 1.808 2.754 9.789 9.789 0 0 1 0 6.931 8.1 8.1 0 0 1 -1.808 2.764 8.265 8.265 0 0 1 -2.753 1.82 9.015 9.015 0 0 1 -3.442.646zm-.024-3.83a4.488 4.488 0 0 0 1.807-.359 4.229 4.229 0 0 0 1.437-1.018 4.655 4.655 0 0 0 .945-1.544 5.766 5.766 0 0 0 0-3.879 4.7 4.7 0 0 0 -.945-1.544 4.266 4.266 0 0 0 -1.437-1.017 4.728 4.728 0 0 0 -3.615 0 4.4 4.4 0 0 0 -1.448 1.017 4.462 4.462 0 0 0 -.946 1.544 5.638 5.638 0 0 0 -.323 1.94 5.73 5.73 0 0 0 .323 1.951 4.292 4.292 0 0 0 .946 1.544 4.442 4.442 0 0 0 1.448 1.006 4.492 4.492 0 0 0 1.808.359z"/><path d="m315.17 2100.583v-16.759h4.07v13.168h7.469v3.591z"/><path d="m329.415 2100.583v-3.424h2.825v-9.911h-2.825v-3.424h9.743v3.424h-2.848v9.911h2.848v3.424z"/><path d="m346.675 2100.583v-13.167h-4.975v-3.592h14.149v3.592h-5.1v13.167z"/><path d="m358.382 2100.583v-3.424h2.826v-9.911h-2.826v-3.424h9.744v3.424h-2.849v9.911h2.849v3.424z"/><path d="m379.641 2100.822a9.145 9.145 0 0 1 -3.495-.646 8.257 8.257 0 0 1 -4.573-4.572 9.651 9.651 0 0 1 0-6.943 8.247 8.247 0 0 1 4.573-4.573 9.637 9.637 0 0 1 6.943 0 8.307 8.307 0 0 1 2.753 1.819 8.132 8.132 0 0 1 1.807 2.754 9.774 9.774 0 0 1 0 6.931 8.1 8.1 0 0 1 -1.807 2.764 8.276 8.276 0 0 1 -2.753 1.82 9.024 9.024 0 0 1 -3.448.646zm-.024-3.83a4.5 4.5 0 0 0 1.808-.359 4.224 4.224 0 0 0 1.436-1.018 4.674 4.674 0 0 0 .946-1.544 5.782 5.782 0 0 0 0-3.879 4.716 4.716 0 0 0 -.946-1.544 4.261 4.261 0 0 0 -1.436-1.017 4.728 4.728 0 0 0 -3.615 0 4.394 4.394 0 0 0 -1.449 1.017 4.445 4.445 0 0 0 -.945 1.544 5.615 5.615 0 0 0 -.323 1.94 5.706 5.706 0 0 0 .323 1.951 4.277 4.277 0 0 0 .945 1.544 4.436 4.436 0 0 0 1.449 1.006 4.488 4.488 0 0 0 1.807.359z"/><path d="m391.444 2100.583v-16.759h3.639l8.786 11.971-.79-.12q-.12-.791-.192-1.508t-.132-1.412q-.06-.694-.1-1.413t-.048-1.556q-.012-.837-.012-1.819v-4.143h3.95v16.759h-3.687l-9.169-12.354 1.221.168q.12 1.149.2 1.952t.143 1.423q.06.624.084 1.126t.036.994q.012.49.012 1.088v5.6z"/><path d="m421.44 2100.583-5.027-16.759h4.142l2.513 8.811q.168.6.3 1.209t.215 1.161q.084.551.132 1.017c.032.312.064.571.1.779h-.527q.144-.887.252-1.58c.071-.463.155-.9.251-1.3s.215-.834.359-1.281l2.49-6.632h3.256l2.441 6.632q.288.789.479 1.484a13.506 13.506 0 0 1 .3 1.329q.108.635.179 1.257l-.479.071q.048-.43.072-.8t.06-.719c.024-.231.052-.475.084-.73s.079-.539.143-.85.152-.666.264-1.066l2.49-8.786h4.046l-5.028 16.759h-3.112l-3.975-9.648.456.047-3.664 9.6z"/><path d="m449.834 2100.822a9.146 9.146 0 0 1 -3.5-.646 8.249 8.249 0 0 1 -4.573-4.572 9.651 9.651 0 0 1 0-6.943 8.239 8.239 0 0 1 4.573-4.573 9.637 9.637 0 0 1 6.943 0 8.317 8.317 0 0 1 2.753 1.819 8.147 8.147 0 0 1 1.807 2.754 9.775 9.775 0 0 1 0 6.931 8.11 8.11 0 0 1 -1.807 2.764 8.286 8.286 0 0 1 -2.753 1.82 9.024 9.024 0 0 1 -3.443.646zm-.024-3.83a4.5 4.5 0 0 0 1.808-.359 4.234 4.234 0 0 0 1.436-1.018 4.674 4.674 0 0 0 .946-1.544 5.782 5.782 0 0 0 0-3.879 4.716 4.716 0 0 0 -.946-1.544 4.271 4.271 0 0 0 -1.436-1.017 4.731 4.731 0 0 0 -3.616 0 4.4 4.4 0 0 0 -1.448 1.017 4.462 4.462 0 0 0 -.946 1.544 5.638 5.638 0 0 0 -.322 1.94 5.73 5.73 0 0 0 .322 1.951 4.293 4.293 0 0 0 .946 1.544 4.442 4.442 0 0 0 1.448 1.006 4.5 4.5 0 0 0 1.808.359z"/><path d="m461.637 2100.583v-16.759h7.541a6.1 6.1 0 0 1 2.908.7 5.226 5.226 0 0 1 2.047 1.9 5.136 5.136 0 0 1 .742 2.741 5.47 5.47 0 0 1 -.742 2.837 5.32 5.32 0 0 1 -2.034 1.976 5.921 5.921 0 0 1 -2.921.717h-3.663v5.89zm3.878-9h3.3a2.1 2.1 0 0 0 1.089-.275 1.833 1.833 0 0 0 .718-.778 2.533 2.533 0 0 0 .251-1.149 2.2 2.2 0 0 0 -.287-1.137 1.894 1.894 0 0 0 -.826-.755 2.97 2.97 0 0 0 -1.3-.262h-2.944zm5.41 9-4.261-7.565 4.166-.6 4.74 8.164z"/><path d="m478.443 2100.583v-16.759h4.07v16.759zm2.968-4.908-1.053-3.423 8.307-8.428h4.813zm7.781 4.908-6.225-8.187 2.754-2.371 8.211 10.558z"/></g><path d="m0 65.966h688.648" fill="none" stroke="#004272" stroke-miterlimit="10"/></svg>