<?xml version="1.0" encoding="UTF-8"?>
<svg id="_レイヤー_2" data-name="レイヤー 2" xmlns="http://www.w3.org/2000/svg" viewBox="0 0 449.93 449.34">
  <defs>
    <style>
      .cls-1 {
        opacity: .2;
      }

      .cls-2 {
        fill: #004272;
        stroke-width: 0px;
      }
    </style>
  </defs>
  <g id="_レイヤー_1-2" data-name="レイヤー 1">
    <g class="cls-1">
      <g>
        <path class="cls-2" d="m232.56,264.15c-1.79-.05-2.53-.07-3.42-1.9-.93-1.95-3.49-8.86-7.61-20.54-.19-.53-.3-.85-.32-.9-1.32-3.77-2.6-7.25-3.17-8.66-.43-1.07-.66-1.34-1.62-1.34-.83,0-1.85.14-2.33,1.24-.05.12-.12.35-.22.63-.21.61-.54,1.54-.78,2.13l-2.36,6.08c-1.1,2.85-2.35,6.22-7.24,19.41-.63,1.72-1.4,3.35-2.77,3.69-.3.07-.65.1-.95.12-.28.02-.53.03-.7.08-.4.08-.78.56-.78.98,0,.34.16.74.94.74h8.4c.73,0,.89-.4.89-.74,0-.71-.72-.84-1.54-.98-1.18-.22-1.37-.3-1.37-.93,0-.47.15-.95.29-1.38.39-1.31,1.91-6.01,2.51-7.42.33-.85.58-.91.9-.98.42-.09,1.27-.09,2.35-.09h5.08c1.04,0,1.95,0,2.49.05.46.04.6.26.87.84.8,1.77,3.14,8.24,3.14,9.13,0,.34-.55.62-1.51.77-.56.08-1.6.23-1.6.99s.9.74,1.19.74h11.36c.52,0,.84-.3.84-.79,0-.57-.4-.99-.93-.99Zm-14.02-13.19c-.1.05-.37.12-.66.12h-7.54c-.42,0-.42-.05-.42-.18.1-.56,4.03-11.68,4.45-12.79.05-.12.1-.2.13-.25.02.05.05.12.09.23.57,1.72,3.79,11.83,3.95,12.88Z"/>
        <g>
          <path class="cls-2" d="m449.9,223.59C449.97,100.52,346.05-1.94,223.08.03,101.62.04-.55,102,0,223.59c-1.09,122.8,100.2,225.33,223.07,225.73,123.6,1.96,228.84-101.75,226.82-225.73ZM161.95,72.11c1.1-1.31,2.17-2.64,3.22-4,4.78-6.16,9.9-13.02,13.27-20.12,3.14-6.61,5.73-14.13,4.21-21.61-1.28-6.32-5.8-9.49-11.48-10.7,16.68-4.07,34.08-6.11,51.91-5.8,6.12-.01,12.19.27,18.2.8-.12.04-.24.07-.36.11-10.85,3.54-21.14,9.05-30.21,15.97-6.11,4.67-10.85,8.63-16.39,13.95-3.3,3.16-8.83,8.32-12.11,11.5-5.99,5.81-23.57,23.82-23.57,23.82l3.31-3.92Zm-59.32,226.35c-2.32.95-27.39,10.36-52.93-1.15-21.63-9.74-36.97-31.57-40.02-54.98-.22-2.52-.41-5.05-.54-7.59-.03-2.41.02-4.82.26-7.23-.17.05-.32.13-.48.19-.02-1.37-.04-2.75-.04-4.13-.85-68.08,32.19-129.99,83.04-169.46.27-.17.54-.35.82-.51,9.41-5.61,30.36-18.09,39.51-10.76,4.12,3.3,4.41,9.47,4.6,13.38.54,11.37-5.53,20.17-8.78,24.67-15.59,21.57-33.88,37.77-41.04,44.05-24.13,21.16-26.49,22.85-35.51,32.45-9.77,10.39-18.19,24.42-18.31,39.19-.13,15.66,10.71,27.98,23.8,35.24,10.93,6.06,24.3,9.32,36.73,6.96,24.26-4.61,36.5-35.1,46.63-54.55,22.48-43.19,48.92-84.83,83.43-119.17,7.37-7.33,15.35-14.48,25.09-18.09,13.43-4.97,29.42-2.24,40.43,6.92,8,6.66,13.42,17.14,11.82,27.43-1.39,8.96-6.45,15.28-8.97,18.06-26.57,29.33-79.13,78.25-92.28,90.83-7.04,6.73-18.72,17.98-32.67,34.33-37.08,43.47-39.5,63.67-64.6,73.89Zm222.42-32.53h-12.67c-.42,0-.74-.39-.74-.74,0-.88,1.27-1.05,2.39-1.2.45-.06,1.19-.16,1.36-.3-.08-.12-.28-.37-.37-.48-5.87-7.26-10.79-12.79-11.89-13.85-.36-.36-.43-.37-.61-.37h-.4c-.17,0-.22.05-.22.22v6.13c0,8.32.04,8.33,2.29,8.87.71.14,1.07.47,1.07.98,0,.74-.97.74-1.74.74h-9.8c-.46,0-.74-.28-.74-.74,0-.8.82-.94,1.09-.99,1.72-.31,2.18-.39,2.18-5.25,0-1.2.01-2.8.03-4.41.01-1.62.03-3.25.03-4.49s-.01-3.05-.02-5.01c-.01-2.33-.03-4.88-.03-6.95,0-4.37-.72-4.56-2.15-4.95-.3-.08-1.02-.26-1.02-.98,0-.52.33-.79.99-.79h10.36c.36,0,1.19,0,1.19.64,0,.42-.41.99-1.32,1.23-2.33.63-2.4,1-2.4,13.2,0,.42.06.42.12.42.13,0,.3-.17.5-.37,4.66-4.41,6.82-6.71,9.95-10.1l.3-.32c.77-.8,1.23-1.28,1.23-1.75,0-.55-.83-.82-1.57-1.06-.74-.24-1.45-.47-1.45-1.06,0-.42.34-.84.99-.84h9.5c.49,0,.99.29.99.84,0,.23-.11.79-1.1.94-1.47.24-1.83.3-4.48,2.55-2.81,2.43-5.25,4.96-7.83,7.63l-1.4,1.45c-.05.06-.13.15-.2.23-.13.14-.36.39-.37.48.03.06.35.45.49.62,2.72,3.35,11.95,14.16,14.4,16.46.86.83,1.3.97,2.02,1.21.21.07.44.15.7.24.97.38,1.49.67,1.49,1.17,0,.22-.11.74-1.14.74Zm108.28-34.45c0,.25,0,.51-.02.77-.02.78-.05,1.55-.08,2.32-.28,5.31-.83,10.55-1.51,15.76,0,.02,0,.04,0,.06-3.42,18.73-15.16,37.13-28.89,52.02-8.68,9.41-25.94,15.24-39.71,13.81-14.98-1.56-24.3-20.75-27.05-33.68-3.68-17.26-2.36-32.02-10.15-50.09-1.41-3.27-4.43-7.61-6.65-9.89-9.35-9.59-19.58-12.36-34.12-9.98-19.06,3.12-34.7,13.45-39.25,17.9-5.71,5.57-12.69,12.44-12.24,21.09.42,8.07,7.03,12.13,15.8,20.68,5.13,5,25.46,24.79,31.33,48.43,2.92,11.75,1.58,21.73-.66,38.4-1.32,9.82-4.41,19.42-5.02,29.33-.51,8.27.69,17.25,5.79,24.05,4.1,5.46,9.89,8.03,16.19,8.72-23.1,8.97-48.05,13.95-74,13.93-24.8.43-48.79-3.67-71.18-11.49,4.66-.61,9.13-2.15,12.93-4.91,5.31-3.86,8.88-9.69,11.29-15.8,5.53-14.02,5.45-29.53,5.65-44.6.11-8.59.79-17.16.84-25.74.22-41.83,3.16-92.31,35.55-122.84,9.25-8.72,20.29-15.51,32.2-19.92,12.84-4.76,26.27-6.81,38.89-12.45,11.48-5.13,22.67-10.61,33-17.91,19.5-13.79,35.07-32.74,42.45-55.66,2.1-6.53,3.54-13.28,4.37-20.09.67-5.51.67-9.86.06-13.52,35.8,34.86,59.61,81.96,63.78,133.51.31,7.95.66,18.11.43,27.78Zm-153.52,17.17c0,10.22-7.15,17.93-16.63,17.93s-16.88-7.94-16.88-18.08,7.39-17.78,17.18-17.78c4.9,0,9.09,1.93,12.1,5.59,2.68,3.25,4.22,7.75,4.22,12.34Z"/>
          <path class="cls-2" d="m262.84,233.15c-9.23,0-10.22,10.07-10.22,14.39,0,8.32,3.36,16.71,10.87,16.71,6.15,0,9.82-5.78,9.82-15.45,0-5.85-1.36-15.65-10.47-15.65Z"/>
        </g>
        <g>
          <path class="cls-2" d="m368.05,231.37h-8.65c-.56,0-1.14.31-1.14.84,0,.45.35.77.92.84l1.31.1c.48.04.99.27.99.62,0,.24-.14.65-.3.9-3.69,5.61-4.43,6.69-6.99,10.41-.24.39-.32.42-.41.42,0,0-.09-.02-.27-.28-2.8-3.85-6.05-8.43-6.58-9.24-.64-1-.96-1.69-.96-2.06,0-.25.23-.41.41-.48.18-.06.45-.11.74-.17.42-.08.86-.17,1.14-.29.64-.25.73-.68.73-.92,0-.69-.66-.69-.94-.69h-11.71c-.57,0-.94.29-.94.74,0,.63.62.76,1.08.85.11.02.23.05.35.08,1.69.42,2.33,1.12,3.86,3.16,1.7,2.29,3.4,4.71,6.13,8.64.32.47.61.87.86,1.22.67.95,1.08,1.52,1.32,2.18.33.95.39,1.42.39,5.79,0,1.85-.02,3.12-.03,4.12-.01.66-.02,1.2-.02,1.71-.05,2.83-.07,3.79-2.73,4.35-.4.07-1.24.23-1.24.93,0,.36.19.79,1.09.79h11.66c.48,0,.84-.34.84-.79,0-.57-.67-.88-1.28-.98-2.29-.52-2.45-1.4-2.59-4.11-.1-1.7-.1-3.38-.1-5.01,0-4.04.04-6.66.24-7.25.46-1.34,7.56-10.76,8.7-12.24,1.15-1.49,1.95-2.41,3.75-2.45.29,0,1.19,0,1.19-.99,0-.74-.59-.74-.79-.74Z"/>
          <path class="cls-2" d="m412.87,231.37h-9.4c-1.19,0-1.44.51-1.44.94,0,.66.64.76.85.79l.27.04c.5.07.85.13,1.12.24,1.24.51,1.33,1.85,1.33,3.56.1,6.99.1,8.08.1,9.05,0,.26,0,2.63-.05,5.07-.09,2.61-.54,6.28-1.54,8.75-1.23,3.02-3.46,4.55-6.62,4.55-5.69,0-7.56-4.87-8.17-7.77-.32-1.55-.75-4.56-.75-12.76,0-3.25.07-5.8.2-7.57.15-1.94.36-2.77,1.8-3.17.22-.06.43-.09.62-.13.52-.09,1.05-.18,1.05-.7s-.58-.89-1.34-.89h-10.51c-.57,0-.94.33-.94.84,0,.71.79.84,1.04.88,2.14.37,2.58.45,2.58,3.69,0,.79-.03,1.87-.06,3.21-.06,2.22-.14,5.27-.14,8.95,0,2.69,0,7.18,2.46,11.26,2.48,4.11,6.56,6.37,11.51,6.37,6.01,0,10.9-3.26,13.09-8.73,1.23-3.14,1.33-6.24,1.33-10.61,0-1.77-.02-4.13-.03-6.2-.01-1.63-.02-3.09-.02-3.95,0-2.71.08-3.43,2.02-3.84.42-.07,1.4-.3,1.4-.94,0-.56-.7-.94-1.74-.94Z"/>
        </g>
      </g>
    </g>
  </g>
</svg>