<svg height="449.342" viewBox="0 0 449.926 449.342" width="449.926" xmlns="http://www.w3.org/2000/svg"><g fill="#004272" opacity=".2" transform="translate(-1061.423 -3206.34)"><g><path d="m1335.451 3438.573a1.076 1.076 0 0 0 -.088.167c-.281.742-2.881 8.1-2.946 8.462 0 .092 0 .123.279.123h4.988a1.125 1.125 0 0 0 .44-.08c-.11-.694-2.267-7.482-2.615-8.518a1.433 1.433 0 0 0 -.058-.154z"/><path d="m1363.3 3444.987c0 7.635 3.614 11.053 7.2 11.053 4.068 0 6.5-3.822 6.5-10.222 0-3.868-.9-10.357-6.929-10.357-6.109 0-6.771 6.661-6.771 9.526z"/><path d="m1511.321 3429.928c.076-123.068-103.847-225.528-226.815-223.56-121.461.014-223.636 101.976-223.074 223.559-1.088 122.8 100.2 225.331 223.073 225.728 123.595 1.961 228.84-101.747 226.816-225.727zm-287.952-151.474c1.1-1.308 2.172-2.644 3.221-4 4.776-6.158 9.9-13.019 13.271-20.124 3.136-6.612 5.727-14.127 4.213-21.613-1.277-6.316-5.8-9.488-11.476-10.7a203.642 203.642 0 0 1 51.907-5.8c6.124-.012 12.192.271 18.2.8-.119.038-.238.075-.357.114a102.493 102.493 0 0 0 -30.209 15.974 179.708 179.708 0 0 0 -16.393 13.945c-3.3 3.162-8.834 8.322-12.114 11.5-5.99 5.811-23.574 23.821-23.574 23.821zm-59.319 226.346c-2.324.946-27.385 10.357-52.93-1.146-21.628-9.738-36.966-31.572-40.017-54.974-.221-2.521-.409-5.049-.536-7.592a62.971 62.971 0 0 1 .26-7.226c-.172.052-.322.128-.483.191-.022-1.374-.043-2.749-.037-4.129-.851-68.084 32.192-129.995 83.044-169.459.273-.166.545-.345.818-.509 9.409-5.6 30.361-18.087 39.508-10.763 4.118 3.3 4.413 9.465 4.6 13.382.543 11.373-5.529 20.172-8.782 24.674-15.587 21.568-33.88 37.771-41.04 44.049-24.133 21.164-26.491 22.854-35.51 32.453-9.767 10.395-18.19 24.422-18.31 39.194-.128 15.657 10.709 27.984 23.8 35.242 10.929 6.058 24.3 9.322 36.734 6.959 24.264-4.612 36.5-35.1 46.629-54.551 22.476-43.185 48.917-84.827 83.425-119.169 7.366-7.331 15.346-14.476 25.092-18.087a41.8 41.8 0 0 1 40.429 6.924c8.005 6.66 13.419 17.139 11.823 27.43a35.539 35.539 0 0 1 -8.968 18.058c-26.566 29.327-79.131 78.246-92.28 90.829a445.522 445.522 0 0 0 -32.67 34.331c-37.076 43.479-39.5 63.672-64.599 73.889zm206.248-47.224c-6.261 0-11.164-5.255-11.164-11.963s4.886-11.763 11.364-11.763a10.047 10.047 0 0 1 8.008 3.7 13 13 0 0 1 2.792 8.166c.002 6.765-4.729 11.865-10.998 11.865zm124.46-19.754c-.009.255-.009.511-.02.766q-.031 1.167-.076 2.324c-.284 5.306-.829 10.553-1.513 15.763l-.009.056c-3.422 18.733-15.163 37.134-28.888 52.019-8.678 9.412-25.938 15.239-39.7 13.808-14.984-1.558-24.3-20.752-27.053-33.679-3.677-17.264-2.358-32.025-10.153-50.086a38.78 38.78 0 0 0 -6.654-9.886c-9.354-9.588-19.582-12.357-34.118-9.981-19.06 3.117-34.695 13.453-39.254 17.9-5.706 5.57-12.688 12.445-12.241 21.094.416 8.07 7.025 12.133 15.8 20.681 5.133 5 25.465 24.794 31.329 48.435 2.915 11.754 1.577 21.728-.66 38.4-1.319 9.823-4.407 19.419-5.019 29.333-.51 8.269.685 17.252 5.788 24.046 4.1 5.463 9.886 8.029 16.194 8.716a213.976 213.976 0 0 1 -145.179 2.436 28.02 28.02 0 0 0 12.926-4.909c5.307-3.856 8.881-9.694 11.288-15.8 5.532-14.023 5.449-29.527 5.647-44.6.112-8.586.8-17.159.839-25.745.217-41.829 3.159-92.313 35.547-122.837a95.4 95.4 0 0 1 32.2-19.924c12.836-4.757 26.268-6.808 38.886-12.446 11.479-5.129 22.67-10.608 33-17.915 19.5-13.792 35.072-32.744 42.453-55.655a107.8 107.8 0 0 0 4.367-20.091 47.953 47.953 0 0 0 .062-13.525c35.8 34.861 59.612 81.96 63.781 133.506.312 7.974.665 18.123.43 27.801zm-155.615 11.628c-.174-.385-.27-.532-.575-.556-.36-.034-.957-.034-1.649-.034h-3.359a9.593 9.593 0 0 0 -1.554.063c-.212.048-.379.085-.6.65-.4.93-1.4 4.039-1.658 4.907a2.942 2.942 0 0 0 -.193.911c0 .417.127.47.909.613.548.1 1.021.18 1.021.651 0 .223-.1.488-.588.488h-5.555c-.513 0-.62-.265-.62-.488a.723.723 0 0 1 .517-.65 2.37 2.37 0 0 1 .46-.054 3.538 3.538 0 0 0 .629-.078c1.03-.256 1.551-1.678 1.831-2.441 3.24-8.742 4.07-10.977 4.789-12.844l1.565-4.024c.162-.393.376-1.006.517-1.413.064-.184.117-.334.147-.416a1.489 1.489 0 0 1 1.54-.819c.636 0 .792.177 1.074.882.383.941 1.246 3.3 2.1 5.729l.21.593c3.4 9.628 4.615 12.706 5.038 13.591.589 1.211 1.079 1.224 2.261 1.257a.616.616 0 0 1 .617.654.494.494 0 0 1 -.554.521h-7.518c-.2 0-.787 0-.787-.488s.69-.6 1.061-.652c.635-.1 1-.286 1-.512a43.632 43.632 0 0 0 -2.076-6.036z"/><path d="m1335.457 3438.145c-.166 0-.314.15-.444.454-.029.079-2.971 8.3-2.971 8.582 0 .521.441.521.654.521h4.988c.084 0 .821-.012.821-.421 0-.5-2.512-8.3-2.638-8.674-.053-.162-.153-.462-.41-.462zm2.228 9.368h-4.985c-.333 0-.466-.066-.466-.331 0-.2 2.694-7.817 2.96-8.515.1-.234.2-.334.267-.334.1 0 .165.133.232.334.266.8 2.627 8.182 2.627 8.614-.004.166-.403.232-.635.232z"/><path d="m1340.246 3456.2c-.466.066-.9.166-.9.464s.4.3.6.3h7.517c.134 0 .367-.033.367-.333a.429.429 0 0 0 -.433-.466c-1.23-.033-1.8-.066-2.428-1.363-1.064-2.228-5.156-13.936-5.255-14.2-.9-2.562-1.731-4.823-2.1-5.722-.266-.665-.366-.764-.9-.764-.665 0-1.131.166-1.365.7-.1.267-.431 1.265-.664 1.83l-1.564 4.024c-.731 1.9-1.6 4.225-4.79 12.84-.365 1-.9 2.295-1.961 2.561-.4.1-.865.066-1.1.134a.541.541 0 0 0 -.366.464c0 .234.166.3.433.3h5.554c.133 0 .4 0 .4-.3s-.3-.365-.865-.464c-.731-.134-1.064-.2-1.064-.8a3.082 3.082 0 0 1 .2-.965c.266-.9 1.263-3.991 1.663-4.922.232-.6.433-.7.731-.765a9.475 9.475 0 0 1 1.6-.068h3.359c.7 0 1.3 0 1.664.033.431.035.565.3.732.666a43.345 43.345 0 0 1 2.1 6.12c-.001.458-.733.624-1.165.696zm-.759-6.9c-.156-.344-.332-.732-.887-.776-.375-.034-.98-.034-1.681-.034h-3.359a9.529 9.529 0 0 0 -1.637.071c-.381.085-.621.244-.864.875-.421.978-1.428 4.123-1.669 4.936a3.248 3.248 0 0 0 -.209 1.025c0 .762.485.85 1.219.985.571.1.71.156.71.279 0 .074 0 .111-.211.111h-5.555c-.243 0-.243-.052-.243-.111a.371.371 0 0 1 .23-.284 2.172 2.172 0 0 1 .395-.044 3.958 3.958 0 0 0 .7-.087c1.224-.306 1.79-1.849 2.094-2.678 3.239-8.74 4.069-10.973 4.788-12.838l1.562-4.019c.165-.4.372-.995.523-1.43.064-.18.114-.327.141-.4.182-.415.528-.584 1.19-.584.426 0 .472.018.724.646.381.937 1.241 3.286 2.094 5.717.013.032.086.243.208.589 2.733 7.744 4.433 12.328 5.055 13.63.69 1.418 1.366 1.436 2.6 1.47a.249.249 0 0 1 .246.277c0 .09-.013.144-.178.144h-7.518c-.19 0-.41-.012-.41-.111s.249-.207.739-.279c.878-.137 1.323-.435 1.323-.885a42.748 42.748 0 0 0 -2.12-6.195z"/><path d="m1370.5 3434.042c-6.287 0-11.176 4.923-11.176 11.576 0 6.486 4.622 11.775 10.975 11.775 6.387 0 10.812-5.322 10.812-11.675-.001-5.888-3.794-11.676-10.611-11.676zm10.422 11.676c0 6.548-4.567 11.486-10.623 11.486s-10.787-5.089-10.787-11.586 4.724-11.387 10.987-11.387c5.178 0 10.422 3.946 10.422 11.487z"/><path d="m1362.926 3444.987a16.4 16.4 0 0 0 1.694 7.644 6.507 6.507 0 0 0 5.878 3.786c4.3 0 6.874-3.962 6.874-10.6 0-4.008-.949-10.734-7.306-10.734-6.445.001-7.14 6.927-7.14 9.904zm14.258.83c0 5.622-1.928 10.412-6.685 10.412-5.39 0-7.385-6.088-7.385-11.243 0-4.025 1.231-9.713 6.952-9.713 6.02 0 7.118 6.287 7.118 10.544z"/></g><g><path d="m1413.027 3456.96a.321.321 0 0 1 -.3-.3c0-.764 2.495-.464 2.495-1a1.377 1.377 0 0 0 -.3-.432c-3.792-4.69-7.085-8.416-7.883-9.18-.233-.234-.333-.3-.532-.3h-.266a.3.3 0 0 0 -.334.333v4.057c0 5.489 0 5.655 1.665 6.055.332.066.565.2.565.464 0 .3-.5.3-.965.3h-6.485a.264.264 0 0 1 -.3-.3c0-.365.366-.431.565-.464 1.3-.234 1.6-.466 1.6-3.659 0-1.6.033-4.258.033-5.888 0-1.8-.033-5.389-.033-7.916 0-2.862-.466-3.16-1.564-3.46-.265-.066-.532-.166-.532-.466s.234-.332.466-.332h6.852c.333 0 .6.033.6.232s-.233.5-.732.632c-1.731.466-1.731.965-1.731 8.915 0 .267.035.466.267.466.166 0 .3-.133.466-.3 3.094-2.927 4.556-4.49 6.586-6.685.666-.7 1.064-1.065 1.064-1.5 0-.9-2-.831-2-1.4 0-.166.134-.365.466-.365h6.287c.2 0 .465.1.465.365 0 .3-.333.4-.565.433-1.031.167-1.3.233-3.06 1.729-2.2 1.9-3.991 3.826-6.12 6.021-.167.2-.432.433-.432.6 0 .066.066.166.366.532 1.7 2.1 7.882 9.347 9.546 10.909a3.791 3.791 0 0 0 1.862 1c.6.234.865.4.865.6 0 .267-.366.3-.565.3z"/><path d="m1421.408 3457.148h-8.381a.507.507 0 0 1 -.488-.488c0-.581.839-.695 1.578-.795a3.115 3.115 0 0 0 .905-.2 3.909 3.909 0 0 0 -.245-.314c-3.623-4.48-7.024-8.356-7.868-9.164-.224-.224-.279-.248-.4-.248h-.267c-.112 0-.145.032-.145.145v4.057c0 5.506.03 5.513 1.52 5.87.469.1.71.314.71.649 0 .488-.639.488-1.153.488h-6.487a.448.448 0 0 1 -.488-.488c0-.529.525-.617.723-.651 1.133-.2 1.439-.258 1.439-3.472 0-.794.008-1.853.015-2.917s.018-2.152.018-2.97-.007-2.019-.015-3.319c-.009-1.542-.018-3.227-.018-4.6 0-2.887-.476-3.017-1.425-3.277-.2-.05-.671-.168-.671-.648 0-.345.22-.52.655-.52h6.853c.255 0 .786 0 .786.421 0 .28-.273.654-.871.814-1.545.416-1.591.661-1.591 8.732 0 .278.042.278.078.278.089 0 .2-.114.333-.245 3.069-2.9 4.5-4.43 6.58-6.68l.193-.2c.512-.534.821-.854.821-1.168 0-.364-.552-.542-1.039-.7s-.957-.309-.957-.7a.587.587 0 0 1 .655-.553h6.286a.594.594 0 0 1 .655.553c0 .329-.265.555-.727.62-.975.158-1.208.2-2.965 1.686-1.854 1.6-3.46 3.266-5.158 5.027l-.947.981c-.035.042-.084.1-.134.15a1.3 1.3 0 0 0 -.247.32c.02.04.241.309.324.411 1.795 2.219 7.906 9.366 9.529 10.892a2.83 2.83 0 0 0 1.335.8c.137.045.289.095.464.161.641.25.988.447.988.775-.001.145-.074.487-.756.487zm-15.167-11.586h.267a.859.859 0 0 1 .665.356c.83.795 4.123 4.527 7.9 9.194.257.3.342.429.342.552 0 .407-.575.484-1.241.575-.5.067-1.254.17-1.254.421a.14.14 0 0 0 .112.111h8.381c.182 0 .378-.034.378-.111 0-.04-.073-.16-.746-.423-.168-.062-.314-.111-.447-.155a3.136 3.136 0 0 1 -1.476-.882c-1.633-1.532-7.763-8.7-9.562-10.927-.327-.4-.408-.515-.408-.651a.979.979 0 0 1 .345-.573c.045-.05.091-.1.13-.147l.957-.99c1.705-1.768 3.315-3.438 5.184-5.053 1.777-1.507 2.069-1.6 3.154-1.772.155-.022.407-.083.407-.247s-.266-.176-.278-.176h-6.286c-.2 0-.278.095-.278.176 0 .113.436.255.7.339.579.187 1.3.421 1.3 1.059 0 .465-.348.829-.926 1.429l-.189.2c-2.084 2.254-3.52 3.784-6.592 6.691a.884.884 0 0 1 -.6.352c-.454 0-.454-.475-.454-.654 0-7.944 0-8.593 1.869-9.1.418-.111.593-.347.593-.449a1.023 1.023 0 0 0 -.41-.044h-6.853c-.278 0-.278.054-.278.143 0 .117.064.2.389.282 1.215.333 1.707.755 1.707 3.643 0 1.371.01 3.055.018 4.6.009 1.3.014 2.5.014 3.321s-.008 1.9-.016 2.974-.016 2.119-.016 2.913c0 3.225-.309 3.586-1.751 3.844-.308.051-.411.122-.411.279 0 .1.014.111.111.111h6.487c.213 0 .776 0 .776-.111 0-.054 0-.195-.415-.28-1.814-.435-1.814-.763-1.814-6.239v-4.057a.483.483 0 0 1 .515-.524z"/></g><g><path d="m1437.525 3456.96c-.233 0-.532-.033-.532-.333 0-.265.3-.365.664-.431 1.9-.4 1.93-1.165 1.963-3.061 0-.865.034-1.83.034-3.858 0-2.861-.034-3.226-.266-3.893a12.536 12.536 0 0 0 -1.464-2.294c-1.729-2.5-2.894-4.158-4.058-5.722-1-1.329-1.463-1.862-2.661-2.161-.365-.1-.8-.1-.8-.433 0-.232.232-.3.433-.3h7.749c.267 0 .433.033.433.266 0 .1-.034.3-.367.432-.3.133-.93.2-1.23.3a.565.565 0 0 0 -.4.5 3.841 3.841 0 0 0 .667 1.463c.365.565 2.593 3.692 4.357 6.121.166.232.266.265.332.265.167 0 .266-.1.433-.365 1.7-2.462 2.2-3.193 4.623-6.885a1.459 1.459 0 0 0 .233-.7c0-.365-.433-.565-.831-.6l-.866-.066c-.265-.034-.432-.166-.432-.367 0-.232.3-.365.565-.365h5.721c.233 0 .333.067.333.3 0 .4-.266.466-.6.466-1.265.033-1.83.665-2.628 1.7-.466.6-5.456 7.185-5.787 8.15a29.761 29.761 0 0 0 -.168 4.856c0 1.1 0 2.2.068 3.326.1 1.863.232 2.528 1.862 2.893.2.035.7.167.7.466a.342.342 0 0 1 -.365.333z"/><path d="m1445.242 3457.148h-7.717c-.6 0-.721-.282-.721-.521 0-.466.553-.568.82-.618 1.763-.371 1.775-1 1.808-2.877 0-.34.005-.7.011-1.13.009-.662.022-1.5.022-2.725 0-2.89-.036-3.2-.255-3.831a6.445 6.445 0 0 0 -.873-1.437c-.165-.234-.353-.5-.568-.813-1.8-2.6-2.924-4.2-4.055-5.714-1.013-1.351-1.435-1.811-2.555-2.092-.078-.022-.154-.037-.23-.053-.3-.062-.71-.148-.71-.563 0-.3.243-.487.62-.487h7.749c.186 0 .622 0 .622.453a.65.65 0 0 1 -.484.608 3.916 3.916 0 0 1 -.75.192 4.467 4.467 0 0 0 -.492.112.385.385 0 0 0 -.269.321 3.41 3.41 0 0 0 .636 1.36c.348.539 2.544 3.624 4.35 6.112.124.171.179.187.181.187.059 0 .111-.02.272-.275 1.694-2.46 2.185-3.18 4.625-6.889a1.278 1.278 0 0 0 .2-.6c0-.231-.339-.384-.658-.41l-.863-.066c-.378-.048-.607-.26-.607-.555 0-.346.382-.553.753-.553h5.722a.45.45 0 0 1 .521.487c0 .655-.592.655-.788.655-1.187.031-1.715.637-2.477 1.622-.792 1.02-5.454 7.207-5.758 8.1a32.347 32.347 0 0 0 -.159 4.794c0 1.076 0 2.189.068 3.314.1 1.8.2 2.381 1.714 2.722.134.022.847.166.847.649a.526.526 0 0 1 -.552.521zm-14.4-22.484c-.073 0-.244.011-.244.11s.082.124.411.193c.082.018.167.035.248.057 1.286.322 1.777.917 2.762 2.232 1.135 1.523 2.259 3.124 4.063 5.725.215.314.4.578.566.809a6.667 6.667 0 0 1 .92 1.529c.249.712.277 1.119.277 3.958 0 1.229-.012 2.067-.021 2.73-.006.431-.012.788-.012 1.128-.033 1.873-.05 2.811-2.113 3.245-.457.085-.515.176-.515.247s0 .144.344.144h7.717c.085 0 .177-.045.177-.144s-.253-.231-.542-.28c-1.8-.4-1.92-1.232-2.019-3.069-.067-1.135-.067-2.254-.067-3.336a27.579 27.579 0 0 1 .177-4.915c.36-1.052 5.764-8.137 5.818-8.207.832-1.078 1.434-1.734 2.771-1.768.374 0 .415-.09.415-.278a.181.181 0 0 0 -.014-.093.285.285 0 0 0 -.13-.017h-5.722c-.189 0-.377.088-.377.176 0 .131.188.169.268.179l.855.066c.485.039 1.006.3 1.006.786a1.635 1.635 0 0 1 -.263.8c-2.442 3.713-2.934 4.433-4.625 6.889-.151.24-.3.445-.59.445-.165 0-.315-.106-.484-.344-1.843-2.538-4-5.573-4.362-6.128a3.743 3.743 0 0 1 -.7-1.564.736.736 0 0 1 .512-.673 4.469 4.469 0 0 1 .554-.131 3.867 3.867 0 0 0 .675-.168c.255-.1.255-.221.255-.261a.1.1 0 0 0 -.007-.047c-.01-.008-.053-.029-.239-.029z"/></g><g><path d="m1484.108 3434.475c.6 0 .965.2.965.433 0 .265-.565.4-.766.431-1.429.3-1.5.932-1.5 2.727 0 1.3.034 4.624.034 6.72 0 2.928-.067 4.922-.865 6.952a8.831 8.831 0 0 1 -8.481 5.655 8.344 8.344 0 0 1 -7.451-4.125 13.733 13.733 0 0 1 -1.6-7.351c0-3.891.133-6.652.133-8.05 0-2.195-.333-2.361-1.862-2.627-.2-.033-.532-.1-.532-.4 0-.265.2-.365.431-.365h6.952c.366 0 .7.166.7.4 0 .267-.466.234-.965.367-1.1.3-1.23 1-1.33 2.261-.1 1.331-.133 3.16-.133 5.023 0 5.588.3 7.518.5 8.482.6 2.861 2.294 5.289 5.588 5.289a4.612 4.612 0 0 0 4.556-3.127 18.9 18.9 0 0 0 1.032-5.854c.033-1.663.033-3.293.033-3.359 0-.633 0-1.364-.067-5.988 0-1.064-.033-2.129-1-2.527a4.242 4.242 0 0 0 -.965-.2c-.232-.033-.4-.1-.4-.332 0-.333.332-.433.765-.433z"/><path d="m1473.5 3457.581a8.56 8.56 0 0 1 -7.612-4.215 14 14 0 0 1 -1.622-7.45c0-2.435.052-4.45.09-5.92.023-.893.042-1.606.042-2.129 0-2.143-.294-2.194-1.706-2.441-.17-.029-.688-.116-.688-.586a.551.551 0 0 1 .619-.553h6.952c.507 0 .888.251.888.586s-.354.408-.695.466c-.127.022-.267.045-.41.084-.952.259-1.089.808-1.19 2.094-.088 1.162-.134 2.846-.134 5.007a43.284 43.284 0 0 0 .5 8.444c.4 1.919 1.638 5.139 5.4 5.139a4.421 4.421 0 0 0 4.381-3.01 19.058 19.058 0 0 0 1.017-5.789c.033-1.612.034-3.179.034-3.353 0-.639 0-1.363-.067-5.986 0-1.129-.065-2.018-.882-2.354a3.176 3.176 0 0 0 -.753-.163l-.167-.025c-.153-.022-.559-.081-.559-.519 0-.284.165-.621.953-.621h6.22c.691 0 1.153.249 1.153.621 0 .417-.645.571-.923.617-1.281.27-1.339.787-1.339 2.541 0 .572.007 1.537.014 2.617.01 1.372.019 2.929.019 4.1 0 2.894-.061 4.945-.877 7.022a9.009 9.009 0 0 1 -8.658 5.776zm-10.877-22.917c-.243 0-.243.119-.243.176 0 .091.064.162.376.214 1.663.29 2.019.564 2.019 2.813 0 .525-.019 1.242-.042 2.138-.038 1.47-.091 3.481-.091 5.911a13.655 13.655 0 0 0 1.57 7.254 8.192 8.192 0 0 0 7.288 4.034 8.644 8.644 0 0 0 8.307-5.536c.792-2.013.851-4.032.851-6.883 0-1.171-.01-2.728-.02-4.1-.007-1.081-.012-2.047-.012-2.619 0-1.779.066-2.58 1.646-2.912a1.033 1.033 0 0 0 .616-.247c0-.069-.232-.243-.777-.243h-6.22c-.577 0-.577.178-.577.244s0 .111.238.145l.167.026a3.334 3.334 0 0 1 .846.188c1.11.458 1.11 1.7 1.11 2.7.068 4.623.068 5.349.068 5.989 0 .175 0 1.745-.034 3.362a18.8 18.8 0 0 1 -1.044 5.922 4.825 4.825 0 0 1 -4.731 3.244c-2.946 0-5.051-1.982-5.774-5.438a43.7 43.7 0 0 1 -.5-8.521c0-2.17.044-3.865.133-5.037.1-1.29.253-2.1 1.468-2.429.156-.042.307-.068.445-.091a1.231 1.231 0 0 0 .386-.1c0-.076-.224-.2-.515-.2z"/></g></g></svg>