<svg height="111.641" viewBox="0 0 111.641 111.641" width="111.641" xmlns="http://www.w3.org/2000/svg"><path d="m0 0h111.641v111.641h-111.641z" fill="#c9c9c9"/><g transform="translate(-9237.928 -2954.997)"><path d="m9292.73 3017.962a11.487 11.487 0 0 1 -1.7.112c-1.84 0-2.529-.465-3.041-1.857l-.353-.945c-2.881-.208-4.8-2.5-4.8-6.354 0-4.1 2.162-6.435 5.33-6.435 3.186 0 5.315 2.305 5.315 6.4 0 3.441-1.521 5.667-3.858 6.226l.208.609c.241.608.609.848 1.553.848a7.694 7.694 0 0 0 1.57-.175zm-7.6-9.06c0 3.154 1.217 4.77 3.041 4.77s3.026-1.616 3.026-4.77c0-3.185-1.2-4.738-3.026-4.738s-3.045 1.553-3.045 4.736z"/><path d="m9300.232 3002.708c3.024 0 4.4 1.216 4.4 3.377a3.15 3.15 0 0 1 -2.465 3.153l2.866 5.891h-2.322l-2.512-5.57c-.177 0-.354.015-.562.015h-1.761v5.555h-2.112v-12.421zm-2.354 5.266h2.161c1.7 0 2.433-.7 2.433-1.857 0-1.1-.624-1.793-2.337-1.793h-2.257z"/></g></svg>