<svg height="190.659" viewBox="0 0 554.223 190.659" width="554.223" xmlns="http://www.w3.org/2000/svg"><g fill="#004272" stroke="#004272" stroke-linecap="round" stroke-linejoin="round" stroke-width="2" transform="translate(-9154.155 -3257.924)"><path d="m9267.858 3441.06c-21.36-8.753-60.518-50.38-69.789-61.044l-.466-.672a1.8 1.8 0 0 1 1.575-1.886l.542-.077a57.978 57.978 0 0 0 19.034.23c28.2-4.032 57.771-25.6 64.094-49.749a35.742 35.742 0 0 0 .929-12.861c-2.585-18.077-25.028-21.51-49.252-18.047-30.913 4.42-64.434 20.281-62.753 32.032a5.77 5.77 0 0 0 1.137 2.789c5.166 7.747 18.88 8.185 20.947 22.647.567 3.977.337 8.807-1.136 15.29l26.6-51.4a1.132 1.132 0 0 1 .98-.878 1.639 1.639 0 0 1 1.861 1.394l-.053.93-43.43 84.61c-8.932 17.512-16.705 32.827-20.731 42.073a1.508 1.508 0 0 1 -1.318 1.112 1.415 1.415 0 0 1 -1.471-1.266l.23-.956c4.286-10.021 12.549-27.067 22.181-46.153 11.308-22.831 14.251-35.8 13.088-43.932-1.888-13.2-14.646-13.4-20.25-21.64a9.586 9.586 0 0 1 -1.68-4c-2.042-14.281 32.435-31.2 64.793-35.828 26.031-3.722 50.618.51 53.487 20.576a37.1 37.1 0 0 1 -1.083 14.36c-6.685 25.492-37.416 47.964-66.7 52.151a62.286 62.286 0 0 1 -15.624.389c11.158 12.241 45.977 49.323 65.372 57.248a1.586 1.586 0 0 1 .9 1.162 1.249 1.249 0 0 1 -1.084 1.447z"/><path d="m9264.139 3412.444a7.584 7.584 0 0 1 -4.184-6.043 18.167 18.167 0 0 1 -.052-2.944c.437-9.84 7.384-19.318 15.491-24.536a21.776 21.776 0 0 1 7.31-3.074c1.989-.284 3.693.025 4.674 1.729a5.4 5.4 0 0 1 .62 1.757c.621 4.338-6.042 9.35-12.188 10.229a9.094 9.094 0 0 1 -6.431-1.11c-3.254 4.338-6.946 12.061-6.221 17.123a5.263 5.263 0 0 0 2.607 4.054c1.421.9 3.279 1.007 5.449.7l.724-.1c15.365-2.2 49.529-32.91 50.434-33.038a1.387 1.387 0 0 1 .956.233 1.271 1.271 0 0 1 .465.671c.052.361-.078.748-.749 1.214-8.212 7.076-35.842 31.874-51.931 34.174a11.409 11.409 0 0 1 -6.974-1.039zm20.813-32.491c-.517-1.033-.93-1.343-2.376-1.136-3.436.491-9.865 5.838-10.976 7.1a5.8 5.8 0 0 0 3.771.568c4.338-.618 9.865-4.544 9.58-6.532z"/><path d="m9309.464 3401.721a18.082 18.082 0 0 1 -.051-2.945c.979-12.5 17.971-29.133 27.009-30.425a5.845 5.845 0 0 1 2.61.179 3.46 3.46 0 0 1 2.607 2.764c.311 2.17-.93 5.113-2.427 7.542a1.569 1.569 0 0 1 -1.007.7 1.963 1.963 0 0 1 -2.067-1.549l.233-.956c1.213-1.834 2.2-4 2.064-4.906-.024-.182-.258-.517-.438-.491a2.717 2.717 0 0 0 -1.291 0c-6.327.905-23.19 15.86-24.118 27.43l.077 1.834c.388 2.711 2.739 3.667 6.354 3.15 15.548-2.223 54.954-31.1 58.726-34.406a1.338 1.338 0 0 1 1.032-.518c.36-.052.543-.078.774.259.206.154.413.309.439.49a1.372 1.372 0 0 1 -.724 1.4c-4.7 4.546-42.866 33.062-60.764 35.621-4.88.689-8.391-.654-9.038-5.173z"/><path d="m9390.275 3396.623a5.417 5.417 0 0 1 -3.229-4.519c-.981-6.87 6.352-18.8 5.705-23.322a3.452 3.452 0 0 0 -.569-1.394l-4.209-3.641c-2.093 2.144-5.294 4.262-8.548 7.311-1.858 1.187-2.092-.44-2.092-.44a1.9 1.9 0 0 1 .723-1.4c3.436-3.074 5.811-5.812 8.058-8.161l-.077-.543c-.492-3.435 4.724-8.239 7.075-8.575 1.265-.18 1.911.464 2.014 1.188a6.05 6.05 0 0 1 -1.006 3.28 36.355 36.355 0 0 1 -3.9 4.984l4.417 3.8a4.975 4.975 0 0 1 1.138 2.789c.9 6.328-6.43 18.26-5.681 23.5a2.478 2.478 0 0 0 1.6 2.17 3.674 3.674 0 0 0 2.065.257c10.486-1.5 41.5-28.438 47.257-33.32a2.589 2.589 0 0 1 1.033-.517c.362-.052.725-.1.956.233.413.309.542 1.213-.284 1.885-7.2 6.379-36.436 32.88-49.091 34.69a6.253 6.253 0 0 1 -3.355-.255z"/><path d="m9460.109 3384.424a4.193 4.193 0 0 1 -2.738-3.666c-.595-4.158 1.781-10.77 3.562-15.083-2.736 2.789-17.353 19.267-25.126 20.38a3.834 3.834 0 0 1 -3.926-1.653 9.219 9.219 0 0 1 -.672-2.118c-1.059-7.411 9.321-21.255 12.419-25.388a1.583 1.583 0 0 1 1.008-.7 1.8 1.8 0 0 1 1.886 1.575 1.58 1.58 0 0 1 -.388 1.164c-5.474 6.87-12.394 17.82-11.722 22.521l.1.723c.284.7.854.8 1.575.7 5.966-.854 27.942-23.918 29.233-26.5a1.341 1.341 0 0 1 1.032-.517 1.636 1.636 0 0 1 1.858 1.395l-.23.955c-.854 1.782-8.057 15.91-7.308 21.152a2.1 2.1 0 0 0 1.369 1.833 3.548 3.548 0 0 0 1.472-.024c9.221-1.318 38.686-27.484 41.139-29.68a1.788 1.788 0 0 1 1.031-.516 1.068 1.068 0 0 1 .956.232l.259.517a1.447 1.447 0 0 1 -.724 1.394c-6.352 5.889-32.459 29.73-43.668 31.332a9.224 9.224 0 0 1 -2.397-.028z"/><path d="m9497.763 3379.41a6.222 6.222 0 0 1 -2.247-4.106c-1.164-8.135 8.235-22.393 11.929-27.533a1.574 1.574 0 0 1 1.007-.7 1.963 1.963 0 0 1 2.065 1.549 1.572 1.572 0 0 1 -.387 1.163c-3.28 4.158-12.446 18.751-11.566 24.9a3.47 3.47 0 0 0 1.239 2.22 5.214 5.214 0 0 0 3.2.465c12.474-1.783 48.5-28.517 54.8-33.476a7.067 7.067 0 0 1 1.033-.518c.362-.052.749.077.776.259l.465.671c.051.361-.258.774-.749 1.214-1.627 1.523-40 32.468-56.09 34.768-2.35.338-4.238.053-5.475-.876zm18.849-41.066-.1-.723c.671-4.339 4.26-10.2 8.6-10.821l.36-.052a1.6 1.6 0 0 1 1.68 1.42 1.63 1.63 0 0 1 -1.395 1.859l-.542.077c-2.531.363-5.914 5.089-6.636 7.775-.233.956-.724 1.394-1.085 1.446-.547.075-.78-.258-.883-.981z"/><path d="m9558.66 3369.228a10.328 10.328 0 0 1 -3.979-7.18c-.672-4.7.49-10.77 2.865-17.381l.542-1.369c7-19.448 19.934-38.639 31.656-55.994-22.391 4.676-44.266 9.095-61.205 14.469l-.543.078a1.222 1.222 0 0 1 -1.42-.905 1.411 1.411 0 0 1 1.264-1.47c18-5.71 40.83-11.189 64.667-16.073.671-.465 15.855-23.3 23.81-24.434a3.28 3.28 0 0 1 2.891.878 3.07 3.07 0 0 1 .8 1.73c.491 3.435-3.537 10.1-9.012 18.26 23.889-4.523 47.494-8.45 67.018-11.242 10.666-1.525 19.911-2.662 27.529-3.568 1.085-.155 1.705.31 1.809 1.034a1.482 1.482 0 0 1 -1.445 1.5c-5.27.568-11.235 1.42-17.923 2.378-21.874 3.126-50.876 8.012-79.595 13.593-12.085 17.408-30.418 40.138-40.617 52.665l-7.515 9.375c-2.271 6.043-3.355 11.365-2.761 15.522a7.986 7.986 0 0 0 3 5.474c2.065 1.549 5.268 2.015 8.7 1.524 17.9-2.56 49.065-27.124 57.459-34.228l.7-.283a2.59 2.59 0 0 1 1.138.207l.284.7a1.579 1.579 0 0 1 -.389 1.164c-8.029 7.05-39.225 32.725-58.93 35.542-4.341.615-8.112.047-10.798-1.966zm45.442-84.715-9.864 1.963c-10.69 15.548-21.2 31.072-29.437 48.3 9.865-12.297 27.269-33.786 39.299-50.263zm2.943-3.926c.156-.207 10.613-14.8 10.148-18.055l-.259-.515c-.207-.156-.388-.129-.749-.078-4.157.595-18.1 19.191-19.006 20.612z"/></g></svg>